<?xml version="1.0" encoding="utf-8"?>
<!-- Generator: Adobe Illustrator 16.0.0, SVG Export Plug-In . SVG Version: 6.00 Build 0)  -->
<!DOCTYPE svg PUBLIC "-//W3C//DTD SVG 1.1//EN" "http://www.w3.org/Graphics/SVG/1.1/DTD/svg11.dtd">
<svg version="1.1" id="图层_1" xmlns="http://www.w3.org/2000/svg" xmlns:xlink="http://www.w3.org/1999/xlink" x="0px" y="0px"
	 width="20px" height="20px" viewBox="0 0 20 20" enable-background="new 0 0 20 20" xml:space="preserve">
<path fill="#FFFFFF" d="M15.397,3.563c0.2-0.196,0.351-0.417,0.451-0.662c0.101-0.245,0.15-0.497,0.15-0.756s-0.05-0.514-0.15-0.766
	s-0.251-0.476-0.451-0.672c-0.401-0.392-0.882-0.587-1.441-0.587c-0.559,0-1.04,0.195-1.44,0.587L4.541,8.562
	c-0.202,0.168-0.344,0.381-0.43,0.64c-0.086,0.259-0.122,0.529-0.107,0.809c0.014,0.28,0.078,0.556,0.193,0.829
	c0.114,0.273,0.271,0.508,0.472,0.703l7.847,7.729c0.401,0.408,0.882,0.609,1.44,0.609c0.56,0,1.04-0.201,1.441-0.609
	c0.2-0.195,0.351-0.416,0.451-0.66c0.101-0.246,0.15-0.498,0.15-0.756c0-0.26-0.05-0.516-0.15-0.768s-0.251-0.477-0.451-0.672
	L8.905,9.99L15.397,3.563z M15.397,3.563"/>
</svg>
