<?xml version="1.0" encoding="utf-8"?>
<!-- Generator: Adobe Illustrator 16.0.0, SVG Export Plug-In . SVG Version: 6.00 Build 0)  -->
<!DOCTYPE svg PUBLIC "-//W3C//DTD SVG 1.1//EN" "http://www.w3.org/Graphics/SVG/1.1/DTD/svg11.dtd">
<svg version="1.1" id="图层_1" xmlns="http://www.w3.org/2000/svg" xmlns:xlink="http://www.w3.org/1999/xlink" x="0px" y="0px"
	 width="20px" height="20px" viewBox="0 0 20 20" enable-background="new 0 0 20 20" xml:space="preserve">
<path fill="#7F8080" d="M11.096,9.99l-6.493,6.426c-0.2,0.195-0.351,0.42-0.451,0.672s-0.15,0.508-0.15,0.768
	c0,0.258,0.05,0.51,0.15,0.756c0.101,0.244,0.251,0.465,0.451,0.66c0.401,0.408,0.882,0.609,1.441,0.609
	c0.559,0,1.039-0.201,1.44-0.609l7.847-7.729c0.2-0.195,0.358-0.43,0.472-0.703c0.115-0.273,0.18-0.549,0.193-0.829
	c0.016-0.28-0.021-0.549-0.107-0.809c-0.086-0.259-0.229-0.472-0.43-0.64L7.484,0.707c-0.4-0.392-0.882-0.587-1.44-0.587
	c-0.56,0-1.04,0.195-1.441,0.587c-0.2,0.197-0.351,0.42-0.451,0.672s-0.15,0.507-0.15,0.766s0.05,0.512,0.15,0.756
	c0.101,0.245,0.251,0.466,0.451,0.662L11.096,9.99z M4.603,3.563"/>
</svg>
