<?xml version="1.0" encoding="utf-8"?>
<!-- Generator: Adobe Illustrator 16.0.0, SVG Export Plug-In . SVG Version: 6.00 Build 0)  -->
<!DOCTYPE svg PUBLIC "-//W3C//DTD SVG 1.1//EN" "http://www.w3.org/Graphics/SVG/1.1/DTD/svg11.dtd">
<svg version="1.1" id="图层_1" xmlns="http://www.w3.org/2000/svg" xmlns:xlink="http://www.w3.org/1999/xlink" x="0px" y="0px"
	 width="20px" height="20px" viewBox="0 0 20 20" enable-background="new 0 0 20 20" xml:space="preserve">
<g>
	<g>
		<path fill="#FFFFFF" d="M10.699,15.787c0,0.315,0.266,0.572,0.593,0.572h7.563c0.327,0,0.594-0.257,0.594-0.572
			s-0.267-0.572-0.594-0.572h-7.566C10.964,15.215,10.699,15.472,10.699,15.787z M8.136,16.21l0.034-0.034
			c0.004-0.004,0.009-0.008,0.014-0.011l0.003-0.003l7.987-7.675l1.487-1.43c0.644-0.618,0.997-1.44,0.997-2.314
			c0-0.872-0.354-1.694-0.997-2.314l-0.44-0.423c-0.643-0.617-1.496-0.957-2.404-0.957c-0.907,0-1.761,0.34-2.405,0.957L2.938,11.11
			c-0.006,0.006-0.013,0.014-0.02,0.021c-0.004,0.005-0.008,0.009-0.012,0.014c-0.002,0.001-0.005,0.003-0.008,0.004l-0.008,0.006
			l-0.007,0.006c-0.017,0.018-0.031,0.034-0.043,0.048c-0.005,0.006-0.009,0.012-0.014,0.018l-0.001,0.001
			c-0.008,0.008-0.015,0.016-0.021,0.024c-1.173,1.418-2.2,6.53-2.244,6.748c-0.038,0.189,0.029,0.391,0.175,0.524
			c0.111,0.1,0.255,0.155,0.406,0.155c0.042,0,0.086-0.005,0.136-0.015l0.004-0.001c0.901-0.213,5.46-1.329,6.786-2.4
			C8.088,16.25,8.111,16.233,8.136,16.21z M13.087,2.969L13.087,2.969l0.161-0.154c0.418-0.403,0.975-0.625,1.568-0.625
			c0.593,0,1.149,0.222,1.566,0.625l0.441,0.425c0.418,0.403,0.647,0.938,0.647,1.505c0,0.568-0.229,1.102-0.647,1.505l-1.071,1.031
			L12.18,3.84L13.087,2.969z M1.915,17.328c0.384-1.697,0.962-3.789,1.495-4.854l3.37,3.238C5.697,16.257,3.605,16.892,1.915,17.328
			z M4.143,11.565l7.199-6.918l3.573,3.436l-7.199,6.918L4.143,11.565z M18.855,17.807H7.696c-0.327,0-0.593,0.257-0.593,0.572
			s0.266,0.572,0.593,0.572h11.16c0.327,0,0.594-0.257,0.594-0.572S19.183,17.807,18.855,17.807z"/>
	</g>
</g>
</svg>
