<?xml version="1.0" encoding="utf-8"?>
<!-- Generator: Adobe Illustrator 16.0.0, SVG Export Plug-In . SVG Version: 6.00 Build 0)  -->
<!DOCTYPE svg PUBLIC "-//W3C//DTD SVG 1.1//EN" "http://www.w3.org/Graphics/SVG/1.1/DTD/svg11.dtd">
<svg version="1.1" id="图层_1" xmlns="http://www.w3.org/2000/svg" xmlns:xlink="http://www.w3.org/1999/xlink" x="0px" y="0px"
	 width="20px" height="20px" viewBox="0 0 20 20" enable-background="new 0 0 20 20" xml:space="preserve">
<g>
	<g>
		<path fill="#FFFFFF" d="M12.524,12.124c0.263,0,0.494-0.176,0.563-0.43c0.079-0.269-0.033-0.548-0.256-0.688
			c0.812-0.441,1.5-1.089,2.001-1.886c0.562-0.893,0.856-1.929,0.856-2.998c0-3.04-2.383-5.514-5.31-5.514
			c-2.924,0-5.303,2.474-5.303,5.514c0,1.07,0.296,2.108,0.857,3.001c0.499,0.794,1.18,1.438,1.984,1.876
			c-1.427,0.467-2.758,1.338-3.864,2.531c-1.184,1.277-2.091,2.903-2.621,4.704c-0.046,0.151-0.03,0.314,0.044,0.455
			c0.076,0.143,0.2,0.246,0.352,0.294c0.056,0.019,0.114,0.028,0.173,0.028c0.257,0,0.488-0.178,0.562-0.432
			c1.201-4.054,4.341-6.777,7.815-6.777c0.665,0,1.328,0.101,1.973,0.297C12.409,12.116,12.467,12.124,12.524,12.124z
			 M10.379,10.434c-2.274,0-4.124-1.935-4.124-4.312c0-2.377,1.85-4.311,4.124-4.311c2.278,0,4.13,1.934,4.13,4.311
			c0.001,1.15-0.43,2.232-1.211,3.048C12.515,9.985,11.479,10.434,10.379,10.434z M18.531,15.855l-3.055-3.212
			c-0.021-0.021-0.055-0.03-0.084-0.018c-0.03,0.013-0.049,0.039-0.049,0.068v2.076l-3.486-0.006c-0.059,0-0.117,0.022-0.163,0.067
			c-0.046,0.044-0.066,0.1-0.066,0.157v2.032c0,0.058,0.021,0.116,0.066,0.159c0.046,0.044,0.104,0.065,0.163,0.065l3.486-0.004
			v2.076c0,0.029,0.019,0.057,0.049,0.069c0.029,0.012,0.063,0.003,0.084-0.019l3.055-3.211c0.038-0.04,0.062-0.093,0.062-0.152
			C18.593,15.948,18.569,15.895,18.531,15.855z"/>
	</g>
</g>
</svg>
