<?xml version="1.0" encoding="utf-8"?>
<!-- Generator: Adobe Illustrator 16.0.0, SVG Export Plug-In . SVG Version: 6.00 Build 0)  -->
<!DOCTYPE svg PUBLIC "-//W3C//DTD SVG 1.1//EN" "http://www.w3.org/Graphics/SVG/1.1/DTD/svg11.dtd">
<svg version="1.1" id="图层_1" xmlns="http://www.w3.org/2000/svg" xmlns:xlink="http://www.w3.org/1999/xlink" x="0px" y="0px"
	 width="20px" height="20px" viewBox="0 0 20 20" enable-background="new 0 0 20 20" xml:space="preserve">
<g>
	<g>
		<path fill="#FFFFFF" d="M7.861,11.674c-0.275-0.072-0.57,0.008-0.769,0.211l-5.086,4.857v-2.818c0-0.43-0.351-0.775-0.782-0.775
			H1.221c-0.432,0-0.782,0.346-0.782,0.775v4.639c0,0.408,0.318,0.742,0.723,0.771c0.028,0.004,0.057,0.006,0.086,0.006h4.708
			c0.432,0,0.782-0.348,0.782-0.775s-0.351-0.775-0.782-0.775H3.164l5.019-4.793c0.21-0.191,0.301-0.48,0.233-0.756
			C8.35,11.965,8.137,11.75,7.861,11.674z M18.778,0.638h-0.002c-0.004,0-0.009,0-0.012,0c-0.004,0-0.009,0-0.012,0h-4.708
			c-0.432,0-0.782,0.347-0.782,0.775s0.351,0.774,0.782,0.774h2.789l-5.018,4.792c-0.211,0.191-0.301,0.48-0.233,0.755
			s0.28,0.492,0.557,0.566c0.274,0.074,0.569-0.006,0.768-0.209l5.087-4.858v2.82c0,0.428,0.351,0.775,0.782,0.775h0.002
			c0.433,0,0.783-0.347,0.783-0.775V1.413C19.562,0.985,19.211,0.638,18.778,0.638z M1.351,6.772c0.208,0,0.407-0.082,0.554-0.227
			C2.052,6.4,2.134,6.202,2.134,5.997V3.236l4.841,4.966C7.167,8.411,7.459,8.5,7.737,8.433c0.277-0.066,0.496-0.277,0.571-0.55
			C8.383,7.61,8.302,7.319,8.097,7.122L3.189,2.087h2.849c0.208,0,0.407-0.082,0.553-0.228C6.738,1.714,6.82,1.518,6.82,1.312V1.31
			c0-0.206-0.082-0.402-0.229-0.548C6.444,0.617,6.245,0.535,6.038,0.535H1.351c-0.432,0-0.782,0.347-0.782,0.775v4.688
			c0,0.205,0.083,0.403,0.229,0.548C0.945,6.69,1.144,6.772,1.351,6.772z M18.675,13.23c-0.432,0-0.783,0.346-0.783,0.773v2.762
			l-4.841-4.967c-0.191-0.209-0.484-0.297-0.762-0.23s-0.497,0.277-0.572,0.551c-0.074,0.271,0.007,0.563,0.213,0.76l4.906,5.035
			h-2.849c-0.432,0-0.782,0.346-0.782,0.773v0.004c0,0.428,0.351,0.773,0.782,0.773h4.688c0.432,0,0.783-0.346,0.783-0.773v-0.004
			c0-0.002-0.002-0.006-0.002-0.01s0.002-0.008,0.002-0.012v-4.66C19.458,13.578,19.106,13.23,18.675,13.23z"/>
	</g>
</g>
</svg>
