<?xml version="1.0" encoding="utf-8"?>
<!-- Generator: Adobe Illustrator 16.0.0, SVG Export Plug-In . SVG Version: 6.00 Build 0)  -->
<!DOCTYPE svg PUBLIC "-//W3C//DTD SVG 1.1//EN" "http://www.w3.org/Graphics/SVG/1.1/DTD/svg11.dtd">
<svg version="1.1" id="图层_1" xmlns="http://www.w3.org/2000/svg" xmlns:xlink="http://www.w3.org/1999/xlink" x="0px" y="0px"
	 width="60px" height="60px" viewBox="0 0 60 60" enable-background="new 0 0 60 60" xml:space="preserve">
<g>
	<g>
		<path fill="#E7E7E7" d="M46.902,21.025c-0.484-5.156-3.018-9.368-7.324-12.181c-3.396-2.218-6.854-3.343-10.273-3.343
			c-1.904-0.001-3.791,0.353-5.566,1.045c-5.775,2.25-9.497,7.618-10.625,11.942c-0.449,1.729,0.583,3.504,2.302,3.957
			c1.722,0.453,3.481-0.583,3.934-2.313c0.71-2.723,3.245-6.187,6.718-7.539c1.053-0.41,2.146-0.619,3.25-0.619
			c2.136,0,4.408,0.776,6.751,2.307c2.672,1.744,4.117,4.149,4.418,7.353c0.52,5.521-2.621,11.651-4.074,13.053
			c-3.617,3.488-6.232,6.008-8.828,10.027c-1.115,1.727-3.545,3.299-5.098,3.299c-0.147,0.003-0.295-0.016-0.437-0.055
			c-0.882-0.259-1.488-2.268-1.511-4.998c-0.014-1.773-1.459-3.215-3.248-3.215c-0.855,0.004-1.673,0.353-2.271,0.967
			c-0.602,0.611-0.934,1.44-0.925,2.301c0.062,7.756,3.377,10.354,6.147,11.168c0.731,0.212,1.49,0.318,2.251,0.316h0.001
			c4.436,0,8.548-3.239,10.494-6.251c2.189-3.39,4.455-5.574,7.883-8.88C43.35,36.978,47.664,29.145,46.902,21.025z M22.516,43.236
			c0.57,0.213,1.17,0.321,1.784,0.321c2.092,0,3.953-1.252,4.991-3.354c0.124-0.211,0.222-0.437,0.292-0.671l0.847-2.871
			l0.011-0.045c0.249-1.064,0.446-1.91,0.93-2.713l1.803-2.398c1.564-1.898,3.33-4.053,3.395-7.223
			c0.072-3.41-1.957-6.647-5.049-8.055c-1.024-0.466-2.094-0.703-3.18-0.703c-1.528,0-3.034,0.486-4.343,1.387
			c-0.207,0.119-0.414,0.277-0.617,0.468c-0.111,0.092-0.221,0.188-0.328,0.286c-0.325,0.3-0.575,0.653-0.748,1.033
			c-1.747,2.625-3.244,7.153-3.973,9.79c-0.039,0.139-0.066,0.279-0.084,0.42c-0.109,0.615-0.376,2.363-0.029,3.193
			c0.824,1.977,1.186,4.421,1.107,5.094C18.989,40.107,20.181,42.365,22.516,43.236z"/>
	</g>
	<g>
		<path fill="none" stroke="#FFFFFF" stroke-width="1.5" stroke-miterlimit="10" d="M46.902,21.025
			c-0.484-5.156-3.018-9.368-7.324-12.181c-3.396-2.218-6.854-3.343-10.273-3.343c-1.904-0.001-3.791,0.353-5.566,1.045
			c-5.775,2.25-9.497,7.618-10.625,11.942c-0.449,1.729,0.583,3.504,2.302,3.957c1.722,0.453,3.481-0.583,3.934-2.313
			c0.71-2.723,3.245-6.187,6.718-7.539c1.053-0.41,2.146-0.619,3.25-0.619c2.136,0,4.408,0.776,6.751,2.307
			c2.672,1.744,4.117,4.149,4.418,7.353c0.52,5.521-2.621,11.651-4.074,13.053c-3.617,3.488-6.232,6.008-8.828,10.027
			c-1.115,1.727-3.545,3.299-5.098,3.299c-0.147,0.003-0.295-0.016-0.437-0.055c-0.882-0.259-1.488-2.268-1.511-4.998
			c-0.014-1.773-1.459-3.215-3.248-3.215c-0.855,0.004-1.673,0.353-2.271,0.967c-0.602,0.611-0.934,1.44-0.925,2.301
			c0.062,7.756,3.377,10.354,6.147,11.168c0.731,0.212,1.49,0.318,2.251,0.316h0.001c4.436,0,8.548-3.239,10.494-6.251
			c2.189-3.39,4.455-5.574,7.883-8.88C43.35,36.978,47.664,29.145,46.902,21.025z M22.516,43.236c0.57,0.213,1.17,0.321,1.784,0.321
			c2.092,0,3.953-1.252,4.991-3.354c0.124-0.211,0.222-0.437,0.292-0.671l0.847-2.871l0.011-0.045
			c0.249-1.064,0.446-1.91,0.93-2.713l1.803-2.398c1.564-1.898,3.33-4.053,3.395-7.223c0.072-3.41-1.957-6.647-5.049-8.055
			c-1.024-0.466-2.094-0.703-3.18-0.703c-1.528,0-3.034,0.486-4.343,1.387c-0.207,0.119-0.414,0.277-0.617,0.468
			c-0.111,0.092-0.221,0.188-0.328,0.286c-0.325,0.3-0.575,0.653-0.748,1.033c-1.747,2.625-3.244,7.153-3.973,9.79
			c-0.039,0.139-0.066,0.279-0.084,0.42c-0.109,0.615-0.376,2.363-0.029,3.193c0.824,1.977,1.186,4.421,1.107,5.094
			C18.989,40.107,20.181,42.365,22.516,43.236z"/>
	</g>
</g>
</svg>
