<?xml version="1.0" encoding="utf-8"?>
<!-- Generator: Adobe Illustrator 16.0.0, SVG Export Plug-In . SVG Version: 6.00 Build 0)  -->
<!DOCTYPE svg PUBLIC "-//W3C//DTD SVG 1.1//EN" "http://www.w3.org/Graphics/SVG/1.1/DTD/svg11.dtd">
<svg version="1.1" id="图层_1" xmlns="http://www.w3.org/2000/svg" xmlns:xlink="http://www.w3.org/1999/xlink" x="0px" y="0px"
	 width="60px" height="60px" viewBox="0 0 60 60" enable-background="new 0 0 60 60" xml:space="preserve">
<g>
	<g>
		<path fill="#E7E7E7" d="M29.352,39.688c0,0-1.145-3.934-6.513-6.773c-6.483-3.373-9.233,1.568-9.233,1.568l-2.646,5.016
			c-0.129,0.41-0.162,1.473,2.819,2.041c1.674,0.084-1.059,0.756-1.177,2.094c-0.108,1.156,1.016,1.387,1.685,1.598
			c-0.118,0.715-0.075,1.461-0.15,2.703c0,0-0.378,2.008,2.344,2.672c2.527,0.029,5.032-0.055,6.047-0.074
			c1.005-0.031,1.782-0.295,1.686,2.156c-0.098,2.449,0,3.756,0,3.756h5.94c-0.012-1.703-0.075-8.395-0.205-11.918
			C29.817,40.467,29.352,39.688,29.352,39.688z M52.227,20.094C51.537,9.985,41.924,3.674,32.355,3.559
			c-9.58-0.115-19.625,5.344-20.348,15.925c-0.056,0.894-0.042,1.791,0.043,2.683l-0.075,0.01c0.032,0.979-0.832,4.817-3.803,10.34
			c-1.576,3.754,1.623,3.691,1.623,3.691l0.021-0.004c1.081-4.135,3.812-7.043,6.986-9.419c4.745-2.774,8.607-0.747,9.688-0.39
			c1.081,0.357,2.561,2.566,6.375,2.534c4.621-0.578,6.057-2.966,7.785-3.134c2.701,0.126,1.922,2.851,1.922,2.851
			s-0.129,1.084-3.229,2.271c-4.957,1.231-4.299,8.95-4.299,8.95l-0.109,16.566H48.08V35.775c0,0,0.098-1.861,0.799-2.303
			c0.703-0.432,3.717-7.438,3.219-10.15C52.26,22.26,52.303,21.176,52.227,20.094z"/>
	</g>
	<g>
		<path fill="none" stroke="#FFFFFF" stroke-width="1.5" stroke-miterlimit="10" d="M29.352,39.688c0,0-1.145-3.934-6.513-6.773
			c-6.483-3.373-9.233,1.568-9.233,1.568l-2.646,5.016c-0.129,0.41-0.162,1.473,2.819,2.041c1.674,0.084-1.059,0.756-1.177,2.094
			c-0.108,1.156,1.016,1.387,1.685,1.598c-0.118,0.715-0.075,1.461-0.15,2.703c0,0-0.378,2.008,2.344,2.672
			c2.527,0.029,5.032-0.055,6.047-0.074c1.005-0.031,1.782-0.295,1.686,2.156c-0.098,2.449,0,3.756,0,3.756h5.94
			c-0.012-1.703-0.075-8.395-0.205-11.918C29.817,40.467,29.352,39.688,29.352,39.688z M52.227,20.094
			C51.537,9.985,41.924,3.674,32.355,3.559c-9.58-0.115-19.625,5.344-20.348,15.925c-0.056,0.894-0.042,1.791,0.043,2.683
			l-0.075,0.01c0.032,0.979-0.832,4.817-3.803,10.34c-1.576,3.754,1.623,3.691,1.623,3.691l0.021-0.004
			c1.081-4.135,3.812-7.043,6.986-9.419c4.745-2.774,8.607-0.747,9.688-0.39c1.081,0.357,2.561,2.566,6.375,2.534
			c4.621-0.578,6.057-2.966,7.785-3.134c2.701,0.126,1.922,2.851,1.922,2.851s-0.129,1.084-3.229,2.271
			c-4.957,1.231-4.299,8.95-4.299,8.95l-0.109,16.566H48.08V35.775c0,0,0.098-1.861,0.799-2.303
			c0.703-0.432,3.717-7.438,3.219-10.15C52.26,22.26,52.303,21.176,52.227,20.094z"/>
	</g>
</g>
</svg>
