<?xml version="1.0" encoding="utf-8"?>
<!-- Generator: Adobe Illustrator 16.0.0, SVG Export Plug-In . SVG Version: 6.00 Build 0)  -->
<!DOCTYPE svg PUBLIC "-//W3C//DTD SVG 1.1//EN" "http://www.w3.org/Graphics/SVG/1.1/DTD/svg11.dtd">
<svg version="1.1" id="图层_1" xmlns="http://www.w3.org/2000/svg" xmlns:xlink="http://www.w3.org/1999/xlink" x="0px" y="0px"
	 width="60px" height="60px" viewBox="0 0 60 60" enable-background="new 0 0 60 60" xml:space="preserve">
<path fill="#FAD7D1" stroke="#FFFFFF" stroke-width="1.5" stroke-miterlimit="10" d="M4,30.572l3.145,0.055l0.139-0.013
	c1.434-0.142,3.051-0.44,4.726-0.754c2.471-0.464,5.025-0.942,7.161-0.942c0.858,0,2.587,0.414,4.259,0.816
	c2.253,0.542,4.584,1.104,6.306,1.109c1.716-0.006,4.046-0.565,6.3-1.109c1.672-0.402,3.4-0.816,4.26-0.816
	c2.135,0,4.684,0.479,7.148,0.942c1.879,0.353,3.684,0.689,5.24,0.8l3.266,0.606c-0.381,0.508-0.906,0.88-1.51,1.3
	c-1.242,0.863-3.322,2.309-6.408,6.461c-1.98,2.668-6.832,7.15-17.114,7.316c-0.059,0.01-0.119,0.008-0.178,0.01l-0.514,0.07
	L29.729,46.5h-0.013c-0.057,0-0.115-0.074-0.17-0.084c-4.385-0.076-8.288-1.053-11.604-2.85c-3.155-1.709-4.847-3.734-5.429-4.518
	c-3.263-4.396-5.268-5.773-6.465-6.594c-0.534-0.363-1-0.69-1.344-1.15C4.359,31.195,4.094,30.92,4,30.572L4,30.572z M4.406,28.727
	c0.675-1.022,2.033-2.019,3.692-3.232c1.733-1.268,3.889-2.847,5.69-4.786l0.427-0.462C17,17.241,20.461,13.5,23.863,13.5
	c0.738,0,1.506,0.395,2.395,0.852c1.141,0.583,2.432,1.246,3.891,1.279c1.412-0.033,2.705-0.696,3.843-1.279
	c0.891-0.458,1.658-0.852,2.396-0.852c3.402,0,6.869,3.745,9.652,6.752l0.422,0.456c1.816,1.955,4.016,3.54,5.783,4.816
	c1.734,1.253,3.084,2.229,3.74,3.237c0.004,0.002,0.008,0.006,0.014,0.008l-3.262-0.236c-1.408-0.107-3.129-0.427-4.92-0.765
	c-2.557-0.481-5.199-0.978-7.523-0.978c-1.102,0-2.783,0.406-4.732,0.874c-2.043,0.491-4.355,1.048-5.828,1.053
	c-1.48-0.005-3.793-0.562-5.833-1.053c-1.949-0.468-3.632-0.874-4.732-0.874c-2.323,0-4.972,0.496-7.534,0.978
	c-1.746,0.327-3.427,0.642-4.816,0.759l0.023-0.021C6.228,28.68,5.25,28.797,4.406,28.727L4.406,28.727z M4.406,28.727"/>
</svg>
