<?xml version="1.0" encoding="utf-8"?>
<!-- Generator: Adobe Illustrator 16.0.0, SVG Export Plug-In . SVG Version: 6.00 Build 0)  -->
<!DOCTYPE svg PUBLIC "-//W3C//DTD SVG 1.1//EN" "http://www.w3.org/Graphics/SVG/1.1/DTD/svg11.dtd">
<svg version="1.1" id="图层_1" xmlns="http://www.w3.org/2000/svg" xmlns:xlink="http://www.w3.org/1999/xlink" x="0px" y="0px"
	 width="60px" height="60px" viewBox="0 0 60 60" enable-background="new 0 0 60 60" xml:space="preserve">
<path fill="#FAD7D1" stroke="#FFFFFF" stroke-width="1.5" stroke-miterlimit="10" d="M55.094,26.99
	c-0.813-5.115-2.541-9.869-5.662-14.117c-0.592-0.805-1.084-1.258-2.184-1.253c-11.598,0.046-23.197,0.038-34.795,0.026
	c-2.456-0.002-3.315,2.973-4.279,4.786c-1.271,2.39-2.317,4.911-2.801,7.57c-0.832,4.568-0.757,9.273-0.294,13.875
	c0.262,2.592,0.319,5.314,0.981,7.848c0.497,1.902,1.687,2.686,3.694,2.639c6.102-0.145,12.21-0.031,18.315-0.02
	c0.93-1.938,0.333-4.318,1.884-6.355c1.173,2.121,0.837,4.379,1.675,6.324c5.934-0.025,11.867-0.051,17.801-0.074
	c2.225,0.377,4.098,0.152,4.533-2.523C55.078,39.518,55.541,33.279,55.094,26.99L55.094,26.99z M47.383,44.299
	c-2.605,0.801-5.305,0.875-7.998,0.979c-1.059-0.225-2.133-0.4-3.178-0.682c-3.104-0.832-5.174-2.676-5.812-6.256
	c-0.738,1.406-1.293,2.463-1.848,3.52c-1.828,2.588-4.724,2.922-7.544,3.277c-2.604,0.328-5.184-0.045-7.698-0.791
	c-1.618-0.379-3.246-0.74-4.668-2.506c5.15,1.904,11.837,3.873,17.033,0.994c1.355-0.75,2.439-2.047,3.051-3.443
	c0.377-0.857,0.645-1.758,0.877-2.662c0.248-0.971,0.133-2.145,0.75-2.982c0.333,1.434,0.504,2.898,0.853,4.33
	c0.848,3.455,2.814,5.121,6.457,5.734c3.053,0.512,6.082,0.225,9.121-0.055c1.271-0.453,2.545-0.908,4.328-1.545
	C49.881,43.727,48.566,43.895,47.383,44.299L47.383,44.299z M47.383,44.299"/>
</svg>
