<?xml version="1.0" encoding="utf-8"?>
<!-- Generator: Adobe Illustrator 16.0.0, SVG Export Plug-In . SVG Version: 6.00 Build 0)  -->
<!DOCTYPE svg PUBLIC "-//W3C//DTD SVG 1.1//EN" "http://www.w3.org/Graphics/SVG/1.1/DTD/svg11.dtd">
<svg version="1.1" id="图层_1" xmlns="http://www.w3.org/2000/svg" xmlns:xlink="http://www.w3.org/1999/xlink" x="0px" y="0px"
	 width="60px" height="60px" viewBox="0 0 60 60" enable-background="new 0 0 60 60" xml:space="preserve">
<path fill="#E7E7E7" stroke="#FFFFFF" stroke-width="1.5" stroke-miterlimit="10" d="M44.355,23.956
	c3.604-4.052,5.145-9.366,3.934-13.499c-0.742-2.522-2.42-4.294-4.703-4.992c-2.229-0.671-4.896,0-7.48,1.852
	c-0.027,0.027-0.082,0.054-0.111,0.081c-0.467-0.993-1.566-1.53-2.723-1.234c-1.018,0.241-1.512,1.477-1.348,2.415
	c0.029,0.107,0.055,0.241,0.084,0.349v0.107c0.027,0.161,0.027,0.322,0.082,0.51c0.082,0.402,0.164,0.806,0.303,1.208
	c0.027,0.054,0.055,0.107,0.055,0.188c-1.072,1.422-1.924,2.979-2.447,4.508c-0.522-1.529-1.375-3.086-2.448-4.508
	c0.027-0.055,0.056-0.135,0.056-0.188c0.138-0.402,0.22-0.806,0.302-1.208c0.028-0.16,0.056-0.322,0.083-0.51V8.927
	c0.027-0.107,0.056-0.241,0.083-0.349c0.164-0.913-0.33-2.147-1.348-2.415c-1.156-0.296-2.256,0.241-2.723,1.234
	c-0.028-0.027-0.083-0.054-0.11-0.081c-2.585-1.878-5.253-2.522-7.481-1.852c-2.283,0.698-3.961,2.47-4.703,4.992
	c-1.21,4.159,0.33,9.447,3.934,13.499c3.52,3.973,4.043,9.26,4.043,11.943c-2.008,0.832-3.438,3.166-3.438,5.904
	c0,3.463,2.283,6.254,5.089,6.254c0.55,0,1.072-0.107,1.567-0.322c0.192-1.449,0.962-2.576,1.649-3.248l-0.824-8.186
	c-0.715-0.482-1.541-0.752-2.42-0.752h-0.193c-0.027-2.951-0.66-8.346-4.4-12.532c-3.273-3.704-4.703-8.481-3.604-12.185
	c0.605-2.066,1.926-3.489,3.741-4.026c1.788-0.536,3.987,0.054,6.188,1.638c0.274,0.188,0.522,0.402,0.797,0.617
	c-0.082,0.188-0.137,0.349-0.192,0.482c-0.302,0.832-0.33,1.691,0.192,2.443c0.578,0.805,1.761,0.777,2.586,0.429
	c0.109-0.054,0.22-0.134,0.33-0.188c0.797,1.127,1.457,2.335,1.87,3.516c-1.623,0.725-2.806,2.63-2.806,4.885
	c0,2.871,4.209,5.18,4.209,5.18s4.206-2.335,4.206-5.18c0-2.255-1.182-4.16-2.805-4.885c0.412-1.181,1.072-2.389,1.869-3.516
	c0.111,0.08,0.193,0.161,0.33,0.188c0.826,0.349,2.008,0.376,2.586-0.429c0.523-0.752,0.496-1.611,0.193-2.443
	c-0.055-0.134-0.111-0.295-0.193-0.482c0.248-0.215,0.523-0.43,0.797-0.617c2.201-1.584,4.402-2.174,6.189-1.638
	c1.814,0.537,3.135,1.986,3.74,4.026c1.072,3.703-0.357,8.48-3.631,12.185c-3.74,4.187-4.373,9.581-4.4,12.532h-0.191
	c-0.99,0-1.926,0.35-2.695,0.967l-0.799,7.945c0.688,0.643,1.402,1.744,1.65,3.139c0.578,0.27,1.211,0.43,1.871,0.43
	c2.805,0,5.061-2.791,5.061-6.254c0-2.736-1.432-5.072-3.438-5.904C40.313,33.243,40.809,27.929,44.355,23.956L44.355,23.956z
	 M33.959,45.319c-0.191-0.16-0.273-0.375-0.246-0.617l1.65-17.686c-1.734,0.67-4.1,0.885-5.198,0.966v19.565
	c0,0.402-0.413,0.697-0.826,0.697s-0.825-0.322-0.825-0.697V27.956c-1.1-0.107-2.915-0.35-4.455-0.913l1.87,17.687
	c0.027,0.242-0.028,0.455-0.22,0.617c-0.11,0.08-2.806,2.361-0.578,5.824c1.926,3.006,3.273,3.623,4.73,3.623
	c1.429,0,2.806-0.617,4.702-3.623C36.793,47.681,34.098,45.427,33.959,45.319L33.959,45.319z M33.959,45.319"/>
</svg>
