<?xml version="1.0" encoding="utf-8"?>
<!-- Generator: Adobe Illustrator 16.0.0, SVG Export Plug-In . SVG Version: 6.00 Build 0)  -->
<!DOCTYPE svg PUBLIC "-//W3C//DTD SVG 1.1//EN" "http://www.w3.org/Graphics/SVG/1.1/DTD/svg11.dtd">
<svg version="1.1" id="图层_1" xmlns="http://www.w3.org/2000/svg" xmlns:xlink="http://www.w3.org/1999/xlink" x="0px" y="0px"
	 width="60px" height="60px" viewBox="0 0 60 60" enable-background="new 0 0 60 60" xml:space="preserve">
<path fill="#FAD7D1" stroke="#FFFFFF" stroke-width="1.5" stroke-miterlimit="10" d="M58.599,43.973
	c-1.791-1.788-5.574-1.57-7.87-2.131c-3.469-0.848-6.393-2.839-9.509-4.497c-2.729-1.457-5.637-2.54-8.603-3.405
	c-2.929-0.856-5.084-1.044-7.059-3.58c-3.297-4.233-2.814-14.879-2.896-20.145H5.955c0.721,5.014-0.287,13.589-1.803,18.531
	C3.305,31.51,2.049,34.044,1.427,36.9c-0.826,3.81-1.34,7.764,1.783,10.948c1.753,1.781,4.806,1.933,7.309,1.723
	c3.891-0.333,4.473-2.362,7.139-2.534c2.879-0.189,5.646,0.428,8.404,1.259c3.146,0.946,6.382,1.648,9.691,1.457
	c2.908-0.163,5.399-1.849,8.317-2.04c2.483-0.167,4.979,0.41,7.387,0.908c1.705,0.357,3.723,0.559,5.345-0.222
	C58.352,47.654,60.167,45.548,58.599,43.973L58.599,43.973z"/>
</svg>
