<?xml version="1.0" encoding="utf-8"?>
<!-- Generator: Adobe Illustrator 16.0.0, SVG Export Plug-In . SVG Version: 6.00 Build 0)  -->
<!DOCTYPE svg PUBLIC "-//W3C//DTD SVG 1.1//EN" "http://www.w3.org/Graphics/SVG/1.1/DTD/svg11.dtd">
<svg version="1.1" id="图层_1" xmlns="http://www.w3.org/2000/svg" xmlns:xlink="http://www.w3.org/1999/xlink" x="0px" y="0px"
	 width="60px" height="60px" viewBox="0 0 60 60" enable-background="new 0 0 60 60" xml:space="preserve">
<path fill="#FAD7D1" stroke="#FFFFFF" stroke-width="1.5" stroke-miterlimit="10" d="M54.459,32.228
	c-1.83-1.856-4.527-2.022-6.361-0.166l-5.236,5.301c-1.363,1.375-3.006,1.383-3.967,0.236c-0.639-0.76-0.385-3.102-0.209-4.586
	l2.629-21.865c0.234-1.951-1.137-3.838-3.07-4.074c-1.928-0.238-3.684,1.266-3.916,3.217l-2.9,17.17
	c-0.152,0.43-0.473,0.5-0.51-0.076l-0.986-22.32c0-1.97-1.573-3.563-3.519-3.563c-1.946,0-3.519,1.593-3.519,3.563l-0.07,22.486
	c0.02,0.264-0.202,0.334-0.239,0.039l-3.134-17.555c-0.348-1.938-2.18-3.332-4.087-2.98c-1.914,0.352-3.184,2.315-2.837,4.248
	l2.786,20.541c0,0.365-0.12,0.576-0.29,0.109l-4.163-11.26c-0.651-1.855-2.666-2.936-4.498-2.277
	c-1.832,0.659-2.792,2.809-2.142,4.664l7.303,24.115c0.038,0.135,0.076,0.264,0.12,0.396l0.013,0.053c0,0.006,0,0.006,0.006,0.012
	c2.021,6.295,7.858,10.844,14.751,10.844c4.409,0,8.995-1.574,12.481-4.285C42.66,51.917,54.73,38.776,54.73,38.776
	C56.57,36.915,56.299,34.081,54.459,32.228"/>
</svg>
