<?xml version="1.0" encoding="utf-8"?>
<!-- Generator: Adobe Illustrator 16.0.0, SVG Export Plug-In . SVG Version: 6.00 Build 0)  -->
<!DOCTYPE svg PUBLIC "-//W3C//DTD SVG 1.1//EN" "http://www.w3.org/Graphics/SVG/1.1/DTD/svg11.dtd">
<svg version="1.1" id="图层_1" xmlns="http://www.w3.org/2000/svg" xmlns:xlink="http://www.w3.org/1999/xlink" x="0px" y="0px"
	 width="60px" height="60px" viewBox="0 0 60 60" enable-background="new 0 0 60 60" xml:space="preserve">
<path fill="#FAD7D1" stroke="#FFFFFF" stroke-width="1.5" stroke-miterlimit="10" d="M58.244,25.254
	c-0.01-1.31-0.107-2.619-0.359-3.916c-0.846-4.282-2.822-7.642-6.588-9.53c-1.813-0.907-3.756-1.274-5.752-1.284
	c-1.848-0.025-3.67-0.225-5.299-1.31c-1.172-0.779-2.02-1.746-2.627-2.866H22.368c-0.977,1.781-2.485,3.09-4.374,3.703
	c-1.443,0.46-2.942,0.413-4.418,0.507c-2.65,0.178-5.125,0.967-7.221,2.819c-3.146,2.782-4.385,6.569-4.547,10.802
	c-0.131,3.303-0.021,6.618-0.055,9.931c0,0.469,0.119,0.576,0.543,0.576c3.162-0.023,6.324-0.023,9.488,0
	c0.541,0,0.606-4.481,0.606-6.378c0.196,0.012,0.513,0.129,0.554,0.389c0.828,5.13,1.654,5.454,1.746,8.802
	c0.117,4.186,1.945,13.498,1.152,16.152h28.773c-0.902-2.994,0.008-10.93,0.041-15.359c0.016-2.18,2.199-9.536,3.004-10.021
	c0.15,0.283,0.074,0.543,0.064,0.779c-0.043,1.662-0.076,3.337-0.152,4.999c-0.021,0.484,0.088,0.637,0.553,0.637
	c3.182-0.023,6.373-0.023,9.555,0c0.477,0,0.574-0.152,0.574-0.637C58.234,31.115,58.256,28.191,58.244,25.254L58.244,25.254z
	 M41.357,29.961c0.488,0,0.885,0.432,0.885,0.963s-0.396,0.963-0.885,0.963c-0.49,0-0.887-0.432-0.887-0.963
	S40.867,29.961,41.357,29.961L41.357,29.961z M19.324,29.961c0.489,0,0.886,0.432,0.886,0.963s-0.396,0.963-0.886,0.963
	s-0.886-0.432-0.886-0.963S18.835,29.961,19.324,29.961L19.324,29.961z M27.397,34.548c-0.598,0.576-9.528,1.465-11.802,0.295
	c-0.659-0.34-2.381-7.103-2.539-7.679c0.746,0.982,1.508,4.729,2.896,6.224c1.661,1.789,4.8,1.264,6.343,1.264
	c2.63,0,4.99-0.607,6.625-2.51C28.583,33.112,28.087,33.874,27.397,34.548L27.397,34.548z M29.782,29.498
	c0,0-0.043-6.917,0.313-9.803c0,0,0.27,1.698,0.264,4.394C30.354,26.783,30.519,29.504,29.782,29.498L29.782,29.498z M44.432,34.843
	c-2.275,1.17-11.204,0.281-11.802-0.295c-0.689-0.674-1.186-1.436-1.523-2.406c1.637,1.902,3.994,2.51,6.624,2.51
	c1.543,0,4.682,0.525,6.344-1.264c1.389-1.495,2.15-5.241,2.896-6.224C46.813,27.74,45.088,34.503,44.432,34.843L44.432,34.843z
	 M44.432,34.843"/>
</svg>
