<?xml version="1.0" encoding="utf-8"?>
<!-- Generator: Adobe Illustrator 16.0.0, SVG Export Plug-In . SVG Version: 6.00 Build 0)  -->
<!DOCTYPE svg PUBLIC "-//W3C//DTD SVG 1.1//EN" "http://www.w3.org/Graphics/SVG/1.1/DTD/svg11.dtd">
<svg version="1.1" id="图层_1" xmlns="http://www.w3.org/2000/svg" xmlns:xlink="http://www.w3.org/1999/xlink" x="0px" y="0px"
	 width="60px" height="60px" viewBox="0 0 60 60" enable-background="new 0 0 60 60" xml:space="preserve">
<g>
	<g>
		<path fill="#E7E7E7" d="M51.701,53.033c-0.037-0.184-0.074-0.365-0.094-0.537c-0.715-6.271-2.076-11.172-4.287-15.422
			c-1.645-3.166-2.547-5.976-1.598-9.392c1.619-5.84,2.094-11.931,2.553-17.823c0.152-1.947,0.305-0.828,0.508-2.867
			c0.092-0.918,0.309-3.064-1.98-3.401c-0.162-0.024-0.314-0.035-0.455-0.035c-2.105,0-2.318,2.189-2.387,2.908
			c-0.098,0.979-0.279,1.938-0.475,2.956c-0.385,2.022-0.783,1.046-0.449,3.289c0.383,2.575,0.188,4.338-0.58,5.238
			c-0.541,0.637-1.453,0.945-2.785,0.945c-0.832,0-1.836-0.125-2.984-0.372c-0.17-0.036-0.34-0.097-0.508-0.153
			c-0.369-0.126-0.787-0.27-1.234-0.27c-0.518,0-1.451,0.205-1.887,1.574c-0.574,1.812,0.824,2.666,1.576,3.125
			c0.139,0.086,0.275,0.168,0.402,0.257c1.143,0.794,2.371,0.901,3.424,0.901c0.266,0,0.533-0.007,0.803-0.014
			c0.254-0.008,0.508-0.014,0.764-0.014c0.461,0,0.941,0.02,1.414,0.129c-1.038,4.807-1.575,9.199,0.682,13.563
			c-0.275,0.173-0.585,0.393-0.91,0.684c-0.209,0.186-0.229,0.51-0.043,0.721c0.1,0.113,0.238,0.172,0.379,0.172
			c0.119,0,0.238-0.043,0.336-0.129c0.255-0.228,0.498-0.403,0.715-0.542c2.264,4.131,3.683,8.911,4.316,14.61
			c0.018,0.16,0.021,0.336,0.027,0.514c0.02,0.773,0.072,2.828,2.229,2.828c0.172,0,0.361-0.016,0.574-0.047
			c0.797-0.121,1.381-0.443,1.736-0.957C52.031,54.682,51.84,53.729,51.701,53.033z M24.755,18.131c-0.32,0-0.619,0.066-0.908,0.131
			c-0.123,0.027-0.25,0.056-0.382,0.077c-1.622,0.266-2.803,0.39-3.715,0.39h-0.001c-1.568,0-2.099-0.379-2.361-0.663
			c-0.688-0.745-0.871-2.428-0.632-5.803c0.243-3.325-0.38-3.367-1.156-6.798C15.214,3.756,14.084,3.5,13.445,3.5
			c-0.083,0-0.17,0.005-0.26,0.014c-0.698,0.068-1.318,0.431-1.699,0.994c-0.35,0.515-0.459,1.138-0.3,1.711
			c0.679,2.438,0.608,1.859,0.534,4.494c-0.078,2.761-0.159,5.614,0.68,8.457c1.976,6.693,3.415,13.238-0.625,19.715
			c-2.736,4.387-3.312,9.637-3.514,14.193c-0.007,0.15-0.028,0.311-0.047,0.469c-0.077,0.613-0.182,1.451,0.347,2.135
			c0.344,0.443,0.878,0.711,1.585,0.795c0.137,0.016,0.265,0.023,0.385,0.023c2.115,0,2.244-2.08,2.292-2.865l0.011-0.166
			c0.373-5.458,2.243-10.363,4.415-15.398c0.193,0.154,0.403,0.334,0.625,0.541c0.098,0.09,0.221,0.135,0.345,0.135
			c0.136,0,0.271-0.055,0.372-0.162c0.19-0.207,0.178-0.531-0.027-0.723c-0.326-0.305-0.632-0.558-0.894-0.758
			c0.222-0.51,0.444-1.018,0.669-1.531l0.246-0.561c0.491-1.117,1.162-2.645,0.874-4.035l-0.182-0.862
			c-0.494-2.315-1.005-4.709-0.116-5.819c0.502-0.629,1.548-0.947,3.105-0.947c0.434,0,0.911,0.024,1.421,0.074l0.132,0.006
			c0.509,0,0.898-0.274,1.181-0.475c0.062-0.045,0.122-0.088,0.179-0.121c1.888-1.1,1.696-2.543,1.415-3.305
			C26.167,18.374,25.359,18.131,24.755,18.131z M21.626,29.975c-0.292,0.156-0.601,0.318-0.886,0.457
			c-0.252,0.122-0.358,0.428-0.236,0.682c0.087,0.184,0.269,0.29,0.457,0.29c0.074,0,0.148-0.017,0.219-0.051
			c0.299-0.146,0.618-0.313,0.918-0.474c0.248-0.132,0.342-0.441,0.211-0.69S21.874,29.844,21.626,29.975z M26.071,27.92
			c-0.594,0.199-1.196,0.438-1.839,0.73c-0.255,0.115-0.369,0.418-0.254,0.676c0.084,0.189,0.269,0.301,0.462,0.301
			c0.069,0,0.14-0.014,0.208-0.045c0.611-0.277,1.181-0.504,1.742-0.691c0.266-0.089,0.41-0.379,0.321-0.646
			C26.623,27.977,26.336,27.831,26.071,27.92z M29.043,28.291c0.018,0,0.035-0.001,0.052-0.003c0.616-0.063,1.231-0.073,1.834-0.029
			c0.28,0.021,0.52-0.191,0.542-0.473c0.02-0.281-0.189-0.526-0.469-0.547c-0.661-0.049-1.335-0.038-2.01,0.032
			c-0.278,0.028-0.481,0.279-0.452,0.561C28.566,28.095,28.786,28.291,29.043,28.291z M35.779,28.682
			c-0.602-0.326-1.217-0.602-1.83-0.818c-0.264-0.094-0.553,0.047-0.645,0.313c-0.094,0.267,0.045,0.558,0.309,0.651
			c0.564,0.199,1.131,0.453,1.686,0.754c0.076,0.041,0.158,0.061,0.24,0.061c0.18,0,0.355-0.098,0.447-0.27
			C36.117,29.125,36.025,28.814,35.779,28.682z M39.086,31.755c0.186-0.21,0.168-0.533-0.039-0.722
			c-0.262-0.236-0.529-0.465-0.793-0.68c-0.217-0.177-0.537-0.143-0.711,0.078c-0.176,0.219-0.143,0.541,0.076,0.719
			c0.25,0.203,0.504,0.42,0.752,0.646c0.096,0.085,0.217,0.128,0.338,0.128C38.848,31.924,38.986,31.867,39.086,31.755z
			 M20.845,43.029c0.037,0,0.075-0.004,0.112-0.014c0.273-0.063,0.444-0.336,0.382-0.611c-0.155-0.689-0.419-1.373-0.784-2.033
			c-0.136-0.246-0.445-0.334-0.689-0.197s-0.332,0.449-0.195,0.695c0.318,0.574,0.547,1.168,0.681,1.762
			C20.405,42.869,20.614,43.029,20.845,43.029z M20.321,50.129c-0.273-0.063-0.544,0.109-0.606,0.385
			c-0.156,0.697-0.352,1.273-0.616,1.813c-0.124,0.254-0.021,0.561,0.229,0.686c0.072,0.035,0.148,0.053,0.224,0.053
			c0.187,0,0.366-0.105,0.454-0.285c0.301-0.613,0.522-1.262,0.697-2.041C20.765,50.465,20.594,50.189,20.321,50.129z
			 M20.917,45.057c-0.278-0.031-0.528,0.172-0.558,0.453c-0.043,0.404-0.083,0.787-0.121,1.152c-0.031,0.307-0.062,0.6-0.092,0.879
			c-0.03,0.281,0.171,0.533,0.449,0.563c0.019,0.004,0.037,0.004,0.055,0.004c0.255,0,0.475-0.195,0.503-0.457
			c0.03-0.281,0.06-0.574,0.092-0.883c0.037-0.363,0.077-0.746,0.12-1.148C21.396,45.338,21.195,45.086,20.917,45.057z
			 M39.631,48.102c-0.1-0.684-0.16-1.35-0.184-1.979c-0.008-0.283-0.246-0.504-0.523-0.494c-0.279,0.01-0.498,0.246-0.488,0.529
			c0.023,0.666,0.088,1.371,0.193,2.09c0.035,0.256,0.252,0.438,0.5,0.438c0.023,0,0.049-0.002,0.074-0.004
			C39.479,48.641,39.67,48.381,39.631,48.102z M40.25,51.037c-0.074-0.271-0.354-0.432-0.623-0.357s-0.428,0.355-0.355,0.627
			c0.174,0.641,0.377,1.309,0.604,1.984c0.072,0.213,0.268,0.348,0.479,0.348c0.055,0,0.109-0.01,0.164-0.027
			c0.264-0.092,0.406-0.381,0.316-0.648C40.613,52.307,40.416,51.66,40.25,51.037z M39.068,43.592
			c0.033,0.008,0.068,0.012,0.102,0.012c0.236,0,0.447-0.168,0.496-0.41c0.133-0.656,0.326-1.275,0.576-1.834
			c0.115-0.258,0.002-0.561-0.254-0.676c-0.256-0.117-0.555-0.002-0.67,0.256c-0.279,0.629-0.498,1.318-0.645,2.051
			C38.617,43.266,38.793,43.535,39.068,43.592z M29.807,36.266c-1.026,0.029-1.833,0.893-1.803,1.926
			c0.027,1.035,0.882,1.85,1.907,1.82c1.024-0.027,1.832-0.889,1.804-1.924C31.686,37.053,30.833,36.236,29.807,36.266z"/>
	</g>
	<g>
		<path fill="none" stroke="#FFFFFF" stroke-width="1.5" stroke-miterlimit="10" d="M51.701,53.033
			c-0.037-0.184-0.074-0.365-0.094-0.537c-0.715-6.271-2.076-11.172-4.287-15.422c-1.645-3.166-2.547-5.976-1.598-9.392
			c1.619-5.84,2.094-11.931,2.553-17.823c0.152-1.947,0.305-0.828,0.508-2.867c0.092-0.918,0.309-3.064-1.98-3.401
			c-0.162-0.024-0.314-0.035-0.455-0.035c-2.105,0-2.318,2.189-2.387,2.908c-0.098,0.979-0.279,1.938-0.475,2.956
			c-0.385,2.022-0.783,1.046-0.449,3.289c0.383,2.575,0.188,4.338-0.58,5.238c-0.541,0.637-1.453,0.945-2.785,0.945
			c-0.832,0-1.836-0.125-2.984-0.372c-0.17-0.036-0.34-0.097-0.508-0.153c-0.369-0.126-0.787-0.27-1.234-0.27
			c-0.518,0-1.451,0.205-1.887,1.574c-0.574,1.812,0.824,2.666,1.576,3.125c0.139,0.086,0.275,0.168,0.402,0.257
			c1.143,0.794,2.371,0.901,3.424,0.901c0.266,0,0.533-0.007,0.803-0.014c0.254-0.008,0.508-0.014,0.764-0.014
			c0.461,0,0.941,0.02,1.414,0.129c-1.038,4.807-1.575,9.199,0.682,13.563c-0.275,0.173-0.585,0.393-0.91,0.684
			c-0.209,0.186-0.229,0.51-0.043,0.721c0.1,0.113,0.238,0.172,0.379,0.172c0.119,0,0.238-0.043,0.336-0.129
			c0.255-0.228,0.498-0.403,0.715-0.542c2.264,4.131,3.683,8.911,4.316,14.61c0.018,0.16,0.021,0.336,0.027,0.514
			c0.02,0.773,0.072,2.828,2.229,2.828c0.172,0,0.361-0.016,0.574-0.047c0.797-0.121,1.381-0.443,1.736-0.957
			C52.031,54.682,51.84,53.729,51.701,53.033z M24.755,18.131c-0.32,0-0.619,0.066-0.908,0.131c-0.123,0.027-0.25,0.056-0.382,0.077
			c-1.622,0.266-2.803,0.39-3.715,0.39h-0.001c-1.568,0-2.099-0.379-2.361-0.663c-0.688-0.745-0.871-2.428-0.632-5.803
			c0.243-3.325-0.38-3.367-1.156-6.798C15.214,3.756,14.084,3.5,13.445,3.5c-0.083,0-0.17,0.005-0.26,0.014
			c-0.698,0.068-1.318,0.431-1.699,0.994c-0.35,0.515-0.459,1.138-0.3,1.711c0.679,2.438,0.608,1.859,0.534,4.494
			c-0.078,2.761-0.159,5.614,0.68,8.457c1.976,6.693,3.415,13.238-0.625,19.715c-2.736,4.387-3.312,9.637-3.514,14.193
			c-0.007,0.15-0.028,0.311-0.047,0.469c-0.077,0.613-0.182,1.451,0.347,2.135c0.344,0.443,0.878,0.711,1.585,0.795
			c0.137,0.016,0.265,0.023,0.385,0.023c2.115,0,2.244-2.08,2.292-2.865l0.011-0.166c0.373-5.458,2.243-10.363,4.415-15.398
			c0.193,0.154,0.403,0.334,0.625,0.541c0.098,0.09,0.221,0.135,0.345,0.135c0.136,0,0.271-0.055,0.372-0.162
			c0.19-0.207,0.178-0.531-0.027-0.723c-0.326-0.305-0.632-0.558-0.894-0.758c0.222-0.51,0.444-1.018,0.669-1.531l0.246-0.561
			c0.491-1.117,1.162-2.645,0.874-4.035l-0.182-0.862c-0.494-2.315-1.005-4.709-0.116-5.819c0.502-0.629,1.548-0.947,3.105-0.947
			c0.434,0,0.911,0.024,1.421,0.074l0.132,0.006c0.509,0,0.898-0.274,1.181-0.475c0.062-0.045,0.122-0.088,0.179-0.121
			c1.888-1.1,1.696-2.543,1.415-3.305C26.167,18.374,25.359,18.131,24.755,18.131z M21.626,29.975
			c-0.292,0.156-0.601,0.318-0.886,0.457c-0.252,0.122-0.358,0.428-0.236,0.682c0.087,0.184,0.269,0.29,0.457,0.29
			c0.074,0,0.148-0.017,0.219-0.051c0.299-0.146,0.618-0.313,0.918-0.474c0.248-0.132,0.342-0.441,0.211-0.69
			S21.874,29.844,21.626,29.975z M26.071,27.92c-0.594,0.199-1.196,0.438-1.839,0.73c-0.255,0.115-0.369,0.418-0.254,0.676
			c0.084,0.189,0.269,0.301,0.462,0.301c0.069,0,0.14-0.014,0.208-0.045c0.611-0.277,1.181-0.504,1.742-0.691
			c0.266-0.089,0.41-0.379,0.321-0.646C26.623,27.977,26.336,27.831,26.071,27.92z M29.043,28.291c0.018,0,0.035-0.001,0.052-0.003
			c0.616-0.063,1.231-0.073,1.834-0.029c0.28,0.021,0.52-0.191,0.542-0.473c0.02-0.281-0.189-0.526-0.469-0.547
			c-0.661-0.049-1.335-0.038-2.01,0.032c-0.278,0.028-0.481,0.279-0.452,0.561C28.566,28.095,28.786,28.291,29.043,28.291z
			 M35.779,28.682c-0.602-0.326-1.217-0.602-1.83-0.818c-0.264-0.094-0.553,0.047-0.645,0.313c-0.094,0.267,0.045,0.558,0.309,0.651
			c0.564,0.199,1.131,0.453,1.686,0.754c0.076,0.041,0.158,0.061,0.24,0.061c0.18,0,0.355-0.098,0.447-0.27
			C36.117,29.125,36.025,28.814,35.779,28.682z M39.086,31.755c0.186-0.21,0.168-0.533-0.039-0.722
			c-0.262-0.236-0.529-0.465-0.793-0.68c-0.217-0.177-0.537-0.143-0.711,0.078c-0.176,0.219-0.143,0.541,0.076,0.719
			c0.25,0.203,0.504,0.42,0.752,0.646c0.096,0.085,0.217,0.128,0.338,0.128C38.848,31.924,38.986,31.867,39.086,31.755z
			 M20.845,43.029c0.037,0,0.075-0.004,0.112-0.014c0.273-0.063,0.444-0.336,0.382-0.611c-0.155-0.689-0.419-1.373-0.784-2.033
			c-0.136-0.246-0.445-0.334-0.689-0.197s-0.332,0.449-0.195,0.695c0.318,0.574,0.547,1.168,0.681,1.762
			C20.405,42.869,20.614,43.029,20.845,43.029z M20.321,50.129c-0.273-0.063-0.544,0.109-0.606,0.385
			c-0.156,0.697-0.352,1.273-0.616,1.813c-0.124,0.254-0.021,0.561,0.229,0.686c0.072,0.035,0.148,0.053,0.224,0.053
			c0.187,0,0.366-0.105,0.454-0.285c0.301-0.613,0.522-1.262,0.697-2.041C20.765,50.465,20.594,50.189,20.321,50.129z
			 M20.917,45.057c-0.278-0.031-0.528,0.172-0.558,0.453c-0.043,0.404-0.083,0.787-0.121,1.152c-0.031,0.307-0.062,0.6-0.092,0.879
			c-0.03,0.281,0.171,0.533,0.449,0.563c0.019,0.004,0.037,0.004,0.055,0.004c0.255,0,0.475-0.195,0.503-0.457
			c0.03-0.281,0.06-0.574,0.092-0.883c0.037-0.363,0.077-0.746,0.12-1.148C21.396,45.338,21.195,45.086,20.917,45.057z
			 M39.631,48.102c-0.1-0.684-0.16-1.35-0.184-1.979c-0.008-0.283-0.246-0.504-0.523-0.494c-0.279,0.01-0.498,0.246-0.488,0.529
			c0.023,0.666,0.088,1.371,0.193,2.09c0.035,0.256,0.252,0.438,0.5,0.438c0.023,0,0.049-0.002,0.074-0.004
			C39.479,48.641,39.67,48.381,39.631,48.102z M40.25,51.037c-0.074-0.271-0.354-0.432-0.623-0.357s-0.428,0.355-0.355,0.627
			c0.174,0.641,0.377,1.309,0.604,1.984c0.072,0.213,0.268,0.348,0.479,0.348c0.055,0,0.109-0.01,0.164-0.027
			c0.264-0.092,0.406-0.381,0.316-0.648C40.613,52.307,40.416,51.66,40.25,51.037z M39.068,43.592
			c0.033,0.008,0.068,0.012,0.102,0.012c0.236,0,0.447-0.168,0.496-0.41c0.133-0.656,0.326-1.275,0.576-1.834
			c0.115-0.258,0.002-0.561-0.254-0.676c-0.256-0.117-0.555-0.002-0.67,0.256c-0.279,0.629-0.498,1.318-0.645,2.051
			C38.617,43.266,38.793,43.535,39.068,43.592z M29.807,36.266c-1.026,0.029-1.833,0.893-1.803,1.926
			c0.027,1.035,0.882,1.85,1.907,1.82c1.024-0.027,1.832-0.889,1.804-1.924C31.686,37.053,30.833,36.236,29.807,36.266z"/>
	</g>
</g>
</svg>
