<?xml version="1.0" encoding="utf-8"?>
<!-- Generator: Adobe Illustrator 16.0.0, SVG Export Plug-In . SVG Version: 6.00 Build 0)  -->
<!DOCTYPE svg PUBLIC "-//W3C//DTD SVG 1.1//EN" "http://www.w3.org/Graphics/SVG/1.1/DTD/svg11.dtd">
<svg version="1.1" id="图层_1" xmlns="http://www.w3.org/2000/svg" xmlns:xlink="http://www.w3.org/1999/xlink" x="0px" y="0px"
	 width="60px" height="60px" viewBox="0 0 60 60" enable-background="new 0 0 60 60" xml:space="preserve">
<path fill="#E7E7E7" stroke="#FFFFFF" stroke-width="1.5" stroke-miterlimit="10" d="M41.399,34.455
	c-1.953-5.097-5.849-16.607-4.808-20.526c0.209-0.779,2.227-2.909,3.98-4.404c0.604-0.52,0.681-1.424,0.154-2.025L17.752,7.585
	c-0.475,0.639-0.331,1.537,0.313,2.006c2.284,1.658,4.467,3.707,4.676,4.386c1.176,3.84-2.356,15.346-4.164,20.479
	c-3.989,0.51-7.076,3.898-7.076,7.988c0,4.441,3.641,8.061,8.115,8.061c1.176,0,4.001-1.648,4.714-0.736
	C25.391,51.131,26.57,52.5,30,52.5c3.453,0,5.03-1.389,5.646-2.742c0.482-1.061,3.549,0.748,4.736,0.748
	c4.477,0,8.117-3.619,8.117-8.061C48.498,38.348,45.395,34.957,41.399,34.455L41.399,34.455z M19.4,48.102
	c-1.717-0.234-2.781-1.939-1.717-2.879c1.066-0.939,4.262,0.471,7.044,2.586C24.728,47.809,21.117,48.336,19.4,48.102L19.4,48.102z
	 M40.348,48.102c-1.717,0.234-5.326-0.293-5.326-0.293c2.781-2.115,5.978-3.525,7.043-2.586
	C43.129,46.162,42.064,47.867,40.348,48.102L40.348,48.102z M40.348,48.102"/>
</svg>
