<?xml version="1.0" encoding="utf-8"?>
<!-- Generator: Adobe Illustrator 16.0.0, SVG Export Plug-In . SVG Version: 6.00 Build 0)  -->
<!DOCTYPE svg PUBLIC "-//W3C//DTD SVG 1.1//EN" "http://www.w3.org/Graphics/SVG/1.1/DTD/svg11.dtd">
<svg version="1.1" id="图层_1" xmlns="http://www.w3.org/2000/svg" xmlns:xlink="http://www.w3.org/1999/xlink" x="0px" y="0px"
	 width="60px" height="60px" viewBox="0 0 60 60" enable-background="new 0 0 60 60" xml:space="preserve">
<path fill="#E7E7E7" stroke="#FFFFFF" stroke-width="1.5" stroke-miterlimit="10" d="M54.459,32.227
	c-1.83-1.855-4.527-2.021-6.361-0.166l-5.236,5.303c-1.363,1.375-3.006,1.383-3.967,0.236c-0.639-0.76-0.385-3.102-0.209-4.586
	l2.629-21.865c0.234-1.952-1.137-3.84-3.07-4.076c-1.928-0.236-3.684,1.268-3.916,3.219l-2.9,17.17
	c-0.152,0.428-0.473,0.498-0.51-0.078L29.932,5.064c0-1.971-1.573-3.564-3.519-3.564c-1.946,0-3.519,1.594-3.519,3.564l-0.07,22.486
	c0.02,0.262-0.202,0.332-0.239,0.037l-3.134-17.553c-0.348-1.939-2.18-3.334-4.087-2.982c-1.914,0.353-3.184,2.316-2.837,4.248
	l2.786,20.541c0,0.365-0.12,0.576-0.29,0.109l-4.163-11.26c-0.651-1.854-2.666-2.936-4.498-2.276s-2.792,2.808-2.142,4.663
	l7.303,24.117c0.038,0.135,0.076,0.264,0.12,0.396l0.013,0.053c0,0.006,0,0.006,0.006,0.012C13.684,53.951,19.521,58.5,26.413,58.5
	c4.409,0,8.995-1.574,12.481-4.285C42.66,51.918,54.73,38.777,54.73,38.777C56.57,36.916,56.299,34.082,54.459,32.227"/>
</svg>
