<?xml version="1.0" encoding="utf-8"?>
<!-- Generator: Adobe Illustrator 16.0.0, SVG Export Plug-In . SVG Version: 6.00 Build 0)  -->
<!DOCTYPE svg PUBLIC "-//W3C//DTD SVG 1.1//EN" "http://www.w3.org/Graphics/SVG/1.1/DTD/svg11.dtd">
<svg version="1.1" id="图层_1" xmlns="http://www.w3.org/2000/svg" xmlns:xlink="http://www.w3.org/1999/xlink" x="0px" y="0px"
	 width="60px" height="60px" viewBox="0 0 60 60" enable-background="new 0 0 60 60" xml:space="preserve">
<g>
	<g>
		<path fill="#FAD7D1" d="M30,13.999c-14.555,0-25.498,10.704-25.498,15.991C4.502,35.279,15.398,46,30,46
			c14.985,0,25.499-10.9,25.499-16.01C55.502,24.703,45.102,13.999,30,13.999z M30.023,43.08c-6.787,0-12.289-5.855-12.289-13.081
			c0-7.224,5.502-13.081,12.289-13.081c6.788,0,12.29,5.856,12.29,13.081C42.313,37.223,36.811,43.08,30.023,43.08z M30,21.648
			c-4.32,0-7.824,3.729-7.824,8.33c0,4.6,3.504,8.329,7.824,8.329c4.323,0,7.825-3.729,7.825-8.329
			C37.824,25.377,34.322,21.648,30,21.648z"/>
	</g>
	<g>
		<path fill="none" stroke="#FFFFFF" stroke-width="1.5" stroke-miterlimit="10" d="M30,13.999
			c-14.555,0-25.498,10.704-25.498,15.991C4.502,35.279,15.398,46,30,46c14.985,0,25.499-10.9,25.499-16.01
			C55.502,24.703,45.102,13.999,30,13.999z M30.023,43.08c-6.787,0-12.289-5.855-12.289-13.081c0-7.224,5.502-13.081,12.289-13.081
			c6.788,0,12.29,5.856,12.29,13.081C42.313,37.223,36.811,43.08,30.023,43.08z M30,21.648c-4.32,0-7.824,3.729-7.824,8.33
			c0,4.6,3.504,8.329,7.824,8.329c4.323,0,7.825-3.729,7.825-8.329C37.824,25.377,34.322,21.648,30,21.648z"/>
	</g>
</g>
</svg>
