<?xml version="1.0" encoding="utf-8"?>
<!-- Generator: Adobe Illustrator 16.0.0, SVG Export Plug-In . SVG Version: 6.00 Build 0)  -->
<!DOCTYPE svg PUBLIC "-//W3C//DTD SVG 1.1//EN" "http://www.w3.org/Graphics/SVG/1.1/DTD/svg11.dtd">
<svg version="1.1" id="图层_1" xmlns="http://www.w3.org/2000/svg" xmlns:xlink="http://www.w3.org/1999/xlink" x="0px" y="0px"
	 width="60px" height="60px" viewBox="0 0 60 60" enable-background="new 0 0 60 60" xml:space="preserve">
<path fill="#FAD7D1" stroke="#FFFFFF" stroke-width="1.5" stroke-miterlimit="10" d="M46.428,7.945
	c2.176,1.87,3.898,4.216,5.168,7.04c1.27,2.823,1.904,6.178,1.904,10.064c0,2.86-0.363,5.747-1.088,8.663
	c-0.727,2.914-1.723,5.711-2.992,8.387l-1.578-2.145c-0.363-0.367-0.725-0.385-1.088-0.055c-0.326,0.439-0.344,0.861-0.055,1.264
	l1.959,2.477c-1.088,1.979-2.313,3.822-3.672,5.527s-2.838,3.172-4.434,4.4c-1.596,1.227-3.281,2.189-5.059,2.887
	S31.885,57.5,30,57.5c-1.85,0-3.654-0.34-5.413-1.018s-3.418-1.613-4.978-2.805c-1.559-1.191-3.019-2.613-4.379-4.264
	c-1.359-1.648-2.584-3.445-3.672-5.389l2.23-2.475c0.146-0.148,0.218-0.33,0.218-0.551s-0.091-0.404-0.272-0.551
	c-0.145-0.146-0.326-0.219-0.543-0.219c-0.218,0-0.399,0.092-0.545,0.273l-1.849,1.98c-1.342-2.713-2.394-5.564-3.155-8.553
	C6.88,30.944,6.5,27.983,6.5,25.05c0-3.887,0.635-7.241,1.904-10.064c1.269-2.824,3.01-5.17,5.222-7.04l1.741,1.925
	c0.181,0.146,0.371,0.229,0.571,0.248c0.199,0.018,0.39-0.064,0.57-0.248c0.182-0.146,0.281-0.321,0.3-0.522
	c0.018-0.202-0.046-0.394-0.19-0.577l-1.741-1.871c2.067-1.466,4.379-2.566,6.936-3.299C24.369,2.866,27.098,2.5,30,2.5
	c2.938,0,5.684,0.366,8.241,1.101c2.557,0.732,4.869,1.869,6.936,3.41L43.49,9.155c-0.291,0.439-0.291,0.861,0,1.265
	c0.436,0.33,0.797,0.312,1.088-0.056L46.428,7.945z M18.521,28.405c1.56,0,2.884-0.395,3.972-1.183
	c1.088-0.789,1.632-1.751,1.632-2.888c0-1.1-0.544-2.044-1.632-2.833c-1.088-0.787-2.412-1.182-3.972-1.182
	c-1.559,0-2.883,0.395-3.971,1.182c-1.088,0.789-1.632,1.733-1.632,2.833c0,1.137,0.544,2.099,1.632,2.888
	C15.638,28.011,16.962,28.405,18.521,28.405L18.521,28.405z M29.727,47.82c1.56,0,2.884-0.238,3.972-0.715s1.631-1.045,1.631-1.705
	c0-0.697-0.543-1.275-1.631-1.732c-1.088-0.459-2.412-0.688-3.972-0.688c-1.559,0-2.883,0.229-3.971,0.688
	c-1.088,0.457-1.632,1.035-1.632,1.732c0,0.66,0.544,1.229,1.632,1.705S28.168,47.82,29.727,47.82L29.727,47.82z M40.934,28.405
	c1.559,0,2.883-0.395,3.971-1.183c1.088-0.789,1.633-1.751,1.633-2.888c0-1.1-0.545-2.044-1.633-2.833
	c-1.088-0.787-2.412-1.182-3.971-1.182s-2.883,0.395-3.971,1.182c-1.088,0.789-1.633,1.733-1.633,2.833
	c0,1.137,0.545,2.099,1.633,2.888C38.051,28.011,39.375,28.405,40.934,28.405L40.934,28.405z M40.934,28.405"/>
</svg>
