<?xml version="1.0" encoding="utf-8"?>
<!-- Generator: Adobe Illustrator 16.0.0, SVG Export Plug-In . SVG Version: 6.00 Build 0)  -->
<!DOCTYPE svg PUBLIC "-//W3C//DTD SVG 1.1//EN" "http://www.w3.org/Graphics/SVG/1.1/DTD/svg11.dtd">
<svg version="1.1" id="图层_1" xmlns="http://www.w3.org/2000/svg" xmlns:xlink="http://www.w3.org/1999/xlink" x="0px" y="0px"
	 width="60px" height="60px" viewBox="0 0 60 60" enable-background="new 0 0 60 60" xml:space="preserve">
<g>
	<g>
		<path fill="#E7E7E7" d="M32.488,33.128c0.213-1.818-0.314-3.43-1.489-4.536c-1.188-1.119-2.907-1.608-4.598-1.307
			c-0.855,0.152-1.75-0.467-2.209-0.849c-2.635-2.205-4.943-2.104-6.414-1.632c-1.715,0.551-3.348,1.932-4.721,3.994
			c-1.066,1.604-1.957,3.601-2.443,5.479c-1.191,4.602-5.08,7.691-5.119,7.721c-0.498,0.391-0.588,1.109-0.199,1.609
			c0.137,0.176,0.314,0.299,0.51,0.371c1.98,6.121,7.807,8.959,9.648,9.719c0.025,0.23,0.119,0.453,0.285,0.637
			c0.217,0.244,0.527,0.383,0.854,0.381c0.281,0,0.555-0.104,0.764-0.293c3.273-2.939,5.869-4.479,11.113-6.586
			c0.34-0.137,0.68-0.271,1.02-0.404c0.833-0.324,1.395-0.738,1.89-1.105c0.168-0.123,0.324-0.238,0.486-0.348
			c1.727-1.16,2.775-2.791,3.033-4.721c0.311-2.326-0.611-4.596-1.664-5.813C32.773,34.913,32.41,33.786,32.488,33.128z
			 M54.727,16.603c-0.137-0.187-0.318-0.32-0.52-0.396c-0.771-1.857-3.951-8.423-11.037-10.372
			c-0.057-0.092-0.125-0.178-0.209-0.253c-0.469-0.425-1.193-0.389-1.619,0.081c-0.033,0.038-3.557,3.86-10.377,5.029
			c-3.538,0.605-6.028,2.01-7.401,4.175c-1.525,2.403-1.156,4.916-0.803,6.2c0.484,1.75,1.531,3.066,3.029,3.805
			c1.258,0.62,2.809,0.818,4.483,0.574c1.186-0.174,2.581,0.318,3.469,1.225c0.568,0.581,1.191,1.602,0.93,3.17
			c-0.387,2.327,0.389,4.56,2.074,5.976c1.145,0.959,2.602,1.449,4.207,1.449c0.994,0,2.045-0.188,3.115-0.566
			c2.492-0.885,4.232-2.928,5.033-5.911c0.576-2.147,0.461-4.04,0.455-4.119v-0.012c0-0.004-0.004-0.047-0.004-0.124
			c0.033-0.165,0.039-0.276,0.008-0.308c0.066-1.239,0.639-4.91,4.914-8.021C54.986,17.832,55.098,17.115,54.727,16.603z"/>
	</g>
	<g>
		<path fill="none" stroke="#FFFFFF" stroke-width="1.5" stroke-miterlimit="10" d="M32.488,33.128
			c0.213-1.818-0.314-3.43-1.489-4.536c-1.188-1.119-2.907-1.608-4.598-1.307c-0.855,0.152-1.75-0.467-2.209-0.849
			c-2.635-2.205-4.943-2.104-6.414-1.632c-1.715,0.551-3.348,1.932-4.721,3.994c-1.066,1.604-1.957,3.601-2.443,5.479
			c-1.191,4.602-5.08,7.691-5.119,7.721c-0.498,0.391-0.588,1.109-0.199,1.609c0.137,0.176,0.314,0.299,0.51,0.371
			c1.98,6.121,7.807,8.959,9.648,9.719c0.025,0.23,0.119,0.453,0.285,0.637c0.217,0.244,0.527,0.383,0.854,0.381
			c0.281,0,0.555-0.104,0.764-0.293c3.273-2.939,5.869-4.479,11.113-6.586c0.34-0.137,0.68-0.271,1.02-0.404
			c0.833-0.324,1.395-0.738,1.89-1.105c0.168-0.123,0.324-0.238,0.486-0.348c1.727-1.16,2.775-2.791,3.033-4.721
			c0.311-2.326-0.611-4.596-1.664-5.813C32.773,34.913,32.41,33.786,32.488,33.128z M54.727,16.603
			c-0.137-0.187-0.318-0.32-0.52-0.396c-0.771-1.857-3.951-8.423-11.037-10.372c-0.057-0.092-0.125-0.178-0.209-0.253
			c-0.469-0.425-1.193-0.389-1.619,0.081c-0.033,0.038-3.557,3.86-10.377,5.029c-3.538,0.605-6.028,2.01-7.401,4.175
			c-1.525,2.403-1.156,4.916-0.803,6.2c0.484,1.75,1.531,3.066,3.029,3.805c1.258,0.62,2.809,0.818,4.483,0.574
			c1.186-0.174,2.581,0.318,3.469,1.225c0.568,0.581,1.191,1.602,0.93,3.17c-0.387,2.327,0.389,4.56,2.074,5.976
			c1.145,0.959,2.602,1.449,4.207,1.449c0.994,0,2.045-0.188,3.115-0.566c2.492-0.885,4.232-2.928,5.033-5.911
			c0.576-2.147,0.461-4.04,0.455-4.119v-0.012c0-0.004-0.004-0.047-0.004-0.124c0.033-0.165,0.039-0.276,0.008-0.308
			c0.066-1.239,0.639-4.91,4.914-8.021C54.986,17.832,55.098,17.115,54.727,16.603z"/>
	</g>
</g>
</svg>
