<?xml version="1.0" encoding="utf-8"?>
<!-- Generator: Adobe Illustrator 16.0.0, SVG Export Plug-In . SVG Version: 6.00 Build 0)  -->
<!DOCTYPE svg PUBLIC "-//W3C//DTD SVG 1.1//EN" "http://www.w3.org/Graphics/SVG/1.1/DTD/svg11.dtd">
<svg version="1.1" id="图层_1" xmlns="http://www.w3.org/2000/svg" xmlns:xlink="http://www.w3.org/1999/xlink" x="0px" y="0px"
	 width="60px" height="60px" viewBox="0 0 60 60" enable-background="new 0 0 60 60" xml:space="preserve">
<g>
	<g>
		<path fill="#FAD7D1" d="M29.303,4.568H15.312c-0.177,0-0.491-0.057-0.668,0.01c-0.187,0.076-0.06,0.609-0.05,0.742
			c0.05,0.609,0.09,1.218,0.139,1.816c0.117,1.504,0.245,3.007,0.393,4.51c0.128,1.36,0.275,2.721,0.462,4.082
			c0.138,0.951,0.354,1.883,0.53,2.824c0.482,2.541,0.737,5.138,0.875,7.707c0.029,0.627,0.059,1.255,0.068,1.883
			c0.01,0.381,0.049,0.79-0.01,1.161c-0.098,0.552-0.177,1.112-0.256,1.675c-0.344,2.521-0.55,5.06-0.569,7.601
			c-0.02,3.168,0.413,6.287,0.796,9.428c0.236,1.902,0.472,3.805,0.717,5.697c0.02,0.182-0.01,0.6,0.138,0.752
			c0.609,0.6,1.543,0.885,2.388,0.961c0.747,0.066,1.504-0.037,2.221-0.238c0.383-0.104,0.757-0.236,1.12-0.398
			c0.177-0.076,0.728-0.229,0.757-0.438c0.049-0.439,0.107-0.875,0.157-1.322c0.235-1.932,0.462-3.873,0.668-5.805
			c0.089-0.789,0.167-1.588,0.235-2.387c0.099-1.219,0.314-2.426,0.442-3.645c0.305-2.844,0.334-5.727-0.089-8.563
			c-0.156-1.063-0.078-2.187,0.158-3.233c0.206-0.903,0.393-1.797,0.511-2.711c0.324-2.416,0.53-4.842,0.737-7.277
			c0.146-1.779,0.344-3.529,0.619-5.29c0.461-2.901,0.982-5.794,1.512-8.686C29.343,5.311,29.588,4.568,29.303,4.568z M45.457,4.701
			c0-0.019-0.01-0.057-0.039-0.085s-0.07-0.048-0.109-0.048h-14.6c-0.039,0-0.088,0.02-0.117,0.048
			C30.56,4.645,30.55,4.692,30.56,4.73c0.012,0.028,0.59,3.158,1.141,6.355c0.549,3.234,0.873,5.384,0.963,6.412l0.059,0.732
			c0.256,3.129,0.746,8.942,1.248,10.769c0.529,1.922,0.256,3.643,0.256,3.662c-0.639,4.471-0.158,8.096,0.156,10.494
			c0.088,0.684,0.168,1.273,0.207,1.768c0.176,2.236,1.041,9.371,1.051,9.447c0.01,0.049,0.039,0.096,0.078,0.115
			c1.258,0.646,2.457,0.969,3.557,0.969c1.896,0,2.83-0.959,2.869-1.018c0.02-0.018,0.041-0.047,0.041-0.076
			c0.01-0.037,0.539-4.09,1.346-10.797c0.795-6.602-0.521-13.993-0.58-14.337c-0.059-3.377,0.49-8.961,1.16-11.71
			c0.373-1.561,0.766-5.642,1.031-8.8c0-0.002-0.002-0.003-0.002-0.006c0-0.001,0.002-0.002,0.002-0.004
			C45.328,6.49,45.447,4.721,45.457,4.701z"/>
	</g>
	<g>
		<path fill="none" stroke="#FFFFFF" stroke-width="1.5" stroke-miterlimit="10" d="M29.303,4.568H15.312
			c-0.177,0-0.491-0.057-0.668,0.01c-0.187,0.076-0.06,0.609-0.05,0.742c0.05,0.609,0.09,1.218,0.139,1.816
			c0.117,1.504,0.245,3.007,0.393,4.51c0.128,1.36,0.275,2.721,0.462,4.082c0.138,0.951,0.354,1.883,0.53,2.824
			c0.482,2.541,0.737,5.138,0.875,7.707c0.029,0.627,0.059,1.255,0.068,1.883c0.01,0.381,0.049,0.79-0.01,1.161
			c-0.098,0.552-0.177,1.112-0.256,1.675c-0.344,2.521-0.55,5.06-0.569,7.601c-0.02,3.168,0.413,6.287,0.796,9.428
			c0.236,1.902,0.472,3.805,0.717,5.697c0.02,0.182-0.01,0.6,0.138,0.752c0.609,0.6,1.543,0.885,2.388,0.961
			c0.747,0.066,1.504-0.037,2.221-0.238c0.383-0.104,0.757-0.236,1.12-0.398c0.177-0.076,0.728-0.229,0.757-0.438
			c0.049-0.439,0.107-0.875,0.157-1.322c0.235-1.932,0.462-3.873,0.668-5.805c0.089-0.789,0.167-1.588,0.235-2.387
			c0.099-1.219,0.314-2.426,0.442-3.645c0.305-2.844,0.334-5.727-0.089-8.563c-0.156-1.063-0.078-2.187,0.158-3.233
			c0.206-0.903,0.393-1.797,0.511-2.711c0.324-2.416,0.53-4.842,0.737-7.277c0.146-1.779,0.344-3.529,0.619-5.29
			c0.461-2.901,0.982-5.794,1.512-8.686C29.343,5.311,29.588,4.568,29.303,4.568z M45.457,4.701c0-0.019-0.01-0.057-0.039-0.085
			s-0.07-0.048-0.109-0.048h-14.6c-0.039,0-0.088,0.02-0.117,0.048C30.56,4.645,30.55,4.692,30.56,4.73
			c0.012,0.028,0.59,3.158,1.141,6.355c0.549,3.234,0.873,5.384,0.963,6.412l0.059,0.732c0.256,3.129,0.746,8.942,1.248,10.769
			c0.529,1.922,0.256,3.643,0.256,3.662c-0.639,4.471-0.158,8.096,0.156,10.494c0.088,0.684,0.168,1.273,0.207,1.768
			c0.176,2.236,1.041,9.371,1.051,9.447c0.01,0.049,0.039,0.096,0.078,0.115c1.258,0.646,2.457,0.969,3.557,0.969
			c1.896,0,2.83-0.959,2.869-1.018c0.02-0.018,0.041-0.047,0.041-0.076c0.01-0.037,0.539-4.09,1.346-10.797
			c0.795-6.602-0.521-13.993-0.58-14.337c-0.059-3.377,0.49-8.961,1.16-11.71c0.373-1.561,0.766-5.642,1.031-8.8
			c0-0.002-0.002-0.003-0.002-0.006c0-0.001,0.002-0.002,0.002-0.004C45.328,6.49,45.447,4.721,45.457,4.701z"/>
	</g>
</g>
</svg>
