<?xml version="1.0" encoding="utf-8"?>
<!-- Generator: Adobe Illustrator 16.0.0, SVG Export Plug-In . SVG Version: 6.00 Build 0)  -->
<!DOCTYPE svg PUBLIC "-//W3C//DTD SVG 1.1//EN" "http://www.w3.org/Graphics/SVG/1.1/DTD/svg11.dtd">
<svg version="1.1" id="图层_1" xmlns="http://www.w3.org/2000/svg" xmlns:xlink="http://www.w3.org/1999/xlink" x="0px" y="0px"
	 width="60px" height="60px" viewBox="0 0 60 60" enable-background="new 0 0 60 60" xml:space="preserve">
<path fill="#FAD7D1" stroke="#FFFFFF" stroke-width="1.5" stroke-miterlimit="10" d="M35.398,22.366
	c0.67-0.783,0.672-1.948,0.004-2.732c-0.928-1.082-2.105-3.039-2.105-5.999c0-4.881,3.014-8.135,9.326-8.135
	s10.93,4.977,10.93,9.427c0,1.531-1.131,3.016-1.178,3.445c-0.049,0.431,2.072,14.548-2.262,24.69
	C45.779,53.209,42.199,54.5,39.844,54.5s-12.624-5.504-20.35-13.734C11.767,32.537,6.447,26.698,6.447,20.383
	c0-6.317,4.758-6.938,8.196-6.938s4.146,1.723,4.146,4.019c0,2.297-1.178,1.913-1.178,4.977c0,3.064,16.346,14.02,16.864,12.92
	c0.518-1.102-1.225-4.354-1.225-8.086C33.25,24.773,34.436,23.497,35.398,22.366L35.398,22.366z M35.398,22.366"/>
</svg>
