<?xml version="1.0" encoding="utf-8"?>
<!-- Generator: Adobe Illustrator 16.0.0, SVG Export Plug-In . SVG Version: 6.00 Build 0)  -->
<!DOCTYPE svg PUBLIC "-//W3C//DTD SVG 1.1//EN" "http://www.w3.org/Graphics/SVG/1.1/DTD/svg11.dtd">
<svg version="1.1" id="图层_1" xmlns="http://www.w3.org/2000/svg" xmlns:xlink="http://www.w3.org/1999/xlink" x="0px" y="0px"
	 width="60px" height="60px" viewBox="0 0 60 60" enable-background="new 0 0 60 60" xml:space="preserve">
<path fill="#E7E7E7" stroke="#FFFFFF" stroke-width="1.5" stroke-miterlimit="10" d="M54.947,7.057
	c0.008,0.254-0.195,0.66-0.545,1.006c-0.795,0.788-1.584,1.58-2.381,2.367c-0.17,0.167-0.285,0.351-0.363,0.583
	c-1.338,3.96-1.756,8.056-1.979,12.204c-0.434,8.079-3.885,14.649-10.338,19.585c-2.768,2.117-5.998,3.258-9.399,3.947
	c-2.965,0.602-5.979,0.797-8.982,1.084c-2.781,0.268-5.504,0.779-8.102,1.844c-0.307,0.125-0.566,0.293-0.801,0.529
	c-1.375,1.383-2.756,2.76-4.146,4.127c-0.58,0.57-1.326,0.668-1.99,0.311c-0.643-0.344-0.967-1.031-0.842-1.777
	c0.068-0.412,0.307-0.719,0.594-1.004c1.359-1.348,2.711-2.701,4.072-4.045c0.25-0.246,0.43-0.52,0.564-0.842
	c1.033-2.441,1.559-5,1.834-7.623c0.348-3.326,0.559-6.664,1.254-9.951c1.381-6.524,5.018-11.438,10.582-15.04
	c3.785-2.449,7.946-3.697,12.421-4.039c2.648-0.202,5.313-0.205,7.932-0.734c1.648-0.332,3.254-0.814,4.883-1.215
	c0.209-0.051,0.342-0.189,0.482-0.33c0.807-0.802,1.602-1.617,2.424-2.4C52.65,5.138,53.287,5,53.971,5.316
	C54.6,5.607,54.932,6.111,54.947,7.057L54.947,7.057z M12.251,48.327c5.309-1.531,10.703-2.707,16.104-3.861
	c2.878-0.613,5.737-1.332,8.372-2.691c4.055-2.094,7.176-5.035,8.631-9.5c0.686-2.105,1.277-4.229,1.736-6.393
	c0.727-3.422,1-6.903,1.426-10.366c0.195-1.588,0.539-3.152,1.439-4.531c0.152-0.232,0.158-0.482-0.043-0.693
	c-0.219-0.233-0.48-0.239-0.732-0.059c-0.447,0.324-0.959,0.512-1.488,0.622c-2.123,0.442-4.266,0.771-6.436,0.89
	c-2.779,0.15-5.57,0.219-8.293,0.874c-6.431,1.547-11.616,4.956-15.323,10.436c-2.318,3.43-3.143,7.373-3.551,11.42
	c-0.189,1.879-0.234,3.777-0.605,5.633c-0.508,2.537-1.086,5.059-2.037,7.479c-0.17,0.432,0.057,0.789,0.525,0.801
	C12.04,48.372,12.147,48.358,12.251,48.327L12.251,48.327z M47.863,12.102c-0.244-0.082-0.402,0.041-0.564,0.099
	c-2.398,0.846-4.756,1.792-7.049,2.89c-5.049,2.416-9.586,5.533-13.429,9.617c-5.623,5.979-9.287,13.169-12.77,20.513
	C25.315,34.187,36.58,23.152,47.863,12.102L47.863,12.102z M14.009,46.259C29.548,39.54,40.85,28.543,47.822,13.171
	c-0.043-0.044-0.086-0.089-0.129-0.132C36.43,24.073,25.165,35.108,13.903,46.144C13.938,46.183,13.974,46.22,14.009,46.259
	L14.009,46.259z M36.457,36.003c5.254-5.135,8.639-11.329,10.518-18.378c-6.607,12.192-16.03,21.521-28.556,27.821
	C22.948,45.21,31.801,40.556,36.457,36.003L36.457,36.003z M25.173,20.289c0.475-0.383,1.008-0.698,1.408-1.17
	c0.174-0.127,0.344-0.26,0.525-0.378c3.532-2.296,7.386-3.89,11.388-5.161c0.633-0.201,1.271-0.391,1.908-0.586
	c-1.158-0.061-2.291,0.039-3.426,0.131c-4.719,0.382-8.995,1.931-12.817,4.738c-3.873,2.843-6.68,6.42-7.967,11.094
	c-0.629,2.282-0.916,4.614-1.121,6.962c-0.076,0.883-0.152,1.764-0.23,2.645c0.137-0.131,0.188-0.279,0.234-0.426
	c0.885-2.717,1.854-5.402,3.049-7.998c0.9-1.96,1.844-3.897,3.115-5.654C22.452,22.994,23.661,21.503,25.173,20.289L25.173,20.289z
	 M26.118,43.821c3.105-0.666,6.235-1.27,9.147-2.58c4.381-1.971,7.688-4.953,9.17-9.688c0.85-2.719,1.535-5.465,2.006-8.268
	c0.082-0.497,0.154-0.995,0.227-1.493c0.07-0.496,0.137-0.992,0.205-1.487c-3.816,10.746-10.563,18.838-21.257,23.52
	C25.831,43.825,25.981,43.851,26.118,43.821L26.118,43.821z M22.8,23.201c-0.146,0.178-0.303,0.348-0.434,0.535
	c-1.127,1.623-2.146,3.311-3.016,5.086c-1.805,3.677-3.172,7.515-4.355,11.45c0.299-0.033,0.307-0.275,0.389-0.432
	c1.361-2.617,2.805-5.186,4.363-7.693c5.051-8.124,11.831-14.312,20.579-18.313c0.119-0.055,0.285-0.057,0.326-0.229
	c-0.133-0.057-0.248-0.007-0.371,0.028c-3.217,0.909-6.346,2.049-9.336,3.542c-1.958,0.978-3.838,2.086-5.551,3.454
	C24.317,21.275,23.466,22.145,22.8,23.201L22.8,23.201z M22.8,23.201"/>
</svg>
