<?xml version="1.0" encoding="utf-8"?>
<!-- Generator: Adobe Illustrator 16.0.0, SVG Export Plug-In . SVG Version: 6.00 Build 0)  -->
<!DOCTYPE svg PUBLIC "-//W3C//DTD SVG 1.1//EN" "http://www.w3.org/Graphics/SVG/1.1/DTD/svg11.dtd">
<svg version="1.1" id="图层_1" xmlns="http://www.w3.org/2000/svg" xmlns:xlink="http://www.w3.org/1999/xlink" x="0px" y="0px"
	 width="60px" height="60px" viewBox="0 0 60 60" enable-background="new 0 0 60 60" xml:space="preserve">
<g>
	<g>
		<path fill="#E7E7E7" d="M11.057,45.527c-0.978,0-1.771,0.801-1.771,1.787s0.793,1.787,1.771,1.787
			c0.979,0,1.771-0.801,1.771-1.787S12.035,45.527,11.057,45.527z M17.276,49.762c-1.072,0-1.94,0.877-1.94,1.957
			s0.868,1.957,1.94,1.957c1.07,0,1.939-0.877,1.939-1.957S18.347,49.762,17.276,49.762z M35.57,47.314
			c-0.969,0-1.754,0.793-1.754,1.77s0.785,1.768,1.754,1.768c0.967,0,1.752-0.791,1.752-1.768S36.537,47.314,35.57,47.314z
			 M28.717,50.195c-1.058,0-1.915,0.865-1.915,1.932s0.857,1.932,1.915,1.932c1.057,0,1.914-0.865,1.914-1.932
			S29.773,50.195,28.717,50.195z M23.376,32.82c0.496-1.285,0.704-2.692,1.256-3.948c1.03-2.346,0.05-2.72-2.07-2.679
			c-5.5,0.104-11.01,0.206-16.502-0.027c-3.576-0.151-4.916,1.067-4.824,4.754c0.189,7.563,0.018,15.136-0.005,22.704
			c3.685,1.785,4.815,1.203,4.785-2.662c-0.027-3.367,0.321-6.746-0.239-10.102c-0.187-0.842-0.061-1.352,0.95-1.629
			c1.726-0.477,2.752-1.65,2.69-3.592c-0.035-1.084,0.2-2.135,1.479-2.225c1.517-0.105,1.825,1.072,1.877,2.275
			c0.089,2.041,0.955,3.545,3.079,3.51c2.12-0.035,2.903-1.604,3.038-3.607c0.106-1.588,0.836-3.125,2.516-1.803
			C23.269,35.256,23.069,33.613,23.376,32.82z M58.381,27.188c-4.059-2.019-8.377-0.824-12.557-0.893
			c-11.918-0.191-11.922-0.067-10.678,11.978c0.018,0.188,0.254,0.352,0.492,0.662c1.703-0.475,2.203-1.754,2.207-3.393
			c0.002-1.117,0.303-2.082,1.596-2.127c1.289-0.047,1.715,0.863,1.713,1.996c-0.008,2.209,0.879,3.865,3.193,3.797
			c2.082-0.063,2.951-1.609,2.863-3.693c-0.049-1.174,0.574-2.027,1.713-2.088c1.223-0.066,1.797,0.891,1.756,2.006
			c-0.08,2.289,1.068,3.506,3.139,4.045c0.93,4.23,0.191,8.516,0.391,12.77c0.078,1.623,0.873,2.279,2.344,2.242
			c1.262-0.031,2.188-0.561,2.154-2.027C58.512,44.039,59.145,35.605,58.381,27.188z M32.016,28.716
			c2.248-9.414,7.51-16.945,14.73-23.307c-3.201,0.111-5.344,1.863-7.434,3.576c-7.621,6.245-10.997,14.813-12.777,24.215
			c-1.609,3.814-4.636,6.916-5.473,11.113c-0.623,3.135,0.887,5.119,3.521,4.635c3.923-0.721,8.27-5.998,7.77-10.027
			C31.932,35.506,32.064,32.119,32.016,28.716z M17.615,42.988c0.151-1.162-0.496-1.855-1.563-2.15
			c-1.227,0-1.941,0.701-2.034,1.783c-0.103,1.176,0.794,1.885,1.827,1.969C16.771,44.664,17.489,43.957,17.615,42.988z
			 M46.938,41.191c-0.953-0.055-1.684,0.611-1.744,1.611c-0.07,1.145,0.5,1.934,1.734,1.969c1.023,0.027,1.617-0.512,1.697-1.264
			C48.73,41.975,48.047,41.256,46.938,41.191z M50.098,47.018c-0.984,0.02-1.605,0.613-1.688,1.598
			c-0.098,1.139,0.451,1.924,1.611,2.035c1.223,0.117,1.695-0.75,1.959-1.783C51.805,47.781,51.291,46.994,50.098,47.018z
			 M43.275,49.787c-1.238-0.02-1.859,0.725-1.73,1.895c0.105,0.975,0.803,1.529,1.832,1.43c1.006-0.098,1.547-0.68,1.582-1.688
			C44.861,50.363,44.281,49.805,43.275,49.787z M38.766,40.75c-1.238,0.059-1.756,0.857-1.609,2.004
			c0.131,1.029,0.91,1.469,1.877,1.352c0.994-0.119,1.486-0.783,1.471-1.824C40.316,41.332,39.805,40.699,38.766,40.75z"/>
	</g>
	<g>
		<path fill="none" stroke="#FFFFFF" stroke-width="1.5" stroke-miterlimit="10" d="M11.057,45.527
			c-0.978,0-1.771,0.801-1.771,1.787s0.793,1.787,1.771,1.787c0.979,0,1.771-0.801,1.771-1.787S12.035,45.527,11.057,45.527z
			 M17.276,49.762c-1.072,0-1.94,0.877-1.94,1.957s0.868,1.957,1.94,1.957c1.07,0,1.939-0.877,1.939-1.957
			S18.347,49.762,17.276,49.762z M35.57,47.314c-0.969,0-1.754,0.793-1.754,1.77s0.785,1.768,1.754,1.768
			c0.967,0,1.752-0.791,1.752-1.768S36.537,47.314,35.57,47.314z M28.717,50.195c-1.058,0-1.915,0.865-1.915,1.932
			s0.857,1.932,1.915,1.932c1.057,0,1.914-0.865,1.914-1.932S29.773,50.195,28.717,50.195z M23.376,32.82
			c0.496-1.285,0.704-2.692,1.256-3.948c1.03-2.346,0.05-2.72-2.07-2.679c-5.5,0.104-11.01,0.206-16.502-0.027
			c-3.576-0.151-4.916,1.067-4.824,4.754c0.189,7.563,0.018,15.136-0.005,22.704c3.685,1.785,4.815,1.203,4.785-2.662
			c-0.027-3.367,0.321-6.746-0.239-10.102c-0.187-0.842-0.061-1.352,0.95-1.629c1.726-0.477,2.752-1.65,2.69-3.592
			c-0.035-1.084,0.2-2.135,1.479-2.225c1.517-0.105,1.825,1.072,1.877,2.275c0.089,2.041,0.955,3.545,3.079,3.51
			c2.12-0.035,2.903-1.604,3.038-3.607c0.106-1.588,0.836-3.125,2.516-1.803C23.269,35.256,23.069,33.613,23.376,32.82z
			 M58.381,27.188c-4.059-2.019-8.377-0.824-12.557-0.893c-11.918-0.191-11.922-0.067-10.678,11.978
			c0.018,0.188,0.254,0.352,0.492,0.662c1.703-0.475,2.203-1.754,2.207-3.393c0.002-1.117,0.303-2.082,1.596-2.127
			c1.289-0.047,1.715,0.863,1.713,1.996c-0.008,2.209,0.879,3.865,3.193,3.797c2.082-0.063,2.951-1.609,2.863-3.693
			c-0.049-1.174,0.574-2.027,1.713-2.088c1.223-0.066,1.797,0.891,1.756,2.006c-0.08,2.289,1.068,3.506,3.139,4.045
			c0.93,4.23,0.191,8.516,0.391,12.77c0.078,1.623,0.873,2.279,2.344,2.242c1.262-0.031,2.188-0.561,2.154-2.027
			C58.512,44.039,59.145,35.605,58.381,27.188z M32.016,28.716c2.248-9.414,7.51-16.945,14.73-23.307
			c-3.201,0.111-5.344,1.863-7.434,3.576c-7.621,6.245-10.997,14.813-12.777,24.215c-1.609,3.814-4.636,6.916-5.473,11.113
			c-0.623,3.135,0.887,5.119,3.521,4.635c3.923-0.721,8.27-5.998,7.77-10.027C31.932,35.506,32.064,32.119,32.016,28.716z
			 M17.615,42.988c0.151-1.162-0.496-1.855-1.563-2.15c-1.227,0-1.941,0.701-2.034,1.783c-0.103,1.176,0.794,1.885,1.827,1.969
			C16.771,44.664,17.489,43.957,17.615,42.988z M46.938,41.191c-0.953-0.055-1.684,0.611-1.744,1.611
			c-0.07,1.145,0.5,1.934,1.734,1.969c1.023,0.027,1.617-0.512,1.697-1.264C48.73,41.975,48.047,41.256,46.938,41.191z
			 M50.098,47.018c-0.984,0.02-1.605,0.613-1.688,1.598c-0.098,1.139,0.451,1.924,1.611,2.035c1.223,0.117,1.695-0.75,1.959-1.783
			C51.805,47.781,51.291,46.994,50.098,47.018z M43.275,49.787c-1.238-0.02-1.859,0.725-1.73,1.895
			c0.105,0.975,0.803,1.529,1.832,1.43c1.006-0.098,1.547-0.68,1.582-1.688C44.861,50.363,44.281,49.805,43.275,49.787z
			 M38.766,40.75c-1.238,0.059-1.756,0.857-1.609,2.004c0.131,1.029,0.91,1.469,1.877,1.352c0.994-0.119,1.486-0.783,1.471-1.824
			C40.316,41.332,39.805,40.699,38.766,40.75z"/>
	</g>
</g>
</svg>
