<?xml version="1.0" encoding="utf-8"?>
<!-- Generator: Adobe Illustrator 16.0.0, SVG Export Plug-In . SVG Version: 6.00 Build 0)  -->
<!DOCTYPE svg PUBLIC "-//W3C//DTD SVG 1.1//EN" "http://www.w3.org/Graphics/SVG/1.1/DTD/svg11.dtd">
<svg version="1.1" id="图层_1" xmlns="http://www.w3.org/2000/svg" xmlns:xlink="http://www.w3.org/1999/xlink" x="0px" y="0px"
	 width="60px" height="60px" viewBox="0 0 60 60" enable-background="new 0 0 60 60" xml:space="preserve">
<path fill="#FAD7D1" stroke="#FFFFFF" stroke-width="1.5" stroke-miterlimit="10" d="M51.996,24.26
	c3.861,2.678,4.418,8.685,1.215,11.911c-0.385,0.387-0.521,0.285-0.777-0.127c-1.283-2.09-3.129-3.373-5.553-3.762
	c-0.393-0.063-0.943-0.27-1.016,0.365c-0.068,0.576,0.471,0.514,0.846,0.559c2.951,0.377,5.496,2.959,5.945,6.029
	c0.488,3.363-1.107,6.59-3.914,7.875c-0.232-0.234-0.084-0.531-0.084-0.789c-0.029-2.295-1.012-4.139-2.641-5.68
	c-0.256-0.24-0.557-0.48-0.863-0.109c-0.271,0.326-0.021,0.57,0.221,0.787c3.902,3.502,2.885,9.193-2.207,11.563
	c-3.556,1.656-8.2,0.891-10.841-1.799c-1.198-1.221-1.851-2.672-1.839-4.418c0.021-2.496,0.021-4.99-0.006-7.486
	c-0.006-0.588,0.152-0.707,0.727-0.6c1.97,0.371,3.418,1.805,3.9,3.871c0.092,0.389-0.085,1.193,0.67,1
	c0.619-0.166,0.307-0.822,0.216-1.25c-0.534-2.514-2.407-4.215-5.024-4.568c-0.353-0.045-0.482-0.143-0.482-0.508
	c0.011-2.639,0.011-5.275,0-7.914c-0.006-0.576,0.283-0.377,0.584-0.303c2.203,0.537,4.186,0.143,5.883-1.421
	c0.125-0.114,0.244-0.24,0.352-0.365c0.211-0.24,0.284-0.502,0.029-0.748c-0.284-0.274-0.518-0.097-0.722,0.125
	c-0.892,0.994-2.01,1.53-3.315,1.685c-0.193,0.023-0.393,0.034-0.592,0.028c-1.998-0.046-2.23-0.285-2.23-2.25
	c0-3.774-0.04-7.542,0.012-11.316c0.084-5.875,6.109-9.935,11.561-7.84c3.424,1.319,4.951,4.768,5.047,7.691
	c0.023,0.766-0.391,0.474-0.76,0.36c-3.736-1.12-7.638,0.291-9.693,3.505c-0.942,1.479-1.352,3.1-1.227,4.853
	c0.018,0.223,0.063,0.451,0.119,0.668c0.068,0.263,0.262,0.36,0.518,0.314c0.221-0.04,0.346-0.183,0.352-0.411
	c0.006-0.171-0.018-0.337-0.028-0.508c-0.284-3.871,2.498-7.337,6.257-7.782c4.18-0.497,7.627,1.964,8.348,5.916
	c0.391,2.158-0.051,4.099-1.256,5.897c-0.197,0.298-0.555,0.628-0.125,0.942c0.479,0.349,0.688-0.148,0.91-0.445
	C51.293,26.778,51.707,25.579,51.996,24.26L51.996,24.26z M13.691,40.921c0.289-0.291,0.631-0.879,1.096-0.416
	c0.506,0.502-0.164,0.781-0.443,1.055c-2.707,2.725-2.815,6.566-0.238,9.381c3.447,3.77,10.443,3.695,13.81-0.148
	c0.921-1.051,1.562-2.248,1.567-3.67c0.028-6.1,0.012-12.197,0.034-18.289c0-0.633-0.267-0.633-0.722-0.484
	c-1.248,0.41-2.066,1.222-2.367,2.529c-0.086,0.365-0.153,0.793-0.676,0.639c-0.46-0.137-0.335-0.536-0.244-0.855
	c0.472-1.736,1.551-2.879,3.316-3.238c0.563-0.115,0.703-0.332,0.703-0.885c-0.021-3.603-0.033-7.206,0-10.803
	c0.018-2.044-0.618-3.837-1.851-5.43c-2.249-2.906-6.048-3.917-9.403-2.507c-3.378,1.416-5.27,4.705-4.838,8.399
	c0.393,3.329,3.299,6.149,6.837,6.686c0.397,0.063,1.187-0.148,1.079,0.583c-0.103,0.736-0.846,0.405-1.267,0.326
	c-3.804-0.702-6.359-2.872-7.409-6.664c-0.211-0.765-0.432-0.588-0.847-0.257c-2.306,1.856-3.253,4.265-2.868,7.206
	c0.16,1.205,0.625,2.284,1.318,3.277c0.204,0.297,0.539,0.628,0.085,0.932c-0.448,0.302-0.642-0.149-0.852-0.424
	c-0.153-0.199-0.29-0.417-0.421-0.639c-0.545-0.902-0.834-1.907-1.09-2.929c-3.686,2.381-4.588,8.324-1.124,11.945
	c0.46,0.479,0.534-0.006,0.692-0.252c1.352-2.135,3.271-3.387,5.758-3.762c0.335-0.053,0.732-0.109,0.817,0.354
	c0.091,0.473-0.29,0.537-0.636,0.594c-3.736,0.668-5.99,3.186-6.264,7.012c-0.203,2.814,1.591,5.893,4.135,6.947
	C11.164,44.638,12.011,42.61,13.691,40.921L13.691,40.921z M38.085,38.956c-0.307,0.178-0.761,0.291-0.517,0.783
	c0.238,0.479,0.613,0.234,0.938,0.063c2.617-1.381,4.139-4.734,3.457-7.629c-0.074-0.318-0.125-0.736-0.602-0.65
	s-0.409,0.48-0.318,0.811c0.107,0.418,0.119,0.834,0.137,1.268C41.094,35.931,40.146,37.769,38.085,38.956L38.085,38.956z
	 M19.239,39.089c0.222,0.297,0.477,0.668,0.886,0.363c0.381-0.279,0.091-0.588-0.103-0.867c-2.032-2.922-2.032-6.109,0-9.004
	c0.193-0.279,0.5-0.576,0.12-0.873c-0.404-0.314-0.665,0.034-0.893,0.336c-1.096,1.479-1.669,3.129-1.646,4.895
	C17.57,35.901,18.126,37.587,19.239,39.089L19.239,39.089z M19.239,39.089"/>
</svg>
