<?xml version="1.0" encoding="utf-8"?>
<!-- Generator: Adobe Illustrator 16.0.0, SVG Export Plug-In . SVG Version: 6.00 Build 0)  -->
<!DOCTYPE svg PUBLIC "-//W3C//DTD SVG 1.1//EN" "http://www.w3.org/Graphics/SVG/1.1/DTD/svg11.dtd">
<svg version="1.1" id="图层_1" xmlns="http://www.w3.org/2000/svg" xmlns:xlink="http://www.w3.org/1999/xlink" x="0px" y="0px"
	 width="60px" height="60px" viewBox="0 0 60 60" enable-background="new 0 0 60 60" xml:space="preserve">
<g>
	<g>
		<path fill="#E7E7E7" d="M30.126,39.782c-0.977,0-1.628,0.65-1.628,1.627s0.651,1.627,1.628,1.627s1.629-0.65,1.629-1.627
			S31.104,39.782,30.126,39.782z M24.427,16.04c-4.561,2.765-8.144,1.301-11.075-2.765c-0.977-1.464-1.792-2.766-2.28-4.229
			c-0.163-1.139-1.14-1.789-2.117-1.789c-0.651,0-1.14,0.325-1.628,0.65C7,8.396,6.837,9.046,6.837,9.535
			c0,1.625,0,3.252,0.163,4.879c0.326,2.927,0.814,5.854,1.792,8.619c0.814,2.602,1.628,4.879,2.606,7.48
			c2.931,6.83-3.095,14.474-4.724,18.214c-1.628,3.74,2.28,5.529,3.746,2.115c1.303-3.254,7.003-12.686,5.7-20.167
			c-0.325-2.277-2.443-6.505-3.257-8.782c-0.488-1.463-0.814-2.928-1.14-4.554c3.909,4.229,9.121,5.529,14.821,2.114
			c0.977-0.488,1.303-1.789,0.651-2.765C26.707,15.714,25.404,15.388,24.427,16.04z M53.254,48.728
			c-1.629-3.578-7.818-11.385-4.887-18.214c1.141-2.602,1.793-4.717,2.77-7.48c0.977-2.766,1.629-5.692,1.955-8.619
			c0.162-1.627,0.162-3.254,0.162-4.879c0-0.488-0.162-1.139-0.488-1.627c-0.488-0.325-0.977-0.65-1.629-0.65
			c-0.977,0-1.791,0.65-2.279,1.626c-0.652,1.464-1.467,2.928-2.443,4.229c-3.096,4.229-6.678,5.692-11.402,2.928
			c-0.977-0.651-2.117-0.325-2.768,0.65c-0.488,0.976-0.162,2.276,0.814,2.765c6.025,3.415,11.238,2.114,15.309-2.114
			c-0.162,1.626-0.65,3.091-1.139,4.554c-0.652,2.277-2.932,6.505-3.258,8.782c-1.467,7.643,4.396,17.077,5.863,20.329
			C51.137,54.257,55.045,52.63,53.254,48.728z"/>
	</g>
	<g>
		<path fill="none" stroke="#FFFFFF" stroke-width="1.5" stroke-miterlimit="10" d="M30.126,39.782c-0.977,0-1.628,0.65-1.628,1.627
			s0.651,1.627,1.628,1.627s1.629-0.65,1.629-1.627S31.104,39.782,30.126,39.782z M24.427,16.04
			c-4.561,2.765-8.144,1.301-11.075-2.765c-0.977-1.464-1.792-2.766-2.28-4.229c-0.163-1.139-1.14-1.789-2.117-1.789
			c-0.651,0-1.14,0.325-1.628,0.65C7,8.396,6.837,9.046,6.837,9.535c0,1.625,0,3.252,0.163,4.879
			c0.326,2.927,0.814,5.854,1.792,8.619c0.814,2.602,1.628,4.879,2.606,7.48c2.931,6.83-3.095,14.474-4.724,18.214
			c-1.628,3.74,2.28,5.529,3.746,2.115c1.303-3.254,7.003-12.686,5.7-20.167c-0.325-2.277-2.443-6.505-3.257-8.782
			c-0.488-1.463-0.814-2.928-1.14-4.554c3.909,4.229,9.121,5.529,14.821,2.114c0.977-0.488,1.303-1.789,0.651-2.765
			C26.707,15.714,25.404,15.388,24.427,16.04z M53.254,48.728c-1.629-3.578-7.818-11.385-4.887-18.214
			c1.141-2.602,1.793-4.717,2.77-7.48c0.977-2.766,1.629-5.692,1.955-8.619c0.162-1.627,0.162-3.254,0.162-4.879
			c0-0.488-0.162-1.139-0.488-1.627c-0.488-0.325-0.977-0.65-1.629-0.65c-0.977,0-1.791,0.65-2.279,1.626
			c-0.652,1.464-1.467,2.928-2.443,4.229c-3.096,4.229-6.678,5.692-11.402,2.928c-0.977-0.651-2.117-0.325-2.768,0.65
			c-0.488,0.976-0.162,2.276,0.814,2.765c6.025,3.415,11.238,2.114,15.309-2.114c-0.162,1.626-0.65,3.091-1.139,4.554
			c-0.652,2.277-2.932,6.505-3.258,8.782c-1.467,7.643,4.396,17.077,5.863,20.329C51.137,54.257,55.045,52.63,53.254,48.728z"/>
	</g>
</g>
</svg>
