<?xml version="1.0" encoding="utf-8"?>
<!-- Generator: Adobe Illustrator 16.0.0, SVG Export Plug-In . SVG Version: 6.00 Build 0)  -->
<!DOCTYPE svg PUBLIC "-//W3C//DTD SVG 1.1//EN" "http://www.w3.org/Graphics/SVG/1.1/DTD/svg11.dtd">
<svg version="1.1" id="图层_1" xmlns="http://www.w3.org/2000/svg" xmlns:xlink="http://www.w3.org/1999/xlink" x="0px" y="0px"
	 width="60px" height="60px" viewBox="0 0 60 60" enable-background="new 0 0 60 60" xml:space="preserve">
<path fill="#E7E7E7" stroke="#FFFFFF" stroke-width="1.5" stroke-miterlimit="10" d="M16.616,22.344c0,1.318-0.018,2.625,0.01,3.932
	c0.008,0.378-0.055,0.5-0.471,0.497c-2.403-0.022-4.807-0.017-7.21-0.002c-0.324,0.002-0.415-0.071-0.412-0.401
	c0.02-2.296-0.056-4.595,0.04-6.888c0.124-2.939,1.065-5.565,3.454-7.496c1.591-1.286,3.469-1.837,5.483-1.956
	c1.128-0.067,2.264-0.033,3.361-0.354c2.371-0.695,3.965-2.727,4.225-5.369c0.039-0.396-0.063-0.977,0.156-1.143
	c0.27-0.207,0.807-0.081,1.228-0.081c2.615-0.003,5.231,0.009,7.846-0.012c0.422-0.003,0.504,0.116,0.523,0.518
	c0.113,2.279,0.859,4.25,2.93,5.507c1.234,0.748,2.619,0.896,4.025,0.908c1.52,0.013,2.992,0.263,4.375,0.896
	c2.859,1.31,4.365,3.645,5.006,6.616c0.193,0.895,0.27,1.803,0.275,2.715c0.016,2.033,0,4.066,0.016,6.1
	c0.002,0.336-0.076,0.446-0.438,0.443c-2.42-0.018-4.842-0.018-7.264-0.003c-0.359,0.002-0.438-0.107-0.422-0.443
	c0.057-1.155,0.086-2.312,0.117-3.468c0.004-0.167,0.066-0.342-0.051-0.54c-0.611,0.336-1.111,0.794-1.572,1.296
	c-1.59,1.737-2.322,3.829-2.66,6.116c-0.213,1.447,0.07,2.751,0.664,4.065c1.826,4.048,3.24,8.233,4.076,12.599
	c0.645,3.365,0.965,6.76,1.004,10.185c0.004,0.312-0.102,0.368-0.389,0.368c-3.783-0.008-7.564-0.01-11.346,0.002
	c-0.318,0.001-0.359-0.114-0.379-0.388c-0.174-2.288-0.387-4.571-1.037-6.788c-0.188-0.64-0.412-1.267-0.814-1.811
	c-0.6-0.811-1.354-0.822-1.939,0c-0.678,0.95-0.931,2.068-1.165,3.182c-0.365,1.733-0.581,3.49-0.661,5.259
	c-0.02,0.406-0.115,0.554-0.57,0.551c-3.693-0.022-7.388-0.02-11.081-0.003c-0.402,0.002-0.487-0.099-0.484-0.491
	c0.055-7.666,1.686-14.992,4.779-22.008c0.057-0.128,0.098-0.265,0.167-0.384c1.073-1.855,1.014-3.809,0.523-5.801
	c-0.555-2.257-1.607-4.212-3.5-5.652C16.89,22.506,16.76,22.348,16.616,22.344L16.616,22.344z M16.616,22.344"/>
</svg>
