<?xml version="1.0" encoding="utf-8"?>
<!-- Generator: Adobe Illustrator 16.0.0, SVG Export Plug-In . SVG Version: 6.00 Build 0)  -->
<!DOCTYPE svg PUBLIC "-//W3C//DTD SVG 1.1//EN" "http://www.w3.org/Graphics/SVG/1.1/DTD/svg11.dtd">
<svg version="1.1" id="图层_1" xmlns="http://www.w3.org/2000/svg" xmlns:xlink="http://www.w3.org/1999/xlink" x="0px" y="0px"
	 width="60px" height="60px" viewBox="0 0 60 60" enable-background="new 0 0 60 60" xml:space="preserve">
<path fill="#E7E7E7" stroke="#FFFFFF" stroke-width="1.5" stroke-miterlimit="10" d="M58.245,25.254
	c-0.011-1.31-0.108-2.619-0.359-3.916c-0.846-4.282-2.822-7.642-6.588-9.53c-1.813-0.907-3.756-1.274-5.753-1.284
	c-1.847-0.025-3.67-0.225-5.298-1.31c-1.173-0.779-2.02-1.746-2.627-2.866H22.368c-0.976,1.781-2.485,3.09-4.374,3.703
	c-1.443,0.46-2.942,0.413-4.418,0.507c-2.649,0.178-5.125,0.967-7.22,2.819c-3.147,2.782-4.386,6.569-4.548,10.802
	c-0.13,3.303-0.021,6.618-0.054,9.931c0,0.47,0.119,0.577,0.542,0.577c3.163-0.023,6.325-0.023,9.488,0
	c0.542,0,0.607-4.482,0.607-6.379c0.196,0.012,0.512,0.13,0.554,0.389c0.827,5.13,1.653,5.456,1.746,8.802
	c0.117,4.187,1.945,13.498,1.152,16.152h28.773c-0.902-2.994,0.009-10.93,0.041-15.358c0.017-2.18,2.199-9.538,3.004-10.021
	c0.15,0.283,0.075,0.542,0.064,0.778c-0.043,1.663-0.075,3.337-0.152,5c-0.021,0.483,0.088,0.637,0.553,0.637
	c3.182-0.023,6.374-0.023,9.555,0c0.477,0,0.574-0.153,0.574-0.637C58.234,31.114,58.256,28.19,58.245,25.254L58.245,25.254z
	 M41.357,29.961c0.489,0,0.886,0.432,0.886,0.962c0,0.531-0.396,0.963-0.886,0.963s-0.886-0.432-0.886-0.963
	C40.472,30.393,40.868,29.961,41.357,29.961L41.357,29.961z M19.324,29.961c0.489,0,0.886,0.432,0.886,0.962
	c0,0.531-0.396,0.963-0.886,0.963s-0.886-0.432-0.886-0.963C18.438,30.393,18.835,29.961,19.324,29.961L19.324,29.961z
	 M27.398,34.549c-0.598,0.575-9.529,1.465-11.802,0.295c-0.66-0.341-2.381-7.104-2.539-7.68c0.746,0.983,1.507,4.729,2.896,6.225
	c1.661,1.788,4.8,1.263,6.343,1.263c2.629,0,4.99-0.606,6.625-2.509C28.583,33.112,28.086,33.875,27.398,34.549L27.398,34.549z
	 M29.782,29.499c0,0-0.043-6.917,0.312-9.803c0,0,0.27,1.698,0.265,4.394C30.354,26.783,30.519,29.504,29.782,29.499L29.782,29.499z
	 M44.433,34.844c-2.276,1.17-11.206,0.28-11.803-0.295c-0.689-0.674-1.186-1.437-1.524-2.406c1.637,1.902,3.994,2.509,6.625,2.509
	c1.544,0,4.682,0.525,6.345-1.263c1.388-1.496,2.15-5.242,2.896-6.225C46.813,27.74,45.089,34.503,44.433,34.844L44.433,34.844z
	 M44.433,34.844"/>
</svg>
