<?xml version="1.0" encoding="utf-8"?>
<!-- Generator: Adobe Illustrator 16.0.0, SVG Export Plug-In . SVG Version: 6.00 Build 0)  -->
<!DOCTYPE svg PUBLIC "-//W3C//DTD SVG 1.1//EN" "http://www.w3.org/Graphics/SVG/1.1/DTD/svg11.dtd">
<svg version="1.1" id="图层_1" xmlns="http://www.w3.org/2000/svg" xmlns:xlink="http://www.w3.org/1999/xlink" x="0px" y="0px"
	 width="60px" height="60px" viewBox="0 0 60 60" enable-background="new 0 0 60 60" xml:space="preserve">
<path fill="#E7E7E7" stroke="#FFFFFF" stroke-width="1.5" stroke-miterlimit="10" d="M32.439,57.085
	c-1.342,0.334-3.567,1.52-4.031,0.541c-1.111-2.027,3.431-2.096,3.431-4.158c-0.602-0.266-1.112-0.508-1.344-0.643
	c-1.711,1.217-2.734,2.264-3.338,1.66c-1.477-1.66,1.997-2.674,1.532-4.465c-0.882,0.17-1.807,0.17-1.715-0.473
	c-0.788,1.826-2.827,0.035-2.503-0.336c1.297-1.252,0.745-2.23,0.928-3.551c-0.183,0.037-0.369,0-0.604-0.131
	c-0.971-0.34-1.99,1.756-2.5,0.74l-0.512-1.012c-0.181-0.51,1.532-2.906,1.211-4.158c-0.559,0.066-1.16-0.033-1.532-0.271
	c-0.556,0.613-1.853,1.693-2.225,0.881c-1.114-2.297,1.944-4.055,1.206-6.316l-0.647,0.033c0.046,0.709-1.395,3.072-2.457,1.588
	c-1.575-2.164,1.898-4.494,1.944-6.826l-0.51-0.1c-0.604,1.551-2.5,2.363-2.225-0.575c0.14-1.556,2.087-2.67,2.551-4.227
	c-0.372,0-0.742-0.066-1.02-0.234c-2.966,1.383-1.111-2.367,1.111-4.631c-0.738-0.202-0.97-0.744-0.791-1.281
	c-1.107,0.506-1.803-0.406,0.235-1.352c1.483-0.68,1.251-1.826,2.875-2.604c-0.513-0.136-0.977-0.473-1.02-0.879
	c-1.624,0.709-2.689-0.27-1.532-1.217c0.556-0.471,1.16,0.066,2.082-0.608l2.692-1.856c-0.697-0.203-1.069-0.979-0.608-1.488
	c-0.875-0.877-3.055,1.149-3.192,0.44c-0.51-3.212,4.862-1.184,6.345-2.466c-0.696-0.34-0.598-0.914-0.043-1.354
	c-1.205,0.066-2.179-0.406-4.126,0.235c-0.791,0.271-1.435-1.755,1.16-1.655c1.947,0.072,3.937,0.205,5.695-0.575
	c-0.275-0.333-0.046-0.774,0.976-1.249c0.971-0.506,1.202-0.91,2.499,0.137c0.742,0.675-0.461,1.553,0.51,1.519
	c0.465-0.032,0.744,0,0.789-0.539c1.018,0.442,1.623,1.184,2.92,1.25c1.297,0.034-0.373,0.849-0.883,2.061
	c-0.369,0.88-3.1-0.708-4.027-0.774c-0.883-0.07,0.787-1.051,0.043-1.186c-0.787-0.136-1.808,1.115-1.204,1.76
	c0.324,0.438,0.833,0,1.391,0.134l2.637,0.946c0.977,0.303-1.201,0.877-1.016,2.262c0.139,1.185-1.809-0.605-3.891-0.674
	c0.464-1.893-2.042-1.826-1.947,0.169c0.045,1.315,0.604,0.606,1.438,0.64c1.157,0.136,1.157,0.709,3.477,1.119
	c0.738,0.133-0.607,1.247-0.65,2.025c-0.047,1.113-1.438,0.543-2.271,0.238c-1.114-0.443-2.872-0.072-2.179-0.98
	c1.022-1.521-1.48-1.622-1.896-0.105c-0.141,0.68-1.672,0.139-2.411,0.68c0.556,1.217,1.947-0.541,2.5,0.472
	c0.791,1.315,0.559-0.608,1.718,0.27c1.431,1.115,3.699,0.036,3.474,1.489c-0.049,0.605-0.465,1.045-0.465,1.654
	c0,0.911-2.408,0.54-3.009,0.103c-0.696-0.474-3.29,0.37-2.368-0.813c0.977-1.217-1.618-0.943-1.664,0.304
	c-0.045,0.238-0.235,0.438-0.602,0.475c0.141,0.979,0.556-0.036,0.739,0.88c0.416-0.27,1.02-0.407,1.526-0.374
	c-0.879,0.947,3.94,0.403,4.636,0.847c0.461,0.269-0.369,1.046,0.088,1.961c0.463,0.809,0.049,1.383-0.32,1.383
	c-1.761,0-3.614-0.139-5.326-0.066c-1.072,0.033,0.229-1.962-1.761-1.826c-1.068,0.068-1.254,1.151-0.833,1.727
	c0.692,1.146,0.232,1.518,2.313,0.401l0.14,0.374c0.232,0.371,5.188-0.238,5.188,0.708c0,2.706,1.202,2.737,0.232,2.907
	c-1.81,0.271-3.894-0.371-5.561,0.369c-0.091-0.91,0.232-1.518-1.386-1.455c-1.068,0-0.836,1.018-0.885,1.455
	c1.02-0.099,0.464,1.05,0.885,1.082c0.784,0.069,0.412-0.438,1.386-0.539c0.555-0.066,0.092,1.014,5.606-0.169
	c1.065-0.235-0.095,1.688,1.297,3.479c0.508,0.643-1.621,0.066-4.542,0.643c-2.176,0.438-1.16-0.543-2.082-1.354
	c-0.882-0.64-2.46,1.354-1.901,1.828c1.438-0.342,0.369,2.466,2.5,0.201c0.281-0.305,1.996,0.509,4.264-0.034
	c2.732-0.642,1.945,0.508,2.179,1.285c0.365,1.35,1.201,1.047,0.74,1.959c-0.141,0.238-2.874,0.438-4.217,0.775
	c-0.928,0.205-1.435,0.814-1.667-0.438c-0.186-1.184-3.617-0.676-2.594,0.846c0.372,0.539-0.141,0.34-0.506,1.014
	c1.892-1.15,0.967,0.305,2.264,0.102c0.836-0.135,0.281-0.475,0.928-0.475c3.568,0,4.678-0.439,5.839-0.91
	c1.25-0.543,0.51,1.52,1.48,2.158c1.064,0.676,1.299,1.391,0.879,1.523c-1.709,0.471-2.918,0.508-5,1.283
	c-1.16,0.439-0.745-0.709-1.483-0.912c-1.3-0.371-2.686,0.813-1.111,1.385c0.323,0.137,0.183,0.746,0.183,0.912
	c1.114,0.912,1.251-0.945,2.594-0.609c1.484,0.373,4.26-1.451,5.143-1.316c0.924,0.104,0.463,1.793,1.898,2.4
	c1.852,0.775-0.277,1.418-1.297,1.59c-1.252,0.199-2.314,0.707-3.475,1.182c-1.018,0.402-0.787-1.525-2.315-0.711
	c-0.696,0.406-0.324,1.217,0,1.588c1.016-0.543,0.232,0.777,1.62,0.742c1.438-0.1-0.788-0.742,2.271-1.014
	c1.666-0.1,2.822-1.283,4.492-1.283c1.205,0.033,0.326,1.926,1.482,2.568c1.207,0.609,0.557,1.318-0.371,1.148
	c-1.203-0.203-4.307,2.23-4.863,1.252c-0.6-1.012-2.455,0.168-1.715,0.947c0.096,0.096,0.559,0.875-0.322,1.012
	c2.406-0.811,1.619,0.982,2.826-0.303c1.25-1.285,3.518-0.846,4.633-1.826c1.76-1.521,1.711,0.475,2.361,1.252
	c0.416,0.438,2.176,1.889,1.297,2.26c-0.832,0.408-2.178,0.104-5.328,1.658c-0.555-1.658-2.5-0.744-2.594,0.543
	C33.646,55.089,32.814,56.106,32.439,57.085L32.439,57.085z M32.439,57.085"/>
</svg>
