<?xml version="1.0" encoding="utf-8"?>
<!-- Generator: Adobe Illustrator 16.0.0, SVG Export Plug-In . SVG Version: 6.00 Build 0)  -->
<!DOCTYPE svg PUBLIC "-//W3C//DTD SVG 1.1//EN" "http://www.w3.org/Graphics/SVG/1.1/DTD/svg11.dtd">
<svg version="1.1" id="图层_1" xmlns="http://www.w3.org/2000/svg" xmlns:xlink="http://www.w3.org/1999/xlink" x="0px" y="0px"
	 width="20px" height="20px" viewBox="0 0 20 20" enable-background="new 0 0 20 20" xml:space="preserve">
<g>
	<path fill-rule="evenodd" clip-rule="evenodd" fill="#91D0C8" d="M3.995,8.049h2.632v10.53H3.995V8.049z"/>
	<g>
		<g>
			<path fill-rule="evenodd" clip-rule="evenodd" fill="#91D0C8" d="M13.197,8.049c0.002-0.033,0.01-0.063,0.01-0.096
				c0-0.994-0.805-1.799-1.799-1.799c-0.994,0-1.799,0.806-1.799,1.799c0,0.033,0.008,0.063,0.01,0.096h-0.01v10.53h8.862V8.049
				H13.197z"/>
		</g>
	</g>
	<path fill="#2EAE9B" d="M6.183,19.538h11.133c0.702,0,1.271-0.569,1.271-1.276v-1.597c0.527,0,0.954-0.428,0.954-0.958v-7.66
		c0-0.706-0.57-1.277-1.271-1.277h-4.988c0.036-1.154-0.026-3.425-0.977-4.769c-0.628-0.887-1.749-1.488-1.749-1.488
		c-0.658-0.246-1.616,0.124-1.616,0.83c0,0,0.329,2.451-0.548,3.951C8.01,5.945,7.544,6.43,7.137,6.77H1.731
		c-0.703,0-1.273,0.571-1.273,1.277v10.215c0,0.707,0.568,1.276,1.273,1.276H6.183z M6.183,8.047v10.215H2.832
		c-0.609,0-1.103-0.456-1.103-1.022V9.067c0-0.564,0.494-1.021,1.103-1.021H6.183z M14.771,10.599c0,0.353,0.284,0.638,0.637,0.638
		h2.862v1.6h-2.862c-0.353,0-0.637,0.283-0.637,0.64c0,0.351,0.284,0.639,0.637,0.639h2.862v1.278h-2.862
		c-0.353,0-0.637,0.283-0.637,0.636s0.284,0.641,0.637,0.641h1.908v0.574c0,0.568-0.495,1.025-1.105,1.025H7.455V8.042
		c0.162-0.104,1.639-1.483,1.79-1.712c0.934-1.417,0.954-3.81,0.954-3.81c0-0.705-0.082-0.708,0.578-0.461
		c0,0,1.247,1.935,1.127,4.711c-0.011,0.24-0.002,0.652,0.115,0.878c0.149,0.287,0.306,0.398,1.005,0.398h4.143
		c0.609,0,1.103,0.458,1.103,1.021v0.896h-2.862C15.056,9.958,14.771,10.249,14.771,10.599L14.771,10.599z M3.32,15.704
		c0,0.354,0.286,0.642,0.637,0.642c0.352,0,0.637-0.284,0.637-0.642c0-0.353-0.283-0.639-0.637-0.639
		C3.606,15.069,3.32,15.352,3.32,15.704L3.32,15.704z M3.32,15.704"/>
</g>
</svg>
