<?xml version="1.0" encoding="utf-8"?>
<!-- Generator: Adobe Illustrator 16.0.0, SVG Export Plug-In . SVG Version: 6.00 Build 0)  -->
<!DOCTYPE svg PUBLIC "-//W3C//DTD SVG 1.1//EN" "http://www.w3.org/Graphics/SVG/1.1/DTD/svg11.dtd">
<svg version="1.1" id="图层_1" xmlns="http://www.w3.org/2000/svg" xmlns:xlink="http://www.w3.org/1999/xlink" x="0px" y="0px"
	 width="20px" height="20px" viewBox="0 0 20 20" enable-background="new 0 0 20 20" xml:space="preserve">
<g>
	<g>
		<path fill="#FFD155" d="M11.822,16.814H8.177c-0.287,0-0.519,0.23-0.519,0.517v0.001c0.003,0.143,0.06,0.275,0.157,0.372
			c0.097,0.098,0.228,0.149,0.362,0.146h3.646c0.287,0,0.519-0.23,0.519-0.519C12.341,17.045,12.109,16.814,11.822,16.814z
			 M10,19.923c0.919,0,1.717-0.528,2.1-1.295H7.901C8.317,19.436,9.125,19.934,10,19.923z M10,4.646
			c-3.02,0-5.465,2.435-5.465,5.438c0,1.979,1.06,3.708,2.65,4.661H7.184c0.09,0.479,0.3,0.927,0.608,1.294h4.416
			c0.306-0.366,0.519-0.809,0.606-1.294c1.59-0.952,2.649-2.683,2.649-4.661C15.465,7.08,13.02,4.646,10,4.646z M13.902,10.602
			c0,0.084-0.174,0.258-0.26,0.258c-0.345,0-0.521-0.174-0.521-0.26c0-1.916-1.456-3.367-3.123-3.367
			c-0.346,0-0.521-0.172-0.521-0.257c0-0.344,0.175-0.518,0.521-0.518c2.168,0.016,3.915,1.869,3.903,4.142V10.602L13.902,10.602z
			 M4.644,4.065L3.707,3.122c-0.259-0.261-0.678-0.261-0.937,0c-0.259,0.261-0.259,0.683,0,0.944L3.707,5.01
			c0.259,0.261,0.678,0.261,0.937,0C4.903,4.749,4.902,4.326,4.644,4.065z M17.229,3.122c-0.258-0.261-0.678-0.261-0.937,0
			l-0.937,0.944c-0.26,0.261-0.26,0.684,0,0.944c0.259,0.26,0.678,0.261,0.937,0l0.937-0.944
			C17.488,3.805,17.488,3.382,17.229,3.122z M2.051,8.405H0.726c-0.366,0-0.663,0.299-0.663,0.667c0,0.369,0.296,0.668,0.663,0.668
			h1.325c0.366,0,0.662-0.299,0.662-0.668C2.713,8.705,2.417,8.405,2.051,8.405z M19.273,8.405h-1.324
			c-0.365,0-0.663,0.299-0.663,0.667c0,0.369,0.298,0.668,0.663,0.668h1.324c0.365,0,0.662-0.299,0.662-0.668
			C19.938,8.705,19.641,8.405,19.273,8.405z M10,2.73c0.366,0,0.663-0.299,0.663-0.667V0.727c0-0.369-0.297-0.668-0.663-0.668
			S9.337,0.358,9.337,0.727v1.335C9.337,2.431,9.634,2.73,10,2.73z"/>
	</g>
</g>
</svg>
