<?xml version="1.0" encoding="utf-8"?>
<!-- Generator: Adobe Illustrator 16.0.0, SVG Export Plug-In . SVG Version: 6.00 Build 0)  -->
<!DOCTYPE svg PUBLIC "-//W3C//DTD SVG 1.1//EN" "http://www.w3.org/Graphics/SVG/1.1/DTD/svg11.dtd">
<svg version="1.1" id="图层_1" xmlns="http://www.w3.org/2000/svg" xmlns:xlink="http://www.w3.org/1999/xlink" x="0px" y="0px"
	 width="155.478px" height="170.83px" viewBox="0 0 155.478 170.83" enable-background="new 0 0 155.478 170.83"
	 xml:space="preserve">
<g>
	<defs>
		<rect id="SVGID_1_" width="155.478" height="170.83"/>
	</defs>
	<clipPath id="SVGID_2_">
		<use xlink:href="#SVGID_1_"  overflow="visible"/>
	</clipPath>
	<g clip-path="url(#SVGID_2_)">
		<path fill="#21AEF3" d="M35,50h37.5c3.34,0,7.5-1.67,7.5-5.84c0-4.16-3.33-6.66-6.66-6.66h-37.5c-4.17,0-6.67,3.33-6.67,6.66
			C29.17,47.5,31.67,50,35,50z"/>
		<path fill="#21AEF3" d="M153.34,154.16l-19.169-35.59l-0.001-0.002V15c0-8.34-6.67-15-15-15H15C6.67,0,0,6.66,0,15v136.66
			c0,8.34,6.67,15,15,15h37.75c1.81,2.59,5.17,4.17,9.75,4.17H145C154.171,170.83,158.34,163.33,153.34,154.16z M105.357,160.255
			c-0.63,0.426-1.39,0.675-2.207,0.675c-2.181,0-3.939-1.77-3.939-3.95c0-0.72,0.189-1.399,0.529-1.979
			c0.681-1.18,1.949-1.97,3.41-1.97c1.46,0,2.729,0.79,3.409,1.97c0.245,0.405,0.405,0.86,0.483,1.343
			c0.006,0.035,0.017,0.069,0.021,0.105c0.008,0.059,0.007,0.12,0.012,0.18c0.011,0.116,0.023,0.232,0.023,0.352
			C107.1,158.343,106.408,159.545,105.357,160.255z M103.58,111.88c8.07,0.211,14.58,6.811,14.75,14.89
			c0.16,7.181-5.55,10.4-9.311,12.511c-1.09,0.609-2.729,1.54-3.059,2.029c-0.221,0.62-0.21,3.491-0.181,5.801
			c0.02,1.699-1.341,3.09-3.04,3.09c-1.681,0-3.029-1.37-3.029-3.03c0-2.92,0.089-7.05,0.639-8.3c0.98-2.26,3.25-3.55,5.67-4.9
			c3.75-2.12,6.21-3.739,6.21-6.91c0-5.009-4.069-9.079-9.079-9.079c-1.421,0-2.761,0.329-3.95,0.909
			c-2.351,1.141-4.141,3.271-4.82,5.851c-0.36,1.359-1.55,2.319-2.959,2.319c-1.897,0-3.301-1.7-3.006-3.522
			c0.015-0.089,0.013-0.177,0.035-0.267c0.568-2.197,1.619-4.202,3.025-5.901c0.201-0.242,0.409-0.479,0.624-0.709
			C94.961,113.62,99.06,111.76,103.58,111.88z M12.5,152.5V15c0-1.67,1.67-2.5,2.5-2.5h104.17c1.67,0,2.5,1.66,2.5,2.5v80.358
			l-9.169-17.028c-2.391-4.38-5.531-6.67-8.721-6.86c0.159-0.46,0.29-0.95,0.39-1.47c0-4.17-3.33-6.67-6.67-6.67H35
			c-4.16,0-6.66,3.33-6.66,6.67c0,4.16,3.33,6.66,6.66,6.66h60.18c-0.35,0.52-0.679,1.07-1.009,1.67L87.89,90H35.84
			c-4.17,0-6.67,2.5-6.67,6.66c0,4.17,3.33,6.67,6.67,6.67h44.87l-7.18,13.33H31.67c-4.17,0-6.67,2.5-6.67,5.84
			c0,4.16,3.34,6.66,6.67,6.66h35.129l-13.46,25c-0.149,0.28-0.299,0.56-0.429,0.84H15C13.34,155,12.5,153.33,12.5,152.5z"/>
	</g>
</g>
</svg>
