<?xml version="1.0" encoding="utf-8"?>
<!-- Generator: Adobe Illustrator 16.0.0, SVG Export Plug-In . SVG Version: 6.00 Build 0)  -->
<!DOCTYPE svg PUBLIC "-//W3C//DTD SVG 1.1//EN" "http://www.w3.org/Graphics/SVG/1.1/DTD/svg11.dtd">
<svg version="1.1" id="图层_1" xmlns="http://www.w3.org/2000/svg" xmlns:xlink="http://www.w3.org/1999/xlink" x="0px" y="0px"
	 width="175.088px" height="167.472px" viewBox="0 0 175.088 167.472" enable-background="new 0 0 175.088 167.472"
	 xml:space="preserve">
<g>
	<defs>
		<rect id="SVGID_1_" width="175.088" height="167.472"/>
	</defs>
	<clipPath id="SVGID_2_">
		<use xlink:href="#SVGID_1_"  overflow="visible"/>
	</clipPath>
	<path clip-path="url(#SVGID_2_)" fill="#21AEF3" d="M158.781,29.916h-26.915V15.741c0-8.68-7.313-15.74-16.303-15.74h-53.67
		c-8.991,0-16.303,7.06-16.303,15.74v14.174H16.301C7.313,29.915,0,36.974,0,45.654v106.079c0,8.681,7.313,15.739,16.301,15.739
		h142.48c8.992,0,16.307-7.059,16.307-15.739V45.654C175.088,36.974,167.773,29.916,158.781,29.916 M56.293,15.741
		c0-2.979,2.511-5.405,5.6-5.405h53.67c3.085,0,5.601,2.426,5.601,5.405v14.175H56.293V15.741z M126.798,114.543h-22.819v22.268
		h-30.5v-22.268h-23.3V85.094h23.3V62.831h30.5v22.267h22.819V114.543z"/>
</g>
</svg>
