<?xml version="1.0" encoding="utf-8"?>
<!-- Generator: Adobe Illustrator 16.0.0, SVG Export Plug-In . SVG Version: 6.00 Build 0)  -->
<!DOCTYPE svg PUBLIC "-//W3C//DTD SVG 1.1//EN" "http://www.w3.org/Graphics/SVG/1.1/DTD/svg11.dtd">
<svg version="1.1" id="图层_1" xmlns="http://www.w3.org/2000/svg" xmlns:xlink="http://www.w3.org/1999/xlink" x="0px" y="0px"
	 width="173.165px" height="174.14px" viewBox="0 0 173.165 174.14" enable-background="new 0 0 173.165 174.14"
	 xml:space="preserve">
<g>
	<defs>
		<rect id="SVGID_1_" width="173.165" height="174.14"/>
	</defs>
	<clipPath id="SVGID_2_">
		<use xlink:href="#SVGID_1_"  overflow="visible"/>
	</clipPath>
	<g clip-path="url(#SVGID_2_)">
		<path fill="#21AEF3" d="M68.799,123.807H33.804c-4.021,0-7.297-3.246-7.297-7.268c0-4.05,3.276-7.296,7.297-7.296h35.561
			c1.072-6.403,3.366-12.658,6.761-18.406c0.297-0.536,0.625-1.042,0.982-1.549H33.804c-4.021,0-7.297-3.246-7.297-7.267
			c0-4.05,3.276-7.297,7.297-7.297H90.51c8.608-6.522,19.091-10.423,30.229-10.989h0.299c0.834-0.06,1.668-0.09,2.502-0.09
			c8.219,0,16.053,1.787,23.349,5.272V12.003c0.001-1.609-0.327-3.128-0.892-4.557c-0.031-0.03-0.031-0.06-0.031-0.09
			c-0.149-0.298-0.327-0.565-0.477-0.834C143.495,2.65,139.503,0,134.887,0H12.003C5.391,0,0,5.421,0,12.003V152.01
			c0,1.609,0.327,3.128,0.893,4.558c0.03,0.03,0.03,0.06,0.03,0.09c0.149,0.298,0.328,0.565,0.476,0.834
			c1.996,3.872,5.986,6.522,10.603,6.522h80.414C79.313,154.99,70.318,140.456,68.799,123.807z M33.804,40.178h79.282
			c4.021,0,7.297,3.246,7.297,7.296c0,4.02-3.276,7.267-7.297,7.267H33.804c-4.021,0-7.297-3.247-7.297-7.267
			C26.507,43.424,29.783,40.178,33.804,40.178z"/>
		<path fill="#21AEF3" d="M123.925,98.528c-11.276,0-20.453,9.176-20.453,20.452c0,2.467,2.002,4.468,4.468,4.468
			c2.467,0,4.468-2.001,4.468-4.468c0-6.352,5.165-11.518,11.518-11.518c2.467,0,4.468-2.001,4.468-4.468
			C128.393,100.529,126.391,98.528,123.925,98.528z"/>
		<path fill="#21AEF3" d="M171.222,162.792l-17.363-17.363c6.284-7.147,10.156-16.47,10.156-26.745
			c0-13.61-6.761-25.702-17.125-32.969c-1.877-1.37-3.872-2.532-5.957-3.515c-5.271-2.561-11.139-3.96-17.363-3.96h-0.029
			c-0.686,0-1.37,0.029-2.056,0.059c-0.685,0.03-1.37,0.089-2.023,0.149h-0.001l0,0c-6.791,0.692-13.112,3.076-18.512,6.751
			c-1.8,1.225-3.498,2.593-5.076,4.09c-2.801,2.62-5.242,5.629-7.179,8.965c-1.995,3.365-3.514,7.058-4.438,10.989
			c-0.058,0.225-0.098,0.456-0.149,0.683c-0.214,0.946-0.392,1.907-0.536,2.892c-0.298,1.906-0.446,3.872-0.446,5.867
			c0,1.728,0.118,3.455,0.327,5.123c2.532,19.925,19.568,35.322,40.118,35.322c6.225,0,12.122-1.43,17.363-3.961
			c0.882-0.411,1.746-0.858,2.592-1.341l2.531,2.532v-0.001l15.815,15.815c1.279,1.311,3.008,1.966,4.675,1.966
			c1.698,0,3.396-0.655,4.676-1.966C173.813,169.583,173.813,165.384,171.222,162.792z M146.89,133.993
			c-4.885,7.476-13.343,12.42-22.963,12.42c-1.268,0-2.515-0.086-3.737-0.252c-11.811-1.606-21.221-10.721-23.246-22.354
			c-0.298-1.578-0.445-3.187-0.445-4.825c0-3.425,0.626-6.73,1.787-9.738c2.926-7.751,9.285-13.827,17.233-16.381
			c2.649-0.852,5.475-1.312,8.408-1.312c9.62,0,18.078,4.944,22.963,12.42c2.829,4.288,4.467,9.441,4.467,15.011
			S149.719,129.704,146.89,133.993z"/>
	</g>
</g>
</svg>
