<?xml version="1.0" encoding="utf-8"?>
<!-- Generator: Adobe Illustrator 16.0.0, SVG Export Plug-In . SVG Version: 6.00 Build 0)  -->
<!DOCTYPE svg PUBLIC "-//W3C//DTD SVG 1.1//EN" "http://www.w3.org/Graphics/SVG/1.1/DTD/svg11.dtd">
<svg version="1.1" id="图层_1" xmlns="http://www.w3.org/2000/svg" xmlns:xlink="http://www.w3.org/1999/xlink" x="0px" y="0px"
	 width="208.343px" height="200px" viewBox="0 0 208.343 200" enable-background="new 0 0 208.343 200" xml:space="preserve">
<g>
	<defs>
		<rect id="SVGID_1_" width="208.343" height="200"/>
	</defs>
	<clipPath id="SVGID_2_">
		<use xlink:href="#SVGID_1_"  overflow="visible"/>
	</clipPath>
	<path clip-path="url(#SVGID_2_)" fill="#21AEF3" d="M208.251,62.809l-107.064,39.474L153.035,0.206
		c-10.762-4.303-45.905,59.725-71.151,109.194l-22.377,8.25c0.338-4.905-0.937-9.786-3.631-13.897
		c-1.521-2.316-3.477-4.314-5.76-5.885c-10.716-6.594-24.346-6.101-34.556,1.252c-6.566,4.154-11.514,10.427-14.024,17.78
		c-2.636,6.956-1.847,14.747,2.129,21.034c1.554,2.325,3.503,4.359,5.76,6.01c10.771,6.614,24.469,6.07,34.682-1.377
		c3.491-2.223,6.546-5.066,9.014-8.389c5.741-2,12.45-4.364,19.789-6.994c-3.427,6.864-6.521,13.141-9.146,18.513
		c-3.585,2.139-6.798,4.845-9.516,8.014c-8.651,9.253-10.785,22.848-5.383,34.307c1.358,2.461,3.138,4.664,5.258,6.511
		c5.858,4.837,13.665,6.603,21.035,4.757c7.684-1.812,14.5-6.237,19.281-12.52l-0.375,1.252c8.597-9.231,10.728-22.756,5.384-34.182
		c-1.362-2.423-3.143-4.584-5.259-6.387c-3.742-3.136-8.397-4.98-13.272-5.258l11.163-21.976
		C144.151,101.007,211.173,73.914,208.251,62.809z M36.969,131.798c-5.778,4.432-13.616,5.067-20.033,1.628
		c-0.918-0.706-1.721-1.551-2.379-2.505c-3.159-8.025,0.385-17.131,8.139-20.909c5.777-4.432,13.615-5.068,20.032-1.628
		c0.945,0.677,1.753,1.525,2.379,2.505C48.989,116.773,45.107,126.414,36.969,131.798z M85.925,157.34
		c0.908,0.745,1.636,1.687,2.128,2.755c2.732,6.74,1.208,14.46-3.881,19.657c-4.908,6.832-14.117,8.974-21.536,5.008
		c-0.881-0.771-1.604-1.707-2.128-2.754c-2.528-6.518-1.119-13.903,3.63-19.032C68.841,155.731,78.3,153.284,85.925,157.34z"/>
</g>
</svg>
