<?xml version="1.0" encoding="utf-8"?>
<!-- Generator: Adobe Illustrator 16.0.0, SVG Export Plug-In . SVG Version: 6.00 Build 0)  -->
<!DOCTYPE svg PUBLIC "-//W3C//DTD SVG 1.1//EN" "http://www.w3.org/Graphics/SVG/1.1/DTD/svg11.dtd">
<svg version="1.1" id="图层_1" xmlns="http://www.w3.org/2000/svg" xmlns:xlink="http://www.w3.org/1999/xlink" x="0px" y="0px"
	 width="113.109px" height="106.34px" viewBox="0 0 113.109 106.34" enable-background="new 0 0 113.109 106.34"
	 xml:space="preserve">
<g>
	<defs>
		<rect id="SVGID_1_" width="113.109" height="106.34"/>
	</defs>
	<clipPath id="SVGID_2_">
		<use xlink:href="#SVGID_1_"  overflow="visible"/>
	</clipPath>
	<path clip-path="url(#SVGID_2_)" fill="#21AEF3" d="M26.54,12.49c-7.16,0-14.03,8.65-14.03,19.95v16.5h28.06V27.56
		C39.99,16.419,30.86,12.49,26.54,12.49 M12.51,58.771v16.58c0,14.089,9.76,17.92,14.53,17.92c6.26,0,13.53-6.67,13.53-17.241
		V58.771H12.51z M12.51,75.351c0,14.089,9.76,17.92,14.53,17.92c6.26,0,13.53-6.67,13.53-17.241V58.771H12.51V75.351z M26.54,12.49
		c-7.16,0-14.03,8.65-14.03,19.95v16.5h28.06V27.56C39.99,16.419,30.86,12.49,26.54,12.49 M26.72,0C13.08,0,0,11.39,0,26.27v56.48
		c0,18.55,18.58,23.59,27.66,23.59c11.92,0,25.78-8.771,25.78-22.69V19.84C52.32,5.18,34.95,0,26.72,0 M50.76,81.5
		c0,12.98-12.33,21.159-22.94,21.159c-8.07,0-24.6-4.699-24.6-21.989V28.03c0-13.87,11.64-24.48,23.77-24.48
		c7.32,0,22.78,4.83,23.77,18.49V81.5z M12.51,75.351c0,14.089,9.76,17.92,14.53,17.92c6.26,0,13.53-6.67,13.53-17.241V58.771H12.51
		V75.351z M26.54,12.49c-7.16,0-14.03,8.65-14.03,19.95v16.5h28.06V27.56C39.99,16.419,30.86,12.49,26.54,12.49 M79.72,32.709h27.16
		v-3.04H79.72V32.709z M79.72,42.899H95.8v-3.4H79.72V42.899z M73.28,22.34H99.02v-3.21H73.28V22.34z M73.3,74.891l-0.03,3.04
		l27.16,0.3l0.04-3.041L73.3,74.891z M82.89,64.83l-0.04,3.4l16.091,0.179l0.029-3.399L82.89,64.83z M83.73,84.25l-0.03,3.22
		l25.729,0.29l0.04-3.22L83.73,84.25z M92.73,54.46c0.39-0.271,0.779-0.54,1.189-0.819c6.26-4.491,26.45-18.431,13.59-42.381
		c-3.399,0-4.029,1.25-4.029,1.25s17.699,17.61-11.521,37.89c-0.729,0.56-1.45,1.13-2.17,1.701c-0.5-0.391-1-0.781-1.49-1.161
		C59.07,30.649,76.77,13.05,76.77,13.05s-0.63-1.25-4.02-1.25c-12.87,23.95,7.32,37.89,13.58,42.381
		c0.17,0.109,0.32,0.219,0.49,0.329C62.1,75.159,65.52,86.84,71.31,94.73c1.171,0.35,2.15-1.34,2.15-1.34s-14.04-14.54,16.3-36.83
		c31.3,22.589,17.03,37.359,17.03,37.359s0.99,1.7,2.15,1.34C114.79,87.3,118.22,75.47,92.73,54.46"/>
</g>
</svg>
