<?xml version="1.0" encoding="utf-8"?>
<!-- Generator: Adobe Illustrator 16.0.0, SVG Export Plug-In . SVG Version: 6.00 Build 0)  -->
<!DOCTYPE svg PUBLIC "-//W3C//DTD SVG 1.1//EN" "http://www.w3.org/Graphics/SVG/1.1/DTD/svg11.dtd">
<svg version="1.1" id="图层_1" xmlns="http://www.w3.org/2000/svg" xmlns:xlink="http://www.w3.org/1999/xlink" x="0px" y="0px"
	 width="200.004px" height="200px" viewBox="0 0 200.004 200" enable-background="new 0 0 200.004 200" xml:space="preserve">
<g>
	<defs>
		<rect id="SVGID_1_" width="200.004" height="200"/>
	</defs>
	<clipPath id="SVGID_2_">
		<use xlink:href="#SVGID_1_"  overflow="visible"/>
	</clipPath>
	<path clip-path="url(#SVGID_2_)" fill="#969696" d="M43.502,43.52c-14.797,14.784-21.308,35.939-17.385,56.485
		c3.76-17.065,12.6-33.74,26.37-47.52c13.78-13.785,30.455-22.62,47.52-26.38C80.158,22.365,58.857,28.16,43.502,43.52"/>
	<path clip-path="url(#SVGID_2_)" fill="#969696" d="M193.257,160.575l-23.769-23.771c-4.776-4.767-11.4-7.203-18.125-6.665
		c22.354-32.335,19.125-77.029-9.665-105.825c-32.411-32.42-84.971-32.42-117.391,0c-32.41,32.421-32.41,84.985,0,117.405
		c28.79,28.795,73.45,32,105.806,9.646c-0.5,6.5,1.729,13.189,6.664,18.125l23.77,23.774c9,8.979,23.705,8.979,32.686,0
		C202.257,184.284,202.257,169.575,193.257,160.575 M132.058,132.055c-27.085,27.085-70.975,27.085-98.05,0
		c-27.085-27.085-27.085-70.984,0-98.069c27.075-27.086,70.965-27.086,98.05,0C159.138,61.051,159.138,104.97,132.058,132.055"/>
</g>
</svg>
