<svg width="25" height="24" viewBox="0 0 25 24" fill="none" xmlns="http://www.w3.org/2000/svg">
<path d="M15.5309 6.33966e-08H3.01165C2.61759 6.33966e-08 2.23863 0.157623 1.95943 0.437655C1.68016 0.719266 1.52372 1.09997 1.52429 1.49658V21.9791C1.52429 22.8452 2.15059 23.4757 3.01165 23.4757H15.5309C16.3132 23.4757 17.0174 22.7689 17.0174 21.9791V1.49658C17.018 1.09997 16.8616 0.719266 16.5823 0.437655C16.4446 0.298919 16.2808 0.188818 16.1004 0.113703C15.9199 0.0385868 15.7264 -5.7132e-05 15.5309 6.33966e-08ZM8.40939 20.0885C8.40939 20.3241 8.17463 20.5597 7.94071 20.5597H4.966C4.73125 20.5597 4.49733 20.3241 4.49733 20.0885V17.0157C4.49733 16.781 4.73208 16.5445 4.966 16.5445H7.93987C8.17379 16.5445 8.40771 16.7801 8.40771 17.0157L8.40939 20.0885ZM8.40939 14.5742C8.40939 14.8098 8.17463 15.0454 7.94071 15.0454H4.966C4.73125 15.0454 4.49733 14.8098 4.49733 14.5742V11.5014C4.49733 11.2667 4.73208 11.0302 4.966 11.0302H7.93987C8.17379 11.0302 8.40771 11.2658 8.40771 11.5014L8.40939 14.5742ZM9.19163 8.42862C8.80009 8.42862 8.40939 8.11422 8.40939 7.72016V6.22274H6.92203C6.53049 6.22274 6.22028 5.90834 6.22028 5.43547C6.22028 5.04141 6.53301 4.64736 6.92203 4.64736H8.40939V3.23043C8.40939 2.83637 8.72212 2.5228 9.19163 2.5228C9.58317 2.5228 9.97472 2.83805 9.97472 3.22959V4.72701H11.4612C11.8528 4.72701 12.1638 5.04141 12.1638 5.51428C12.1638 5.90834 11.8503 6.30239 11.4612 6.30239H9.97555V7.79897C9.97555 8.11422 9.58401 8.42946 9.19247 8.42946L9.19163 8.42862ZM13.8088 20.0885C13.8088 20.3241 13.5749 20.5597 13.341 20.5597H10.3654C10.1307 20.5597 9.89758 20.3241 9.89758 20.0885V17.0157C9.89758 16.781 10.1315 16.5445 10.3654 16.5445H13.3393C13.574 16.5445 13.808 16.7801 13.808 17.0157L13.8088 20.0885ZM13.8088 14.5742C13.8088 14.8098 13.5749 15.0454 13.341 15.0454H10.3654C10.1307 15.0454 9.89758 14.8098 9.89758 14.5742V11.5014C9.89758 11.2667 10.1315 11.0302 10.3654 11.0302H13.3393C13.574 11.0302 13.808 11.2658 13.808 11.5014L13.8088 14.5742ZM23.4347 11.7379H17.7225V23.4757H23.4347C24.2957 23.4757 25 22.7689 25 21.9791V13.2344C24.922 12.4463 24.2178 11.7379 23.4347 11.7379Z" fill="#D2DCFD"/>
<path d="M14.0066 6.33966e-08H1.48736C1.0933 6.33966e-08 0.714335 0.157623 0.435141 0.437655C0.155873 0.719266 -0.000569634 1.09997 1.55864e-06 1.49658V21.9791C1.55864e-06 22.8452 0.6263 23.4757 1.48736 23.4757H14.0066C14.7889 23.4757 15.4931 22.7689 15.4931 21.9791V1.49658C15.4937 1.09997 15.3373 0.719266 15.058 0.437655C14.9203 0.298919 14.7565 0.188818 14.5761 0.113703C14.3956 0.0385868 14.2021 -5.7132e-05 14.0066 6.33966e-08ZM6.8851 20.0885C6.8851 20.3241 6.65034 20.5597 6.41642 20.5597H3.44171C3.20695 20.5597 2.97303 20.3241 2.97303 20.0885V17.0157C2.97303 16.781 3.20779 16.5445 3.44171 16.5445H6.41558C6.6495 16.5445 6.88342 16.7801 6.88342 17.0157L6.8851 20.0885ZM6.8851 14.5742C6.8851 14.8098 6.65034 15.0454 6.41642 15.0454H3.44171C3.20695 15.0454 2.97303 14.8098 2.97303 14.5742V11.5014C2.97303 11.2667 3.20779 11.0302 3.44171 11.0302H6.41558C6.6495 11.0302 6.88342 11.2658 6.88342 11.5014L6.8851 14.5742ZM7.66734 8.42862C7.2758 8.42862 6.8851 8.11422 6.8851 7.72016V6.22274H5.39774C5.0062 6.22274 4.69599 5.90834 4.69599 5.43547C4.69599 5.04141 5.00872 4.64736 5.39774 4.64736H6.8851V3.23043C6.8851 2.83637 7.19783 2.5228 7.66734 2.5228C8.05888 2.5228 8.45042 2.83805 8.45042 3.22959V4.72701H9.93694C10.3285 4.72701 10.6395 5.04141 10.6395 5.51428C10.6395 5.90834 10.326 6.30239 9.93694 6.30239H8.45126V7.79897C8.45126 8.11422 8.05972 8.42946 7.66818 8.42946L7.66734 8.42862ZM12.2845 20.0885C12.2845 20.3241 12.0506 20.5597 11.8167 20.5597H8.84113C8.60637 20.5597 8.37329 20.3241 8.37329 20.0885V17.0157C8.37329 16.781 8.60721 16.5445 8.84113 16.5445H11.815C12.0498 16.5445 12.2837 16.7801 12.2837 17.0157L12.2845 20.0885ZM12.2845 14.5742C12.2845 14.8098 12.0506 15.0454 11.8167 15.0454H8.84113C8.60637 15.0454 8.37329 14.8098 8.37329 14.5742V11.5014C8.37329 11.2667 8.60721 11.0302 8.84113 11.0302H11.815C12.0498 11.0302 12.2837 11.2658 12.2837 11.5014L12.2845 14.5742ZM21.9104 11.7379H16.1983V23.4757H21.9104C22.7715 23.4757 23.4757 22.7689 23.4757 21.9791V13.2344C23.3978 12.4463 22.6935 11.7379 21.9104 11.7379Z" fill="url(#paint0_linear)"/>
<defs>
<linearGradient id="paint0_linear" x1="11.7379" y1="0" x2="11.7379" y2="23.4757" gradientUnits="userSpaceOnUse">
<stop stop-color="#537BFF"/>
<stop offset="1" stop-color="#4671FF"/>
</linearGradient>
</defs>
</svg>
