<svg width="25" height="24" viewBox="0 0 25 24" fill="none" xmlns="http://www.w3.org/2000/svg">
<path d="M11.6911 2.31434H4.7481C4.59474 2.31434 4.44696 2.37569 4.33821 2.48443C4.22946 2.59318 4.16812 2.74096 4.16812 2.89432V5.20866C4.16812 5.36202 4.22946 5.50981 4.33821 5.61855C4.44696 5.7273 4.59474 5.78864 4.7481 5.78864H11.6911C11.8445 5.78864 11.9923 5.7273 12.101 5.61855C12.2098 5.50981 12.2711 5.36202 12.2711 5.20866V2.89432C12.2711 2.57366 12.0118 2.31434 11.6911 2.31434ZM24.3224 10.5149C24.1075 10.3 23.8523 10.1295 23.5715 10.0132C23.2906 9.89696 22.9896 9.8372 22.6856 9.83735V4.91867C22.6856 4.43907 22.2981 4.05149 21.8185 4.05149C21.3389 4.05149 20.9513 4.43907 20.9513 4.91867V9.83735H19.2141V7.23302C19.2141 6.75342 18.8265 6.36583 18.3469 6.36583C17.8674 6.36583 17.4798 6.75342 17.4798 7.23302V9.83735H9.37957V8.1002H13.4283C13.735 8.1002 14.0306 7.97751 14.2453 7.76002C14.4628 7.54252 14.5854 7.24975 14.5854 6.94303V1.15717C14.5854 0.518636 14.0668 0 13.4283 0H3.01374C2.3752 0 1.85657 0.518636 1.85657 1.15717V6.94303C1.85657 7.24975 1.97926 7.54531 2.19675 7.76002C2.41424 7.97751 2.70702 8.1002 3.01374 8.1002H7.64242V9.83735H4.17091C3.55747 9.83735 2.96912 10.0799 2.53414 10.5149C2.09916 10.9471 1.85657 11.5382 1.85657 12.1517V21.989C1.85657 22.6276 2.3752 23.1462 3.01374 23.1462H4.75089C5.38942 23.1462 5.90806 22.6276 5.90806 21.989V15.046C5.90806 14.4075 6.42669 13.8888 7.06523 13.8888H15.7426C16.3812 13.8888 16.8998 14.4075 16.8998 15.046V21.989C16.8998 22.6276 17.4184 23.1462 18.057 23.1462H23.8428C24.4813 23.1462 25 22.6276 25 21.989V12.1517C25 11.5382 24.7574 10.9471 24.3224 10.5149ZM3.59372 6.94303C3.27306 6.94303 3.01374 6.68371 3.01374 6.36583V1.73715C3.01374 1.58379 3.07508 1.43601 3.18383 1.32726C3.29257 1.21851 3.44036 1.15717 3.59372 1.15717H12.8511C13.1717 1.15717 13.4311 1.41649 13.4311 1.73436V6.36305C13.4311 6.68371 13.1717 6.94024 12.8511 6.94024H3.59372V6.94303Z" fill="#FFE5BD"/>
<path d="M9.83456 2.31434H2.89153C2.73817 2.31434 2.59039 2.37569 2.48164 2.48443C2.3729 2.59318 2.31155 2.74096 2.31155 2.89432V5.20866C2.31155 5.36202 2.3729 5.50981 2.48164 5.61855C2.59039 5.7273 2.73817 5.78864 2.89153 5.78864H9.83456C9.98792 5.78864 10.1357 5.7273 10.2444 5.61855C10.3532 5.50981 10.4145 5.36202 10.4145 5.20866V2.89432C10.4145 2.57366 10.1552 2.31434 9.83456 2.31434ZM22.4658 10.5149C22.2509 10.3 21.9957 10.1295 21.7149 10.0132C21.434 9.89696 21.133 9.8372 20.8291 9.83735V4.91867C20.8291 4.43907 20.4415 4.05149 19.9619 4.05149C19.4823 4.05149 19.0947 4.43907 19.0947 4.91867V9.83735H17.3576V7.23302C17.3576 6.75342 16.97 6.36583 16.4904 6.36583C16.0108 6.36583 15.6232 6.75342 15.6232 7.23302V9.83735H7.523V8.1002H11.5717C11.8784 8.1002 12.174 7.97751 12.3887 7.76002C12.6062 7.54252 12.7289 7.24975 12.7289 6.94303V1.15717C12.7289 0.518636 12.2102 0 11.5717 0H1.15717C0.518636 0 0 0.518636 0 1.15717V6.94303C0 7.24975 0.122688 7.54531 0.34018 7.76002C0.557673 7.97751 0.850451 8.1002 1.15717 8.1002H5.78585V9.83735H2.31434C1.7009 9.83735 1.11256 10.0799 0.677572 10.5149C0.242588 10.9471 0 11.5382 0 12.1517V21.989C0 22.6276 0.518636 23.1462 1.15717 23.1462H2.89432C3.53286 23.1462 4.05149 22.6276 4.05149 21.989V15.046C4.05149 14.4075 4.57013 13.8888 5.20866 13.8888H13.886C14.5246 13.8888 15.0432 14.4075 15.0432 15.046V21.989C15.0432 22.6276 15.5619 23.1462 16.2004 23.1462H21.9862C22.6248 23.1462 23.1434 22.6276 23.1434 21.989V12.1517C23.1434 11.5382 22.9008 10.9471 22.4658 10.5149ZM1.73715 6.94303C1.41649 6.94303 1.15717 6.68371 1.15717 6.36583V1.73715C1.15717 1.58379 1.21851 1.43601 1.32726 1.32726C1.43601 1.21851 1.58379 1.15717 1.73715 1.15717H10.9945C11.3152 1.15717 11.5745 1.41649 11.5745 1.73436V6.36305C11.5745 6.68371 11.3152 6.94024 10.9945 6.94024H1.73715V6.94303Z" fill="url(#paint0_linear)"/>
<defs>
<linearGradient id="paint0_linear" x1="11.5717" y1="0" x2="11.5717" y2="23.1462" gradientUnits="userSpaceOnUse">
<stop stop-color="#FFB84F"/>
<stop offset="1" stop-color="#FFA013"/>
</linearGradient>
</defs>
</svg>
