<svg width="48" height="48" viewBox="0 0 48 48" fill="none" xmlns="http://www.w3.org/2000/svg">
<rect width="47.3514" height="48" rx="23.6757" fill="#38E084"/>
<mask id="mask0" mask-type="alpha" maskUnits="userSpaceOnUse" x="0" y="0" width="48" height="48">
<rect width="47.3514" height="48" rx="23.6757" fill="#0A9DF0"/>
</mask>
<g mask="url(#mask0)">
<path fill-rule="evenodd" clip-rule="evenodd" d="M34.1453 18.3267L81.5214 65.7029L81.7255 65.4988C81.9108 65.6811 82.0244 65.9322 82.0262 66.2032L82.1153 66.2122C82.6701 66.2682 83.0777 66.7634 83.0209 67.3118C82.9645 67.8606 82.4641 68.2634 81.9089 68.2074L81.0517 68.1209C81.1105 68.3428 81.1616 68.5667 81.2048 68.7922L81.2162 68.7833C81.2702 68.7424 81.3318 68.7125 81.3973 68.6954C81.53 68.6596 81.6714 68.6776 81.7908 68.7455C81.9103 68.8135 81.998 68.9259 82.0349 69.0582C82.2657 69.907 82.3829 70.7862 82.3829 71.6726C82.3829 75.4346 80.2829 78.8498 76.9029 80.5854C76.829 80.6237 76.7466 80.6438 76.6633 80.6438C76.4757 80.6438 76.2945 80.5426 76.2017 80.3662C76.1703 80.3062 76.1511 80.2406 76.1453 80.1731C76.1395 80.1057 76.1471 80.0377 76.1678 79.9732C76.1884 79.9087 76.2217 79.849 76.2656 79.7974C76.3096 79.7459 76.3633 79.7036 76.4237 79.673C79.4577 78.115 81.3425 75.0494 81.3425 71.673C81.3425 71.6417 81.3424 71.6104 81.342 71.5791C81.0344 74.9768 79.0092 77.9904 75.9029 79.5854C75.829 79.6238 75.7466 79.6438 75.6633 79.6438C75.5566 79.6438 75.452 79.6111 75.3645 79.5504L75.3645 83.0582C75.3645 83.4042 75.0781 83.6878 74.7277 83.6878H73.9521C73.6017 83.6878 73.3149 83.4046 73.3149 83.0582L73.3149 82.6878L72.9521 82.6878C72.6017 82.6878 72.3149 82.4046 72.3149 82.0582L72.3149 81.6878L71.9521 81.6878C71.6017 81.6878 71.3149 81.4046 71.3149 81.0582L71.3149 80.6878L71.1385 80.6878L71.1385 83.0582C71.1385 83.4042 70.8521 83.6878 70.5013 83.6878L69.7261 83.6878C69.3757 83.6878 69.0889 83.4046 69.0889 83.0582L69.0889 82.6878L68.7261 82.6878C68.3757 82.6878 68.0889 82.4046 68.0889 82.0582L68.0889 81.6878L67.7261 81.6878C67.3757 81.6878 67.0889 81.4046 67.0889 81.0582L67.0889 80.6878L66.7261 80.6878C66.6682 80.6878 66.6121 80.6801 66.5587 80.6656L66.6722 80.5521L20.7103 34.5902L20.7877 34.5127C20.6935 34.4128 20.6015 34.3111 20.5117 34.2077C20.1535 33.8965 19.8196 33.5622 19.5118 33.2077C19.1535 32.8965 18.8196 32.5622 18.5117 32.2077C18.1535 31.8965 17.8196 31.5622 17.5117 31.2077C15.3475 29.3276 14.0713 26.6056 14.0713 23.6726C14.071 22.7897 14.188 21.9107 14.4193 21.0586C14.4506 20.9433 14.5193 20.8478 14.609 20.7814C14.5136 20.6463 14.4506 20.4865 14.4325 20.3118C14.429 20.2786 14.4273 20.2456 14.4272 20.2128C13.9208 20.2054 13.4853 19.8216 13.4325 19.3118C13.3753 18.7634 13.7833 18.2686 14.3385 18.2126L17.4873 17.895C17.7346 17.4727 18.1557 17.1619 18.6535 17.0605C18.6635 17.0049 18.6827 16.9512 18.7103 16.9017C18.7433 16.8427 18.7877 16.7908 18.8409 16.749C19.654 16.1078 20.56 15.5942 21.5277 15.2258C21.656 15.1766 21.7985 15.18 21.9243 15.2352C22.0501 15.2904 22.149 15.393 22.1997 15.5206C22.2242 15.5838 22.2359 15.6512 22.2341 15.7189C22.2324 15.7867 22.2172 15.8534 22.1895 15.9152C22.1617 15.977 22.122 16.0328 22.0727 16.0791C22.0233 16.1255 21.9652 16.1616 21.9017 16.1854C21.1866 16.4577 20.5089 16.8183 19.8845 17.2585C19.9953 17.322 20.0988 17.3974 20.1932 17.4833C20.9129 16.9647 21.6976 16.5418 22.5277 16.2258C22.656 16.1766 22.7985 16.18 22.9243 16.2352C23.0501 16.2904 23.149 16.393 23.1997 16.5206C23.2197 16.5721 23.2311 16.6264 23.2337 16.6814C23.2474 16.7006 23.2597 16.7207 23.2707 16.7417C23.2791 16.7578 23.2867 16.7743 23.2935 16.7914C23.318 16.8545 23.3296 16.9219 23.3279 16.9897C23.3261 17.0574 23.3109 17.1241 23.2832 17.186C23.2795 17.1942 23.2756 17.2024 23.2714 17.2105C23.2648 17.2234 23.2576 17.236 23.25 17.2483C23.2344 17.273 23.2168 17.2965 23.1973 17.3183L23.3254 17.3053C23.3598 17.2914 23.3942 17.2777 23.4287 17.2641L23.4723 17.2471L23.5277 17.2258C23.656 17.1767 23.7985 17.18 23.9243 17.2352L23.9349 17.2401L23.9414 17.2431L24.1085 17.2262C24.1139 17.2258 24.1191 17.226 24.1243 17.2262C24.1295 17.2264 24.1347 17.2266 24.1401 17.2262C24.1579 17.2245 24.1761 17.2251 24.1943 17.2257L24.2081 17.2261C24.2144 17.2262 24.2207 17.2263 24.2269 17.2262C24.2377 17.2264 24.2486 17.226 24.2596 17.2257C24.278 17.2251 24.2963 17.2245 24.3141 17.2262C24.319 17.2266 24.3237 17.2264 24.3285 17.2261C24.334 17.2259 24.3395 17.2256 24.3453 17.2262L25.2613 17.3187C24.937 17.115 24.6806 16.8151 24.5332 16.4597C24.0808 16.2703 23.7197 15.9095 23.5332 15.4597C22.864 15.1795 22.3945 14.5242 22.3945 13.761C22.3945 12.7426 23.2297 11.917 24.2601 11.917C25.04 11.917 25.7081 12.3903 25.9867 13.0622C26.4391 13.2515 26.8002 13.6124 26.9867 14.0622C27.1508 14.1309 27.3029 14.2221 27.4389 14.332C27.4524 14.3246 27.4663 14.3178 27.4804 14.3116C27.6064 14.2565 27.7491 14.2535 27.8773 14.303C29.3305 14.859 30.6378 15.7387 31.7001 16.8754C31.7391 16.9171 31.7707 16.965 31.7938 17.017C32.1123 17.2838 32.415 17.5703 32.7001 17.8754C32.7391 17.9171 32.7707 17.965 32.7938 18.017C32.8216 18.0403 32.8492 18.0637 32.8767 18.0872L34.1153 18.2122C34.1422 18.215 34.1689 18.2187 34.1951 18.2235C34.21 18.2262 34.2248 18.2292 34.2395 18.2325L34.1453 18.3267ZM75.3645 78.3334L75.3645 78.7082C75.3742 78.7015 75.3842 78.6952 75.3943 78.6891C75.4039 78.6835 75.4137 78.6781 75.4237 78.673C78.4577 77.115 80.3425 74.0494 80.3425 70.673C80.3425 70.6417 80.3424 70.6104 80.342 70.5791C80.0499 73.8055 78.2091 76.6855 75.3645 78.3334ZM77.3257 67.7447L77.3422 67.7463C77.3256 69.8014 76.6109 71.7377 75.3645 73.2845L75.3645 72.6873C76.4442 71.2617 77.1307 69.5609 77.3257 67.7447ZM76.1902 67.63L76.2906 67.6401C76.2613 67.9114 76.2198 68.1798 76.1665 68.4447C76.1319 68.3734 76.0924 68.3048 76.0485 68.2393C76.102 68.0383 76.1493 67.8351 76.1902 67.63ZM75.3645 75.3388L75.3645 74.8192C77.0593 73.1693 78.1256 70.9692 78.342 68.5791L78.3424 68.6315L78.3425 68.673C78.3425 71.2552 77.2402 73.6555 75.3645 75.3388ZM75.3645 77.1177L75.3645 76.6734C77.6372 74.9741 79.0857 72.4099 79.342 69.5791L79.3424 69.6299L79.3425 69.673C79.3425 72.6852 77.8424 75.45 75.3645 77.1177ZM20.4237 26.3258C20.4265 26.3158 20.4289 26.3058 20.431 26.2958L20.4325 26.3118C20.4506 26.4865 20.5136 26.6463 20.609 26.7814C20.5193 26.8478 20.4506 26.9433 20.4193 27.0586C20.2673 27.6186 20.1646 28.1902 20.1122 28.7668C20.1119 28.7355 20.1117 28.7041 20.1117 28.6726C20.1111 27.88 20.2161 27.0908 20.4237 26.3258ZM19.431 25.2958C19.4289 25.3058 19.4265 25.3158 19.4237 25.3258C19.2161 26.0908 19.1111 26.88 19.1117 27.6726C19.1117 27.7041 19.1119 27.7355 19.1122 27.7668C19.1646 27.1902 19.2673 26.6186 19.4193 26.0586C19.4506 25.9433 19.5193 25.8478 19.609 25.7814C19.5136 25.6463 19.4506 25.4865 19.4325 25.3118L19.431 25.2958ZM18.4237 24.3258L18.4274 24.3116L18.431 24.2958L18.4325 24.3118C18.4506 24.4865 18.5136 24.6464 18.609 24.7814C18.5193 24.8478 18.4506 24.9433 18.4193 25.0586C18.2673 25.6186 18.1646 26.1902 18.1122 26.7668C18.1119 26.7355 18.1117 26.7041 18.1117 26.6726C18.1111 25.88 18.2161 25.0908 18.4237 24.3258ZM17.431 23.2958C17.4289 23.3058 17.4265 23.3158 17.4237 23.3258C17.2161 24.0908 17.1111 24.88 17.1117 25.6726L17.1119 25.7172L17.1122 25.7668C17.1646 25.1902 17.2673 24.6186 17.4193 24.0586C17.4506 23.9433 17.5193 23.8478 17.609 23.7814C17.5136 23.6463 17.4506 23.4865 17.4325 23.3118L17.431 23.2958ZM16.4237 22.3258C16.4265 22.3158 16.4289 22.3058 16.431 22.2958L16.4325 22.3118C16.4506 22.4865 16.5136 22.6463 16.609 22.7814C16.5193 22.8478 16.4506 22.9433 16.4193 23.0586C16.2673 23.6186 16.1646 24.1902 16.1122 24.7668C16.1119 24.7355 16.1117 24.7041 16.1117 24.6726C16.1111 23.88 16.2161 23.0908 16.4237 22.3258ZM20.2739 20.4895C20.3541 20.2788 20.5247 20.1117 20.7388 20.0345C20.6996 20.1373 20.6385 20.2316 20.5587 20.3104C20.4772 20.391 20.3798 20.4517 20.2739 20.4895ZM15.431 21.2958L15.428 21.3089L15.4237 21.3258C15.2161 22.0908 15.1111 22.88 15.1117 23.6726C15.1117 23.7041 15.1119 23.7355 15.1122 23.7668C15.1646 23.1902 15.2673 22.6186 15.4193 22.0586C15.4506 21.9433 15.5193 21.8478 15.609 21.7814C15.5136 21.6463 15.4506 21.4865 15.4325 21.3118L15.431 21.2958ZM19.0073 17.9878C19.1679 17.9878 19.3172 18.0357 19.4415 18.1177C19.0368 18.2547 18.6986 18.5342 18.4873 18.895L18.2413 18.9198C18.2303 18.8683 18.2245 18.8154 18.2241 18.7618C18.2241 18.3342 18.5749 17.9878 19.0073 17.9878ZM19.5587 19.3104C19.6385 19.2316 19.6996 19.1373 19.7388 19.0345C19.5247 19.1117 19.3541 19.2788 19.2739 19.4895C19.3798 19.4517 19.4772 19.391 19.5587 19.3104Z" fill="#29CC73"/>
</g>
<path d="M27.9732 32.4492C28.066 32.6256 28.2472 32.7268 28.4348 32.7268C28.518 32.7268 28.6005 32.7067 28.6744 32.6684C32.0544 30.9328 34.1544 27.5176 34.1544 23.7556C34.1544 22.8692 34.0372 21.99 33.8064 21.1412C33.7695 21.0088 33.6817 20.8964 33.5623 20.8285C33.4429 20.7605 33.3014 20.7425 33.1688 20.7784C33.1032 20.7955 33.0416 20.8253 32.9876 20.8663C32.9337 20.9072 32.8883 20.9585 32.8542 21.017C32.8201 21.0756 32.798 21.1403 32.789 21.2075C32.78 21.2747 32.7844 21.3429 32.802 21.4084C33.0088 22.17 33.114 22.96 33.114 23.756C33.114 27.1324 31.2292 30.198 28.1952 31.756C28.1348 31.7866 28.081 31.8289 28.0371 31.8804C27.9931 31.9319 27.9599 31.9917 27.9392 32.0562C27.9186 32.1207 27.9109 32.1886 27.9168 32.2561C27.9226 32.3236 27.9418 32.3892 27.9732 32.4492Z" fill="white"/>
<path d="M30.706 17.6552C30.8088 17.7652 30.9488 17.8208 31.0888 17.8208C31.2144 17.8208 31.3412 17.776 31.4412 17.6848C31.4913 17.6394 31.532 17.5845 31.5607 17.5232C31.5895 17.4619 31.6057 17.3956 31.6085 17.328C31.6114 17.2604 31.6007 17.1929 31.5772 17.1294C31.5537 17.066 31.5178 17.0078 31.4716 16.9584C30.4093 15.8217 29.1019 14.9419 27.6488 14.386C27.5205 14.3364 27.3779 14.3395 27.2519 14.3946C27.1259 14.4496 27.0267 14.5522 26.976 14.68C26.9514 14.7432 26.9397 14.8105 26.9414 14.8783C26.9431 14.946 26.9582 15.0127 26.9859 15.0746C27.0136 15.1364 27.0533 15.1921 27.1027 15.2385C27.152 15.2849 27.2101 15.321 27.2736 15.3448C28.5784 15.8441 29.7523 16.6342 30.706 17.6552Z" fill="white"/>
<path d="M17.5304 16.5544C17.6332 16.682 17.7844 16.748 17.9372 16.748C18.0512 16.748 18.1652 16.7116 18.2612 16.636C18.9911 16.0603 19.8044 15.5991 20.6732 15.2684C20.7366 15.2446 20.7947 15.2085 20.8441 15.1621C20.8935 15.1157 20.9332 15.06 20.9609 14.9982C20.9886 14.9364 21.0038 14.8697 21.0056 14.8019C21.0073 14.7342 20.9956 14.6668 20.9712 14.6036C20.9205 14.4759 20.8215 14.3734 20.6957 14.3182C20.5699 14.263 20.4274 14.2596 20.2992 14.3088C19.3314 14.6772 18.4255 15.1908 17.6124 15.832C17.5591 15.8737 17.5147 15.9257 17.4818 15.9847C17.4488 16.0438 17.4279 16.1088 17.4202 16.176C17.4126 16.2433 17.4184 16.3113 17.4373 16.3763C17.4562 16.4412 17.4879 16.5018 17.5304 16.5544Z" fill="white"/>
<path d="M19.3216 32.6684C19.3984 32.7076 19.4804 32.7264 19.5612 32.7264C19.6561 32.7267 19.7493 32.7011 19.8306 32.6522C19.912 32.6033 19.9785 32.5331 20.0228 32.4492C20.1556 32.1972 20.056 31.8868 19.8012 31.7556C16.7672 30.1976 14.8832 27.132 14.8832 23.7556C14.8826 22.963 14.9875 22.1738 15.1952 21.4088C15.27 21.1348 15.1056 20.8524 14.828 20.7788C14.5504 20.7056 14.2652 20.8676 14.1908 21.1416C13.9594 21.9937 13.8424 22.8727 13.8428 23.7556C13.8428 27.5172 15.942 30.932 19.3216 32.6684Z" fill="white"/>
<path d="M24.0316 12C25.0616 12 25.8968 12.8256 25.8968 13.844C25.8968 14.862 25.0616 15.688 24.0316 15.688C23.0012 15.688 22.166 14.862 22.166 13.844C22.166 12.8256 23.0012 12 24.0316 12Z" fill="white"/>
<path fill-rule="evenodd" clip-rule="evenodd" d="M24.1168 17.3092L33.8868 18.2952C34.4416 18.3512 34.8492 18.8464 34.7924 19.3948C34.736 19.9436 34.2356 20.3464 33.6804 20.2904L27.136 19.6296V19.7232C27.7124 20.0084 28.11 20.596 28.11 21.2756C28.11 21.9548 27.7128 22.5428 27.136 22.828V35.1412C27.136 35.4872 26.8496 35.7708 26.4992 35.7708H25.7236C25.3732 35.7708 25.0864 35.4876 25.0864 35.1412V27.4388H22.91V28.8908C23.3352 29.2084 23.6112 29.71 23.6112 30.2756C23.6105 30.5451 23.5467 30.8108 23.4249 31.0512C23.3032 31.2917 23.1268 31.5003 22.91 31.6604V35.1412C22.91 35.4872 22.6236 35.7708 22.2728 35.7708H21.4976C21.1472 35.7708 20.8604 35.4876 20.8604 35.1412V31.7064C20.4 31.3932 20.0972 30.8688 20.0972 30.2756C20.0978 29.9929 20.1676 29.7147 20.3007 29.4652C20.4337 29.2158 20.6259 29.0028 20.8604 28.8448V19.6296L20.3156 19.6848C20.1621 19.9573 19.9388 20.1839 19.6687 20.3415C19.3987 20.4992 19.0915 20.582 18.7788 20.5816C18.5262 20.5818 18.2765 20.5277 18.0467 20.4229C17.8169 20.3182 17.6123 20.1652 17.4468 19.9744L14.316 20.2908C13.7612 20.3464 13.2608 19.9436 13.204 19.3948C13.1468 18.8464 13.5548 18.3516 14.11 18.2956L17.2588 17.978C17.5628 17.4588 18.1296 17.108 18.7788 17.108C19.026 17.1078 19.2705 17.1598 19.4964 17.2604C19.7222 17.361 19.9243 17.5081 20.0896 17.692L23.88 17.3092C23.8854 17.3088 23.8906 17.309 23.8958 17.3092C23.901 17.3094 23.9062 17.3096 23.9116 17.3092C23.9293 17.3075 23.9475 17.308 23.9657 17.3086C23.9767 17.309 23.9876 17.3094 23.9984 17.3092C24.0091 17.3094 24.0201 17.309 24.0311 17.3086C24.0494 17.308 24.0678 17.3075 24.0856 17.3092C24.0904 17.3096 24.0952 17.3093 24.0999 17.3091C24.1054 17.3088 24.111 17.3086 24.1168 17.3092ZM26.9058 21.8285C27.0526 21.6828 27.1355 21.4848 27.1364 21.278C27.1362 20.849 26.7854 20.5012 26.3536 20.5012C26.2511 20.5008 26.1496 20.5206 26.0547 20.5594C25.9599 20.5982 25.8737 20.6554 25.8009 20.7275C25.7282 20.7997 25.6704 20.8855 25.6308 20.98C25.5913 21.0745 25.5707 21.1759 25.5704 21.2784C25.5713 21.4852 25.6544 21.6832 25.8012 21.8288C25.9481 21.9743 26.1468 22.0557 26.3536 22.0548C26.5604 22.0555 26.759 21.9741 26.9058 21.8285ZM21.302 30.8263C21.4489 30.9719 21.6476 31.0533 21.8544 31.0524C22.0611 31.0531 22.2597 30.9718 22.4064 30.8262C22.5532 30.6806 22.6362 30.4827 22.6372 30.276C22.6368 30.1736 22.6163 30.0722 22.5767 29.9777C22.5372 29.8832 22.4794 29.7974 22.4067 29.7253C22.334 29.6531 22.2478 29.596 22.1531 29.5571C22.0583 29.5182 21.9568 29.4984 21.8544 29.4988C21.7519 29.4984 21.6504 29.5182 21.5555 29.557C21.4607 29.5958 21.3745 29.653 21.3017 29.7251C21.229 29.7973 21.1712 29.8831 21.1316 29.9776C21.0921 30.0721 21.0715 30.1735 21.0712 30.276C21.0721 30.4828 21.1551 30.6808 21.302 30.8263ZM18.2268 19.3937C18.3736 19.5387 18.572 19.6196 18.7784 19.6184L18.7788 19.618C18.9851 19.6192 19.1834 19.5384 19.3302 19.3934C19.477 19.2484 19.5602 19.0511 19.5616 18.8448C19.5616 18.4172 19.2108 18.0708 18.7788 18.0708C18.3464 18.0708 17.9956 18.4172 17.9956 18.8448C17.9968 19.0512 18.08 19.2486 18.2268 19.3937Z" fill="white"/>
</svg>
