<svg width="48" height="48" viewBox="0 0 48 48" fill="none" xmlns="http://www.w3.org/2000/svg">
<rect width="48" height="48" rx="24" fill="#FFA724"/>
<mask id="mask0" mask-type="alpha" maskUnits="userSpaceOnUse" x="0" y="0" width="48" height="48">
<rect width="48" height="48" rx="24" fill="#FFA724"/>
</mask>
<g mask="url(#mask0)">
<path d="M17.181 15.2487C17.1603 14.6925 16.7029 14.248 16.1417 14.248H15.288L15.2502 14.2483C14.004 14.2685 13 15.285 13 16.536V32.3787L13.0003 32.4165C13.0145 33.29 13.5182 34.0445 14.249 34.4177L52.249 72.4177C52.6275 73.159 53.3985 73.6667 54.288 73.6667H71.656L71.6938 73.6664C72.94 73.6461 73.944 72.6297 73.944 71.3787V55.536L73.9437 55.4981C73.9295 54.6246 73.4258 53.8701 72.695 53.497L34.695 15.497C34.3165 14.7556 33.5455 14.248 32.656 14.248H31.9728L31.9511 14.2482C31.7084 14.2532 31.4862 14.3412 31.3117 14.4851C31.134 14.2039 30.8253 14.0139 30.4713 14.0007C30.4506 13.4445 29.9932 13 29.432 13C28.8576 13 28.392 13.4656 28.392 14.04V15.6516C28.2131 15.3771 27.9082 15.1923 27.5593 15.1794C27.5387 14.6232 27.0813 14.1787 26.52 14.1787H21.528C21.1299 14.1787 20.7841 14.4023 20.6093 14.7308C20.4813 14.3194 20.1048 14.0174 19.6553 14.0007C19.6346 13.4445 19.1772 13 18.616 13C18.0416 13 17.576 13.4656 17.576 14.04V15.3428C17.455 15.2871 17.3216 15.2539 17.181 15.2487Z" fill="#F49506"/>
</g>
<path d="M16.1524 14.3974C16.7267 14.3974 17.1924 14.863 17.1924 15.4374C17.1924 16.0045 16.7385 16.4655 16.1741 16.4771L16.1524 16.4774H15.2987C15.2456 16.4774 15.1946 16.4976 15.156 16.534C15.1174 16.5704 15.0941 16.6202 15.091 16.6731L15.0907 16.6854V32.528C15.0907 32.5811 15.1109 32.6321 15.1473 32.6707C15.1837 32.7093 15.2335 32.7325 15.2864 32.7357L15.2987 32.736H32.6667C32.7197 32.736 32.7707 32.7157 32.8093 32.6794C32.8479 32.643 32.8712 32.5932 32.8743 32.5402L32.8747 32.528V16.6854C32.8747 16.6323 32.8544 16.5813 32.818 16.5427C32.7816 16.5041 32.7318 16.4808 32.6789 16.4777L32.6667 16.4774H31.9835C31.4091 16.4774 30.9435 16.0117 30.9435 15.4374C30.9435 14.8702 31.3974 14.4092 31.9617 14.3976L31.9835 14.3974H32.6667C33.9176 14.3974 34.9342 15.4013 34.9543 16.6475L34.9547 16.6853V32.528C34.9547 33.779 33.9507 34.7955 32.7045 34.8157L32.6667 34.816H15.2987C14.0477 34.816 13.0312 33.812 13.011 32.5658L13.0107 32.528V16.6854C13.0107 15.4344 14.0147 14.4178 15.2608 14.3977L15.2987 14.3974H16.1524ZM22.648 20.152C23.2151 20.152 23.6762 20.6059 23.6878 21.1703L23.688 21.192L23.688 25.7446H29.2826C29.8497 25.7446 30.3108 26.1985 30.3224 26.7628L30.3226 26.7846C30.3226 27.3517 29.8687 27.8128 29.3044 27.8244L29.2826 27.8246H22.648C22.0809 27.8246 21.6198 27.3707 21.6083 26.8064L21.608 26.7846V21.192C21.608 20.6176 22.0736 20.152 22.648 20.152ZM18.6267 13.1494C19.2011 13.1494 19.6667 13.615 19.6667 14.1894V16.2694C19.6667 16.8437 19.2011 17.3094 18.6267 17.3094C18.0523 17.3094 17.5867 16.8437 17.5867 16.2694V14.1894C17.5867 13.615 18.0523 13.1494 18.6267 13.1494ZM29.4427 13.1494C30.0171 13.1494 30.4827 13.615 30.4827 14.1894V16.2694C30.4827 16.8437 30.0171 17.3094 29.4427 17.3094C28.8683 17.3094 28.4027 16.8437 28.4027 16.2694V14.1894C28.4027 13.615 28.8683 13.1494 29.4427 13.1494ZM26.5307 14.328C27.1051 14.328 27.5707 14.7936 27.5707 15.368C27.5707 15.9424 27.1051 16.408 26.5307 16.408H21.5387C20.9643 16.408 20.4987 15.9424 20.4987 15.368C20.4987 14.7936 20.9643 14.328 21.5387 14.328H26.5307Z" fill="white"/>
</svg>
