<svg width="48" height="48" viewBox="0 0 48 48" fill="none" xmlns="http://www.w3.org/2000/svg">
<rect width="48" height="48" rx="24" fill="#FF8688"/>
<mask id="mask0" mask-type="alpha" maskUnits="userSpaceOnUse" x="0" y="0" width="48" height="48">
<rect width="48" height="48" rx="24" fill="#FF8688"/>
</mask>
<g mask="url(#mask0)">
<path d="M36.384 16.0941C36.1576 15.4583 35.5485 15 34.8375 15H13.6406C12.7383 15 12 15.7383 12 16.6406V30.8566C12 31.5676 12.4583 32.1767 13.0941 32.4031L51.0941 70.4031C51.3205 71.0389 51.9296 71.4973 52.6406 71.4973H73.8375C74.7398 71.4973 75.4781 70.759 75.4781 69.8566V55.6406C75.4781 54.9296 75.0198 54.3205 74.384 54.0941L36.384 16.0941Z" fill="#FA676A"/>
</g>
<path d="M17.093 21.0359C17.093 21.6502 17.337 22.2393 17.7713 22.6736C18.2056 23.1079 18.7947 23.3519 19.409 23.3519C20.0232 23.3519 20.6123 23.1079 21.0466 22.6736C21.481 22.2393 21.725 21.6502 21.725 21.0359C21.725 20.7318 21.6651 20.4306 21.5487 20.1496C21.4323 19.8686 21.2617 19.6133 21.0466 19.3983C20.8316 19.1832 20.5763 19.0126 20.2953 18.8962C20.0143 18.7798 19.7131 18.7199 19.409 18.7199C19.1048 18.7199 18.8037 18.7798 18.5227 18.8962C18.2417 19.0126 17.9864 19.1832 17.7713 19.3983C17.5562 19.6133 17.3856 19.8686 17.2693 20.1496C17.1529 20.4306 17.093 20.7318 17.093 21.0359Z" fill="white"/>
<path d="M31.5406 20.9874L30.1547 22.5169C29.8368 22.8334 29.4225 23.0059 28.9944 22.9998C28.5664 22.9938 28.1562 22.8098 27.8457 22.4845L26.4594 20.9546C26.1652 20.63 26 20.1898 26 19.7307C26 19.5035 26.0406 19.2784 26.1194 19.0684C26.1982 18.8584 26.3137 18.6676 26.4594 18.5069C26.605 18.3462 26.7779 18.2187 26.9682 18.1317C27.1584 18.0448 27.3624 18 27.5683 18C27.9843 18 28.3832 18.1823 28.6773 18.5069L29.0149 18.8795L29.3227 18.5398C29.6168 18.2152 30.0157 18.0329 30.4317 18.0329C30.8476 18.0329 31.2465 18.2152 31.5406 18.5398C31.8348 18.8644 32 19.3046 32 19.7636C32 20.2226 31.8348 20.6629 31.5406 20.9874ZM30.8475 19.3048C30.7372 19.1831 30.5876 19.1148 30.4317 19.1148C30.2757 19.1148 30.1262 19.1831 30.0159 19.3048L29.0149 20.4094L27.9841 19.2719C27.8738 19.1502 27.7242 19.0818 27.5682 19.0819C27.4122 19.0819 27.2626 19.1504 27.1523 19.2721C27.0421 19.3939 26.9801 19.559 26.9802 19.7311C26.9802 19.9033 27.0422 20.0683 27.1525 20.19L28.5385 21.7195C28.6114 21.796 28.7012 21.85 28.7989 21.8762C28.9074 21.9334 29.0294 21.9522 29.148 21.9299C29.2666 21.9077 29.3761 21.8455 29.4615 21.752L30.8475 20.2225C30.9575 20.1005 31.0192 19.9354 31.0189 19.7633C31.0186 19.5912 30.9563 19.4263 30.8459 19.3048H30.8475Z" fill="white"/>
<path d="M34.5683 16.6117C34.716 16.6117 34.8418 16.7375 34.8418 16.8851V31.1012C34.8418 31.2488 34.716 31.3746 34.5683 31.3746H13.3715C13.2238 31.3746 13.098 31.2488 13.098 31.1012V16.8851C13.098 16.7375 13.2238 16.6117 13.3715 16.6117H34.5683ZM34.5683 15.2445H13.3715C12.4691 15.2445 11.7308 15.9828 11.7308 16.8851V31.1012C11.7308 32.0035 12.4691 32.7418 13.3715 32.7418H34.5683C35.4707 32.7418 36.209 32.0035 36.209 31.1012V16.8851C36.209 15.9828 35.4707 15.2445 34.5683 15.2445Z" fill="white"/>
<path fill-rule="evenodd" clip-rule="evenodd" d="M15.7969 29.2774H22.9637C23.2644 29.2774 23.5105 29.0313 23.5105 28.7305V28.5555C23.5105 26.2996 21.6648 24.4539 19.409 24.4539H19.3516C17.0957 24.4539 15.25 26.2996 15.25 28.5555V28.7305C15.25 29.0313 15.4961 29.2774 15.7969 29.2774ZM25.575 29.1406H32.4793C32.7801 29.1406 33.0262 28.8945 33.0262 28.5938V28.3203C33.0262 28.0195 32.7801 27.7735 32.4793 27.7735H25.575C25.2742 27.7735 25.0281 28.0195 25.0281 28.3203V28.5938C25.0281 28.8945 25.2742 29.1406 25.575 29.1406ZM25.575 26.6524H32.4793C32.7801 26.6524 33.0262 26.4063 33.0262 26.1055V25.832C33.0262 25.5313 32.7801 25.2852 32.4793 25.2852H25.575C25.2742 25.2852 25.0281 25.5313 25.0281 25.832V26.1055C25.0281 26.4063 25.2742 26.6524 25.575 26.6524Z" fill="white"/>
</svg>
