<svg width="48" height="48" viewBox="0 0 48 48" fill="none" xmlns="http://www.w3.org/2000/svg">
<rect width="48" height="48" rx="24" fill="#FF7B9D"/>
<mask id="mask0" mask-type="alpha" maskUnits="userSpaceOnUse" x="0" y="0" width="48" height="48">
<rect width="48" height="48" rx="24" fill="#FF7B9D"/>
</mask>
<g mask="url(#mask0)">
<path d="M16.2222 14H31.7778L52 34.2222V45.3333C52 45.9227 51.7659 46.4879 51.3491 46.9047C50.9324 47.3214 50.3671 47.5556 49.7778 47.5556H48.9488C48.972 47.6291 48.9875 47.7053 48.9949 47.7829C49.2507 47.8074 49.4913 47.92 49.6746 48.1032C49.8578 48.2864 49.9704 48.5271 49.9949 48.7829C50.2507 48.8074 50.4913 48.92 50.6746 49.1032C50.8578 49.2864 50.9704 49.5271 50.9949 49.7829C51.2507 49.8074 51.4913 49.92 51.6746 50.1032C51.8829 50.3116 52 50.5942 52 50.8889C52 51.1836 51.8829 51.4662 51.6746 51.6746C51.4662 51.8829 51.1836 52 50.8889 52H33.1111L14.3254 33.6746C14.1171 33.4662 14 33.1836 14 32.8889C14 32.5942 14.1171 32.3116 14.3254 32.1032C14.5338 31.8948 14.8164 31.7778 15.1111 31.7778H17.5335C17.4142 31.6383 17.3133 31.4855 17.2325 31.323C17.0193 31.2169 16.8225 31.0763 16.6509 30.9047C16.4793 30.7331 16.3386 30.5363 16.2325 30.323C16.0193 30.2169 15.8225 30.0763 15.6509 29.9047C15.4793 29.7331 15.3386 29.5363 15.2325 29.323C15.0193 29.2169 14.8225 29.0763 14.6509 28.9047C14.2341 28.4879 14 27.9227 14 27.3333V16.2222C14 15.6329 14.2341 15.0676 14.6509 14.6509C15.0676 14.2341 15.6329 14 16.2222 14Z" fill="#FF618A"/>
</g>
<path d="M16.2222 14H31.7778C32.3671 14 32.9324 14.2341 33.3491 14.6509C33.7659 15.0676 34 15.6329 34 16.2222V27.3333C34 27.9227 33.7659 28.4879 33.3491 28.9047C32.9324 29.3214 32.3671 29.5556 31.7778 29.5556H16.2222C15.6329 29.5556 15.0676 29.3214 14.6509 28.9047C14.2341 28.4879 14 27.9227 14 27.3333V16.2222C14 15.6329 14.2341 15.0676 14.6509 14.6509C15.0676 14.2341 15.6329 14 16.2222 14ZM16.2222 16.2222V27.3333H31.7778V16.2222H16.2222ZM15.1111 31.7778H32.8889C33.1836 31.7778 33.4662 31.8948 33.6746 32.1032C33.8829 32.3116 34 32.5942 34 32.8889C34 33.1836 33.8829 33.4662 33.6746 33.6746C33.4662 33.8829 33.1836 34 32.8889 34H15.1111C14.8164 34 14.5338 33.8829 14.3254 33.6746C14.1171 33.4662 14 33.1836 14 32.8889C14 32.5942 14.1171 32.3116 14.3254 32.1032C14.5338 31.8948 14.8164 31.7778 15.1111 31.7778ZM24 21.7778C24.2947 21.7778 24.5773 21.8948 24.7857 22.1032C24.994 22.3116 25.1111 22.5942 25.1111 22.8889V24C25.1111 24.2947 24.994 24.5773 24.7857 24.7857C24.5773 24.994 24.2947 25.1111 24 25.1111C23.7053 25.1111 23.4227 24.994 23.2143 24.7857C23.006 24.5773 22.8889 24.2947 22.8889 24V22.8889C22.8889 22.5942 23.006 22.3116 23.2143 22.1032C23.4227 21.8948 23.7053 21.7778 24 21.7778ZM28.4444 20.6667C28.7391 20.6667 29.0217 20.7837 29.2301 20.9921C29.4385 21.2005 29.5556 21.4831 29.5556 21.7778V24C29.5556 24.2947 29.4385 24.5773 29.2301 24.7857C29.0217 24.994 28.7391 25.1111 28.4444 25.1111C28.1498 25.1111 27.8671 24.994 27.6588 24.7857C27.4504 24.5773 27.3333 24.2947 27.3333 24V21.7778C27.3333 21.4831 27.4504 21.2005 27.6588 20.9921C27.8671 20.7837 28.1498 20.6667 28.4444 20.6667ZM19.5556 18.4444C19.8502 18.4444 20.1329 18.5615 20.3412 18.7699C20.5496 18.9783 20.6667 19.2609 20.6667 19.5556V24C20.6667 24.2947 20.5496 24.5773 20.3412 24.7857C20.1329 24.994 19.8502 25.1111 19.5556 25.1111C19.2609 25.1111 18.9783 24.994 18.7699 24.7857C18.5615 24.5773 18.4444 24.2947 18.4444 24V19.5556C18.4444 19.2609 18.5615 18.9783 18.7699 18.7699C18.9783 18.5615 19.2609 18.4444 19.5556 18.4444Z" fill="white"/>
</svg>
