<svg width="48" height="48" viewBox="0 0 48 48" fill="none" xmlns="http://www.w3.org/2000/svg">
<rect width="48" height="48" rx="24" fill="#FFB651"/>
<mask id="mask0" mask-type="alpha" maskUnits="userSpaceOnUse" x="0" y="0" width="48" height="48">
<rect width="48" height="48" rx="24" fill="#FFB651"/>
</mask>
<g mask="url(#mask0)">
<path d="M28.5801 12H19.006C18.3024 11.9999 17.6245 12.2648 17.1073 12.7419C16.5901 13.219 16.2715 13.8733 16.2149 14.5746L16.1981 14.8121C16.1514 15.6031 16.1528 16.7535 16.1911 18.1581L16.2219 19.1395C16.2639 20.2903 16.325 21.5242 16.3563 21.9699C16.4557 23.3633 16.7683 24.3032 17.4137 25.2459L17.5365 25.4199L17.6625 25.5907C17.7045 25.6467 17.7479 25.7027 17.7959 25.7625L17.8981 25.8894L13.3659 29.3647C13.2521 29.4518 13.16 29.5639 13.0965 29.6923C13.0331 29.8207 13.0001 29.962 13 30.1053V34.4C13 34.8951 13.1967 35.3699 13.5467 35.7199L32.5467 54.7199C32.8968 55.07 33.3716 55.2667 33.8667 55.2667H51.6C52.0951 55.2667 52.5699 55.07 52.9199 54.7199C53.27 54.3699 53.4667 53.8951 53.4667 53.4V49.1053L53.4634 49.0259C53.4523 48.896 53.4141 48.7698 53.3513 48.6555C53.2884 48.5412 53.2023 48.4413 53.0985 48.3623L52.4328 47.8558C52.4136 47.7863 52.3862 47.719 52.3513 47.6555C52.2884 47.5412 52.2023 47.4413 52.0985 47.3623L51.4328 46.8558C51.4136 46.7863 51.3862 46.719 51.3513 46.6555C51.2884 46.5412 51.2023 46.4413 51.0985 46.3623L50.4328 45.8558C50.4136 45.7863 50.3862 45.719 50.3513 45.6555C50.2884 45.5412 50.2023 45.4413 50.0985 45.3623L49.4328 44.8558C49.4136 44.7863 49.3862 44.719 49.3513 44.6555C49.293 44.5494 49.2146 44.4558 49.1207 44.3798C49.7432 43.506 50.0566 42.5496 50.2112 40.9969L50.2345 40.7384C50.3703 39.0887 50.501 35.0385 50.3699 33.5517C50.3081 32.8546 49.9874 32.2059 49.471 31.7336L30.471 12.7336C29.9546 12.2612 29.28 11.9995 28.5801 12Z" fill="#FFA11F"/>
</g>
<path d="M28.8467 11.8667H19.2726C18.569 11.8666 17.8911 12.1315 17.3739 12.6086C16.8567 13.0856 16.5381 13.74 16.4815 14.4413L16.4647 14.6788C16.418 15.4698 16.4194 16.6202 16.4577 18.0248L16.4885 19.0062C16.5305 20.157 16.5916 21.3909 16.6229 21.8366C16.7223 23.23 17.0349 24.1699 17.6803 25.1126L17.8031 25.2866L17.9291 25.4574C17.9711 25.5134 18.0145 25.5694 18.0625 25.6292L18.1647 25.7561L13.6325 29.2314C13.5187 29.3185 13.4266 29.4306 13.3631 29.559C13.2997 29.6874 13.2667 29.8287 13.2666 29.972V34.2667C13.2666 34.7618 13.4633 35.2366 13.8133 35.5866C14.1634 35.9367 14.6382 36.1334 15.1333 36.1334H32.8666C33.3617 36.1334 33.8365 35.9367 34.1865 35.5866C34.5366 35.2366 34.7333 34.7618 34.7333 34.2667V29.972L34.73 29.8926C34.7189 29.7627 34.6807 29.6365 34.6179 29.5222C34.555 29.4079 34.4689 29.308 34.3651 29.229L29.9098 25.8387L29.9453 25.7995C30.8688 24.7537 31.2902 23.7476 31.4778 21.8636L31.5011 21.6051C31.6369 19.9554 31.7676 15.9052 31.6365 14.4184C31.5747 13.7213 31.254 13.0726 30.7376 12.6003C30.2212 12.1279 29.5466 11.8662 28.8467 11.8667ZM19.2726 13.7334H28.8467C29.3316 13.7334 29.7343 14.102 29.7768 14.5832C29.9037 16.0158 29.7535 20.3474 29.6205 21.6788C29.4763 23.1264 29.2238 23.7704 28.6171 24.4816L28.5462 24.5642C28.4099 24.7182 27.8075 25.358 27.8401 25.323L27.7916 25.379C27.7147 25.4764 27.6581 25.5881 27.6249 25.7076C27.5917 25.8271 27.5826 25.952 27.5983 26.0751C27.6139 26.1981 27.6539 26.3168 27.716 26.4242C27.778 26.5316 27.8608 26.6256 27.9596 26.7006L32.8666 30.4344V34.2667H15.1333V30.4326L20.0757 26.6437C20.1762 26.5667 20.2599 26.4701 20.3219 26.3597C20.3838 26.2494 20.4227 26.1276 20.4361 26.0017C20.4495 25.8759 20.4371 25.7486 20.3998 25.6277C20.3625 25.5068 20.301 25.3947 20.219 25.2983L19.6674 24.6445C19.5347 24.4861 19.4082 24.3226 19.288 24.1545C18.812 23.4895 18.5885 22.8894 18.4989 21.8772L18.4849 21.705C18.4527 21.2462 18.3845 19.8523 18.3439 18.646L18.3192 17.8097C18.2833 16.398 18.2875 15.2696 18.3421 14.5911C18.3611 14.3574 18.4673 14.1394 18.6398 13.9804C18.8122 13.8215 19.0381 13.7333 19.2726 13.7334Z" fill="white"/>
<path d="M30.3 17.9333C30.5422 17.9322 30.7753 18.0253 30.9502 18.1929C31.125 18.3606 31.2278 18.5896 31.2369 18.8316C31.246 19.0736 31.1606 19.3097 30.9989 19.49C30.8371 19.6702 30.6116 19.7806 30.37 19.7976L30.3 19.8H17.7C17.4578 19.801 17.2247 19.7079 17.0499 19.5403C16.8751 19.3727 16.7723 19.1437 16.7632 18.9017C16.7541 18.6596 16.8394 18.4236 17.0012 18.2433C17.1629 18.063 17.3884 17.9527 17.63 17.9356L17.7 17.9333H30.3Z" fill="white"/>
<path d="M24.9333 27.7333V32.4H23.0667V27.7333C23.0667 27.6108 23.0908 27.4894 23.1377 27.3762C23.1846 27.2629 23.2533 27.16 23.34 27.0734C23.4267 26.9867 23.5296 26.9179 23.6428 26.871C23.7561 26.8241 23.8774 26.8 24 26.8C24.1226 26.8 24.2439 26.8241 24.3572 26.871C24.4704 26.9179 24.5733 26.9867 24.66 27.0734C24.7466 27.16 24.8154 27.2629 24.8623 27.3762C24.9092 27.4894 24.9333 27.6108 24.9333 27.7333Z" fill="white"/>
</svg>
