<svg width="48" height="48" viewBox="0 0 48 48" fill="none" xmlns="http://www.w3.org/2000/svg">
<rect width="48" height="48" rx="24" fill="#AC50FD"/>
<mask id="mask0" mask-type="alpha" maskUnits="userSpaceOnUse" x="0" y="0" width="48" height="48">
<rect width="48" height="48" rx="24" fill="#AC50FD"/>
</mask>
<g mask="url(#mask0)">
<path d="M14.3133 29.4256C14.1691 29.2813 13.9734 29.2003 13.7693 29.2003C13.5653 29.2003 13.3696 29.2813 13.2253 29.4256C13.0811 29.5699 13 29.7656 13 29.9696C13 30.1736 13.0811 30.3693 13.2253 30.5136L29.2243 46.5126L29.2253 46.5136L44.2243 61.5126L44.2253 61.5136L51.1453 68.4336C51.2898 68.5776 51.4854 68.6584 51.6893 68.6584C51.8933 68.6584 52.0889 68.5776 52.2333 68.4336C52.5341 68.1328 52.5341 67.6464 52.2333 67.3456L46.3133 61.4256L46.3119 61.4242L45.3133 60.4256L45.3119 60.4242L30.2343 45.3465L30.2333 45.3456L14.3133 29.4256Z" fill="#9B29FF"/>
<path d="M35.4333 14.2256C35.1325 13.9248 34.6461 13.9248 34.3453 14.2256L32.2269 16.344L32.1757 16.2928C31.2605 15.3776 30.1021 14.808 28.9053 14.6864C27.6573 14.5648 26.5181 14.9424 25.7053 15.7552L15.5933 25.8672L14.3581 24.632C14.2867 24.5606 14.2019 24.5039 14.1085 24.4652C14.0152 24.4266 13.9152 24.4067 13.8141 24.4067C13.7131 24.4067 13.6131 24.4266 13.5197 24.4652C13.4264 24.5039 13.3416 24.5606 13.2701 24.632C13.1987 24.7034 13.142 24.7883 13.1034 24.8816C13.0647 24.9749 13.0448 25.075 13.0448 25.176C13.0448 25.277 13.0647 25.3771 13.1034 25.4704C13.142 25.5638 13.1987 25.6486 13.2701 25.72L55.9261 68.376C56.0706 68.52 56.2662 68.6008 56.4701 68.6008C56.6741 68.6008 56.8697 68.52 57.0141 68.376C57.3149 68.0752 57.3149 67.5888 57.0141 67.288L55.7789 66.0528L65.8909 55.9408C67.5229 54.3088 67.2861 51.4032 65.3533 49.4768L65.3021 49.4256L67.4205 47.3072C67.7341 47.0128 67.7341 46.5264 67.4333 46.2256L35.4333 14.2256Z" fill="#9B29FF"/>
</g>
<path d="M13.664 28.608C13.5198 28.4637 13.3241 28.3826 13.12 28.3826C12.916 28.3826 12.7203 28.4637 12.576 28.608C12.4318 28.7523 12.3507 28.9479 12.3507 29.152C12.3507 29.356 12.4318 29.5517 12.576 29.696L18.496 35.616C18.6405 35.76 18.8361 35.8408 19.04 35.8408C19.244 35.8408 19.4396 35.76 19.584 35.616C19.8848 35.3152 19.8848 34.8288 19.584 34.528L13.664 28.608ZM34.784 13.408C34.4832 13.1072 33.9968 13.1072 33.696 13.408L31.5776 15.5264L31.5264 15.4752C30.6112 14.56 29.4528 13.9904 28.256 13.8688C27.008 13.7472 25.8688 14.1248 25.056 14.9376L14.944 25.0496L13.7088 23.8144C13.6374 23.7429 13.5526 23.6863 13.4592 23.6476C13.3659 23.6089 13.2659 23.589 13.1648 23.589C13.0638 23.589 12.9638 23.6089 12.8704 23.6476C12.7771 23.6863 12.6923 23.7429 12.6208 23.8144C12.5494 23.8858 12.4927 23.9706 12.4541 24.064C12.4154 24.1573 12.3955 24.2573 12.3955 24.3584C12.3955 24.4594 12.4154 24.5594 12.4541 24.6528C12.4927 24.7461 12.5494 24.8309 12.6208 24.9024L23.2768 35.5584C23.4213 35.7024 23.6169 35.7832 23.8208 35.7832C24.0248 35.7832 24.2204 35.7024 24.3648 35.5584C24.6656 35.2576 24.6656 34.7712 24.3648 34.4704L23.1296 33.2352L33.2416 23.1232C34.8736 21.4912 34.6368 18.5856 32.704 16.6592L32.6528 16.608L34.7712 14.4896C35.0848 14.1952 35.0848 13.7088 34.784 13.408H34.784ZM32.1664 22.048L22.0544 32.16L16.0384 26.144L21.7536 20.4288C21.7792 20.4672 21.7984 20.5184 21.8368 20.5504L24.256 22.9696C24.4005 23.1136 24.5961 23.1944 24.8 23.1944C25.004 23.1944 25.1996 23.1136 25.344 22.9696C25.6448 22.6688 25.6448 22.1824 25.344 21.8816L22.9248 19.4624C22.8864 19.424 22.8416 19.4112 22.8032 19.3792L24.1792 18.0032C24.2048 18.0416 24.224 18.0928 24.2624 18.1248L26.6816 20.544C26.8261 20.688 27.0217 20.7688 27.2256 20.7688C27.4296 20.7688 27.6252 20.688 27.7696 20.544C28.0704 20.2432 28.0704 19.7568 27.7696 19.456L25.3504 17.0368C25.312 16.9984 25.2672 16.9856 25.2288 16.9536L26.1568 16.0256C26.6368 15.5456 27.3344 15.3216 28.1152 15.3984C28.9536 15.4816 29.7856 15.8976 30.4512 16.5632L31.6352 17.7472C32.96 19.0848 33.1968 21.0112 32.1664 22.048L32.1664 22.048Z" fill="white"/>
</svg>
