<svg width="48" height="48" viewBox="0 0 48 48" fill="none" xmlns="http://www.w3.org/2000/svg">
<rect width="48" height="48" rx="24" fill="#429DF8"/>
<mask id="mask0" mask-type="alpha" maskUnits="userSpaceOnUse" x="0" y="0" width="48" height="48">
<rect width="48" height="48" rx="24" fill="#429DF8"/>
</mask>
<g mask="url(#mask0)">
<path d="M19.6608 15.6829C19.6608 16.2352 20.1085 16.6829 20.6608 16.6829C20.6608 16.7331 20.6645 16.7826 20.6716 16.8308H17.918C16.3077 16.8308 15 18.1386 15 19.7488V34.3972C15 35.4584 15.568 36.3882 16.4162 36.8989C16.6627 37.3083 17.0068 37.6524 17.4162 37.8989C17.6627 38.3083 18.0068 38.6524 18.4162 38.8989C18.6627 39.3083 19.0068 39.6524 19.4162 39.8989C19.6627 40.3083 20.0068 40.6524 20.4162 40.8989C20.6627 41.3083 21.0068 41.6524 21.4162 41.8989C21.6627 42.3083 22.0068 42.6524 22.4162 42.8989C22.6627 43.3083 23.0068 43.6524 23.4162 43.8989C23.6627 44.3083 24.0068 44.6524 24.4162 44.8989C24.6627 45.3083 25.0068 45.6524 25.4162 45.8989C25.6627 46.3083 26.0068 46.6524 26.4162 46.8989C26.6627 47.3083 27.0068 47.6524 27.4162 47.8989C27.6627 48.3083 28.0068 48.6524 28.4162 48.8989C28.6627 49.3083 29.0068 49.6524 29.4162 49.8989C29.6627 50.3083 30.0068 50.6524 30.4162 50.8989C30.6627 51.3083 31.0068 51.6524 31.4162 51.8989C31.6627 52.3083 32.0068 52.6524 32.4162 52.8989C32.6627 53.3083 33.0068 53.6524 33.4162 53.8989C33.6627 54.3083 34.0068 54.6524 34.4162 54.8989C34.6627 55.3083 35.0068 55.6524 35.4162 55.8989C35.6627 56.3083 36.0068 56.6524 36.4162 56.8989C36.6627 57.3083 37.0068 57.6524 37.4162 57.8989C37.6627 58.3083 38.0068 58.6524 38.4162 58.8989C38.6627 59.3083 39.0068 59.6524 39.4162 59.8989C39.6627 60.3083 40.0068 60.6524 40.4162 60.8989C40.6627 61.3083 41.0068 61.6524 41.4162 61.8989C41.6627 62.3083 42.0068 62.6524 42.4162 62.8989C42.6627 63.3083 43.0068 63.6524 43.4162 63.8989C43.6627 64.3083 44.0068 64.6524 44.4162 64.8989C44.6627 65.3083 45.0068 65.6524 45.4162 65.8989C45.6627 66.3083 46.0068 66.6524 46.4162 66.8989C46.6627 67.3083 47.0068 67.6524 47.4162 67.8989C47.6627 68.3083 48.0068 68.6524 48.4162 68.8989C48.6627 69.3083 49.0068 69.6524 49.4162 69.8989C49.6627 70.3083 50.0068 70.6524 50.4162 70.8989C50.6627 71.3083 51.0068 71.6524 51.4162 71.8989C51.6627 72.3083 52.0068 72.6524 52.4162 72.8989C52.6627 73.3083 53.0068 73.6524 53.4162 73.8989C53.6627 74.3083 54.0068 74.6524 54.4162 74.8989C54.6627 75.3083 55.0068 75.6524 55.4162 75.8989C55.6627 76.3083 56.0068 76.6524 56.4162 76.8989C56.6627 77.3083 57.0068 77.6524 57.4162 77.8989C57.6627 78.3083 58.0068 78.6524 58.4162 78.8989C58.6627 79.3083 59.0068 79.6524 59.4162 79.8989C59.6627 80.3083 60.0068 80.6524 60.4162 80.8989C60.6627 81.3083 61.0068 81.6524 61.4162 81.8989C61.6627 82.3083 62.0068 82.6524 62.4162 82.8989C62.6627 83.3083 63.0068 83.6524 63.4162 83.8989C63.9269 84.7471 64.8567 85.3151 65.918 85.3151H78.082C79.6926 85.3151 81 84.0018 81 82.3972V67.7488C81 66.6876 80.432 65.7578 79.5838 65.2471C79.3373 64.8377 78.9932 64.4936 78.5838 64.2471C78.3607 63.8765 78.0576 63.5594 77.6984 63.3198C77.8415 63.1468 77.9275 62.9249 77.9275 62.6829V60.6816C77.9275 59.6859 77.3823 58.8154 76.5747 58.3528C76.3366 57.9371 75.9904 57.5909 75.5747 57.3528C75.3366 56.9371 74.9904 56.5909 74.5747 56.3528C74.3366 55.9371 73.9904 55.5909 73.5747 55.3528C73.3366 54.9371 72.9904 54.5909 72.5747 54.3528C72.3366 53.9371 71.9904 53.5909 71.5747 53.3528C71.3366 52.9371 70.9904 52.5909 70.5747 52.3528C70.3366 51.9371 69.9904 51.5909 69.5747 51.3528C69.3366 50.9371 68.9904 50.5909 68.5747 50.3528C68.3366 49.9371 67.9904 49.5909 67.5747 49.3528C67.3366 48.9371 66.9904 48.5909 66.5747 48.3528C66.3366 47.9371 65.9904 47.5909 65.5747 47.3528C65.3366 46.9371 64.9904 46.5909 64.5747 46.3528C64.3366 45.9371 63.9904 45.5909 63.5747 45.3528C63.3366 44.9371 62.9904 44.5909 62.5747 44.3528C62.3366 43.9371 61.9904 43.5909 61.5747 43.3528C61.3366 42.9371 60.9904 42.5909 60.5747 42.3528C60.3366 41.9371 59.9904 41.5909 59.5747 41.3528C59.3366 40.9371 58.9904 40.5909 58.5747 40.3528C58.3366 39.9371 57.9904 39.5909 57.5747 39.3528C57.3366 38.9371 56.9904 38.5909 56.5747 38.3528C56.3366 37.9371 55.9904 37.5909 55.5747 37.3528C55.3366 36.9371 54.9904 36.5909 54.5747 36.3528C54.3366 35.9371 53.9904 35.5909 53.5747 35.3528C53.3366 34.9371 52.9904 34.5909 52.5747 34.3528C52.3366 33.9371 51.9904 33.5909 51.5747 33.3528C51.3366 32.9371 50.9904 32.5909 50.5747 32.3528C50.3366 31.9371 49.9904 31.5909 49.5747 31.3528C49.3366 30.9371 48.9904 30.5909 48.5747 30.3528C48.3366 29.9371 47.9904 29.5909 47.5747 29.3528C47.3366 28.9371 46.9904 28.5909 46.5747 28.3528C46.3366 27.9371 45.9904 27.5909 45.5747 27.3528C45.3366 26.9371 44.9904 26.5909 44.5747 26.3528C44.3366 25.9371 43.9904 25.5909 43.5747 25.3528C43.3366 24.9371 42.9904 24.5909 42.5747 24.3528C42.3366 23.9371 41.9904 23.5909 41.5747 23.3528C41.3366 22.9371 40.9904 22.5909 40.5747 22.3528C40.3366 21.9371 39.9904 21.5909 39.5747 21.3528C39.3366 20.9371 38.9904 20.5909 38.5747 20.3528C38.3366 19.9371 37.9904 19.5909 37.5747 19.3528C37.3366 18.9371 36.9904 18.5909 36.5747 18.3528C36.3366 17.9371 35.9904 17.5909 35.5747 17.3528C35.3366 16.9371 34.9904 16.5909 34.5747 16.3528C34.3366 15.9371 33.9904 15.5909 33.5747 15.3528C33.3366 14.9371 32.9904 14.5909 32.5747 14.3528C32.3366 13.9371 31.9904 13.5909 31.5747 13.3528C31.3366 12.9371 30.9904 12.5909 30.5747 12.3528C30.3366 11.9371 29.9904 11.5909 29.5747 11.3528C29.1121 10.5452 28.2416 10 27.2459 10H21.3424C19.8634 10 18.6608 11.2027 18.6608 12.6816V14.6829C18.6608 15.2352 19.1085 15.6829 19.6608 15.6829Z" fill="#1F8BF7"/>
</g>
<path d="M32.7186 33.346H32.8124V33.2522V20.106V20.0122H32.7186H26.3793C22.7717 20.0122 19.8358 22.9481 19.8358 26.5556V26.8025C19.8358 30.41 22.7717 33.346 26.3793 33.346H32.7186ZM21.0423 26.5504C21.0423 23.6084 23.4373 21.2134 26.3793 21.2134H31.6112V32.1342H26.3793C23.4373 32.1342 21.0423 29.7392 21.0423 26.7972V26.5504Z" fill="white" stroke="white" stroke-width="0.187578"/>
<path d="M25.4916 26.6791C25.4916 26.3498 25.7585 26.0829 26.0877 26.0829H29.864C30.1933 26.0829 30.4602 26.3498 30.4602 26.6791C30.4602 27.0083 30.1933 27.2752 29.864 27.2752H26.0877C25.7585 27.2752 25.4916 27.0083 25.4916 26.6791Z" fill="white"/>
<path d="M27.9716 24.194C28.3008 24.194 28.5677 24.4609 28.5677 24.7902V28.5665C28.5677 28.8957 28.3008 29.1626 27.9716 29.1626C27.6424 29.1626 27.3755 28.8957 27.3755 28.5665V24.7902C27.3755 24.4609 27.6424 24.194 27.9716 24.194Z" fill="white"/>
<path fill-rule="evenodd" clip-rule="evenodd" d="M29.9275 16.8308H30.082C31.6923 16.8308 33 18.1386 33 19.7488V34.3972C33 36.0018 31.6926 37.3151 30.082 37.3151H17.918C16.3077 37.3151 15 36.0074 15 34.3972V19.7488C15 18.1386 16.3077 16.8308 17.918 16.8308H18.6608H29.9275ZM16.5817 19.7436C16.5817 19.0462 17.1171 18.4729 17.7988 18.4125H30.082C30.8195 18.4125 31.4183 19.0113 31.4183 19.7488V34.3919C31.4183 35.1294 30.8195 35.7282 30.082 35.7282H17.918C17.1805 35.7282 16.5817 35.1294 16.5817 34.3919V19.7436Z" fill="white"/>
<path fill-rule="evenodd" clip-rule="evenodd" d="M28.9275 15.6829C29.4798 15.6829 29.9275 15.2352 29.9275 14.6829V12.6816C29.9275 11.2027 28.7248 10 27.2459 10H21.3424C19.8634 10 18.6608 11.2027 18.6608 12.6816V14.6829C18.6608 15.2352 19.1085 15.6829 19.6608 15.6829H28.9275ZM20.2424 14.0854C20.2424 14.3063 20.4215 14.4854 20.6424 14.4854H27.9511C28.172 14.4854 28.3511 14.3063 28.3511 14.0854V12.6816C28.3511 12.0754 27.8573 11.5817 27.2511 11.5817H21.3424C20.7362 11.5817 20.2424 12.0754 20.2424 12.6816V14.0854Z" fill="white"/>
</svg>
