<svg width="48" height="48" viewBox="0 0 48 48" fill="none" xmlns="http://www.w3.org/2000/svg">
<rect width="47.3514" height="48" rx="23.6757" fill="#537BFF"/>
<mask id="mask0" mask-type="alpha" maskUnits="userSpaceOnUse" x="0" y="0" width="48" height="48">
<rect width="47.3514" height="48" rx="23.6757" fill="#38ABEA"/>
</mask>
<g mask="url(#mask0)">
<path d="M31.6667 13C32.1457 12.9999 32.6064 13.1839 32.9535 13.514C33.1424 13.6936 33.2897 13.909 33.3887 14.1451L62.9535 43.514C63.3006 43.8441 63.5075 44.2949 63.5315 44.7733L63.5333 44.8667V52.3333C63.5328 52.5744 63.4389 52.8059 63.2715 52.9794C63.104 53.1528 62.8759 53.2548 62.635 53.2638C62.3941 53.2729 62.159 53.1883 61.979 53.0279C61.7991 52.8675 61.6881 52.6437 61.6695 52.4033L61.6667 52.3333V52.2621C61.6561 52.2628 61.6456 52.2634 61.635 52.2638C61.3941 52.2729 61.159 52.1883 60.979 52.0279C60.7991 51.8675 60.6881 51.6437 60.6695 51.4033L60.6667 51.3333V51.2621L60.6474 51.2633L60.635 51.2638C60.3941 51.2729 60.159 51.1883 59.979 51.0279C59.7991 50.8675 59.6881 50.6437 59.6695 50.4033L59.6667 50.3333V50.2621C59.6561 50.2628 59.6456 50.2634 59.635 50.2638C59.3941 50.2729 59.159 50.1883 58.979 50.0279C58.7991 49.8675 58.6881 49.6437 58.6695 49.4033L58.6667 49.3333V49.2621L58.6502 49.2631L58.635 49.2638C58.3941 49.2729 58.159 49.1883 57.979 49.0279C57.7991 48.8675 57.6881 48.6437 57.6695 48.4033L57.6667 48.3333V48.324C57.5499 48.4417 57.4043 48.5257 57.2456 48.5682C57.5088 48.7929 57.7345 49.0461 57.922 49.3197C58.3276 49.5991 58.6616 49.9398 58.922 50.3197C59.3276 50.5991 59.6616 50.9398 59.922 51.3197C60.3276 51.5991 60.6616 51.9398 60.922 52.3197C61.3276 52.5991 61.6616 52.9398 61.922 53.3197C62.3276 53.5991 62.6616 53.9398 62.922 54.3197C63.3276 54.5991 63.6616 54.9398 63.922 55.3197C65.9086 56.6882 66.1773 59.5269 64.4885 61.235L60.3142 65.4569C60.1861 65.5868 60.0334 65.69 59.8651 65.7604C59.6967 65.8308 59.5161 65.8671 59.3336 65.8671C59.1512 65.8671 58.9705 65.8309 58.8021 65.7606C58.6338 65.6903 58.481 65.5872 58.3528 65.4574L57.4634 64.5578C57.4248 64.5264 57.3879 64.4929 57.3528 64.4574L56.4634 63.5578C56.4248 63.5264 56.3879 63.4929 56.3528 63.4574L55.4634 62.5578C55.4248 62.5264 55.3879 62.4929 55.3528 62.4574L54.4634 61.5578C54.4248 61.5264 54.3879 61.4929 54.3528 61.4574L53.4634 60.5578C53.4248 60.5264 53.3879 60.4929 53.3528 60.4574L52.4634 59.5578C52.4248 59.5264 52.3879 59.4929 52.3528 59.4574L51.4634 58.5578C51.4248 58.5264 51.3879 58.4929 51.3528 58.4574L50.4634 57.5578C50.4248 57.5264 50.3879 57.4929 50.3528 57.4574L49.4634 56.5578C49.4248 56.5264 49.3879 56.4929 49.3528 56.4574L48.4634 55.5578C48.4248 55.5264 48.3879 55.4929 48.3528 55.4574L47.4634 54.5578C47.4248 54.5264 47.3879 54.4929 47.3528 54.4574L46.4634 53.5578C46.4248 53.5264 46.3879 53.4929 46.3528 53.4574L45.4634 52.5578C45.4248 52.5264 45.3879 52.4929 45.3528 52.4574L44.8667 51.9657V54.4874C45.0347 54.5235 45.1909 54.6056 45.3168 54.7263C45.4916 54.8939 45.5944 55.123 45.6035 55.365C45.6048 55.399 45.6042 55.433 45.6018 55.4667H45.6667C45.9089 55.4656 46.142 55.5587 46.3168 55.7263C46.4916 55.8939 46.5944 56.123 46.6035 56.365C46.6048 56.399 46.6042 56.433 46.6018 56.4667H46.6667C46.9089 56.4656 47.142 56.5587 47.3168 56.7263C47.4916 56.8939 47.5944 57.123 47.6035 57.365C47.6048 57.399 47.6042 57.433 47.6018 57.4667H47.6667C47.9089 57.4656 48.142 57.5587 48.3168 57.7263C48.4916 57.8939 48.5944 58.123 48.6035 58.365C48.6048 58.399 48.6042 58.433 48.6018 58.4667H48.6667C48.9089 58.4656 49.142 58.5587 49.3168 58.7263C49.4916 58.8939 49.5944 59.123 49.6035 59.365C49.6048 59.399 49.6042 59.433 49.6018 59.4667H49.6667C49.9089 59.4656 50.142 59.5587 50.3168 59.7263C50.4916 59.8939 50.5944 60.123 50.6035 60.365C50.6048 60.399 50.6042 60.433 50.6018 60.4667H50.6667C50.9089 60.4656 51.142 60.5587 51.3168 60.7263C51.4916 60.8939 51.5944 61.123 51.6035 61.365C51.6048 61.399 51.6042 61.433 51.6018 61.4667H51.6667C51.9089 61.4656 52.142 61.5587 52.3168 61.7263C52.4916 61.8939 52.5944 62.123 52.6035 62.365C52.6048 62.399 52.6042 62.433 52.6018 62.4667H52.6667C52.9089 62.4656 53.142 62.5587 53.3168 62.7263C53.4916 62.8939 53.5944 63.123 53.6035 63.365C53.6048 63.399 53.6042 63.433 53.6018 63.4667H53.6667C53.9089 63.4656 54.142 63.5587 54.3168 63.7263C54.4916 63.8939 54.5944 64.123 54.6035 64.365C54.6048 64.399 54.6042 64.433 54.6018 64.4667H54.6667C54.9089 64.4656 55.142 64.5587 55.3168 64.7263C55.4916 64.8939 55.5944 65.123 55.6035 65.365C55.6126 65.607 55.5273 65.8431 55.3655 66.0233C55.2038 66.2036 54.9783 66.3139 54.7367 66.331L54.6667 66.3333H44.8667C44.3878 66.3333 43.9272 66.1493 43.5802 65.8192C43.3914 65.6396 43.244 65.4243 43.1451 65.1882L13.5802 35.8192C13.2331 35.4891 13.0263 35.0383 13.0023 34.56L13 34.4667V14.8667C13 14.3878 13.1841 13.9272 13.5141 13.5802C13.8442 13.2331 14.295 13.0263 14.7733 13.0023L14.8667 13H31.6667Z" fill="#3967FC"/>
</g>
<path d="M31.4667 12.3333C31.9457 12.3332 32.4064 12.5172 32.7535 12.8473C33.1006 13.1774 33.3076 13.6283 33.3315 14.1066L33.3334 14.2V21.6666C33.3328 21.9077 33.239 22.1392 33.0715 22.3127C32.9041 22.4861 32.676 22.5881 32.4351 22.5971C32.1942 22.6062 31.9591 22.5216 31.7791 22.3612C31.5991 22.2008 31.4882 21.977 31.4695 21.7366L31.4667 21.6666V14.2H14.6667V33.8H24.4667C24.7089 33.7989 24.942 33.892 25.1169 34.0596C25.2917 34.2272 25.3945 34.4563 25.4036 34.6983C25.4127 34.9403 25.3273 35.1764 25.1656 35.3566C25.0038 35.5369 24.7783 35.6472 24.5367 35.6643L24.4667 35.6666H14.6667C14.1878 35.6666 13.7272 35.4826 13.3802 35.1525C13.0332 34.8224 12.8263 34.3716 12.8024 33.8933L12.8 33.8V14.2C12.8 13.7211 12.9841 13.2605 13.3142 12.9135C13.6443 12.5665 14.0951 12.3596 14.5734 12.3356L14.6667 12.3333H31.4667Z" fill="white"/>
<path d="M26.7999 16.0667C27.0421 16.0656 27.2752 16.1587 27.4501 16.3263C27.6249 16.4939 27.7277 16.7229 27.7368 16.965C27.7459 17.207 27.6605 17.4431 27.4988 17.6233C27.337 17.8036 27.1115 17.9139 26.8699 17.931L26.7999 17.9333H19.3333C19.0911 17.9343 18.8581 17.8411 18.6833 17.6734C18.5086 17.5058 18.4059 17.2768 18.3969 17.0348C18.3879 16.7928 18.4732 16.5568 18.635 16.3766C18.7967 16.1964 19.0222 16.0861 19.2637 16.069L19.3337 16.0667H26.8004H26.7999Z" fill="white"/>
<path d="M29.1333 24.902L29.068 24.8502C27.8383 23.8898 26.1457 23.7055 24.8003 24.4909C22.5837 25.7836 22.2197 28.7889 23.9781 30.5683L28.1529 34.7907C28.2811 34.9205 28.4338 35.0236 28.6022 35.0939C28.7705 35.1643 28.9512 35.2004 29.1337 35.2004C29.3161 35.2004 29.4968 35.1641 29.6651 35.0937C29.8334 35.0233 29.9861 34.9201 30.1143 34.7902L34.2886 30.5683C36.0475 28.7894 35.683 25.784 33.4659 24.4904C32.1214 23.7055 30.4283 23.8898 29.1982 24.8498L29.1333 24.902ZM32.6119 26.1564C33.6889 26.8564 33.8462 28.3605 32.9609 29.256L29.1333 33.127L25.3057 29.256C24.3971 28.3367 24.5866 26.7766 25.7411 26.1028C26.4757 25.6744 27.472 25.8424 28.1328 26.5111L28.4702 26.8518C28.557 26.9395 28.6603 27.0092 28.7743 27.0568C28.8882 27.1043 29.0104 27.1288 29.1338 27.1288C29.2572 27.1288 29.3794 27.1043 29.4934 27.0568C29.6073 27.0092 29.7106 26.9395 29.7974 26.8518L30.1339 26.5111C30.7947 25.8428 31.7915 25.6744 32.5251 26.1028L32.6119 26.1564Z" fill="white"/>
</svg>
