<?xml version="1.0" standalone="no"?>
<!DOCTYPE svg PUBLIC "-//W3C//DTD SVG 1.1//EN" "http://www.w3.org/Graphics/SVG/1.1/DTD/svg11.dtd" >
<!--
2013-9-30: Created.
-->
<svg>
<metadata>
Created by iconfont
</metadata>
<defs>

<font id="iconfont" horiz-adv-x="1024" >
  <font-face
    font-family="iconfont"
    font-weight="500"
    font-stretch="normal"
    units-per-em="1024"
    ascent="896"
    descent="-128"
  />
    <missing-glyph />
    
    <glyph glyph-name="-index1" unicode="&#58936;" d="M555.52032 877.632A102.144 102.144 0 0 1 439.36032 878.08L76.80032 629.6320000000001A103.168 103.168 0 0 1 32.00032 544.192v-568.832A103.04 103.04 0 0 1 134.72032-128h718.784a103.04 103.04 0 0 1 102.72 103.36V544.64a103.872 103.872 0 0 1-44.288 85.056L555.52032 877.632zM271.80832 139.84000000000003a40.256 40.256 0 0 1-40.32-40.32v-45.44c0-22.272 18.112-40.32 40.32-40.32h444.608c22.208 0 40.256 18.048 40.256 40.32v45.44a40.256 40.256 0 0 1-40.32 40.32H271.87232z"  horiz-adv-x="1024" />

    
    <glyph glyph-name="-user1" unicode="&#58935;" d="M617.28 320.192H401.344A305.408 305.408 0 0 1 96 15.360000000000014 143.68 143.68 0 0 1 239.616-128h539.264a143.68 143.68 0 0 1 143.616 143.36c0.128 168.064-136.832 304.832-305.216 304.832zM509.312 353.91999999999996c149.632 0 271.488 121.6 271.488 271.04A271.616 271.616 0 0 1 509.312 896a271.616 271.616 0 0 1-271.488-270.976A271.616 271.616 0 0 1 509.312 353.91999999999996z m-58.048 220.288H579.2c14.08 0 24.896-13.44 20.928-26.88a94.72 94.72 0 0 0-181.504 0c-3.968 13.44 6.784 26.88 32.704 26.88z"  horiz-adv-x="1024" />

    
    <glyph glyph-name="-qylc4" unicode="&#58930;" d="M654.171875 127.51041667000004c5.0625-2.953125 10.96875-4.640625 16.875-4.640625s11.8125 1.6875 16.875 4.640625c10.546875 5.90625 16.875 16.875 16.875 29.109375 0 11.8125-6.328125 23.203125-16.875 29.109375-5.0625 2.953125-10.96875 4.640625-16.875 4.640625s-11.8125-1.6875-16.875-4.640625c-10.546875-5.90625-16.875-16.875-16.875-29.109375 0-11.8125 6.328125-23.203125 16.875-29.109375z m-70.453125 62.4375H388.8125a33.75 33.75 0 0 1-33.75-33.328125c0-18.5625 15.1875-33.328125 33.75-33.328125h194.90625a33.75 33.75 0 0 1 33.75 33.328125 33.2015625 33.2015625 0 0 1-33.75 33.328125zM852.03125 722.35416667H169.4375C137.375 722.35416667 111.21875 696.61979167 111.21875 664.55729167v-145.125c0-28.6875 21.09375-52.3125 48.9375-56.953125v-330.328125c0-58.640625 48.09375-105.890625 107.15625-105.890625h487.6875c59.0625 0 107.15625 47.671875 107.15625 105.890625V462.47916667c27.421875 4.640625 48.9375 28.265625 48.9375 56.953125V664.97916667c-0.84375 31.640625-27 57.375-59.0625 57.375z m-409.21875-67.078125h127.40625v-286.875l-45.984375 45.5625c-4.640625 4.640625-10.96875 7.171875-17.71875 7.171875s-13.078125-2.109375-17.71875-7.171875L442.8125 368.40104167000004v286.875z m-264.09375-126.5625v126.5625h196.59375v-126.5625H178.71875z m615.09375-396.5625c0-21.515625-17.71875-39.234375-39.234375-39.234375H266.890625c-21.515625 0-39.234375 17.71875-39.234375 39.234375V461.63541667h147.65625v-194.484375c0-13.921875 11.390625-24.890625 25.3125-24.890625 6.75 0 13.078125 2.53125 17.71875 7.171875l83.953125 83.109375a6.328125 6.328125 0 0 0 4.640625 1.6875c1.6875 0 3.375-0.84375 4.640625-1.6875l83.53125-83.109375a25.3125 25.3125 0 0 1 43.03125 17.71875V461.63541667h156.09375v-329.484375z m48.9375 396.5625h-205.03125v126.5625h205.03125v-126.5625z"  horiz-adv-x="1024" />

    
    <glyph glyph-name="-qylc3" unicode="&#58929;" d="M680.16 298.4c49.92 46.08 81.6 112.32 81.6 186.72V726.56c1.92 9.12 0 18.72-6.72 25.92C706.56 803.84 615.36 836 516.48 836c-93.12 0-178.56-28.32-228.96-75.36-8.16-5.28-13.44-13.92-13.44-24.48v-251.52c0-74.88 32.16-141.6 82.56-187.68-122.88-40.8-212.16-152.16-224.64-288.48-1.44-15.36 3.84-30.72 13.92-42.24 10.08-11.52 24.96-18.24 40.32-18.24h668.64c15.36 0 29.76 6.72 39.84 18.24 10.08 11.52 15.36 26.88 13.92 42.72-12.48 136.8-104.64 249.6-228.48 289.44z m-350.4 423.84c41.28 35.04 110.4 56.16 186.72 56.16 76.8 0 149.28-22.56 189.6-58.08v-186.24c-48.48 26.4-115.68 41.76-188.64 41.76-72 0-138.72-15.36-187.2-41.28V722.24z m0.96-252.96l0.96-0.96c37.92 31.2 109.44 50.4 185.76 50.4 77.76 0 150.72-20.64 187.68-52.32-9.12-97.92-89.28-174.72-187.2-174.72-98.4 0-179.52 78.24-187.2 177.6z m28.32-353.76c6.24 0 11.52-5.28 11.52-11.52s-5.28-12-11.52-12-11.52 5.28-11.52 11.52 5.28 12 11.52 12zM188.16 5.600000000000023c9.6 96.48 68.16 179.52 149.76 221.28-5.76-18.24-8.64-37.44-8.64-57.12v-14.88c-16.8-10.56-28.32-29.28-28.32-50.88 0-33.12 25.92-59.52 58.08-59.52 32.16 0 58.08 26.88 58.08 59.52 0 23.04-12.96 42.72-31.68 52.8v12.96c0 30.24 10.08 59.04 28.32 82.56l8.64 1.44h0.48c29.28-12.96 61.44-19.68 95.04-19.68s65.76 7.2 95.04 19.68c19.2-23.52 29.76-53.28 29.76-84v-12.48c-17.28-10.08-28.8-29.28-28.8-50.88v-35.04c0-13.44 10.56-24 23.52-24s23.52 10.56 23.52 24v35.04c0 4.32 2.4 8.16 6.24 10.08 1.44 0 2.4-0.48 3.84-0.48s2.88 0 4.8 0.48c3.84-1.92 6.24-5.76 6.24-10.08v-35.04c0-13.44 10.56-24 23.52-24s23.52 10.56 23.52 24v35.04c0 22.08-12 41.28-29.76 51.36v12c0 22.56-3.84 44.16-11.04 64.8 89.76-38.88 155.52-125.28 165.6-228.96H188.16z m360.48 617.28v15.84h15.36c15.36 0 27.84 12.96 27.84 28.8 0 15.84-12.48 28.8-27.84 28.8h-15.36v15.84c0 15.84-12.48 28.8-27.84 28.8-15.36 0-27.84-12.96-27.84-28.8v-15.84h-15.84c-15.36 0-27.84-12.96-27.84-28.8 0-15.84 12.48-28.8 27.84-28.8h15.36v-15.84c0-15.84 12.48-28.8 27.84-28.8 15.84 0 28.32 12.96 28.32 28.8z"  horiz-adv-x="1024" />

    
    <glyph glyph-name="-qylc2" unicode="&#58928;" d="M473.75 131.10000000000002l-179.1 76.05c-9 3.6-19.35 0-23.4-8.55l-48.15-106.65c-6.75-14.4-4.95-31.05 4.05-44.55l60.75-90.9 110.25 18.45c16.2 2.7 29.7 13.05 36.45 27.45l48.15 106.65c4.05 8.1 0 18.45-9 22.05z m270.9 634.95L591.2 831.3c-16.2 6.75-34.65 0-41.4-15.3l-20.7-46.35 211.5-89.55 20.7 46.35a29.7 29.7 0 0 1-16.65 39.6zM301.4 264.75c-6.75-15.3 0.45-33.3 16.65-40.05l153.45-65.25c16.2-6.75 34.65 0 41.4 15.3L724.85 645l-211.5 89.55-211.95-469.8z"  horiz-adv-x="1024" />

    
    <glyph glyph-name="-qylc1" unicode="&#58927;" d="M509.3 395.25a224.865 224.865 0 0 1 171.9 63.9 217.035 217.035 0 0 1 64.8 169.2c-7.2 109.8-96.3 198-207.9 204.75-63.9 4.5-126.9-18.9-171.9-63.45S297.35 663.45 301.4 600.45c7.2-110.25 96.3-198 207.9-205.2zM438.2 698.55c22.95 22.5 53.1 35.1 85.5 35.1 2.7 0 5.4 0 8.1-0.45 59.4-3.6 108.9-52.65 112.95-111.15 2.25-34.65-10.35-67.5-35.1-92.25-24.75-24.75-58.05-36.9-93.6-34.65-59.85 4.05-109.35 53.1-112.95 111.6-2.25 34.65 10.35 67.5 35.1 91.8z m499.05-650.7c-48.6 182.25-216.45 313.2-413.1 313.2-197.1 0-364.5-130.95-413.1-313.2-8.55-32.4 13.95-64.8 47.7-68.4 27.45-3.15 52.65 14.4 59.85 40.95 36 134.55 160.2 230.85 305.55 230.85s269.1-96.3 305.55-230.85c7.2-26.55 32.4-44.1 59.85-40.95 33.3 3.6 56.25 36 47.7 68.4z"  horiz-adv-x="1024" />

    
    <glyph glyph-name="-links" unicode="&#58941;" d="M292.2 710.5c28.7 0.4 56.4-10.8 76.8-31l165.4-165.4c41.7-42.8 41.7-110.9 0-153.7-6.8-6.7-10.8-15.8-10.8-25.4 0-9.6 3.9-18.8 10.8-25.4 7.2-6.3 16.4-10 25.9-10.3 9.7-0.2 18.9 3.6 25.9 10.3 34.6 33.4 53.9 79.6 53.4 127.7-0.2 47.9-19.4 93.9-53.4 127.7L420.7 730.2c-33.4 34.6-79.6 53.9-127.7 53.4-47.9-0.2-93.9-19.4-127.7-53.4-34.6-33.4-53.9-79.6-53.4-127.7 0-47.8 18.8-93.7 52.6-127.7l139.6-139.6c14-14 36.7-14 50.8 0 14 14 14 36.8 0 50.8L215.4 525.8c-19.7 20.8-30.8 48.3-31 76.9-0.4 28.7 10.8 56.4 31 76.8 20.7 19.7 48.2 30.7 76.8 31zM858.6 292.29999999999995L719 431.9c-14 14.2-36.8 14.4-51 0.4-14.2-14-14.4-36.8-0.4-51l139.6-139.6c19.7-20.7 30.8-48.2 31-76.8 0.4-28.8-10.8-56.4-31-76.9-20.7-19.7-48.2-30.8-76.8-31-28.7-0.4-56.4 10.8-76.8 31L488.1 253.39999999999998c-41.7 42.8-41.7 110.9 0 153.7 14 14 14 36.8 0 50.9-14 14-36.7 14-50.8 0-34.6-33.4-53.9-79.6-53.4-127.7l0.6-0.3c0.2-47.9 19.4-93.9 53.4-127.7L603.3 37c70.6-70.2 184.6-70.2 255.2 0 34.6 33.4 53.9 79.6 53.4 127.7-0.1 47.9-19.3 93.8-53.3 127.6z"  horiz-adv-x="1024" />

    
    <glyph glyph-name="-jzicon4" unicode="&#58924;" d="M259.072 592.384l5.12-5.12 57.344-55.296c14.336-13.824 37.376-13.824 51.712 0l57.344 55.296 5.12 5.12c21.504 22.016 20.48 56.832-2.048 78.848-22.528 22.016-58.368 22.528-81.408 1.536l-5.12-5.12-5.12 5.12c-23.04 20.992-58.88 20.48-81.408-1.536a55.296 55.296 0 0 1-1.536-78.848z m-5.632-286.208h296.448c23.04 0 41.472 17.92 41.472 40.448 0 22.528-18.432 40.448-41.472 40.448H253.44c-23.04 0-41.472-17.92-41.472-40.448 0.512-22.016 18.944-40.448 41.472-40.448z m489.984-133.12H253.44c-23.04 0-41.472-17.92-41.472-40.448 0-22.528 18.432-40.448 41.472-40.448h489.472c23.04 0 41.472 17.92 41.472 40.448 0.512 22.528-18.432 40.448-40.96 40.448z m206.848 448a41.1648 41.1648 0 0 1-11.776 31.744L702.464 884.224l-2.56 2.56c-1.024 0.512-1.536 1.536-2.56 2.048l-0.512 0.512-3.072 1.536h-1.024l-3.072 1.536s-0.512 0-0.512 0.512c-1.024 0.512-2.048 0.512-3.072 1.024h-1.024c-1.024 0.512-2.048 0.512-3.072 1.024h-0.512c-1.024 0-2.56 0.512-3.584 0.512H232.96C146.944 896 76.8 827.392 76.8 743.424v-693.248c0-83.968 70.144-152.576 155.648-152.576h561.664c86.016 0 155.648 68.608 155.648 152.576V618.496c0.512 0.512 0.512 1.536 0.512 2.56z m-236.032 134.656l91.136-91.136h-17.92c-40.448 0-73.216 32.256-73.216 71.68v19.456z m153.6-705.536c0-39.424-32.768-71.68-73.216-71.68H232.448c-40.448 0-73.216 32.256-73.216 71.68V743.424c0 39.424 32.768 71.68 73.216 71.68h398.848v-78.848c0-83.968 70.144-152.576 155.648-152.576h80.384v-533.504z"  horiz-adv-x="1024" />

    
    <glyph glyph-name="-jzicon3" unicode="&#58923;" d="M769.024 838.144c-79.36-73.728-211.456-252.416-211.456-358.912 0-107.008 94.72-193.536 211.456-193.536s211.456 86.528 211.456 193.536c0 106.496-129.024 283.136-211.456 358.912zM407.04 148.99199999999996h36.864c20.48 0 36.864 15.36 36.864 34.304v51.712h59.392c20.48 0 36.864 15.36 36.864 34.304v34.304c0 18.944-16.384 34.304-36.864 34.304H481.28V389.632c0 18.944-16.384 34.304-36.864 34.304h-37.376c-20.48 0-36.864-15.36-36.864-34.304v-51.712H318.464c-20.48 0-36.864-15.36-36.864-34.304v-34.304c0-18.944 16.384-34.304 36.864-34.304h51.712v-51.712c0-18.944 16.384-34.304 36.864-34.304z m361.984 104.96c-26.624 0-49.664-17.92-53.76-41.472-34.816-136.704-130.56-206.336-285.184-206.336-170.496 0-284.672 104.448-290.816 265.728-2.56 68.608 31.232 157.184 98.816 257.024 49.664 73.728 118.272 154.112 188.928 221.184 23.04-22.016 47.104-47.104 76.288-80.384 10.24-11.776 26.112-18.944 42.496-18.944 19.456 0 36.864 9.216 46.592 24.064l0.512 1.024c12.288 18.432 10.24 41.984-4.608 58.88a2011.136 2011.136 0 0 1-150.016 153.6L430.08 896l-8.192-7.68c-56.32-52.736-163.84-159.744-252.928-282.112C73.728 475.648 25.6 363.00800000000004 25.6 272.384c0-100.352 41.984-194.048 118.272-265.216C220.16-63.488000000000056 322.048-102.39999999999998 430.08-102.39999999999998c207.872 0 366.08 119.808 392.704 298.496 0.512 2.048 0.512 3.584 0 5.632v3.072c0.512 27.136-24.064 49.152-53.76 49.152z"  horiz-adv-x="1024" />

    
    <glyph glyph-name="-jzicon2" unicode="&#58922;" d="M440.32 540.1600000000001V690.688h167.936v-150.528l94.208 94.208c32.768 32.768 32.768 86.016 0 118.784L583.68 871.424c-32.768 32.768-86.016 32.768-118.784 0L346.624 752.64c-32.768-32.768-32.768-86.016 0-118.784L440.32 540.1600000000001z m-209.408-226.816V480.768h150.528L287.232 574.976c-32.768 32.768-86.016 32.768-118.784 0L50.176 456.192c-32.768-32.768-32.768-86.016 0-118.784l118.784-118.784c32.768-32.768 86.016-32.768 118.784 0l94.208 94.208-151.04 0.512z m377.344-59.392v-150.528H440.32v150.528l-94.208-94.208c-32.768-32.768-32.768-86.016 0-118.784l118.784-118.784c32.768-32.768 86.016-32.768 118.784 0l118.784 118.784c32.768 32.768 32.768 86.016 0 118.784l-94.208 94.208z m390.656 202.24l-118.784 118.784c-32.768 32.768-86.016 32.768-118.784 0l-94.208-94.208h150.528v-167.936h-150.528l94.208-94.208c32.768-32.768 86.016-32.768 118.784 0l118.784 118.784c32.768 33.28 32.768 86.016 0 118.784z m0 0"  horiz-adv-x="1024" />

    
    <glyph glyph-name="-jzicon1" unicode="&#58921;" d="M301.056 431.104h304.128c23.552 0 42.496 17.92 42.496 40.448s-19.456 40.448-43.008 40.448H301.056c-23.552 0-42.496-17.92-42.496-40.448s18.944-40.448 42.496-40.448z m0-133.12c-23.552 0-42.496-17.92-42.496-40.448 0-22.528 18.944-40.448 42.496-40.448h502.272c23.552 0 42.496 17.92 42.496 40.448 0 22.528-18.944 40.448-42.496 40.448H301.056zM972.8 621.056a39.8336 39.8336 0 0 1-12.288 31.744L718.336 884.224l-2.56 2.56c-1.024 0.512-2.048 1.536-2.56 2.048L711.68 889.344 708.608 890.88h-1.024l-3.072 1.536s-0.512 0-0.512 0.512c-1.024 0.512-2.048 0.512-3.072 1.024h-1.024c-1.024 0.512-2.048 0.512-3.072 1.024h-0.512c-1.024 0-2.56 0.512-3.584 0.512H236.544C148.48 896 76.8 827.392 76.8 743.424v-693.248c0-83.968 71.68-152.576 159.744-152.576h576c88.064 0 159.744 68.608 159.744 152.576V618.496c0.512 0.512 0.512 1.536 0.512 2.56z m-242.176 134.656l93.184-91.136h-18.432c-41.472 0-75.264 32.256-75.264 71.68v19.456z m157.184-705.536c0-39.424-33.792-71.68-75.264-71.68H236.544c-41.472 0-75.264 32.256-75.264 71.68V743.424c0 39.424 33.792 71.68 75.264 71.68h409.088v-78.848c0-83.968 71.68-152.576 159.744-152.576h82.432v-533.504z"  horiz-adv-x="1024" />

    
    <glyph glyph-name="-stop" unicode="&#58919;" d="M875.008 719.36c-20.48 26.624-59.392 28.672-82.944 5.12-19.456-19.968-22.016-51.2-5.12-73.216a366.08 366.08 0 0 0 74.752-225.792c-1.536-197.12-158.72-359.424-353.792-364.544-204.288-5.12-372.224 161.28-372.224 367.104 0 75.776 23.04 148.48 65.024 209.92 16.384 22.528 12.8 53.76-7.68 72.704a54.784 54.784 0 0 1-82.944-9.728A480.4096 480.4096 0 0 1 25.6 428.032c0-128 49.152-248.32 138.752-338.944a467.456 467.456 0 0 1 334.848-140.288c126.464 0 245.248 49.664 334.848 140.288A478.72 478.72 0 0 1 972.8 428.032c0 106.496-34.304 207.872-97.792 291.328z m-375.808-374.784c31.744 0 57.856 26.624 57.856 58.88V792.064c0 32.256-26.112 58.88-57.856 58.88-31.744 0-57.856-26.624-57.856-58.88v-388.608c0-32.256 26.112-58.88 57.856-58.88z"  horiz-adv-x="1024" />

    
    <glyph glyph-name="-fold" unicode="&#58918;" d="M512 829.2429999999999a445.243 445.243 0 1 0 0-890.486 445.243 445.243 0 1 0 0 890.486z m0-52.393a392.85 392.85 0 1 1 0-785.636 392.85 392.85 0 1 1 0 785.572z m-5.207-309.536c-77.336-76.693-102.279-100.993-179.614-177.75-7.908-7.843-16.843-12.085-28.286-9.643a28.286 28.286 0 0 0-16.007 45.772c1.543 1.8 3.214 3.407 4.95 5.143 84.407 83.764 116.55 115.071 200.957 198.9 15.364 15.171 31.05 15.171 46.414 0C620.064 445.52 652.53 413.7 737.514 329.61400000000003c8.357-8.357 12.15-17.871 9.193-29.314a28.543 28.543 0 0 0-45.514-14.721c-1.929 1.542-3.793 3.471-5.593 5.207-76.886 76.307-101.443 100.285-178.329 176.528-1.607 1.672-2.892 3.729-5.207 6.943-2.443-3.15-3.664-5.271-5.271-6.943z"  horiz-adv-x="1024" />

    
    <glyph glyph-name="-change" unicode="&#58940;" d="M711.296 713.515L917.76 515.9680000000001l2.73-2.859A42.624 42.624 0 0 0 896 435.5H128a42.667 42.667 0 0 0 0 85.333h650.624l-131.627 125.91a42.667 42.667 0 0 0-1.322 60.33l1.322 1.323 5.334 5.12a42.667 42.667 0 0 0 58.965 0zM312.704 20.649999999999977L106.24 218.197l-2.73 2.859a42.624 42.624 0 0 0 24.49 77.61h768a42.667 42.667 0 0 0 0-85.333H245.376l131.627-125.909a42.667 42.667 0 0 0 1.322-60.33l-1.322-1.323-5.334-5.12a42.667 42.667 0 0 0-58.965 0z"  horiz-adv-x="1024" />

    
    <glyph glyph-name="-ylda" unicode="&#58914;" d="M1012.736 387.584L865.28 535.04l-2.56 1.024c-7.68 3.584-16.384 8.192-26.624 8.192-7.168 0-19.456 0-30.72-11.264l-361.984-365.056-2.048-2.048-0.512-2.048c-3.584-7.68-8.192-16.384-8.192-26.624v-145.408c0-20.48 15.872-41.984 41.984-41.984h145.408c7.168 0 19.456 0 30.72 11.264l216.576 219.648c7.68 7.68 11.776 18.944 11.776 30.72 0 11.776-4.608 23.04-11.776 30.72a43.3664 43.3664 0 0 1-30.72 11.776c-11.776 0-23.04-4.608-30.72-11.776l-205.312-205.312h-83.968v83.968l320 320L921.6 355.84000000000003l-8.704-10.24-42.496 41.984c-7.68 7.68-18.944 11.776-30.72 11.776s-23.04-4.608-30.72-11.776c-15.872-15.872-15.872-45.568 0-61.44l73.216-76.288 2.56-1.024c7.68-3.584 16.384-8.192 26.624-8.192 7.168 0 19.456 0 30.72 11.264l71.168 74.752 1.536 1.536 1.024 2.048c4.096 7.68 8.192 16.384 8.192 26.624 0 7.168 0 19.456-11.264 30.72zM304.64 330.75199999999995c-22.528 0-40.448-17.92-40.448-40.448s17.92-40.448 40.448-40.448H476.16c22.528 0 40.448 17.92 40.448 40.448s-17.92 40.448-40.448 40.448H304.64z m331.264 127.488c0 22.016-17.92 40.448-40.448 40.448H304.64c-22.528 0-40.448-17.92-40.448-40.448s17.92-40.448 40.448-40.448h290.816c22.016 0 40.448 18.432 40.448 40.448z m87.04 167.936c0 22.016-17.92 40.448-40.448 40.448H304.64c-22.528 0-40.448-17.92-40.448-40.448s17.92-40.448 40.448-40.448h378.368c22.016 0 39.936 18.432 39.936 40.448z m-363.52-647.68H199.68a38.912 38.912 0 0 0-38.912 38.912V776.192c0 21.504 17.408 38.912 38.912 38.912h610.816c18.944 0 38.912-14.336 38.912-38.912v-168.448c0-23.04 18.944-41.984 41.984-41.984 23.04 0 41.984 18.944 41.984 41.984V799.232C933.376 852.48 889.856 896 836.608 896H173.568C120.32 896 76.8 852.48 76.8 799.232V-5.1200000000000045c0-53.248 43.52-96.768 96.768-96.768H358.4c22.016 0 40.448 17.408 40.96 39.424a38.1952 38.1952 0 0 1-11.264 29.184 40.6528 40.6528 0 0 1-28.672 11.776z"  horiz-adv-x="1024" />

    
    <glyph glyph-name="-phone" unicode="&#58912;" d="M986.112 150.01599999999996c-5.12 50.176-30.208 82.432-77.824 98.816-32.256 11.264-152.576 39.424-192 45.056-6.656 1.024-13.312 1.536-20.48 1.536-26.112 0-47.104-8.704-65.024-27.136l-49.152-50.176c-97.792 48.128-162.304 118.784-199.68 170.496-31.744 45.056-49.664 83.968-55.808 98.816l59.904 61.952c17.92 18.432 25.6 49.664 18.944 77.312C398.336 653.8240000000001 363.52 794.112 327.68 852.992 310.784 881.664 286.72 896 257.024 896c-12.8 0-24.576-2.56-32.768-5.12C87.04 855.04 44.544 758.2719999999999 37.376 739.328 25.6 707.072 19.968 638.976 33.792 560.1279999999999c12.8-71.168 46.592-179.2 135.68-289.28 150.016-185.344 307.2-304.64 466.432-355.328 37.376-11.776 72.704-17.92 105.472-17.92 68.608 0 126.464 25.088 176.128 76.288 49.664 50.688 74.752 115.2 68.608 176.128z m-321.536-139.264c-141.312 44.544-282.624 153.6-420.352 323.584-75.776 93.696-104.448 184.32-114.688 243.2-12.8 71.68-3.584 118.784-1.024 125.44 2.56 6.656 27.136 66.56 119.808 90.624h0.512c18.944-35.84 43.52-117.248 60.416-183.296L212.48 512l19.968-53.76c3.584-9.216 86.016-225.28 315.904-333.824l54.784-26.112 94.72 97.28c1.536 0 3.072 0 4.608-0.512 33.28-5.12 147.968-31.744 175.104-40.96 2.56-1.024 8.192-3.072 9.728-4.608 1.024-1.024 1.536-4.096 2.048-9.216 3.072-31.232-11.776-66.048-40.448-95.744-31.232-32.256-65.536-47.104-107.52-47.104-23.04 0-48.64 4.608-76.8 13.312z"  horiz-adv-x="1024" />

    
    <glyph glyph-name="-val-low" unicode="&#58911;" d="M240.64 174.08000000000004l216.576-243.2 33.28-37.376c9.728-10.752 25.088-10.752 34.816 0l33.28 37.376 216.576 243.2c13.824 15.872 13.824 40.96 0 56.832-13.824 15.872-36.352 15.872-50.688 0l-177.664-199.68V856.064c0 22.016-15.872 39.936-35.84 39.936-19.968 0-35.84-17.92-35.84-39.936v-831.488l-183.808 206.336c-13.824 15.872-36.352 15.872-50.688 0s-14.336-40.96 0-56.832z"  horiz-adv-x="1024" />

    
    <glyph glyph-name="-val-up" unicode="&#58910;" d="M775.168 607.232L558.08 850.432l-33.28 37.376a22.8352 22.8352 0 0 1-34.816 0l-32.768-37.376L240.64 607.232c-13.824-15.872-13.824-40.96 0-56.832 13.824-15.872 36.352-15.872 50.688 0l177.664 199.68v-824.832c0-22.016 15.872-39.936 35.84-39.936 19.968 0 35.84 17.92 35.84 39.936V757.248l183.808-206.336c13.824-15.872 36.352-15.872 50.688 0 13.824 15.36 13.824 40.96 0 56.32z"  horiz-adv-x="1024" />

    
    <glyph glyph-name="-jyjc" unicode="&#58909;" d="M576.512-2.5599999999999454H142.848c-17.408 0-31.232 13.312-31.232 30.208V783.36c0 16.384 14.336 30.208 31.232 30.208h698.368c17.408 0 31.232-13.312 31.232-30.208v-394.752c0-23.04 19.456-41.472 43.008-41.472 23.552 0 43.008 18.432 43.008 41.472V783.36c0 61.952-52.736 112.64-117.76 112.64H143.36C78.336 896 25.6 845.312 25.6 783.36v-755.712c0-61.952 52.736-112.64 117.76-112.64h433.664c23.552 1.024 41.472 18.944 41.472 41.472 0 22.016-18.432 39.936-41.984 40.96z m227.84 653.824c0 23.04-19.456 41.472-43.008 41.472H224.768c-23.552 0-43.008-18.432-43.008-41.472s19.456-41.472 43.008-41.472h536.576c23.552 0 43.008 18.944 43.008 41.472z m-134.144-176.64c0 23.04-19.456 41.472-43.008 41.472H224.768c-23.552 0-43.008-18.432-43.008-41.472 0-23.04 19.456-41.472 43.008-41.472h402.432c23.552 0.512 43.008 18.944 43.008 41.472z m-445.44-163.328c-23.552 0-43.008-18.432-43.008-41.472s19.456-41.472 43.008-41.472h273.408c23.552 0 43.008 18.432 43.008 41.472s-19.456 41.472-43.008 41.472H224.768z m739.84-229.376a46.8992 46.8992 0 0 1-22.016 5.632c-7.68 0-15.36-2.048-22.016-5.632-13.312-7.68-21.504-21.504-20.992-36.864v-26.624c0-20.992-17.92-38.4-39.936-38.4s-40.448 17.408-40.448 38.912v19.456c74.752 19.968 126.976 85.504 126.976 160.256v71.168c0 23.04-19.456 41.472-43.008 41.472h-53.76c-23.552-1.024-41.472-18.944-41.472-41.472 0-22.528 18.432-40.448 41.472-41.472h10.24v-30.208c0.512-30.208-15.872-58.88-43.008-74.24-13.312-7.68-28.672-11.776-44.544-11.776-15.36 0-30.72 4.096-44.544 11.776-27.136 15.36-44.032 44.032-43.008 74.24v30.208h13.312c15.36 0 29.184 7.68 36.864 20.48a38.912 38.912 0 0 1 0 41.984 44.3392 44.3392 0 0 1-36.864 20.48h-56.32c-23.552 0-43.008-18.432-43.008-41.472v-71.168c0-77.312 56.32-144.896 134.144-162.304v-17.92c0-66.56 56.832-120.832 126.464-121.344 69.632 0 125.952 54.272 126.464 121.344v26.624a41.472 41.472 0 0 1-20.992 36.864z"  horiz-adv-x="1024" />

    
    <glyph glyph-name="-hospital" unicode="&#58907;" d="M879.616 552.96h-223.232V797.184C656.384 861.184 627.712 896 561.664 896H122.88C56.32 896 25.6 859.648 25.6 802.304V-102.39999999999998h945.664V461.824c0 61.44-29.696 91.136-91.648 91.136zM215.04 646.144h94.72V739.84h62.976v-93.696h94.72V583.6800000000001H372.224v-93.696H309.248V584.192H215.04V646.144z m0-280.576c0 17.408 14.336 31.232 31.744 31.232h188.928c17.408 0 31.744-13.824 31.744-31.232 0-17.408-14.336-31.232-31.744-31.232h-189.44c-17.408 0-31.232 13.824-31.232 31.232z m0-134.656c0 17.408 14.336 31.232 31.744 31.232h188.928c17.408 0 31.744-13.824 31.744-31.232 0-17.408-14.336-31.232-31.744-31.232h-189.44c-17.408 0-31.232 14.336-31.232 31.232z m254.976-230.912H225.792v105.984c0 9.728 7.68 17.408 17.408 17.408h209.408c9.728 0 17.408-7.68 17.408-17.408v-105.984z m281.088 385.536c0 5.632 4.608 10.24 10.752 10.24h41.472c5.632 0 10.752-4.608 10.752-10.24v-41.472c0-5.632-4.608-10.24-10.752-10.24h-41.472c-5.632 0-10.752 4.608-10.752 10.24v41.472z m0-110.08c0 5.632 4.608 10.24 10.752 10.24h41.472c5.632 0 10.752-4.608 10.752-10.24v-41.472c0-5.632-4.608-10.24-10.752-10.24h-41.472c-5.632 0-10.752 4.608-10.752 10.24v41.472z m62.464-191.488c0-8.192-6.656-14.336-14.848-14.336h-33.792c-8.192 0-14.848 6.656-14.848 14.336v78.336c0 8.192 6.656 14.336 14.848 14.336h33.792c8.192 0 14.848-6.656 14.848-14.336v-78.336z"  horiz-adv-x="1024" />

    
    <glyph glyph-name="-service" unicode="&#58906;" d="M738.304 804.352h-13.824a291.4304 291.4304 0 0 1-12.8-307.712c44.544-79.872 123.904-135.68 214.528-154.624-144.384 29.696-252.416 151.552-252.416 297.472 0 58.368 17.408 115.2 50.176 163.84-50.688-1.536-100.864-13.824-145.92-36.352-34.304-16.896-75.776-16.896-110.08 0-49.664 25.088-104.96 37.888-161.28 37.376C123.904 804.352 25.6 647.168 25.6 499.712c0-201.728 157.696-384.512 467.968-543.744 19.456-9.728 43.008-9.728 62.464 0 223.232 114.176 367.616 241.152 431.104 378.88A399.36 399.36 0 0 1 1024 500.736c0 149.504-107.008 303.616-285.696 303.616zM216.064 605.184c-21.504-23.552-40.96-59.904-45.056-113.664-1.024-15.36-14.336-27.648-30.72-28.16a30.3616 30.3616 0 0 0-32.768 31.744c4.608 69.632 31.232 117.76 59.904 149.504 12.8 14.336 35.84 13.824 48.64-0.512 9.728-10.752 9.728-27.648 0-38.912z m498.688-245.76c-6.656-10.752-18.944-16.896-31.744-15.872h-123.904v-117.76c1.024-12.288-5.632-24.064-16.896-30.208-11.264-6.144-25.088-6.144-35.84 0a32.5632 32.5632 0 0 0-16.896 30.208v117.76H365.568a33.792 33.792 0 0 0-32.768 33.28c0 17.408 14.336 32.256 32.768 33.28h123.904V527.36c-1.024 12.288 5.632 24.064 16.384 30.72 11.264 6.144 25.088 6.144 35.84 0 11.264-6.656 17.408-17.92 16.896-30.208v-117.76h123.904c12.8 1.024 25.088-5.12 31.744-15.872 7.168-11.264 7.168-24.576 0.512-34.816z m211.968-17.408l8.704-1.536c-3.072 0.512-6.144 1.024-8.704 1.536z m28.672-4.608c3.072-0.512 6.656-0.512 9.728-1.024-3.072 0.512-6.144 0.512-9.728 1.024z"  horiz-adv-x="1024" />

    
    <glyph glyph-name="-index" unicode="&#58905;" d="M569.856 874.496a82.944 82.944 0 0 1-110.592 0L13.312 451.072c-16.384-15.36-17.92-40.96-2.56-57.856 15.36-16.896 40.96-18.432 57.856-3.072l7.168 6.656v-442.368A82.2272 82.2272 0 0 1 157.696-128h239.616v247.808c0 15.36 6.144 30.208 16.896 40.96 10.752 10.752 25.6 16.896 40.96 16.896h112.64c15.36 0 30.208-6.144 40.96-16.896 10.752-10.752 16.896-25.6 16.896-40.96V-128h245.248c22.016 0 43.008 8.704 58.368 24.064 15.36 15.36 24.064 36.352 24.064 58.368V391.168c18.432-16.384 44.032-15.36 59.392 1.536 7.168 8.192 11.264 18.944 10.752 29.696a44.1856 44.1856 0 0 1-13.312 28.672L569.856 874.496z m0 0"  horiz-adv-x="1024" />

    
    <glyph glyph-name="-warn" unicode="&#58904;" d="M605.2864 35.1232H418.6624a26.4704 26.4704 0 0 1-26.5728-26.4704v-0.0512a27.648 27.648 0 0 1 8.0384-19.0464 25.2416 25.2416 0 0 1 18.5344-7.4752h186.6752a26.4704 26.4704 0 1 1-0.0512 53.0432zM512-124.05759999999998c47.0528 0 87.9104 27.0336 107.52 66.304H404.5312c21.2992-41.3696 62.6688-66.8672 107.4688-66.304z m0 782.1824c-154.624 0-279.808-124.672-279.808-278.4256a277.76 277.76 0 0 1 135.68-238.6432h-0.0512c4.608-24.5248 15.36-47.4624 31.1296-66.2528h226.0992c15.6672 18.7392 26.5728 41.4208 31.0272 66.2528a277.7088 277.7088 0 0 1 135.6288 238.6432C791.808 533.504 666.624 658.1248 512 658.1248z m199.7824-304.9472c0-4.3008-8.9088-13.2096-13.312-13.2096-17.664 0-26.6752 8.9088-26.6752 13.312 0 98.0992-74.5472 172.3904-159.8976 172.3904-17.7152 0-26.6752 8.8064-26.6752 13.1584 0 17.6128 8.96 26.5216 26.6752 26.5216 111.0016-0.8192 200.448-95.6928 199.8336-212.0704v-0.1024h0.0512zM237.7728 687.8720000000001l-47.9744 48.2816a33.7408 33.7408 0 0 1-47.9744 0 34.304 34.304 0 0 1 0-48.3328l47.9744-48.3328a33.7408 33.7408 0 0 1 47.9744 0 34.4576 34.4576 0 0 1 0 48.384z m644.352 48.2816a33.7408 33.7408 0 0 1-47.9744 0l-47.9744-48.3328a34.2528 34.2528 0 0 1 0-48.3328 33.792 33.792 0 0 1 47.9744 0l47.9744 48.3328a34.304 34.304 0 0 1 0 48.3328zM105.0112 465.664H37.1712a34.048 34.048 0 0 1-33.9456-34.1504c0-18.8928 15.1552-34.2016 33.9456-34.2016h67.84a34.048 34.048 0 0 1 33.8944 34.2016 34.048 34.048 0 0 1-33.8944 34.1504z m881.7664 0h-67.7888a34.0992 34.0992 0 0 1-33.9456-34.1504c0-18.8928 15.2576-34.2016 33.9456-34.2016h67.7888a34.048 34.048 0 0 1 33.8944 34.2016 33.8944 33.8944 0 0 1-33.8944 34.1504zM512 756.2239999999999a34.048 34.048 0 0 1 33.9456 34.1504V858.7776c0 18.8928-15.2064 34.2016-33.9456 34.2016s-33.9456-15.3088-33.9456-34.2016v-68.352c0-18.8928 15.2064-34.2016 33.9456-34.2016z"  horiz-adv-x="1024" />

    
    <glyph glyph-name="-res" unicode="&#58903;" d="M204.544 483.8912h134.7584v-539.136H204.544V483.8912zM675.6864 483.8912c0.1024 1.6896 0.512 3.2256 0.512 4.9152a92.0576 92.0576 0 1 1-184.2176 0c0-1.6896 0.4096-3.2256 0.512-4.9152h-0.512v-539.136h453.7344V483.8912h-270.0288zM316.5696-104.34559999999999h570.0096c35.9424 0 65.0752 29.1328 65.0752 65.3312v81.7664a48.896 48.896 0 0 1 48.8448 49.0496v392.192c0 36.1472-29.184 65.3824-65.0752 65.3824h-255.3856c1.8432 59.0848-1.3312 175.36-50.0224 244.1728-32.1536 45.4144-89.5488 76.1856-89.5488 76.1856-33.6896 12.5952-82.7392-6.3488-82.7392-42.496 0 0 16.8448-125.4912-28.0576-202.2912A290.56 290.56 0 0 0 365.4144 549.376H88.6272c-35.9936 0-65.1776-29.2352-65.1776-65.3824v-523.008c0-36.1984 29.0816-65.3312 65.1776-65.3312h227.9424z m0 588.3392v-523.008H144.9984c-31.1808 0-56.4736 23.3472-56.4736 52.3264V431.7696c0 28.8768 25.2928 52.2752 56.4736 52.2752h171.5712z m439.7056-130.6624c0-18.0736 14.5408-32.6656 32.6144-32.6656h146.5344v-81.92h-146.5344a32.5632 32.5632 0 0 1-32.6144-32.768c0-17.9712 14.5408-32.7168 32.6144-32.7168h146.5344v-65.4336h-146.5344a32.7168 32.7168 0 0 1 0-65.3824h97.6896v-29.3888c0-29.0816-25.344-52.48-56.576-52.48H381.696V484.2496c8.2944 5.3248 83.9168 75.9296 91.648 87.6544 47.8208 72.5504 48.8448 195.072 48.8448 195.072 0 36.096-4.1984 36.2496 29.5936 23.6032 0 0 63.8464-99.072 57.7024-241.2032-0.5632-12.288-0.1024-33.3824 5.888-44.9536 7.6288-14.6944 15.6672-20.3776 51.456-20.3776h212.1216c31.1808 0 56.4736-23.4496 56.4736-52.2752v-45.8752h-146.5344a32.4608 32.4608 0 0 1-32.6144-32.5632zM169.984 91.95519999999999a32.6144 32.6144 0 0 1 65.2288 0 32.6144 32.6144 0 1 1-65.2288 0z m0 0"  horiz-adv-x="1024" />

    
    <glyph glyph-name="-arrow-left" unicode="&#58902;" d="M207.36 329.72799999999995l408.064-404.48c17.92-17.92 41.984-27.648 67.584-27.648 25.6 0 49.664 9.728 67.584 27.648 18.432 17.92 28.16 41.984 28.16 67.584 0 25.6-10.24 49.664-28.16 67.072L410.112 396.8l339.968 336.896c17.92 17.92 28.16 41.984 28.16 67.584 0 25.6-10.24 49.152-28.16 67.072C732.16 886.272 708.096 896 682.496 896c-25.6 0-49.664-9.728-67.584-27.648L207.36 464.384c-17.92-17.92-28.16-41.984-28.16-67.584 0-25.6 10.24-49.152 28.16-67.072z"  horiz-adv-x="1024" />

    
    <glyph glyph-name="-consult2" unicode="&#58901;" d="M718.848 699.392H324.096c-27.648 0-48.128-19.968-48.128-48.128s19.968-48.128 48.128-48.128h394.752c27.648 0 48.128 19.968 48.128 48.128s-19.968 48.128-48.128 48.128z m0-168.96H324.096c-27.648 0-48.128-19.968-48.128-48.128s19.968-48.128 48.128-48.128h394.752c27.648 0 48.128 19.968 48.128 48.128s-19.968 48.128-48.128 48.128z m217.088 266.24a103.936 103.936 0 0 1-28.672 69.632C889.344 885.248 864.768 896 840.192 896H203.264c-24.576 0-49.152-10.752-67.584-30.208-17.92-18.944-28.16-43.52-28.672-69.632L25.6 273.408v-299.52c0-41.984 34.304-75.776 76.288-75.776H947.2c41.984 0 76.288 34.304 76.288 75.776l0.512 299.52-88.064 523.264z m-222.72-462.848c-16.896 0-32.256-8.192-41.984-23.04l-0.512-1.024-0.512-1.024c-27.136-53.76-83.968-87.552-148.48-87.552-64 0-121.856 33.28-155.136 88.576l-0.512 0.512-0.512 0.512a48.896 48.896 0 0 1-41.984 23.04H130.56l72.704 451.072v7.168c0 3.584 1.536 6.656 2.048 8.192h629.76c1.024-1.536 2.048-4.608 2.048-8.192v-1.536l72.704-456.704h-196.608z"  horiz-adv-x="1024" />

    
    <glyph glyph-name="-consult1" unicode="&#58900;" d="M936.96 866.816H286.208c-48.128 0-87.04-39.424-87.04-88.064v-88.064H112.64c-48.128 0-87.04-39.424-87.04-88.064v-484.352c0-48.64 38.912-88.064 87.04-88.064h229.376l213.504-130.56c7.168-4.608 15.872 2.56 13.312 10.752l-35.328 119.808h229.376c48.128 0 87.04 39.424 87.04 88.064v88.064h87.04c48.128 0 87.04 39.424 87.04 88.064V778.752c0 48.64-38.912 88.064-87.04 88.064z m-314.368-616.448h-368.64c-17.92 0-32.768 14.848-32.768 33.28 0 18.432 14.848 33.28 32.768 33.28h368.64c17.92 0 32.768-14.848 32.768-33.28-0.512-18.432-14.848-33.28-32.768-33.28z m0 132.096h-368.64c-17.92 0-32.768 14.848-32.768 33.28 0 18.432 14.848 33.28 32.768 33.28h368.64c17.92 0 32.768-14.848 32.768-33.28-0.512-18.432-14.848-33.28-32.768-33.28z m227.84-88.064V602.624c0 48.64-38.912 88.064-87.04 88.064H286.208V778.752H936.96v-484.352h-86.528z"  horiz-adv-x="1024" />

    
    <glyph glyph-name="-female" unicode="&#58899;" d="M844.323 95.37l96.172 96.172c14.957 14.956 14.957 39.187 0 54.144-14.956 14.956-39.187 14.956-54.144 0l-96.172-96.173-96.173 96.173c-1.62 1.62-3.368 3.032-5.184 4.302 54.496 62.018 87.596 143.276 87.596 232.129 0 194.102-157.945 352.048-352.085 352.048-194.102 0-352.048-157.946-352.048-352.048 0-194.141 157.945-352.085 352.048-352.085 78.439 0 150.96 25.792 209.551 69.328 1.626-2.786 3.59-5.43 5.978-7.818l96.172-96.173-96.172-96.172c-14.957-14.957-14.957-39.188 0-54.144 7.478-7.479 17.276-11.218 27.072-11.218 9.797 0 19.593 3.74 27.071 11.218l96.173 96.172 96.172-96.172c7.478-7.479 17.275-11.218 27.072-11.218s19.593 3.74 27.071 11.218c14.957 14.956 14.957 39.187 0 54.144l-96.17 96.172z m-419.99 111.242c-151.887 0-275.469 123.582-275.469 275.506 0 151.887 123.582 275.469 275.47 275.469 151.923 0 275.505-123.582 275.505-275.47 0-151.924-123.58-275.505-275.506-275.505z"  horiz-adv-x="1024" />

    
    <glyph glyph-name="-male" unicode="&#58898;" d="M941.27-44.966999999999985c0.175 0.264 0.322 0.54 0.49 0.808a37.41 37.41 0 0 1 1.397 2.363c0.194 0.367 0.355 0.744 0.537 1.116 0.36 0.734 0.721 1.467 1.035 2.227 0.17 0.414 0.303 0.838 0.458 1.255 0.273 0.736 0.55 1.467 0.778 2.224 0.14 0.465 0.24 0.938 0.36 1.408 0.187 0.72 0.386 1.432 0.53 2.167 0.119 0.603 0.187 1.21 0.277 1.818 0.09 0.61 0.205 1.214 0.265 1.834 0.123 1.243 0.189 2.49 0.189 3.737V220.16700000000003c0 20.965-16.965 37.93-37.93 37.93-20.966 0-37.93-16.965-37.93-37.93v-152.61L692.298 246.98400000000004c-1.605 1.606-3.335 3.003-5.133 4.26 53.983 61.437 86.773 141.932 86.773 229.953 0 192.281-156.463 348.743-348.744 348.743-192.318 0-348.78-156.462-348.78-348.743 0-192.318 156.462-348.78 348.78-348.78 77.684 0 149.514 25.548 207.55 68.672 1.61-2.758 3.554-5.375 5.919-7.74L818.09 13.919999999999959H665.48c-20.965 0-37.93-16.964-37.93-37.93 0-20.965 16.966-37.93 37.93-37.93h244.177c1.247 0 2.494 0.066 3.737 0.189 0.62 0.06 1.224 0.175 1.835 0.265 0.607 0.09 1.214 0.157 1.817 0.277 0.735 0.145 1.45 0.343 2.167 0.53 0.47 0.122 0.943 0.221 1.407 0.362 0.757 0.228 1.49 0.505 2.224 0.777 0.419 0.155 0.841 0.289 1.255 0.459 0.76 0.313 1.493 0.674 2.227 1.034 0.372 0.182 0.75 0.342 1.116 0.536 0.81 0.431 1.589 0.911 2.364 1.397 0.267 0.168 0.543 0.315 0.807 0.49a38.006 38.006 0 0 1 2.955 2.173l0.027 0.02a38.13 38.13 0 0 1 5.482 5.482l0.02 0.027a37.99 37.99 0 0 1 2.173 2.954zM425.194 208.27599999999995c-150.499 0-272.92 122.421-272.92 272.92 0 150.461 122.421 272.883 272.92 272.883 150.462 0 272.883-122.422 272.883-272.883 0-150.498-122.422-272.92-272.883-272.92z"  horiz-adv-x="1024" />

    
    <glyph glyph-name="-jkda4" unicode="&#58897;" d="M886.784 896H304.64C228.864 896 167.424 834.56 167.424 758.2719999999999v-60.928h-48.128C67.584 697.344 25.6 655.36 25.6 603.136v-609.792c0-52.224 41.984-94.208 93.696-94.208l161.792 0.512c8.192-1.536 15.872-2.56 23.552-1.536h582.144c75.776 0 137.216 61.44 137.216 137.728V758.2719999999999C1024 834.56 962.56 896 886.784 896zM119.296-13.823999999999955c-3.584 0-6.656 3.072-6.656 6.656V602.1120000000001c0 3.584 3.072 6.656 6.656 6.656h48.128v-573.44c0-17.408 3.584-33.792 8.704-48.64l-56.832-0.512z m817.664 49.664c0-27.648-22.528-50.176-50.176-50.176H304.64c-27.648 0-50.176 22.528-50.176 50.176V758.2719999999999c0 27.648 22.528 50.176 50.176 50.176h582.144c27.648 0 50.176-22.528 50.176-50.176V35.84000000000003z m-124.928 109.568H388.096c-24.064 0-43.52-19.456-43.52-44.032 0-24.064 19.456-44.032 43.52-44.032h423.936c24.064 0 43.52 19.456 43.52 44.032s-19.456 44.032-43.52 44.032z m0 174.08H388.096c-24.064 0-43.52-19.456-43.52-44.032s19.456-44.032 43.52-44.032h423.936c24.064 0 43.52 19.456 43.52 44.032s-19.456 44.032-43.52 44.032zM386.56 416.256h201.216c23.552 0 41.984 18.944 41.984 42.496v215.04c0 23.552-18.944 42.496-41.984 42.496H386.56a41.984 41.984 0 0 1-41.984-42.496v-214.528c-0.512-23.552 18.432-43.008 41.984-43.008z m45.056 189.952c0 12.288 9.728 22.528 22.016 22.528h66.56c12.288 0 22.016-10.24 22.016-22.528v-79.36c0-12.288-9.728-22.528-22.016-22.528h-66.56c-12.288 0-22.016 10.24-22.016 22.528V606.2080000000001z m322.048 22.016h57.856c24.064 0 43.52 19.456 43.52 44.032s-19.456 44.032-43.52 44.032h-57.856c-24.064 0-43.52-19.456-43.52-44.032s19.456-44.032 43.52-44.032z m0-210.944h57.856c24.064 0 43.52 19.456 43.52 44.032s-19.456 44.032-43.52 44.032h-57.856c-24.064 0-43.52-19.456-43.52-44.032s19.456-44.032 43.52-44.032z"  horiz-adv-x="1024" />

    
    <glyph glyph-name="-jkda3" unicode="&#58896;" d="M931.84 678.4l-1.536 10.24a59.904 59.904 0 0 1-2.56 10.24c-1.024 3.072-2.048 6.656-3.584 9.728a38.4 38.4 0 0 1-4.096 9.216c-1.536 3.072-3.584 6.144-5.12 8.192-2.048 3.072-4.096 6.144-6.144 8.704-2.048 2.56-4.096 4.608-6.144 7.168-2.56 2.56-5.12 5.12-7.68 7.168-2.56 2.048-5.12 4.096-8.192 6.144-2.56 2.048-5.632 3.584-8.704 5.632l-9.216 4.608c-3.072 1.536-6.656 2.56-10.24 3.584h-0.512c-3.072 1.024-6.144 2.048-9.728 2.56a38.9632 38.9632 0 0 1-10.752 1.536c-3.584 0.512-7.168 0.512-10.752 0.512h-60.416c-21.504 0-39.424-17.408-39.424-38.4s17.92-38.4 39.424-38.4h62.976c1.024 0 1.536 0 2.56-0.512 1.024 0 2.048-0.512 2.048-0.512 1.024-0.512 2.048-0.512 2.56-1.024h0.512c0.512 0 1.024-0.512 1.536-0.512 1.024-0.512 1.536-1.024 2.56-1.536 0.512-0.512 1.536-1.024 2.048-1.536 0.512-0.512 1.536-1.024 2.048-2.048l1.536-1.536c0.512-0.512 1.024-1.536 1.536-2.048v-0.512c0.512-1.024 1.024-1.536 1.536-2.56 0.512-1.024 1.024-1.536 1.024-2.56 0.512-1.024 0.512-2.048 1.024-3.072 0.512-1.024 0.512-2.048 0.512-3.072 0-1.024 0.512-2.048 0.512-3.584V0c0-1.024-0.512-2.048-0.512-3.584 0-1.024-0.512-2.048-0.512-3.072-0.512-1.024-0.512-2.048-1.024-2.56-0.512-1.024-1.024-1.536-1.024-2.56-0.512-1.024-1.024-1.536-1.536-2.56-0.512-0.512-1.024-1.024-1.536-2.048-0.512-1.024-1.536-1.536-2.048-2.048l-0.512-0.512-1.536-1.536c-0.512-0.512-1.536-1.024-2.048-1.536-0.512-0.512-1.024-1.024-2.048-1.024h-0.512c-0.512-0.512-1.536-0.512-2.048-1.024h-0.512c-0.512-0.512-1.024-0.512-2.048-0.512-0.512 0-1.536-0.512-2.048-0.512-1.024 0-2.048-0.512-3.584-0.512H179.2c-0.512 0-1.536 0-2.048 0.512-1.024 0-2.048 0.512-3.072 1.024-0.512 0-1.024 0.512-1.536 0.512-1.024 0.512-1.536 0.512-2.56 1.536-0.512 0.512-1.536 1.024-2.048 1.536a7.0656 7.0656 0 0 1-2.048 1.536c-0.512 0.512-1.536 1.024-2.048 2.048l-1.536 1.536-3.072 4.608a3.8912 3.8912 0 0 0-1.024 2.048c-0.512 1.024-0.512 2.048-1.024 3.072v0.512c0 0.512-0.512 1.536-0.512 2.048 0 1.024-0.512 2.048-0.512 3.584V667.648v3.584c0 1.024 0 2.048 0.512 3.072 0 1.024 0.512 2.048 0.512 3.072 0.512 1.024 0.512 2.048 1.024 2.56 0 0.512 0.512 1.536 1.024 2.56 0.512 1.024 1.024 1.536 1.536 2.048 0.512 1.024 1.024 1.536 1.536 2.56 0.512 0.512 1.024 1.536 1.536 2.048l0.512 0.512c0.512 0.512 1.024 1.024 2.048 1.536 0.512 0.512 1.024 1.024 2.048 1.536 0.512 0.512 1.536 1.024 2.048 1.536 0.512 0.512 1.536 0.512 2.048 1.024 1.024 0 1.536 0.512 2.56 1.024 1.024 0 1.536 0.512 2.56 0.512 1.024 0 1.536 0.512 2.56 0.512h62.976c10.752 0 20.48 4.096 27.648 11.264a36.864 36.864 0 0 1 11.776 27.136c0 20.992-17.92 38.4-39.424 38.4H182.272c-3.584 0-7.168 0-10.752-0.512-3.584-0.512-7.168-1.024-10.752-2.048-3.584-0.512-7.168-1.536-10.24-2.56-3.584-1.024-6.656-2.56-10.24-4.096-3.072-1.024-6.144-2.56-9.216-4.608-3.072-1.536-5.632-3.072-8.192-5.12-3.072-1.536-5.632-4.096-8.192-6.144-2.56-2.048-5.12-4.608-7.68-7.168-2.048-2.048-4.608-4.608-6.656-7.168-2.048-2.56-4.096-5.632-5.632-8.192-2.56-3.072-4.096-6.144-5.632-8.704-1.024-2.56-2.56-5.632-4.096-9.728-1.536-3.072-2.56-6.144-3.584-9.216-1.024-3.584-2.048-7.168-2.56-10.24l-1.536-10.24c-0.512-3.584-0.512-7.168-0.512-10.752v-664.064c0-3.584 0-7.168 0.512-10.24l1.536-10.24c0.512-3.584 1.536-6.656 2.56-10.24 1.024-3.584 2.048-7.168 3.584-10.752 1.024-3.072 2.56-5.632 4.096-8.704 2.048-3.584 3.584-6.656 5.12-9.216 2.048-2.56 3.584-5.632 6.144-8.192 2.56-3.072 4.608-5.12 6.656-7.168 2.56-2.56 5.12-4.608 7.68-7.168 3.072-2.56 5.632-4.608 8.192-6.144 2.56-2.048 5.632-3.584 8.192-5.12l9.216-4.608c3.584-1.536 6.656-2.56 9.728-3.584 3.072-1.024 6.656-2.048 10.752-3.072l9.728-1.536c3.584-0.512 7.68-0.512 11.776-0.512h644.608c4.096 0 7.68 0 11.264 0.512s6.656 1.024 10.752 1.536c3.584 1.024 7.168 1.536 9.728 2.56 3.584 1.024 7.168 2.56 10.24 3.584l9.216 4.608a50.688 50.688 0 0 1 8.704 5.632c3.072 2.048 6.144 4.608 8.192 6.656 3.072 2.56 5.12 4.608 7.168 6.656 2.56 2.56 4.608 5.12 6.656 7.68 2.048 2.56 4.096 5.12 5.632 7.68 2.048 3.072 3.584 5.632 5.12 8.704l4.608 9.216c1.536 3.072 2.56 6.144 3.584 9.728 1.024 3.584 2.048 7.168 2.56 10.24 1.536 6.656 2.048 13.824 2.048 20.992V667.648c0 3.584 0 7.168-0.512 10.752z m-578.048-50.176h302.592c19.968 0 39.936 9.728 52.736 25.6s16.896 35.84 12.288 55.808l-11.776 47.616c-5.632 21.504-27.136 47.104-62.464 53.76l-6.656 0.512c-4.096 0.512-7.68 0.512-11.776 0.512h-19.456l-3.584 13.312-4.608 16.384C594.432 867.84 563.2 896 524.8 896h-40.448c-38.4 0-69.12-27.136-76.288-53.248-2.048-6.656-5.12-18.944-8.192-30.208H373.76c-35.328 0-67.072-29.184-73.728-55.296l-12.288-47.616c-5.12-19.968-1.024-39.424 11.776-55.808 13.312-15.872 33.792-25.6 54.272-25.6z m22.016 106.496c0.512 0.512 1.024 0.512 1.536 1.024h39.424c27.648 0 49.664 16.384 55.808 41.984l3.584 13.312c2.56 9.216 5.12 20.992 7.168 27.648l1.024 0.512h39.936c0.512 0 1.536-0.512 2.048-0.512l1.024-3.584c3.584-13.312 7.168-25.6 10.24-37.376 6.656-24.576 28.672-41.472 54.272-41.472h37.888c2.048 0 3.584-0.512 4.608-0.512l7.68-30.208H368.64l7.168 29.184z m251.904-459.264H381.44c-19.456 0-35.84-15.36-35.84-34.816 0-18.944 15.872-34.816 35.84-34.816h246.272c9.216 0 18.432 3.584 25.088 10.24s10.24 15.36 10.24 24.576c0.512 19.456-15.36 34.816-35.328 34.816z m0-123.392H381.44c-19.456 0-35.84-15.36-35.84-34.816 0-18.944 15.872-34.816 35.84-34.816h246.272c19.456 0 35.84 15.36 35.84 34.816 0 19.456-15.872 34.816-35.84 34.816z m0 246.784H381.44c-9.216 0-18.432-3.584-25.088-10.24s-10.24-15.36-10.24-24.576c0-18.944 15.872-34.816 35.84-34.816h246.272c19.456 0 35.84 15.36 35.84 34.816a36.1984 36.1984 0 0 1-36.352 34.816zM381.44 452.608h246.272c9.216 0 18.432 3.584 25.088 10.24s10.24 15.36 10.24 24.576c0 18.944-15.872 34.816-35.84 34.816h-245.76c-19.456 0-35.84-15.36-35.84-34.816 0.512-18.944 16.384-34.816 35.84-34.816z"  horiz-adv-x="1024" />

    
    <glyph glyph-name="-jkda2" unicode="&#58895;" d="M957.952 708.608c-46.592 86.016-130.048 133.12-240.64 135.68h-10.24c-67.584 0-142.336-16.896-211.456-47.104C425.984 827.904 351.744 844.8 284.672 844.8c-54.272 0-102.4-10.752-143.872-31.232-46.08-23.04-81.92-58.368-107.52-104.96-13.824-25.6-24.576-51.712-31.744-78.336a48.896 48.896 0 0 1 48.128-60.928c22.528 0 42.496 14.848 48.128 35.84 5.632 19.968 13.312 39.424 23.552 57.856 30.208 56.32 84.48 84.48 161.28 84.48 87.04 0 166.912-35.84 189.44-47.104 7.68-4.096 17.92-5.12 24.576-5.12 7.68 0 15.872 2.048 22.528 5.12 60.416 29.696 128.512 46.592 186.368 46.592h9.216c73.728-2.048 125.952-30.208 155.136-83.968 138.24-254.976-214.016-516.608-372.224-617.472-0.512 0-1.024-0.512-2.048-0.512s-1.536 0-2.048 0.512c-111.616 71.168-305.152 212.48-376.32 374.272h83.456l47.104-100.352c8.192-16.384 25.6-27.648 45.056-27.648h0.512c18.944 0 36.864 10.752 44.544 27.136l88.576 177.152a52.736 52.736 0 0 1 54.784-8.704c25.088 10.752 36.352 39.424 25.088 64l-34.816 73.728a49.2544 49.2544 0 0 1-45.056 28.16c-18.944 0-36.864-10.752-44.544-27.136l-87.04-172.544-16.384 35.328a50.944 50.944 0 0 1-45.568 28.16H50.176c-27.648 0-50.176-21.504-50.176-48.64 0-3.072 0-5.632 0.512-7.68 0-4.608 0.512-8.704 1.536-12.288 55.808-213.504 297.472-394.24 436.736-483.328 16.896-10.752 36.352-16.384 56.832-16.384 19.968 0 39.936 5.632 56.832 16.384 98.304 62.464 236.544 163.84 334.336 289.792 56.32 72.192 92.16 143.872 107.008 213.504 17.408 82.944 5.632 163.84-35.84 240.128z m-452.608-332.288a43.008 43.008 0 0 1 1.024-33.792l40.448-86.016c6.656-14.848 22.016-25.088 38.912-26.112h2.56c15.872 0 30.72 8.192 38.912 21.504l81.92 132.608h95.232c25.088 0 45.568 19.968 45.568 44.032 0 24.576-20.48 44.032-45.568 44.032h-121.344c-15.872 0-30.72-8.192-38.912-20.992l-50.688-82.432-4.096 9.216a45.056 45.056 0 0 1-41.472 26.112c-6.656 0-12.8-1.536-18.944-4.096-10.752-4.608-19.456-12.8-23.552-24.064z m2.048 114.176c-24.064 0-43.52-18.944-43.52-41.984 0-23.04 19.456-41.984 43.52-41.984s43.52 18.944 43.52 41.984c0 11.264-4.608 22.016-12.8 29.696a44.6976 44.6976 0 0 1-30.72 12.288z"  horiz-adv-x="1024" />

    
    <glyph glyph-name="-jkda1" unicode="&#58894;" d="M893.952 849.408c-17.92 18.944-41.984 29.184-67.072 29.184H171.52c-52.224 0-95.232-45.056-95.232-99.84v-781.824c0-26.624 9.728-51.712 27.648-70.656 17.92-18.944 41.984-29.184 67.072-29.184h654.848c25.6 0 49.152 10.24 67.072 29.184 17.92 18.944 27.648 44.032 27.648 70.656V778.752c1.024 26.624-8.704 51.712-26.624 70.656z m-53.248-829.44c0-20.992-16.384-37.888-35.84-37.888H193.536c-19.968 0-35.84 16.896-35.84 37.888V755.712c-0.512 20.992 15.872 37.888 35.84 37.888h611.328c19.968 0 35.84-16.896 35.84-37.888v-735.744z m-90.624 122.88H291.84c-22.528 0-40.448-18.944-40.448-42.496s17.92-42.496 40.448-42.496h458.752c22.528 0 40.448 18.944 40.448 42.496s-18.432 42.496-40.96 42.496z m0 161.28H466.432c-22.528 0-40.448-18.944-40.448-42.496 0-23.552 17.92-42.496 40.448-42.496h283.648c22.528 0 40.448 18.944 40.448 42.496 0 23.04-17.92 42.496-40.448 42.496z m0 160.768h-153.088c-22.528 0-40.448-18.944-40.448-42.496 0-23.552 17.92-42.496 40.448-42.496h153.088c22.528 0 40.448 18.944 40.448 42.496 0 23.552-17.92 42.496-40.448 42.496z m-356.864-20.992c25.6 0 49.664 9.728 68.608 27.648l77.312 81.408c17.92 18.944 27.648 44.032 27.648 70.656s-9.728 51.712-27.648 70.656c-17.92 18.944-41.984 29.184-67.072 29.184-25.6 0-49.152-10.24-67.072-29.184l-11.776-11.776-13.312 13.824c-17.92 18.944-41.984 29.696-67.072 29.696-25.6 0-49.152-10.24-67.072-29.184s-28.16-44.544-28.16-71.168c0-26.624 9.728-51.712 27.648-70.656L322.56 473.6c19.456-18.944 44.544-29.696 70.656-29.696zM294.912 644.608a24.832 24.832 0 0 0 35.84 0L393.728 578.56l60.928 64.512c4.608 4.608 10.752 7.168 17.408 7.168 6.144 0 11.776-2.048 16.384-6.656l1.024-1.536c9.728-10.24 9.728-27.136 0-37.376l-76.8-80.384c-4.608-5.12-10.752-7.68-17.408-7.68-3.584 0-7.168 1.024-10.752 2.56h-1.536a29.2352 29.2352 0 0 0-10.752 6.656L294.912 607.232a27.5968 27.5968 0 0 0 0 37.376z"  horiz-adv-x="1024" />

    
    <glyph glyph-name="-jdrq" unicode="&#58893;" d="M782.336 480.256a50.2784 50.2784 0 0 1-49.664-15.872l-229.888-231.936c-4.608-4.608-11.264-7.168-17.92-7.168s-12.8 2.56-17.92 7.168L378.88 323.072a49.7664 49.7664 0 0 1-70.144-70.144l141.312-141.312c19.456-19.456 50.688-19.456 70.144 0l282.624 282.624c14.336 12.288 20.48 31.232 15.872 49.664a50.3296 50.3296 0 0 1-36.352 36.352z m92.16 315.904h-50.176V845.824c0 17.92-9.728 34.304-25.088 43.008a50.4832 50.4832 0 0 1-49.664 0c-15.36-8.704-25.088-25.6-25.088-43.008v-49.664h-399.36V845.824A50.176 50.176 0 0 1 275.456 896c-27.648 0-50.176-22.528-50.176-50.176v-49.664h-50.176C92.16 796.16 25.6 729.088 25.6 646.656v-599.04c0-39.936 15.872-77.824 44.032-105.984 28.16-28.16 66.048-44.032 105.984-44.032h698.88c39.936 0 77.824 15.872 105.984 44.032 28.16 28.16 44.032 66.048 44.032 105.984V646.144a150.528 150.528 0 0 1-150.016 150.016z m49.664-748.544c0-13.312-5.12-26.112-14.848-35.328-9.216-9.216-22.016-14.848-35.328-14.848H175.104c-13.312 0-26.112 5.12-35.328 14.848a50.432 50.432 0 0 0-14.848 35.328V646.144c0 27.648 22.528 49.664 49.664 49.664h698.88c13.312 0 26.112-5.12 35.328-14.848 9.216-9.216 14.848-22.016 14.848-35.328v-598.016zM376.832 452.096c30.72 0 55.296 25.088 55.296 55.296 0 30.72-25.088 55.296-55.296 55.296H303.104c-30.72 0-55.296-25.088-55.296-55.296 0-30.72 25.088-55.296 55.296-55.296h73.728z"  horiz-adv-x="1024" />

    
    <glyph glyph-name="-hjdz" unicode="&#58892;" d="M933.376-23.55200000000002h-39.424v374.784c0 52.736-34.816 99.328-85.504 113.664l-186.88 54.272V726.528A119.0912 119.0912 0 0 1 502.784 844.8H222.72C157.696 844.8 104.448 791.552 104.448 726.528v-750.08h-39.424a39.424 39.424 0 0 1 0-78.848h868.352a39.424 39.424 0 0 1 0 78.848z m-530.944 0H323.584v118.272h78.848v-118.272z m139.776 0H481.28v157.696a39.424 39.424 0 0 1-39.424 39.424H284.16a39.424 39.424 0 0 1-39.424-39.424v-157.696h-61.44V726.528c0 22.016 17.92 39.424 39.424 39.424h280.064c22.016 0 39.424-17.92 39.424-39.424v-750.08z m272.896 0h-193.536v99.84h78.848a39.424 39.424 0 0 1 0 78.848h-78.848v66.56h78.848a39.424 39.424 0 0 1 0 78.848h-78.848v138.24l165.376-47.616c17.408-5.12 29.184-21.504 28.16-39.424v-375.296z m-373.248 374.784H284.16a39.424 39.424 0 0 1 0-78.848h157.696a39.424 39.424 0 0 1 0 78.848zM284.16 430.592h157.696a39.424 39.424 0 0 1 0 78.848H284.16a39.424 39.424 0 0 1 0-78.848z m0 157.696h157.696a39.424 39.424 0 0 1 0 78.848H284.16a39.424 39.424 0 0 1 0-78.848z"  horiz-adv-x="1024" />

    
    <glyph glyph-name="-idcard" unicode="&#58891;" d="M876.032 716.8H136.704C75.264 716.8 25.6 667.136 25.6 606.72v-471.04c0-60.416 49.664-110.08 111.104-110.08h739.84c60.928 0 111.104 49.664 111.104 110.08v471.04a111.5648 111.5648 0 0 1-111.616 110.08z m47.616-581.12c0-26.112-21.504-47.104-47.616-47.104H136.704c-26.112 0-47.616 20.992-47.616 47.104v471.04c0 26.112 21.504 47.104 47.616 47.104h739.84c26.112 0 47.616-20.992 47.616-47.104v-471.04zM453.632 402.944H162.816c-17.408 0-31.744-14.336-31.744-31.744 0-17.408 14.336-31.744 31.744-31.744h290.816c17.408 0 31.744 14.336 31.744 31.744 0 17.408-14.336 31.744-31.744 31.744z m-79.36-131.072H162.816c-17.408 0-31.744-14.336-31.744-31.744 0-17.408 14.336-31.744 31.744-31.744h211.456c17.408 0 31.744 14.336 31.744 31.744 0 17.408-14.336 31.744-31.744 31.744zM162.816 470.528h316.928c17.92 0 32.256 14.336 32.256 31.744 0 17.408-14.336 31.744-31.744 31.744h-317.44c-17.408 0-31.744-14.336-31.744-31.744 0-17.408 14.336-31.744 31.744-31.744z m622.592-118.784c27.648 25.6 43.008 61.44 43.008 98.304 0 75.264-61.44 136.192-137.216 136.192a136.704 136.704 0 0 1-137.216-136.192c0-36.864 15.872-72.192 43.008-98.304a187.648 187.648 0 0 1-95.744-163.328c0-17.408 14.336-31.744 31.744-31.744 17.408 0 31.744 14.336 31.744 31.744 0 69.12 56.832 125.44 126.464 125.44s126.464-56.32 126.464-125.44c0-17.408 14.336-31.744 31.744-31.744 17.408 0 31.744 14.336 31.744 31.744 0.512 67.584-36.352 129.536-95.744 163.328z m-94.208 24.576c-40.448 0-73.728 32.768-73.728 73.216 0 40.448 33.28 73.216 73.728 73.216s73.728-32.768 73.728-73.216-32.768-73.216-73.728-73.216z"  horiz-adv-x="1024" />

    
    <glyph glyph-name="-success" unicode="&#58889;" d="M881.152 755.2L372.224 250.88 168.448 452.608c-32.768 32.256-85.504 32.256-118.272 0-32.768-32.256-32.768-84.48 0-117.248l203.776-201.728 58.88-58.368c32.768-32.256 85.504-32.256 118.272 0l58.88 58.368 509.44 504.32c32.768 32.256 32.768 84.48 0 117.248-32.768 32.256-85.504 32.256-118.272 0z"  horiz-adv-x="1024" />

    
    <glyph glyph-name="-user" unicode="&#58888;" d="M474.112 395.264c-141.824 0-253.952 113.664-253.952 250.368C220.16 785.92 335.872 896 474.112 896c141.824 0 253.952-113.664 253.952-250.368 0.512-137.216-111.616-250.368-253.952-250.368zM45.568-102.39999999999998c-9.728 0-19.968 10.24-19.968 19.968 0 250.368 207.872 454.144 461.824 454.144s461.824-203.776 461.824-454.144c0-10.24-9.728-19.968-19.968-19.968"  horiz-adv-x="1024" />

    
    <glyph glyph-name="-add" unicode="&#58939;" d="M867.84 552.96H680.96V739.84a156.16 156.16 0 1 1-312.32 0V552.96H181.76a156.16 156.16 0 1 1 0-312.32H368.64v-187.392a156.16 156.16 0 1 1 312.32 0V240.64h187.392a156.16 156.16 0 1 1-0.512 312.32z"  horiz-adv-x="1024" />

    
    <glyph glyph-name="-follow" unicode="&#58885;" d="M348.16 397.824c-28.16 0-51.712-23.04-51.712-51.712s23.04-51.712 51.712-51.712c18.432 0 35.328 9.728 44.544 26.112a51.4048 51.4048 0 1 1-44.544 77.312z m212.48 178.176l-3.584 1.024c-5.12 1.536-10.24 2.56-15.36 2.56-7.168 0-14.336-1.536-20.48-5.12-11.264-5.632-19.456-15.36-23.04-27.648-7.68-26.624-10.24-32.256-10.752-32.768-7.168-14.848-22.016-32.768-31.744-44.544l-2.048-2.56c-10.24-12.288-20.992-19.968-31.744-22.528-11.776-3.072-21.504-11.264-27.136-22.016-5.12-10.752-5.12-23.552-0.512-34.304l2.56-5.632a45.4656 45.4656 0 0 1 58.368-24.064c25.6 10.24 44.544 22.528 56.832 37.376 1.536 2.048 5.12 5.632 8.704 9.216 13.312 13.312 33.28 33.792 48.64 60.416 2.56 4.608 7.168 15.36 19.456 53.76a47.104 47.104 0 0 1-28.16 56.832z m427.52-159.232c18.944 18.432 25.6 46.08 17.408 71.168-8.192 25.6-29.696 43.52-55.808 47.616l-241.664 35.328a27.8528 27.8528 0 0 0-20.48 14.848l-108.032 220.16c-11.776 24.064-35.328 38.912-61.952 38.912s-50.688-14.848-62.464-38.912l-108.032-220.16c-4.096-8.192-11.264-13.824-20.48-14.848l-241.664-35.328c-26.112-4.096-47.616-22.016-55.808-47.616C20.992 462.848 27.648 435.2 46.592 416.768l175.104-171.52c6.144-6.144 9.216-15.36 7.68-24.064l-41.472-242.176a69.4784 69.4784 0 0 1 68.608-81.408c11.264 0 22.528 2.56 32.256 8.192l216.064 114.176a27.7504 27.7504 0 0 0 25.6 0l216.064-114.176c9.728-5.12 20.992-8.192 32.256-8.192a69.4784 69.4784 0 0 1 68.608 81.408l-41.472 242.176c-1.536 8.704 1.536 17.92 7.68 24.064l174.592 171.52z m-238.08-106.496c-27.648-27.136-40.448-66.048-33.792-104.448l34.304-199.68-178.176 94.208c-16.896 8.704-35.84 13.312-54.784 13.312-18.944 0-37.888-4.608-54.784-13.312l-11.264-6.144-166.912-88.064 34.304 199.68c6.656 38.4-6.144 77.312-33.792 104.448L140.288 451.584l199.168 29.184c38.4 5.632 71.68 29.696 88.576 64.512L517.12 727.04l89.088-181.76c16.896-34.816 50.176-58.88 88.576-64.512l199.168-29.184-143.872-141.312z"  horiz-adv-x="1024" />

    
    <glyph glyph-name="-doctor" unicode="&#58884;" d="M962.56-17.91999999999996c0 133.12-77.824 248.32-189.44 303.616 5.632-12.288 8.192-26.112 8.192-39.424v-11.776a119.808 119.808 0 0 0 94.72-117.248v-64.512c8.192-7.168 13.312-17.408 13.312-29.184a38.3488 38.3488 0 1 0-76.8 0c0 12.8 6.144 24.064 15.872 31.232v65.536c0 38.912-31.744 70.656-70.656 70.656-38.912 0-70.656-31.744-70.656-70.656v-67.072c8.704-7.168 14.336-17.92 14.336-29.696a38.3488 38.3488 0 1 0-76.8 0c0 11.776 5.12 22.016 13.312 29.184v64.512c0 58.368 42.496 107.52 98.304 117.76-2.048 28.672-13.824 55.296-31.744 75.776a342.016 342.016 0 0 1-55.808 8.704c-9.216-212.48-74.752-377.344-153.6-377.344-79.36 0-144.384 164.864-153.6 377.856h-1.024c-19.456-22.528-30.72-52.224-30.72-83.968v-97.28c27.136-10.24 47.104-36.352 47.104-67.584 0-39.424-32.256-71.68-71.68-71.68s-71.68 32.256-71.68 71.68c0 32.768 21.504 59.904 51.2 68.608V256c0 19.456 5.632 37.888 15.36 53.248a338.432 338.432 0 0 1-253.44-327.168v-10.24h0.512c0-1.024-0.512-1.536-0.512-2.56 0-39.424 209.408-71.168 468.48-71.168 258.56 0 468.48 31.744 468.48 71.168 0 1.024 0 1.536-0.512 2.56h0.512v10.24zM499.712 654.336c-116.224 0-210.432-34.304-210.432-76.288 0-1.536 0-3.072 0.512-4.096h-0.512l44.544-199.168c0.512-3.584 1.536-7.168 2.56-10.24v-0.512c18.432-69.632 84.992-121.856 163.328-121.856 83.968 0 154.112 59.392 166.912 136.704l43.52 195.584h-0.512c0 1.536 0.512 3.072 0.512 4.096 0 41.984-94.208 75.776-210.432 75.776z m-1.024 40.96c103.424 0 190.976-34.304 222.208-82.432h8.192V813.568v1.024C729.088 859.648 626.176 896 499.712 896 373.248 896 270.336 859.648 270.336 815.104v-201.728h6.144c31.232 47.616 118.784 81.92 222.208 81.92zM435.2 800.768c0 8.704 7.168 15.872 15.872 15.872h33.28V849.92c0 8.704 7.168 15.872 15.872 15.872s15.872-7.168 15.872-15.872v-33.792h33.28c8.704 0 15.872-7.168 15.872-15.872s-7.168-15.872-15.872-15.872h-33.28v-33.792c0-8.704-7.168-15.872-15.872-15.872-8.704 1.024-15.872 7.68-15.872 16.384v33.792H450.56a15.872 15.872 0 0 0-15.36 15.872z"  horiz-adv-x="1024" />

    
    <glyph glyph-name="-position" unicode="&#58883;" d="M541.184 576C521.728 584.704 501.76 588.8 480.256 588.8c-41.984 0-82.432-16.896-112.128-47.104-22.016-23.04-36.864-51.712-43.008-82.944-6.144-31.232-3.072-63.488 8.704-92.672a158.5152 158.5152 0 0 1 146.432-98.816h0.512c87.04 0 158.208 71.68 158.208 159.744 0 31.744-8.704 62.464-26.624 89.088-17.408 27.136-41.984 47.616-71.168 59.904z m-60.416-219.136c-18.944 0-36.352 7.168-49.664 20.992-12.8 13.312-20.48 31.232-20.48 50.176 0 38.4 30.72 69.632 68.608 70.144h1.024c38.4 0 69.632-31.744 69.632-70.656 0-38.912-31.232-70.656-69.12-70.656z m326.144 360.448c-8.192 10.24-21.504 17.408-34.816 18.944h-4.608c-12.288 0-24.064-4.608-33.28-12.288-21.504-18.944-24.064-50.176-6.144-71.68a314.5728 314.5728 0 0 0 69.12-194.56c0-55.808-39.424-135.68-114.688-232.448-68.096-88.064-146.432-164.352-182.272-198.144-39.424 35.84-114.688 110.592-182.272 197.632-74.752 96.256-114.688 177.152-114.688 232.448 0 166.912 133.12 303.104 296.96 303.104h0.512c38.912 0 77.312-7.68 112.64-23.04 6.144-2.56 12.8-4.096 19.968-4.096a50.4832 50.4832 0 0 1 47.104 32.256 51.0464 51.0464 0 0 1-27.648 66.56C604.16 852.992 552.96 863.232 500.224 863.232h-1.024c-54.272 0-105.984-10.752-155.648-32.256-46.592-20.48-89.088-49.664-125.44-87.04-36.864-37.376-66.048-80.896-85.504-129.024-20.992-50.176-31.744-103.424-31.744-158.208 0-91.136 59.904-208.384 178.688-347.648a2004.48 2004.48 0 0 1 186.88-190.976c9.728-8.192 22.016-12.8 33.792-12.8h0.512c11.776 0 24.064 4.608 32.768 12.8 17.408 14.848 102.4 91.648 186.88 190.976 118.784 139.776 178.688 256.512 178.688 347.648 0.512 94.208-32.256 187.392-92.16 260.608zM541.184 576C521.728 584.704 501.76 588.8 480.256 588.8c-41.984 0-82.432-16.896-112.128-47.104-22.016-23.04-36.864-51.712-43.008-82.944-6.144-31.232-3.072-63.488 8.704-92.672a158.5152 158.5152 0 0 1 146.432-98.816h0.512c87.04 0 158.208 71.68 158.208 159.744 0 31.744-8.704 62.464-26.624 89.088-17.408 27.136-41.984 47.616-71.168 59.904z m-60.416-219.136c-18.944 0-36.352 7.168-49.664 20.992-12.8 13.312-20.48 31.232-20.48 50.176 0 38.4 30.72 69.632 68.608 70.144h1.024c38.4 0 69.632-31.744 69.632-70.656 0-38.912-31.232-70.656-69.12-70.656z m326.144 360.448c-8.192 10.24-21.504 17.408-34.816 18.944h-4.608c-12.288 0-24.064-4.608-33.28-12.288-21.504-18.944-24.064-50.176-6.144-71.68a314.5728 314.5728 0 0 0 69.12-194.56c0-55.808-39.424-135.68-114.688-232.448-68.096-88.064-146.432-164.352-182.272-198.144-39.424 35.84-114.688 110.592-182.272 197.632-74.752 96.256-114.688 177.152-114.688 232.448 0 166.912 133.12 303.104 296.96 303.104h0.512c38.912 0 77.312-7.68 112.64-23.04 6.144-2.56 12.8-4.096 19.968-4.096a50.4832 50.4832 0 0 1 47.104 32.256 51.0464 51.0464 0 0 1-27.648 66.56C604.16 852.992 552.96 863.232 500.224 863.232h-1.024c-54.272 0-105.984-10.752-155.648-32.256-46.592-20.48-89.088-49.664-125.44-87.04-36.864-37.376-66.048-80.896-85.504-129.024-20.992-50.176-31.744-103.424-31.744-158.208 0-91.136 59.904-208.384 178.688-347.648a2004.48 2004.48 0 0 1 186.88-190.976c9.728-8.192 22.016-12.8 33.792-12.8h0.512c11.776 0 24.064 4.608 32.768 12.8 17.408 14.848 102.4 91.648 186.88 190.976 118.784 139.776 178.688 256.512 178.688 347.648 0.512 94.208-32.256 187.392-92.16 260.608z"  horiz-adv-x="1024" />

    
    <glyph glyph-name="-commentdot" unicode="&#58882;" d="M503.296 599.552c77.824 0 141.312 62.464 141.312 139.264 0 76.8-62.976 139.264-141.312 139.264-77.824 0-141.312-62.464-141.312-139.264 0-77.312 62.976-139.264 141.312-139.264z m0-76.288C424.96 523.264 361.984 460.8 361.984 384c0-76.8 62.976-139.264 141.312-139.264 77.824 0 141.312 62.464 141.312 139.264a140.8 140.8 0 0 1-141.312 139.264z m0-354.816c-77.824 0-141.312-62.464-141.312-139.264 0-76.8 62.976-139.264 141.312-139.264 77.824 0 141.312 62.464 141.312 139.264a140.4928 140.4928 0 0 1-141.312 139.264z"  horiz-adv-x="1024" />

    
    <glyph glyph-name="-arrow-right" unicode="&#58938;" d="M772.01333333 324.91499999999996l-358.65-355.545a84.105 84.105 0 0 0-59.31-24.345c-22.41 0-43.425 8.685-59.265 24.345a82.71 82.71 0 0 0-24.795 59.22c0 22.5 8.82 43.425 24.75 59.175L593.58833333 384 294.65333333 680.235A83.115 83.115 0 0 0 294.60833333 798.495c15.795 15.795 36.9 24.48 59.31 24.48 22.5 0 43.515-8.685 59.4-24.39l358.56-355.275c16.02-15.75 24.84-36.81 24.84-59.265 0.045-22.41-8.775-43.425-24.705-59.13z"  horiz-adv-x="1024" />

    


  </font>
</defs>
</svg>
