<?xml version="1.0" encoding="utf-8"?>
<!-- Generator: Adobe Illustrator 16.0.0, SVG Export Plug-In . SVG Version: 6.00 Build 0)  -->
<!DOCTYPE svg PUBLIC "-//W3C//DTD SVG 1.1//EN" "http://www.w3.org/Graphics/SVG/1.1/DTD/svg11.dtd">
<svg version="1.1" id="图层_1" xmlns="http://www.w3.org/2000/svg" xmlns:xlink="http://www.w3.org/1999/xlink" x="0px" y="0px"
	 width="20px" height="20px" viewBox="0 0 20 20" enable-background="new 0 0 20 20" xml:space="preserve">
<g>
	<g>
		<path fill="#FDC141" d="M7.667,2.994c0.095,0.127,0.244,0.201,0.401,0.201h3.877c0.151,0,0.293-0.068,0.39-0.185
			c0.321-0.394,1.052-1.289,1.148-1.46c0.128-0.221,0.13-0.198,0.157-0.384c0.03-0.185-0.126-0.392-0.365-0.545
			c-0.237-0.153-1.721-0.375-3.273-0.37C8.519,0.259,6.997,0.474,6.729,0.62C6.496,0.748,6.363,0.934,6.363,1.168
			c0,0.049,0.021,0.132,0.123,0.266C6.565,1.539,7.335,2.554,7.667,2.994z M17.394,14.568l-1.077-5.478
			c-0.56-2.851-3.197-5.18-5.856-5.18H9.547c-2.664,0-5.298,2.332-5.861,5.18l-1.079,5.478C2.044,17.42,3.762,19.75,6.426,19.75
			h7.147C16.234,19.75,17.956,17.418,17.394,14.568z M12.409,13.656c0.334,0,0.602,0.275,0.602,0.609
			c0,0.338-0.27,0.607-0.602,0.607h-1.808v1.828c0,0.338-0.271,0.609-0.602,0.609c-0.334,0-0.602-0.273-0.602-0.609v-1.828H7.59
			c-0.334,0-0.602-0.273-0.602-0.607c0-0.338,0.271-0.609,0.602-0.609h1.808v-1.219H7.59c-0.334,0-0.602-0.273-0.602-0.607
			c0-0.336,0.271-0.609,0.602-0.609h1.808v-0.424C9.321,10.768,9.25,10.725,9.19,10.66L7.485,8.938c-0.234-0.236-0.234-0.623,0-0.86
			c0.234-0.237,0.617-0.237,0.851,0L9.989,9.75l1.653-1.671c0.233-0.237,0.616-0.237,0.85,0c0.235,0.237,0.235,0.624,0,0.86
			l-1.703,1.722c-0.055,0.057-0.12,0.096-0.187,0.125v0.436h1.808c0.334,0,0.602,0.273,0.602,0.609c0,0.334-0.27,0.607-0.602,0.607
			h-1.808v1.219H12.409z"/>
	</g>
</g>
</svg>
