<?xml version="1.0" encoding="utf-8"?>
<!-- Generator: Adobe Illustrator 23.0.2, SVG Export Plug-In . SVG Version: 6.00 Build 0)  -->
<svg version="1.1" id="图层_1" xmlns="http://www.w3.org/2000/svg" xmlns:xlink="http://www.w3.org/1999/xlink" x="0px" y="0px"
	 viewBox="0 0 20 20" style="enable-background:new 0 0 20 20;" xml:space="preserve">
<style type="text/css">
	.st0{fill:#00C792;}
</style>
<path class="st0" d="M10,0.3c-5.3,0-9.7,4.3-9.7,9.7s4.3,9.7,9.7,9.7s9.7-4.3,9.7-9.7S15.3,0.3,10,0.3L10,0.3z M15.8,7.3l-6.7,6.8
	c0,0,0,0.1-0.1,0.1c-0.3,0.3-0.7,0.3-0.9,0l-3.3-3.4c-0.3-0.3-0.3-0.7,0-1s0.7-0.3,0.9,0l2.8,2.9l6.3-6.4c0.3-0.3,0.7-0.3,0.9,0
	C16.1,6.6,16.1,7,15.8,7.3L15.8,7.3z"/>
</svg>
