<?xml version="1.0" encoding="utf-8"?>
<!-- Generator: Adobe Illustrator 16.0.0, SVG Export Plug-In . SVG Version: 6.00 Build 0)  -->
<!DOCTYPE svg PUBLIC "-//W3C//DTD SVG 1.1//EN" "http://www.w3.org/Graphics/SVG/1.1/DTD/svg11.dtd">
<svg version="1.1" id="图层_1" xmlns="http://www.w3.org/2000/svg" xmlns:xlink="http://www.w3.org/1999/xlink" x="0px" y="0px"
	 width="20px" height="20px" viewBox="0 0 20 20" enable-background="new 0 0 20 20" xml:space="preserve">
<g>
	<g>
		<path fill="#31A594" d="M19.013,6.192c-0.493-1.165-1.198-2.211-2.096-3.108c-0.898-0.898-1.944-1.604-3.11-2.097
			C12.602,0.478,11.32,0.219,10,0.219c-1.915,0-3.769,0.553-5.364,1.6C4.473,1.927,4.36,2.092,4.32,2.284
			C4.28,2.477,4.318,2.673,4.426,2.837c0.136,0.208,0.366,0.332,0.615,0.332c0.144,0,0.283-0.042,0.403-0.121
			C6.797,2.159,8.373,1.689,10,1.689c4.583,0,8.311,3.729,8.311,8.311c0,4.583-3.728,8.311-8.311,8.311
			c-4.583,0-8.311-3.728-8.311-8.311c0-1.633,0.473-3.213,1.368-4.57c0.108-0.164,0.146-0.36,0.106-0.552
			C3.125,4.685,3.013,4.519,2.848,4.411C2.728,4.332,2.588,4.29,2.444,4.29c-0.248,0-0.478,0.124-0.613,0.33
			C0.776,6.218,0.219,8.078,0.219,10c0,1.32,0.259,2.602,0.769,3.807c0.493,1.166,1.199,2.212,2.097,3.11
			c0.898,0.897,1.944,1.603,3.108,2.096C7.399,19.523,8.68,19.781,10,19.781c1.32,0,2.602-0.258,3.807-0.769
			c1.166-0.493,2.212-1.198,3.11-2.096c0.897-0.898,1.603-1.944,2.096-3.11c0.511-1.205,0.769-2.486,0.769-3.807
			C19.781,8.68,19.523,7.399,19.013,6.192z M9.201,14.062L9.201,14.062c0.197,0,0.382-0.076,0.521-0.214l5.009-5.01
			c0.14-0.139,0.216-0.323,0.216-0.52c0-0.197-0.076-0.382-0.216-0.52c-0.139-0.139-0.322-0.215-0.52-0.215
			c-0.195,0-0.381,0.076-0.52,0.215l-4.49,4.489l-2.029-2.029c-0.139-0.139-0.324-0.215-0.52-0.215s-0.381,0.076-0.52,0.215
			c-0.139,0.138-0.215,0.323-0.215,0.519s0.077,0.382,0.215,0.521l2.548,2.549C8.818,13.982,9.008,14.062,9.201,14.062z"/>
	</g>
</g>
</svg>
