<?xml version="1.0" encoding="utf-8"?>
<!-- Generator: Adobe Illustrator 16.0.0, SVG Export Plug-In . SVG Version: 6.00 Build 0)  -->
<!DOCTYPE svg PUBLIC "-//W3C//DTD SVG 1.1//EN" "http://www.w3.org/Graphics/SVG/1.1/DTD/svg11.dtd">
<svg version="1.1" id="图层_1" xmlns="http://www.w3.org/2000/svg" xmlns:xlink="http://www.w3.org/1999/xlink" x="0px" y="0px"
	 width="20px" height="20px" viewBox="0 0 20 20" enable-background="new 0 0 20 20" xml:space="preserve">
<path fill="#31A594" d="M19.424,18.037l-3.003-3.21c0.585-0.749,1.044-1.575,1.365-2.462c0.356-0.98,0.536-2.008,0.536-3.057
	c0-4.96-4.04-8.997-9.006-8.997C4.351,0.313,0.312,4.349,0.312,9.31c0,4.96,4.04,8.996,9.005,8.996
	c1.301-0.001,2.554-0.272,3.728-0.807c0.239-0.108,0.421-0.303,0.514-0.549c0.092-0.245,0.082-0.512-0.026-0.75
	c-0.158-0.35-0.509-0.575-0.894-0.575c-0.142,0-0.28,0.029-0.406,0.088c-0.918,0.418-1.898,0.629-2.917,0.63
	c-3.882,0-7.04-3.155-7.04-7.033c0-3.879,3.158-7.034,7.04-7.034c3.883,0,7.042,3.155,7.042,7.034c0,1.826-0.696,3.555-1.962,4.87
	c-0.375,0.389-0.363,1.012,0.026,1.387c0.019,0.019,0.036,0.032,0.054,0.044c0.014,0.021,0.031,0.046,0.054,0.069l3.457,3.697
	c0.185,0.197,0.445,0.311,0.718,0.311c0.251,0,0.489-0.094,0.671-0.264c0.191-0.179,0.303-0.421,0.312-0.683
	S19.603,18.229,19.424,18.037z"/>
</svg>
