<?xml version="1.0" encoding="utf-8"?>
<!-- Generator: Adobe Illustrator 16.0.0, SVG Export Plug-In . SVG Version: 6.00 Build 0)  -->
<!DOCTYPE svg PUBLIC "-//W3C//DTD SVG 1.1//EN" "http://www.w3.org/Graphics/SVG/1.1/DTD/svg11.dtd">
<svg version="1.1" id="图层_1" xmlns="http://www.w3.org/2000/svg" xmlns:xlink="http://www.w3.org/1999/xlink" x="0px" y="0px"
	 width="20px" height="20px" viewBox="0 0 20 20" enable-background="new 0 0 20 20" xml:space="preserve">
<g>
	<g>
		<path fill-rule="evenodd" clip-rule="evenodd" fill="#F7BB66" d="M10,0.177c-5.425,0-9.823,4.398-9.823,9.823
			c0,5.426,4.398,9.823,9.823,9.823c5.426,0,9.823-4.397,9.823-9.823C19.823,4.575,15.426,0.177,10,0.177z M11.068,9.937
			l2.671,2.671c0.296,0.295,0.296,0.773,0,1.069c-0.294,0.296-0.771,0.296-1.066,0L10,11.005l-2.671,2.673
			c-0.295,0.296-0.774,0.296-1.069,0s-0.295-0.774,0-1.069l2.672-2.671L6.26,7.265c-0.295-0.295-0.295-0.773,0-1.068
			s0.774-0.295,1.069,0L10,8.869l2.673-2.672c0.295-0.295,0.772-0.295,1.066,0c0.296,0.295,0.296,0.773,0,1.068L11.068,9.937z
			 M13.043,10.189l-0.021,0.021v-0.021H13.043z"/>
	</g>
</g>
</svg>
