<svg width="17" height="18" viewBox="0 0 17 18" fill="none" xmlns="http://www.w3.org/2000/svg">
<path fill-rule="evenodd" clip-rule="evenodd" d="M6.25 2.25H1.75V6.75L6.25 6.75V2.25ZM6.25 11.25H1.75V15.75H6.25V11.25ZM10.75 11.25V15.75H15.25V11.25H10.75ZM9.25 11.25V15.75C9.25 16.5784 9.92157 17.25 10.75 17.25H15.25C16.0784 17.25 16.75 16.5784 16.75 15.75V11.25C16.75 10.4216 16.0784 9.75 15.25 9.75H10.75C9.92157 9.75 9.25 10.4216 9.25 11.25ZM15.25 2.25H10.75V6.75L15.25 6.75V2.25ZM6.25 0.75C7.07843 0.75 7.75 1.42157 7.75 2.25V6.75C7.75 7.57843 7.07843 8.25 6.25 8.25H1.75C0.921573 8.25 0.25 7.57843 0.25 6.75V2.25C0.25 1.42157 0.921573 0.75 1.75 0.75H6.25ZM6.25 9.75C7.07843 9.75 7.75 10.4216 7.75 11.25V15.75C7.75 16.5784 7.07843 17.25 6.25 17.25H1.75C0.921573 17.25 0.25 16.5784 0.25 15.75V11.25C0.25 10.4216 0.921573 9.75 1.75 9.75H6.25ZM15.25 0.75C16.0784 0.75 16.75 1.42157 16.75 2.25V6.75C16.75 7.57843 16.0784 8.25 15.25 8.25H10.75C9.92157 8.25 9.25 7.57843 9.25 6.75V2.25C9.25 1.42157 9.92157 0.75 10.75 0.75H15.25Z" fill="black"/>
</svg>
