<?xml version="1.0" encoding="utf-8"?>
<!-- Generator: Adobe Illustrator 16.0.0, SVG Export Plug-In . SVG Version: 6.00 Build 0)  -->
<!DOCTYPE svg PUBLIC "-//W3C//DTD SVG 1.1//EN" "http://www.w3.org/Graphics/SVG/1.1/DTD/svg11.dtd">
<svg version="1.1" id="图层_1" xmlns="http://www.w3.org/2000/svg" xmlns:xlink="http://www.w3.org/1999/xlink" x="0px" y="0px"
	 width="264px" height="179px" viewBox="0 0 264 179" enable-background="new 0 0 264 179" xml:space="preserve">
<path fill="none" d="M48.003,178.667h169.123c0.647-2.62,1.194-4.397,1.536-4.642c1.4-1,45.9-79.5,45.9-79.5
	s-5.733-18.333-7.233-20.333s-8.5-11.334-10.5-13.667s-14.833-11-16-11.5s-12.667-6.167-16.167-7.167s-9.834-2.667-13.667-3.5
	s-13.666-1.667-13.666-1.667s-25.668-16-25.834-16.333S160.661,4.4,160.661,4.4s-15.688,8.198-18.813,9.068
	c-3.125,0.87-19.115,0.051-20.438-1.068c-1.323-1.119-14.235-4.51-15.992-10.942l-0.429-1.095l-0.828,20.329L78.828,35.859
	c0,0-23.667,4.167-30.5,6.667s-23.5,12-27.5,15.833S9.661,70.692,7.995,73.859s-7.167,20.667-6.5,20.667
	s45.167,77.334,45.167,77.334S47.188,174.48,48.003,178.667z"/>
</svg>
