<?xml version="1.0" encoding="utf-8"?>
<!-- Generator: Adobe Illustrator 16.0.0, SVG Export Plug-In . SVG Version: 6.00 Build 0)  -->
<!DOCTYPE svg PUBLIC "-//W3C//DTD SVG 1.1//EN" "http://www.w3.org/Graphics/SVG/1.1/DTD/svg11.dtd">
<svg version="1.1" id="图层_1" xmlns="http://www.w3.org/2000/svg" xmlns:xlink="http://www.w3.org/1999/xlink" x="0px" y="0px"
	 width="67px" height="82px" viewBox="0 0 67 82" enable-background="new 0 0 67 82" xml:space="preserve">
<path fill="none" d="M22.316,82.047h25.899c0,0,7.993-6.375,9.48-9.375c1.486-3,4.397-5.938,6.011-10.563
	c1.61-4.625,2.849-7.125,2.849-13.25s0.373-18.104,0.373-18.104s-3.554-13.709-4.998-16.167c-1.447-2.458-5.205-6.833-6.816-7.5
	c-1.61-0.667-7.271-2.667-7.684-2.292c-0.41,0.375-8.467-3.375-8.467-3.708s-11.69-1.042-11.69-1.042l-7.838,1.625L12.279,5.14
	l-5.701,6.406l-4.089,8.938L0.63,28.547L0.072,36.86l0.93,7.938l1.177,6.688l1.673,5.813l3.51,8.084l2.892,4.791l4.75,5.813
	l3.779,3.563L22.316,82.047z"/>
</svg>
