<?xml version="1.0" encoding="utf-8"?>
<!-- Generator: Adobe Illustrator 16.0.0, SVG Export Plug-In . SVG Version: 6.00 Build 0)  -->
<!DOCTYPE svg PUBLIC "-//W3C//DTD SVG 1.1//EN" "http://www.w3.org/Graphics/SVG/1.1/DTD/svg11.dtd">
<svg version="1.1" id="图层_1" xmlns="http://www.w3.org/2000/svg" xmlns:xlink="http://www.w3.org/1999/xlink" x="0px" y="0px"
	 width="105px" height="198px" viewBox="0 0 105 198" enable-background="new 0 0 105 198" xml:space="preserve">
<path fill="none" d="M54.973,185.954c-1.125,2.375-2.875,6.375-6.125,3.875s-5.375-5.25-5.75-6.625s-1.25-3.625-1.25-3.625
	s-0.875-1-1.875-0.875s-4.25,4.375-4.25,4.375s-4.25,8.75-6.75,10s-3.5,6.25-9,4.25s-11.875-2.375-12.75-5.75s-4.625-7.75-5.25-12
	s-2.5-7.75-1-11.375s9-16.75,13.5-21.125s6.5-8.125,6.5-8.125s45.625-97,48.875-104.25s11.5-20.75,15.5-25.25s8.25-9.25,8.25-9.25
	l11,44c0,0-20.75,31.25-23.75,36s-16.5,37.5-16.5,37.5s-13.75,33.25-14,34s3.25,13,3.5,15.75S54.973,185.954,54.973,185.954z"/>
</svg>
