<?xml version="1.0" encoding="utf-8"?>
<!-- Generator: Adobe Illustrator 16.0.0, SVG Export Plug-In . SVG Version: 6.00 Build 0)  -->
<!DOCTYPE svg PUBLIC "-//W3C//DTD SVG 1.1//EN" "http://www.w3.org/Graphics/SVG/1.1/DTD/svg11.dtd">
<svg version="1.1" id="图层_1" xmlns="http://www.w3.org/2000/svg" xmlns:xlink="http://www.w3.org/1999/xlink" x="0px" y="0px"
	 width="56px" height="179px" viewBox="0 0 56 179" enable-background="new 0 0 56 179" xml:space="preserve">
<path fill="none" d="M10.031,178.836c-0.063-0.063-2.063,0-2.063,0l-2.063-2.188l-2.875-5.875l-1.938-4.625l-0.688-1.875l0.938-5
	l1.063-6.5l1.75-4.813l1.625-5.375l1.563-4.688c0,0,6.021-14.457,7.354-19.791c1.333-5.334,7.667-24.668,9.667-28.833
	c2-4.166,7-17.167,8-19.5s5.332-18.333,6.332-24.333s3.334-20.167,4.5-24.667c1.168-4.5,4.709-17.25,7.271-20.438
	s5.125,38.5,5.125,38.5v7.688c0,0-6.563,20.75-8.563,27.25S43.656,85.65,43.156,87.4s-4,11.749-5.25,13.249
	s-13.875,26.75-15.5,28.75s-3.375,8.25-3.125,13.375s-0.375,12.375-1.375,15.625s-2.375,9.25-3.625,10.25s-4.031,8.845-4.031,8.845
	l-0.203,1.155"/>
</svg>
