<?xml version="1.0" encoding="utf-8"?>
<!-- Generator: Adobe Illustrator 16.0.0, SVG Export Plug-In . SVG Version: 6.00 Build 0)  -->
<!DOCTYPE svg PUBLIC "-//W3C//DTD SVG 1.1//EN" "http://www.w3.org/Graphics/SVG/1.1/DTD/svg11.dtd">
<svg version="1.1" id="图层_1" xmlns="http://www.w3.org/2000/svg" xmlns:xlink="http://www.w3.org/1999/xlink" x="0px" y="0px"
	 width="88px" height="454px" viewBox="0 0 88 454" enable-background="new 0 0 88 454" xml:space="preserve">
<path fill="none" d="M52.057,452c0.25,0.031,0.404,0.033,0.475,0.007c1.042-0.387-17.036-7.037-17.974-15.007
	c-1-8.5,0-65.999,0-65.999s0.833-14.834,2.166-16.167c1.334-1.333-3.833-21.333-4.5-26c-0.666-4.667-4.832-30-4.832-30
	S19.557,236,19.307,220s-1-60.25,0-65.75s1.25-18.75,1.25-18.75l-13-81.5l-7.5-51.365V1.063c0,0,17,1.125,17.188,1.063
	s38.19,0.097,43.137-0.261C65.325,1.507,86.641,0.833,87.057,0s1.084,24.001,0.916,27.667c-0.166,3.666-1.498,44.666-1.832,50.25
	s-4.75,55.415-4.75,55.415s-2,9.334-2.334,10.334s3.334,21.999,3.334,25.666s3,41.333,3.332,45
	c0.334,3.667,0.959,33.668,0.709,37.168s-1,32.938-1.188,36.75S82.057,316,80.557,328.5s-3.5,24.5-3.5,24.5
	s-3.334,37.999-3.166,38.333c0.166,0.334,8.832,19.333,10.332,25s2.584,20.917,2.209,23.042s-4.25,8.125-5.375,9.125
	s-7.125,3.051-9.75,3.525c-2.625,0.474-6.375,0.975-8.875,0.975s-6.125,0.125-7.5,0s-2.625-0.969-2.625-0.969"/>
</svg>
