<?xml version="1.0" encoding="utf-8"?>
<!-- Generator: Adobe Illustrator 16.0.0, SVG Export Plug-In . SVG Version: 6.00 Build 0)  -->
<!DOCTYPE svg PUBLIC "-//W3C//DTD SVG 1.1//EN" "http://www.w3.org/Graphics/SVG/1.1/DTD/svg11.dtd">
<svg version="1.1" id="图层_1" xmlns="http://www.w3.org/2000/svg" xmlns:xlink="http://www.w3.org/1999/xlink" x="0px" y="0px"
	 width="45px" height="256px" viewBox="0 0 45 256" enable-background="new 0 0 45 256" xml:space="preserve">
<path fill="none" d="M0.5,0.25c0,0,3.125,55,4.063,65S9.5,95.25,9.25,101s0.772,24.75,0.011,31.25c-0.761,6.5-3.011,20-1.511,30
	s3.188,19.25,3.188,19.25l2.938,13.313c0,0,4,25.313,3.625,26.813s1.125,5.375,1,8.375s-1.25,6.5-1.875,7.375s-3,7.001-2.958,8.417
	s0.292,4.542,1.167,5.75s2.292,2.583,2.708,2.833s3.458,1.25,3.458,1.25l4.209,0.167l3.79-1.918l2.625-2.5l0.834-3.25l0.291-11.333
	v-15l-2.416-6l0.832-34.458l0.834-26.5l2.063-33.709L40.5,72l2.75-27.25L45,29.25v-1L0.829,0.457"/>
</svg>
