<?xml version="1.0" encoding="utf-8"?>
<!-- Generator: Adobe Illustrator 16.0.0, SVG Export Plug-In . SVG Version: 6.00 Build 0)  -->
<!DOCTYPE svg PUBLIC "-//W3C//DTD SVG 1.1//EN" "http://www.w3.org/Graphics/SVG/1.1/DTD/svg11.dtd">
<svg version="1.1" id="图层_1" xmlns="http://www.w3.org/2000/svg" xmlns:xlink="http://www.w3.org/1999/xlink" x="0px" y="0px"
	 width="45px" height="256px" viewBox="0 0 45 256" enable-background="new 0 0 45 256" xml:space="preserve">
<path fill="none" d="M45,0.25c0,0-3.125,55-4.063,65c-0.938,10-4.938,30-4.688,35.75s-0.771,24.75-0.012,31.25
	c0.761,6.5,3.012,20,1.512,30s-3.188,19.25-3.188,19.25l-2.938,13.313c0,0-4,25.313-3.625,26.813S26.875,227,27,230
	s1.25,6.5,1.875,7.375s3,7.001,2.959,8.417c-0.042,1.416-0.292,4.542-1.167,5.75s-2.292,2.583-2.708,2.833
	c-0.417,0.25-3.459,1.25-3.459,1.25l-4.209,0.167l-3.791-1.917l-2.625-2.5l-0.834-3.25l-0.291-11.333v-15l2.416-6l-0.832-34.458
	l-0.834-26.5l-2.063-33.709L5,72L2.25,44.75L0.5,29.25v-1L44.671,0.457"/>
</svg>
