<?xml version="1.0" encoding="utf-8"?>
<!-- Generator: Adobe Illustrator 16.0.0, SVG Export Plug-In . SVG Version: 6.00 Build 0)  -->
<!DOCTYPE svg PUBLIC "-//W3C//DTD SVG 1.1//EN" "http://www.w3.org/Graphics/SVG/1.1/DTD/svg11.dtd">
<svg version="1.1" id="图层_1" xmlns="http://www.w3.org/2000/svg" xmlns:xlink="http://www.w3.org/1999/xlink" x="0px" y="0px"
	 width="129px" height="129px" viewBox="0 0 129 129" enable-background="new 0 0 129 129" xml:space="preserve">
<path fill="none" d="M47.885,0.154c0,0,0.979,4.132-0.865,7.149c-1.844,3.017-3.521,5.7-6.203,7.544
	c-2.682,1.844-8.046,5.868-9.22,5.868c-1.174,0-7.376,3.52-10.562,4.359c-3.186,0.838-10.729,4.191-12.406,5.365
	c-1.677,1.174-8.461,6.39-8.461,6.39L11.06,80.396l-6.119,48.449h118.021l-6.538-46.941c0,0,0.361-0.461,1.174-0.252
	c0.813,0.211,11.232-44.047,11.232-44.047s-4.988-4.484-7-5.741c-2.012-1.257-7.418-4.526-9.053-4.904
	c-1.635-0.377-4.023-1.383-6.916-2.389c-2.891-1.006-6.286-2.138-10.436-5.155c-4.148-3.018-7.67-5.407-9.431-8.047
	c-1.761-2.641-3.269-5.029-3.771-6.664c-0.504-1.634-0.914-4.551-0.914-4.551s-4.094,1.622-8.627,2.325s-7.119,0.984-7.119,0.984
	s-4.471,0.078-5.155,0c-0.685-0.079-3.911-0.354-4.78-0.505s-4.33-1.317-4.636-1.451c-0.307-0.133-2.974-1.294-2.974-1.294"/>
</svg>
