<?xml version="1.0" encoding="utf-8"?>
<!-- Generator: Adobe Illustrator 16.0.0, SVG Export Plug-In . SVG Version: 6.00 Build 0)  -->
<!DOCTYPE svg PUBLIC "-//W3C//DTD SVG 1.1//EN" "http://www.w3.org/Graphics/SVG/1.1/DTD/svg11.dtd">
<svg version="1.1" id="图层_1" xmlns="http://www.w3.org/2000/svg" xmlns:xlink="http://www.w3.org/1999/xlink" x="0px" y="0px"
	 width="94px" height="145px" viewBox="0 0 94 145" enable-background="new 0 0 94 145" xml:space="preserve">
<path fill="none" d="M0.14,15.124c0,0,5.25-6.639,8.375-7.264s7.5-0.875,10-1.25s7.25-1.75,9-3.25s4.375-3.25,4.375-3.25h30.375
	c0,0,2.25,3.5,6.375,4.625s7.5,1.5,11.25,2s11.098,4.306,12.75,6.75c1.65,2.444,0.875,1.639,0.875,1.639l-1.33,3.668l-0.67,4.093
	l-0.646,5.209l-0.646,6.352l-0.457,5.185l-0.358,4.48l-0.353,4.761L88.77,53.11l-0.045,4.125v3.25c0,0-1.709,1.375-2.584,2.375
	s-3.625,5.375-4.25,7.125s-2.625,8.625-3,11.875S77.1,97.234,78.1,102.568c1,5.332,1.832,6.5,2.666,10.166s3.834,10.5,3.834,10.5
	l2.5,8.666l1.625,4.668c0,0-16.291,6.332-24.625,6.666s-15.666,2-23,1.334c-7.333-0.668-17.5-1.668-20.667-2.834s-9.5-2.5-11.5-3.5
	S4.829,136.9,4.829,136.9s4.938-11.666,6.438-18.332c1.5-6.668,4.333-11.334,4.5-17c0.167-5.668,1-14-0.333-19.668
	c-1.333-5.666-2.667-9.833-3.667-11.333S9.1,66.235,9.1,66.235l-2.667-7.667l-1.604-4.771L3.727,38.919L2.719,28.425L1.61,20.123
	L0.14,15.124z"/>
</svg>
