<?xml version="1.0" encoding="utf-8"?>
<!-- Generator: Adobe Illustrator 16.0.0, SVG Export Plug-In . SVG Version: 6.00 Build 0)  -->
<!DOCTYPE svg PUBLIC "-//W3C//DTD SVG 1.1//EN" "http://www.w3.org/Graphics/SVG/1.1/DTD/svg11.dtd">
<svg version="1.1" id="图层_1" xmlns="http://www.w3.org/2000/svg" xmlns:xlink="http://www.w3.org/1999/xlink" x="0px" y="0px"
	 width="55px" height="168px" viewBox="0 0 55 168" enable-background="new 0 0 55 168" xml:space="preserve">
<path fill="none" d="M42.5,158.75c0,0-13.25,6.75-14,7s-8.5,1.68-11,1.68s-12.75-3.75-13.75-4.34S1,148.75,1,148.75v-19.5V118
	l1.25-2c0,0,0-57,0-59.25s-1-38.5-1.25-42S0.25-0.375,0.25-0.375s17.751,0.861,21.125,0.841s16.132-0.031,17.5-0.058
	c1.369-0.026,10.984-0.4,11.623-0.438C51.137-0.068,55-0.375,55-0.375S52.875,20,52.625,23.125s-3,21.875-3.25,23.375
	s-6,29.625-6,29.625s-5,16.875-5.375,18s-4.25,10.625-4.25,10.625s5,22.75,5.625,23.875S42.875,148.25,43,150.5
	S42.5,158.75,42.5,158.75z"/>
</svg>
