<?xml version="1.0" encoding="utf-8"?>
<!-- Generator: Adobe Illustrator 16.0.0, SVG Export Plug-In . SVG Version: 6.00 Build 0)  -->
<!DOCTYPE svg PUBLIC "-//W3C//DTD SVG 1.1//EN" "http://www.w3.org/Graphics/SVG/1.1/DTD/svg11.dtd">
<svg version="1.1" id="图层_1" xmlns="http://www.w3.org/2000/svg" xmlns:xlink="http://www.w3.org/1999/xlink" x="0px" y="0px"
	 width="94px" height="75px" viewBox="0 0 94 75" enable-background="new 0 0 94 75" xml:space="preserve">
<path fill="none" d="M6.514,58.451l2.667,7.666c0,0,1.667,2.832,2.667,4.332c0.538,0.807,1.172,2.391,1.852,4.559h66.741
	c0.605-2.251,1.229-4.295,1.531-5.141c0.625-1.75,3.375-6.125,4.25-7.125s2.584-2.375,2.584-2.375v-3.25l0.045-4.125l0.284-4.237
	l0.354-4.761l0.357-4.48l0.457-5.185l0.646-6.352l0.646-5.209l0.67-4.093l1.33-3.668c0,0,0.774,0.805-0.875-1.639
	c-1.652-2.444-9-6.25-12.75-6.75s-7.125-0.875-11.25-2s-6.375-4.625-6.375-4.625H31.971c0,0-2.625,1.75-4.375,3.25
	s-6.5,2.875-9,3.25s-6.875,0.625-10,1.25s-8.375,7.264-8.375,7.264l1.47,4.999L2.8,28.308l1.008,10.494L4.91,53.68L6.514,58.451z"/>
</svg>
