<?xml version="1.0" encoding="utf-8"?>
<!-- Generator: Adobe Illustrator 16.0.0, SVG Export Plug-In . SVG Version: 6.00 Build 0)  -->
<!DOCTYPE svg PUBLIC "-//W3C//DTD SVG 1.1//EN" "http://www.w3.org/Graphics/SVG/1.1/DTD/svg11.dtd">
<svg version="1.1" id="图层_1" xmlns="http://www.w3.org/2000/svg" xmlns:xlink="http://www.w3.org/1999/xlink" x="0px" y="0px"
	 width="55px" height="168px" viewBox="0 0 55 168" enable-background="new 0 0 55 168" xml:space="preserve">
<path fill="none" d="M12.75,158.75c0,0,13.25,6.75,14,7s8.5,1.68,11,1.68s12.75-3.75,13.75-4.34s2.75-14.34,2.75-14.34v-19.5V118
	L53,116c0,0,0-57,0-59.25s1-38.5,1.25-42S55-0.375,55-0.375S37.249,0.486,33.875,0.466s-16.132-0.031-17.5-0.058
	C15.007,0.381,5.39,0.008,4.752-0.03C4.114-0.068,0.25-0.375,0.25-0.375S2.375,20,2.625,23.125S5.625,45,5.875,46.5
	s6,29.625,6,29.625s5,16.875,5.375,18s4.25,10.625,4.25,10.625s-5,22.75-5.625,23.875s-3.5,19.625-3.625,21.875
	S12.75,158.75,12.75,158.75z"/>
</svg>
