<?xml version="1.0" encoding="utf-8"?>
<!-- Generator: Adobe Illustrator 16.0.0, SVG Export Plug-In . SVG Version: 6.00 Build 0)  -->
<!DOCTYPE svg PUBLIC "-//W3C//DTD SVG 1.1//EN" "http://www.w3.org/Graphics/SVG/1.1/DTD/svg11.dtd">
<svg version="1.1" id="图层_1" xmlns="http://www.w3.org/2000/svg" xmlns:xlink="http://www.w3.org/1999/xlink" x="0px" y="0px"
	 width="129px" height="175px" viewBox="0 0 129 175" enable-background="new 0 0 129 175" xml:space="preserve">
<path fill="none" d="M122.716,129.417l-6.538-46.94c0,0,0.361-0.461,1.174-0.251c0.813,0.21,11.232-44.049,11.232-44.049
	s-4.988-4.484-7-5.741s-7.418-4.526-9.053-4.904c-1.635-0.377-4.023-1.383-6.915-2.389s-6.287-2.138-10.437-5.155
	c-4.148-3.018-7.67-5.407-9.431-8.047C83.988,9.3,82.48,6.912,81.979,5.277c-0.504-1.634-0.914-4.551-0.914-4.551
	s-4.094,1.622-8.627,2.325c-4.533,0.703-7.119,0.984-7.119,0.984s-4.47,0.078-5.155,0c-0.685-0.079-3.911-0.354-4.78-0.505
	c-0.869-0.151-4.33-1.317-4.636-1.451c-0.307-0.133-2.974-1.294-2.974-1.294l-0.135-0.06c0,0,0.979,4.132-0.865,7.149
	c-1.844,3.017-3.521,5.7-6.203,7.544c-2.682,1.844-8.046,5.868-9.22,5.868c-1.174,0-7.376,3.52-10.562,4.359
	c-3.186,0.838-10.729,4.191-12.406,5.365c-1.677,1.174-8.461,6.39-8.461,6.39l10.892,43.567l-6.119,48.449L-0.078,175H127.25
	c0,0-4.415-43.367-4.617-45.583H122.716z"/>
</svg>
