<?xml version="1.0" encoding="utf-8"?>
<!-- Generator: Adobe Illustrator 16.0.0, SVG Export Plug-In . SVG Version: 6.00 Build 0)  -->
<!DOCTYPE svg PUBLIC "-//W3C//DTD SVG 1.1//EN" "http://www.w3.org/Graphics/SVG/1.1/DTD/svg11.dtd">
<svg version="1.1" id="图层_1" xmlns="http://www.w3.org/2000/svg" xmlns:xlink="http://www.w3.org/1999/xlink" x="0px" y="0px"
	 width="167px" height="380px" viewBox="0 0 167 380" enable-background="new 0 0 167 380" xml:space="preserve">
<path fill="none" d="M147.65,379.563c-11.625-1.75-28.375-5.375-30.125-6.375s-13.625-27.75-15-33s-11.375-28.75-12.875-30.125
	s-4.25-19.125-5.25-22.875c-1-3.75-19.875-40.75-36.25-85.375C31.775,157.188,0.4,78.938,0.4,78.938l44.5-78.5c0,0,8.5,59,12.5,71.5
	s11.75,43.5,16.625,53s22.875,54,26.375,63c3.5,9,17,55,18.5,60s0.5,9,0.5,9l6.5,17.5v9c0,0,21.5,16.5,25,22s10,18.5,10,18.5
	s-3.5,3-6,3s13.5,34,12,36.5S147.65,379.563,147.65,379.563z"/>
</svg>
