<?xml version="1.0" encoding="utf-8"?>
<!-- Generator: Adobe Illustrator 16.0.0, SVG Export Plug-In . SVG Version: 6.00 Build 0)  -->
<!DOCTYPE svg PUBLIC "-//W3C//DTD SVG 1.1//EN" "http://www.w3.org/Graphics/SVG/1.1/DTD/svg11.dtd">
<svg version="1.1" id="图层_1" xmlns="http://www.w3.org/2000/svg" xmlns:xlink="http://www.w3.org/1999/xlink" x="0px" y="0px"
	 width="193px" height="125px" viewBox="0 0 193 125" enable-background="new 0 0 193 125" xml:space="preserve">
<path fill="none" d="M0.162,121.545c0,0,2-22.5,2.5-32.5s1.833-20.834,3.667-32.001c1.833-11.167,1.5-10.5,3.833-25.167
	S17.995,1.21,17.995,1.21l156.167-0.722c0,0,5.667,19.556,7.167,27.222s4.833,18.333,5.333,24s2.666,15.166,3.333,21.166
	s3.001,17.166,2.834,23.334c-0.167,6.166,0.019,9.668,0.009,13.834c-0.009,4.166,0,11.5,0,11.5s-30.509,2.332-45.176,2.832
	s-29.999-0.5-36.333-1.166s-16.667-1.5-16.667-1.5s-13.333,1.332-16.167,1.5c-2.833,0.166-5,0.5-12.667,0.5
	s-28.333,0.801-28.333,0.801l-18-1.301l-12.667-0.5L0.162,121.545z"/>
</svg>
