<?xml version="1.0" encoding="utf-8"?>
<!-- Generator: Adobe Illustrator 16.0.0, SVG Export Plug-In . SVG Version: 6.00 Build 0)  -->
<!DOCTYPE svg PUBLIC "-//W3C//DTD SVG 1.1//EN" "http://www.w3.org/Graphics/SVG/1.1/DTD/svg11.dtd">
<svg version="1.1" id="图层_1" xmlns="http://www.w3.org/2000/svg" xmlns:xlink="http://www.w3.org/1999/xlink" x="0px" y="0px"
	 width="140px" height="175px" viewBox="0 0 140 175" enable-background="new 0 0 140 175" xml:space="preserve">
<path fill="none" d="M42.639,160.916c-10.991-11.201-16.409-25.559-18.999-33.002c-2.666-7.668-3-12.668-3.666-15
	c-0.666-2.334-9-18.668-9.75-26.167c-0.75-7.5-2.25-18.25-2.5-18.75s-4.75,4.75-6.5,7s-1.5-15.5,3.25-26s20-33,32-38.25
	s32.5-10.436,41.5-10.436c9,0,26.666,8.936,30.666,15.269s4,8,4,8s7,0.333,11,4.333s11.334,16,13,19.667
	c1.668,3.667,3.668,19.333,3,23.667c-0.666,4.334-2.666,21-4.666,24.666c-2,3.668-9,17.334-9.334,17.668
	c-0.332,0.332-3.334,19.666-5.666,24.332c-2.334,4.668-12.668,21.334-16,24.002c-3.334,2.666-21,12.332-25,12.666
	c-4,0.332-21.612,0.369-31-7c-4.049-3.179-4.672-5.996-4.672-5.996S42.968,161.252,42.639,160.916z"/>
</svg>
