<?xml version="1.0" encoding="utf-8"?>
<!-- Generator: Adobe Illustrator 16.0.0, SVG Export Plug-In . SVG Version: 6.00 Build 0)  -->
<!DOCTYPE svg PUBLIC "-//W3C//DTD SVG 1.1//EN" "http://www.w3.org/Graphics/SVG/1.1/DTD/svg11.dtd">
<svg version="1.1" id="图层_1" xmlns="http://www.w3.org/2000/svg" xmlns:xlink="http://www.w3.org/1999/xlink" x="0px" y="0px"
	 width="131px" height="58px" viewBox="0 0 131 58" enable-background="new 0 0 131 58" xml:space="preserve">
<path fill="none" d="M1.957,0.336c-0.5,3.333-1.921,19.5-1.755,21.667S2.045,39.838,1.957,42.17
	C1.869,44.504,3.66,56.711,3.785,56.961s15.75,1,19.875,0.75s9.5,0.227,14.125,0.051s16.25-0.801,17.375-0.676
	s2.875-0.125,2.875-0.125l7-0.125l9.083,0.502c0,0,50.75,0.666,53.25-0.834s3.417-26.043,3.417-26.043s0.352-28.967-1.5-30.125
	C128.785,0.024,1.957,0.336,1.957,0.336z"/>
</svg>
