<?xml version="1.0" encoding="utf-8"?>
<!-- Generator: Adobe Illustrator 16.0.0, SVG Export Plug-In . SVG Version: 6.00 Build 0)  -->
<!DOCTYPE svg PUBLIC "-//W3C//DTD SVG 1.1//EN" "http://www.w3.org/Graphics/SVG/1.1/DTD/svg11.dtd">
<svg version="1.1" id="图层_1" xmlns="http://www.w3.org/2000/svg" xmlns:xlink="http://www.w3.org/1999/xlink" x="0px" y="0px"
	 width="149px" height="172px" viewBox="0 0 149 172" enable-background="new 0 0 149 172" xml:space="preserve">
<path fill="none" d="M48.488,166.189c-3.083-1.584,8.25,3.5,10.333,4.334c2.083,0.832,6.417,1.082,7.917,1.166
	s8.417-0.166,10.583-0.666s9.166-2.168,10.584-2.918c1.416-0.75,8.416-4.75,10.666-6.25s12.002-10.916,13.418-13.582
	c1.416-2.668,7.582-10.584,10.416-16.668c2.834-6.082,6.832-12.832,7.5-14.582c0.666-1.75,3.5-6.5,3.834-10.334
	c0.332-3.834,1.166-12,2-16.666c0.832-4.668,2.748-17.584,2.582-21.334s0.75-8.833-1.416-14.5s-7.75-15.083-7.75-15.083
	s5.334,0.75,9.834-0.583s9.082-6.917,9.832-8.5s-3,0.75-3,0.75s-4.334,1.416-7.666,1.083c-3.334-0.333-4.75-0.417-7.584-1.25
	c-2.832-0.833-4.313-2.01-7.155-4.698s-5.345-4.594-8.47-7.781s-8-7.313-9.813-8.063S97.57,6.876,97.57,6.876l-6.25-1.25
	l-8.938-0.375l5.375-2.938c0,0-3.084-1.958-6.042-2s-9.813,0-9.813,0l-7.75,2.146L51.321,7.564l-0.125-2.208
	c0,0-8.833,3.083-14.667,6.083s-14.458,10.125-18.083,13s-10.75,9.875-12.5,13.5s-5.5,15-5.75,19s0.5,13,0.625,14.125
	s-0.477,8-0.676,10.25c-0.199,2.25,0.051,8.875,0.676,12.375s7.625,20.5,7.625,20.5l6.125,10.625c0,0,8.375,17.25,10.875,20.375
	s8.25,10.125,9.75,11.25s6.833,6.541,7.771,7.084C43.905,164.064,48.488,166.189,48.488,166.189z"/>
</svg>
