<?xml version="1.0" encoding="utf-8"?>
<!-- Generator: Adobe Illustrator 16.0.0, SVG Export Plug-In . SVG Version: 6.00 Build 0)  -->
<!DOCTYPE svg PUBLIC "-//W3C//DTD SVG 1.1//EN" "http://www.w3.org/Graphics/SVG/1.1/DTD/svg11.dtd">
<svg version="1.1" id="图层_1" xmlns="http://www.w3.org/2000/svg" xmlns:xlink="http://www.w3.org/1999/xlink" x="0px" y="0px"
	 width="84px" height="70px" viewBox="0 0 84 70" enable-background="new 0 0 84 70" xml:space="preserve">
<path fill="none" d="M80.6,48.234c0,0-3-6.834-3.834-10.5C75.932,34.068,75.1,32.9,74.1,27.568c-1-5.334,0.416-17.459,0.791-20.709
	c0.199-1.729,0.858-4.479,1.526-6.942H9.553c0.603,1.899,1.242,4.267,1.881,6.983c1.333,5.668,0.5,14,0.333,19.668
	c-0.167,5.666-3,10.333-4.5,17C5.767,50.234,0.829,61.9,0.829,61.9s2.104,0.334,4.104,1.334s8.333,2.334,11.5,3.5
	S29.767,68.9,37.1,69.568c7.333,0.666,14.666-1,23-1.334s24.625-6.666,24.625-6.666L83.1,56.9L80.6,48.234z"/>
</svg>
