<?xml version="1.0" encoding="utf-8"?>
<!-- Generator: Adobe Illustrator 16.0.0, SVG Export Plug-In . SVG Version: 6.00 Build 0)  -->
<!DOCTYPE svg PUBLIC "-//W3C//DTD SVG 1.1//EN" "http://www.w3.org/Graphics/SVG/1.1/DTD/svg11.dtd">
<svg version="1.1" id="图层_1" xmlns="http://www.w3.org/2000/svg" xmlns:xlink="http://www.w3.org/1999/xlink" x="0px" y="0px"
	 width="264px" height="279px" viewBox="0 0 264 279" enable-background="new 0 0 264 279" xml:space="preserve">
<path fill="none" d="M103.989,0.363l-0.828,20.329L77.828,35.859c0,0-23.667,4.167-30.5,6.667s-23.5,12-27.5,15.833
	S8.661,70.692,6.995,73.859s-7.167,20.667-6.5,20.667s45.167,77.333,45.167,77.333s11,54.916,10.5,63.416s-0.75,43-2.25,43.25
	s154.75,0,154.75,0s-3.25-28.75-2.5-35.5s2.75-30.25,4-35.75s6.1-32.25,7.5-33.25s45.9-79.5,45.9-79.5s-5.733-18.333-7.233-20.333
	s-8.5-11.334-10.5-13.667s-14.833-11-16-11.5s-12.667-6.167-16.167-7.167s-9.834-2.667-13.667-3.5s-13.666-1.667-13.666-1.667
	s-25.668-16-25.834-16.333S159.661,4.4,159.661,4.4s-15.688,8.198-18.813,9.068c-3.125,0.87-19.115,0.051-20.438-1.068
	c-1.323-1.119-14.235-4.51-15.992-10.942"/>
</svg>
