<?xml version="1.0" encoding="utf-8"?>
<!-- Generator: Adobe Illustrator 16.0.0, SVG Export Plug-In . SVG Version: 6.00 Build 0)  -->
<!DOCTYPE svg PUBLIC "-//W3C//DTD SVG 1.1//EN" "http://www.w3.org/Graphics/SVG/1.1/DTD/svg11.dtd">
<svg version="1.1" id="图层_1" xmlns="http://www.w3.org/2000/svg" xmlns:xlink="http://www.w3.org/1999/xlink" x="0px" y="0px"
	 width="88px" height="454px" viewBox="0 0 88 454" enable-background="new 0 0 88 454" xml:space="preserve">
<path fill="none" d="M36,452c-0.25,0.031-0.404,0.033-0.474,0.007C34.484,451.62,52.563,444.97,53.5,437c1-8.5,0-65.999,0-65.999
	s-0.833-14.834-2.166-16.167c-1.334-1.333,3.833-21.333,4.5-26c0.666-4.667,4.832-30,4.832-30S68.5,236,68.75,220s1-60.25,0-65.75
	S67.5,135.5,67.5,135.5l13-81.5L88,2.635V1.063c0,0-17,1.125-17.188,1.063c-0.188-0.062-38.191,0.096-43.137-0.262
	C22.731,1.506,1.417,0.833,1,0s-1.083,24.001-0.917,27.667s1.5,44.666,1.833,50.25s4.75,55.415,4.75,55.415s2,9.334,2.333,10.334
	s-3.333,21.999-3.333,25.666s-3,41.333-3.333,45S1.375,248,1.625,251.5s1,32.938,1.188,36.75S6,316,7.5,328.5S11,353,11,353
	s3.334,37.999,3.167,38.333s-8.833,19.333-10.333,25S1.25,437.25,1.625,439.375S5.875,447.5,7,448.5s7.125,3.051,9.75,3.525
	c2.625,0.474,6.375,0.975,8.875,0.975s6.125,0.125,7.5,0s2.625-0.969,2.625-0.969"/>
</svg>
