<?xml version="1.0" encoding="utf-8"?>
<!-- Generator: Adobe Illustrator 16.0.0, SVG Export Plug-In . SVG Version: 6.00 Build 0)  -->
<!DOCTYPE svg PUBLIC "-//W3C//DTD SVG 1.1//EN" "http://www.w3.org/Graphics/SVG/1.1/DTD/svg11.dtd">
<svg version="1.1" id="图层_1" xmlns="http://www.w3.org/2000/svg" xmlns:xlink="http://www.w3.org/1999/xlink" x="0px" y="0px"
	 width="167px" height="380px" viewBox="0 0 167 380" enable-background="new 0 0 167 380" xml:space="preserve">
<path fill="none" d="M19.75,379.625c11.625-1.75,28.375-5.375,30.125-6.375s13.625-27.75,15-33S76.25,311.5,77.75,310.125
	S82,291,83,287.25s19.875-40.75,36.25-85.375S167,79,167,79L122.5,0.5c0,0-8.5,59-12.5,71.5s-11.75,43.5-16.625,53S70.5,179,67,188
	s-17,55-18.5,60s-0.5,9-0.5,9l-6.5,17.5v9c0,0-21.5,16.5-25,22S6.5,324,6.5,324s3.5,3,6,3s-13.5,34-12,36.5
	S19.75,379.625,19.75,379.625z"/>
</svg>
