<?xml version="1.0" encoding="utf-8"?>
<!-- Generator: Adobe Illustrator 16.0.0, SVG Export Plug-In . SVG Version: 6.00 Build 0)  -->
<!DOCTYPE svg PUBLIC "-//W3C//DTD SVG 1.1//EN" "http://www.w3.org/Graphics/SVG/1.1/DTD/svg11.dtd">
<svg version="1.1" id="图层_1" xmlns="http://www.w3.org/2000/svg" xmlns:xlink="http://www.w3.org/1999/xlink" x="0px" y="0px"
	 width="30px" height="30px" viewBox="0 0 30 30" enable-background="new 0 0 30 30" xml:space="preserve">
<g>
	<path fill-rule="evenodd" clip-rule="evenodd" fill="none" stroke="#717171" stroke-miterlimit="10" d="M14.976,0.722
		c7.882,0,14.271,6.39,14.271,14.271s-6.389,14.27-14.271,14.27c-7.881,0-14.271-6.389-14.271-14.27S7.094,0.722,14.976,0.722z"/>
	<path fill="#666666" d="M22.62,16.775c-0.31-0.04-0.53-0.328-0.495-0.646c0.081-0.723,0.103-1.718,0.064-2.236
		c-0.334-4.667-5.283-7.069-9.074-6.408c-0.159,0.027-0.184,0.249-0.035,0.313c2.721,1.161,5.334,3.832,5.355,6.962
		c0.001,0.205-0.008,0.409-0.021,0.607c-0.026,0.328-0.312,0.567-0.63,0.533l-1.112-0.119c-0.514-0.056-0.829,0.562-0.492,0.963
		l1.074,1.277l1.69,2.012c0.184,0.22,0.5,0.269,0.738,0.113l2.182-1.433l1.271-0.832c0.449-0.294,0.295-1.005-0.233-1.073
		L22.62,16.775z M7.316,12.997c0.308,0.048,0.521,0.343,0.478,0.661c-0.1,0.718-0.143,1.712-0.119,2.23
		c0.222,4.719,5.195,7.249,9.015,6.625c0.13-0.021,0.153-0.201,0.033-0.254c-2.728-1.211-5.331-3.975-5.272-7.141
		c0.003-0.2,0.017-0.401,0.036-0.598c0.032-0.33,0.322-0.568,0.641-0.525l1.112,0.149c0.512,0.066,0.842-0.542,0.516-0.952
		l-1.041-1.305l-1.639-2.056c-0.179-0.226-0.494-0.282-0.736-0.132l-2.217,1.372l-1.295,0.8c-0.457,0.282-0.32,0.997,0.208,1.08
		L7.316,12.997z M7.316,12.997"/>
</g>
</svg>
