<svg width="120" height="120" viewBox="0 0 120 120" fill="none" xmlns="http://www.w3.org/2000/svg">
<path d="M60 120C93.1371 120 120 93.1371 120 60C120 26.8629 93.1371 0 60 0C26.8629 0 0 26.8629 0 60C0 93.1371 26.8629 120 60 120Z" fill="#1479FF"/>
<path d="M59.9999 97.3559C46.5761 97.3559 35.6609 80.6101 35.6609 60C35.6609 39.3898 46.5761 22.644 59.9999 22.644C73.4236 22.644 84.3389 39.3898 84.3389 60C84.3389 80.6101 73.4236 97.3559 59.9999 97.3559ZM59.9999 23.0508C46.7795 23.0508 36.0677 39.5932 36.0677 60C36.0677 80.339 46.8473 96.9491 59.9999 96.9491C73.1524 96.9491 83.9321 80.4068 83.9321 60C83.9321 39.5932 73.2202 23.0508 59.9999 23.0508Z" fill="white"/>
<path d="M60 97.3559C39.3898 97.3559 22.644 80.6101 22.644 60C22.644 39.3898 39.3898 22.644 60 22.644C80.6101 22.644 97.3559 39.3898 97.3559 60C97.3559 80.6101 80.6101 97.3559 60 97.3559ZM60 23.0508C39.5932 23.0508 23.0508 39.5932 23.0508 60C23.0508 80.339 39.5932 96.9491 60 96.9491C80.4068 96.9491 96.9491 80.339 96.9491 60C96.9491 39.5932 80.339 23.0508 60 23.0508Z" fill="white"/>
<path d="M59.9999 97.3559C54.305 97.3559 49.6948 80.6101 49.6948 60C49.6948 39.3898 54.305 22.644 59.9999 22.644C65.6948 22.644 70.305 39.3898 70.305 60C70.305 80.6101 65.6948 97.3559 59.9999 97.3559ZM59.9999 23.0508C54.5762 23.0508 50.1016 39.5932 50.1016 60C50.1016 80.339 54.5084 96.9491 59.9999 96.9491C65.4914 96.9491 69.8982 80.4068 69.8982 60C69.8982 39.5932 65.4236 23.0508 59.9999 23.0508Z" fill="white"/>
<path d="M60.0001 33.5592C53.5594 33.5592 47.1187 31.6609 41.6272 27.7965L41.8306 27.4575C52.678 35.0507 67.3221 35.0507 78.1696 27.4575L78.373 27.7965C72.8814 31.6609 66.4408 33.5592 60.0001 33.5592Z" fill="white"/>
<path d="M60.0001 45.966C49.4238 45.966 38.8475 43.9999 28.7458 39.9999L28.8814 39.5931C48.6781 47.4575 70.5764 47.5253 90.4408 39.7965L91.0509 39.5931L91.1865 39.9999L90.5764 40.2033C80.7458 43.9999 70.373 45.966 60.0001 45.966Z" fill="white"/>
<path d="M78.1696 92.4745C67.3221 84.8813 52.678 84.8813 41.8306 92.4745L41.6272 92.1355C52.6102 84.4745 67.3899 84.4745 78.4408 92.1355L78.1696 92.4745Z" fill="white"/>
<path d="M91.0509 80.4068L90.4408 80.2034C70.5763 72.4746 48.678 72.6102 28.8814 80.4068L28.7458 80C48.678 72.1356 70.6441 72 90.6441 79.7967L91.2543 80L91.0509 80.4068Z" fill="white"/>
<path d="M97.1525 59.7965H22.8474V60.2033H97.1525V59.7965Z" fill="white"/>
<path d="M9.55936 60.0679C8.94919 60.0679 8.47461 59.5933 8.47461 58.9831C8.47461 58.373 9.01698 57.9662 9.55936 57.9662C10.1017 57.9662 10.5763 58.4408 10.5763 59.0509C10.6441 59.6611 10.1017 60.1357 9.55936 60.0679Z" fill="white"/>
<path d="M10.4406 40.0678C10.4406 40.0678 11.4576 39.3898 12.1355 39.0509C12.2711 39.1187 12.2711 39.2543 12.2033 39.4576L11.8643 40.5424L18.305 42.5085C18.3728 42.5085 18.5762 43.0509 18.3728 43.7966L18.305 44.0678L11.4576 41.9661L11.1186 43.1187L11.5932 43.2543C13.7626 43.9322 16.2711 44.8814 17.0847 48.1356H16.8135C15.5254 46.1017 13.2881 45.2204 11.0508 44.5424L10.7118 44.4068C10.7796 44.4746 10.7796 44.6102 10.7118 44.678L10.0338 46.9831L11.4576 47.4576L11.661 46.9153L10.983 46.0339C10.983 46.0339 11.7965 45.4915 12.3389 45.2204C12.4745 45.2881 12.4745 45.4237 12.4067 45.6271L11.7965 47.661L15.1186 48.678C15.9999 48.9492 16.4745 49.2882 16.1355 50.7797C15.7287 50.7119 15.4576 50.6441 15.2542 50.7119C15.0508 50.7797 14.8474 50.9153 14.644 51.3898L14.5084 51.322C14.5084 51.322 14.7796 50.5085 14.8474 50.3051C14.9152 50.1017 14.8474 50.1017 14.7118 50.0339L12.5423 49.356C12.5423 49.4237 12.5423 49.4237 12.4745 49.4915C13.2203 50.2373 14.1694 51.3221 14.644 52.4746L14.5084 52.5424C13.6271 51.661 12.2033 50.8475 11.1864 50.3729L12.2033 49.2204L11.4576 49.017L10.8474 51.1187H10.4406L11.1186 48.9492L9.69485 48.4746L9.01689 50.7797H8.61011L9.69485 47.3221C9.08468 46.9153 8.20333 46.4407 7.52536 46.1017L6.7118 48.8814C8.61011 46.7797 10.1016 48.6102 8.8135 49.2204C8.13553 49.017 7.25417 49.017 6.64401 49.0848V49.017L6.37282 49.8305H5.96604L6.7796 47.1187C6.7118 47.1865 6.64401 47.2543 6.50841 47.3898C5.89824 47.2543 5.15248 47.3898 4.6779 47.5254L4.61011 47.3898C5.62706 45.2204 6.84739 45.7627 6.91519 46.5085L7.18638 45.6949L6.50841 44.8136C6.50841 44.8136 7.32197 44.2712 7.93214 43.9322C8.06773 44 8.06773 44.1356 7.99994 44.339L7.45756 45.8983L8.40672 44.4746C8.54231 44.5424 8.61011 44.7458 8.47451 45.017C8.8135 45.4915 9.28807 46.1695 9.69485 46.9153L9.89824 46.2373L9.22028 45.2882C9.22028 45.2882 10.0338 44.7458 10.5762 44.4746L6.98299 43.3898L7.86434 42.0339C7.66095 41.0848 7.32197 40 7.05078 39.3898L8.7457 38.2373C8.8135 38.4407 8.7457 38.6441 8.54231 38.9831C8.54231 39.7966 8.47451 41.017 8.27112 42.1695L10.7796 42.9153L11.322 41.0848L10.4406 40.0678ZM12.3389 47.5254C14.2372 45.017 15.9999 46.9831 14.7118 47.7288C13.966 47.4576 13.0847 47.5254 12.4067 47.661L12.3389 47.5254Z" fill="white"/>
<path d="M15.1185 26.5762C15.1863 26.7118 15.1863 26.9152 14.9829 27.1186C15.5253 28.0678 15.9321 28.9491 16.2711 29.8983L16.7456 29.5593C16.8134 29.6949 16.8134 29.8305 16.6778 30.0339L22.7117 34.7118C22.7795 34.7796 22.5083 35.4576 22.2372 35.8644L22.0338 36.0678L16.7456 31.9322C16.8812 32.6779 16.8812 33.4237 16.8812 34.1016L16.6778 34.1694C16.2033 32.3389 14.9151 29.8305 13.2202 27.7966L15.1185 26.5762ZM26.6439 27.1864C27.0507 26.9152 27.3219 26.9152 27.5253 27.1186C28.0677 27.5254 27.9321 28.2711 26.3728 30.1694L25.4914 31.322C24.61 32.4745 24.0677 32.6779 23.1185 31.9322L20.3389 29.8305C20.2033 30.3728 19.9999 30.9152 19.7965 31.4576H19.5931C19.7287 30.8474 19.7965 30.1694 19.7965 29.4915L15.0507 25.8305L16.4067 24.4067C16.5422 24.5423 16.61 24.6779 16.4067 25.0169L19.7965 27.661C19.7287 26.0339 19.5253 24.5423 19.2541 23.4576L21.288 22.8474C21.3558 22.983 21.288 23.1186 21.0168 23.322C21.1524 24.6779 21.0846 26.4406 20.6778 28.3389L23.5931 30.5762C23.8643 30.7796 24.0677 30.7118 24.4067 30.305L25.2202 29.2203C25.5592 28.8135 25.7626 28.4745 25.8982 28.2711C25.966 28.1355 26.0338 28 25.966 27.7966C25.8304 27.5254 25.3558 26.8474 24.8134 26.0339L24.8812 25.8983L26.6439 27.1864Z" fill="white"/>
<path d="M37.6949 14.5085C37.6949 14.5085 38.9152 14.6441 39.661 14.7797C39.7288 14.9153 39.5932 15.0509 39.4576 15.1187L33.8305 18.5763L35.4576 18.5085C35.4576 18.6441 35.3898 18.7797 35.1186 18.9153C34.7119 19.7966 33.8983 21.0848 33.0169 22.1695C34.3729 21.2882 36.2712 20 38.3051 18.6441C37.6271 18.4407 36.9491 18.2373 36.339 18.1695L36.4068 18.0339C41.0847 16.1356 42.1017 19.4576 40.2034 19.5932C39.7966 19.322 39.2542 19.0509 38.7119 18.8475C37.4237 20.1356 35.5254 21.7627 33.2203 23.7966C33.2203 23.9322 33.1525 24.1356 33.0847 24.2034L31.4576 23.1187C31.4576 23.1187 31.7288 22.9153 31.7966 22.7797C32.4746 21.8983 33.0169 20.0678 33.1525 18.9831L29.5593 21.2204L29.2881 20.9492L30.983 19.9322L27.322 13.8983L29.1525 13.5593L32.8813 11.2543L33.0847 10.2373L34.9152 10.4407C34.9152 10.5763 34.8474 10.7119 34.6441 10.9153L37.5593 15.7288L37.6949 14.5085ZM29.2203 13.8983L30.1695 15.4576L34.1695 13.017L33.2203 11.4576L29.2203 13.8983ZM34.3051 13.2882L30.3051 15.7288L31.1864 17.2204L35.1864 14.7797L34.3051 13.2882ZM32.339 19.0509L36.339 16.6102L35.3898 15.0509L31.3898 17.4915L32.339 19.0509Z" fill="white"/>
<path d="M55.8643 12.7458C55.8643 12.7458 57.0847 13.4237 57.8304 13.8983C57.8304 14.0339 57.6949 14.1695 57.4915 14.1695L45.8982 16.2712L45.7626 15.9322L50.3728 15.1187L48.6779 5.89833L44.8135 6.57629L44.6101 6.23731L53.1525 4.74578L53.8304 3.79663L55.4576 4.74578C55.3898 4.88138 55.2542 5.01697 54.983 5.08477C55.661 9.28816 55.7965 10.9153 55.1864 11.661C54.8474 12.1356 54.305 12.4068 53.5593 12.5424C53.4915 12.0678 53.3559 11.7288 53.1525 11.5254C52.8813 11.3221 52.4745 11.1865 51.9321 11.1865V11.0509C52.4067 10.9831 53.0847 10.9153 53.3559 10.8475C53.5593 10.7797 53.6949 10.7797 53.7627 10.6441C54.0338 10.2373 53.8304 8.4746 53.2881 5.15256L50.2372 5.69494L51.9321 14.8475L55.1186 14.2373L55.8643 12.7458Z" fill="white"/>
<path d="M72.8135 14.7797C72.8135 14.7797 73.6948 15.7288 74.2372 16.4068C74.1694 16.5424 74.0338 16.6102 73.8304 16.5424L62.3728 14.4407V14.0339L67.4575 14.9831L68.1355 11.1864L64.6779 10.5763V10.1695L68.2711 10.8475L68.8813 7.59322L66.644 7.18644C65.627 8.33898 64.4745 9.22034 63.2542 9.76271L63.0508 9.62712C64.2711 8.33898 65.627 6.23729 66.5084 4L68.5423 5.01695C68.4745 5.15254 68.2711 5.22034 67.9999 5.22034C67.6609 5.83051 67.2542 6.37288 66.8474 6.84746L68.8813 7.25424L69.4237 4.20339L71.4576 4.81356C71.3898 5.01695 71.2542 5.08475 70.9152 5.08475L70.4406 7.59322L72.4745 7.9322L73.5592 6.98305C73.5592 6.98305 74.3728 7.86441 74.9152 8.47458C74.8474 8.61017 74.7118 8.67797 74.5084 8.61017L70.4406 7.86441L69.8304 11.1186L71.3898 11.3898L72.4745 10.4407C72.4745 10.4407 73.3559 11.3898 73.8304 12C73.7626 12.1356 73.627 12.2034 73.4237 12.1356L69.6948 11.4576L69.0169 15.2542L71.6609 15.7288L72.8135 14.7797Z" fill="white"/>
<path d="M86.7795 16.6102C86.6439 16.678 86.5083 16.678 86.3049 16.5424C85.5592 17.5593 84.6778 18.5085 83.5931 19.1865C84.0677 20.339 85.2202 21.2882 86.8473 22.3051C87.3897 22.6441 88.6778 23.3899 89.288 23.7966L89.2202 23.9322C88.7456 23.7966 88.271 24.0678 87.9321 24.5424L86.0338 23.3899C84.1355 22.2373 83.0507 21.1526 82.7795 19.5932C82.0338 19.9322 81.1524 20.1356 80.1355 20.0678V19.8644C81.1524 19.661 81.966 19.2543 82.7795 18.6441C82.7795 17.7627 83.0507 16.8136 83.4575 15.661H83.5931C83.3219 16.6102 83.2541 17.4238 83.3219 18.1017C83.9999 17.4238 84.6778 16.5424 85.2202 15.7288L84.8134 15.4577L84.2032 15.5932L83.6609 14.3729C83.7965 14.3729 83.9999 14.3729 84.2032 14.3729C85.0168 13.8305 86.3049 12.8136 87.0507 12.1356L86.1016 11.5254L86.1694 11.2543C85.5592 11.7966 84.949 12.2712 84.271 12.678L84.7456 13.2882C84.61 13.356 84.4744 13.356 84.271 13.2882L80.3388 19.7288C80.271 19.7966 79.6609 19.7288 79.1863 19.4577L78.9829 19.3221L82.4405 13.6949C81.8982 13.9661 81.3558 14.1017 80.8134 14.2373L80.7456 14.1017C82.3049 13.017 84.3388 11.2543 85.8982 9.35596L87.2541 10.9153C87.1185 11.0509 86.9151 11.0509 86.7117 10.9153C86.5761 11.0509 86.4405 11.1187 86.3049 11.2543L87.3219 11.8644L88.1355 11.661L88.61 13.1526C88.4744 13.2204 88.271 13.1526 87.9999 13.017C87.2541 13.5593 86.0338 14.5763 85.2202 15.1865L85.4914 15.3221L86.4405 15.0509L86.7795 16.6102ZM88.61 12.8136L89.8304 13.5593L90.5761 12.4068L91.9321 13.4238C91.7965 13.5593 91.6609 13.6271 91.3897 13.4916L90.9151 14.2373L91.6609 14.7119L92.4744 14.5085L93.0168 15.8644C92.949 15.8644 92.7456 15.8644 92.5422 15.7966L91.9321 16.8136L91.9999 16.8814L92.8134 16.4068C92.8134 16.4068 92.949 17.2204 93.0168 17.6949C92.949 17.8305 92.8134 17.8305 92.6778 17.6949L91.7287 17.1526L90.8473 18.6441C90.7795 18.7119 90.1694 18.5763 89.8304 18.3729L89.627 18.2373L89.8304 17.9661L89.0168 17.4238L88.271 18.5763L89.0846 19.1187L90.0338 18.7119C90.0338 18.7119 90.3049 19.5932 90.4405 20.1356C90.3727 20.2712 90.1694 20.2034 90.0338 20.1356L87.9999 18.9153L87.3219 20L88.5422 20.7458L89.5592 20.339C89.5592 20.339 89.8304 21.2204 89.966 21.8305C89.8982 21.9661 89.6948 21.8983 89.5592 21.8305L87.1185 20.339L86.5083 21.356C86.4405 21.4916 85.8304 21.4238 85.4236 21.1526L85.2202 21.017L86.0338 19.661L84.5422 18.7797L84.6778 18.4407L86.2371 19.3899L86.9151 18.3051L85.7626 17.6271L85.8304 17.2882L87.0507 18.0339L87.7965 16.8814L86.7795 16.2712L86.8473 15.9322L87.9321 16.6102L88.6778 15.4577L86.9151 14.3729L87.0507 14.0339L88.8812 15.1865L89.5592 14.0339L88.4066 13.356L88.61 12.8136ZM90.7117 16.5424L89.8982 16L89.1524 17.1526L89.966 17.6949L90.7117 16.5424ZM90.7795 14.5085L90.1016 15.661L90.9151 16.2034L91.5931 15.0509L90.7795 14.5085Z" fill="white"/>
<path d="M101.966 34.7119C101.83 34.7119 101.763 34.6441 101.627 34.3729C101.152 34.1695 100.339 33.7627 99.6609 33.356C99.7287 34.4407 100.135 35.5255 100.61 36.4746L100.474 36.5424C99.9999 36.2034 99.3897 36.2712 98.7796 36.5424C98.305 34.5763 98.5084 32.8814 100.203 30.7119L100.136 30.6441L97.4236 32.7458C96.6101 33.356 96.0677 33.5594 94.9152 32.2712C95.2541 32 95.4575 31.7289 95.5253 31.4577C95.5931 31.1865 95.5253 30.9153 95.2541 30.4407L95.3897 30.3051C95.3897 30.3051 95.9999 31.2543 96.1355 31.3899C96.2711 31.5255 96.3389 31.5933 96.4745 31.4577L97.627 30.5763C96.7457 30.4407 95.6609 30.1695 94.305 29.8305C94.1694 29.8983 93.966 29.8983 93.8304 29.8305L94.4406 28.2712C95.0508 28.7458 96.4745 29.6272 97.8304 30.3729L99.1186 29.356L97.6948 27.4577L97.8982 27.1187L99.3897 29.0848L100.339 28.339L98.4406 25.8983L98.644 25.5594L100.542 28.0678L101.491 27.3221L100.068 25.4916L100.271 25.1526L101.763 27.1187L102.712 26.3729L100.746 23.7966L98.3728 25.6272C96.6101 26.9831 94.305 28.6102 91.2542 27.7966V27.6611C93.5592 27.3221 95.5931 25.8305 97.4236 24.4746L100.542 22.0339L101.152 23.7966L103.254 26.5085C103.254 26.4407 103.254 26.3729 103.254 26.3051C103.661 25.8305 103.932 25.017 103.932 24.4068L104.068 24.4746C105.763 26.5763 104.542 27.5255 103.797 27.1187L105.491 29.356H106.847C106.847 29.356 106.78 30.5085 106.712 31.2543C106.576 31.3221 106.441 31.2543 106.373 31.1187L103.322 27.1187L103.932 28.0678C103.797 28.2034 103.593 28.1356 103.39 27.9322L102.78 28.4068L103.593 29.4238L104.542 29.4916V31.1187C104.474 31.1187 104.339 31.0509 104.203 30.9153L103.39 31.5933L104.407 31.5255C104.407 31.5255 104.339 32.4746 104.271 33.017C104.136 33.0848 104 33.017 103.932 32.8814L103.119 31.7966L101.966 32.678C101.966 32.678 101.83 32.678 101.695 32.6102L101.966 34.7119ZM97.4914 27.3221C99.1186 29.9661 96.6101 30.2373 96.6101 28.7458C97.0169 28.4068 97.288 27.7289 97.3558 27.2543L97.4914 27.3221ZM100.271 30.8475C99.8643 31.5255 99.6609 32.2034 99.5931 32.8814C100.271 32.8814 101.085 32.8136 101.627 32.8136C101.356 32.678 101.017 32.4746 100.813 32.2034L100.678 32L100.949 31.7966L100.271 30.8475ZM100.474 30.4407L101.356 31.5933L102.305 30.8475L101.424 29.695L100.474 30.4407ZM101.695 29.4916L102.576 30.6441L103.525 29.8983L102.644 28.7458L101.695 29.4916Z" fill="white"/>
<path d="M110.644 50.7797C110.508 50.7119 110.373 50.5763 110.305 50.3051C106.78 51.3221 105.22 51.5933 104.542 51.1865C104.068 50.9153 103.797 50.4407 103.593 49.7628C104.068 49.6272 104.339 49.4916 104.475 49.2204C104.61 48.9492 104.678 48.5424 104.678 48.0001L104.814 47.9323C104.881 48.4068 105.085 49.0848 105.153 49.356C105.22 49.5594 105.288 49.6272 105.424 49.695C105.83 49.8984 107.322 49.5594 110.169 48.7458L108.203 42.3051C106.034 42.8475 103.458 43.1865 101.085 41.2882L101.153 41.1526C103.661 41.9662 106.237 41.2882 108.61 40.6102L112.678 39.3899L112.61 41.2882L114.169 46.3729L115.119 46.7797L114.508 48.5424C114.373 48.4746 114.237 48.339 114.102 48.1357L111.864 48.8136C111.797 48.8136 111.322 48.1357 111.186 47.7289L111.119 47.4577L111.797 47.2543L110.169 41.8306L109.22 42.1018C109.017 42.1696 108.881 42.2374 108.678 42.2374L110.576 48.5424L111.525 49.0848L110.644 50.7797ZM105.627 48.6102C105.491 48.6102 105.017 48.0679 104.881 47.5933L104.814 47.3899L105.424 47.1865L104.881 45.4238L104.136 45.6272C104 45.695 103.525 45.1526 103.39 44.6102L103.322 44.4068L107.593 43.1187L107.458 44.678L107.932 46.2373L108.746 46.6441L108.203 48.1357C108.136 48.0679 108 48.0001 107.864 47.7967L105.627 48.6102ZM105.763 47.1187L107.593 46.5763L107.051 44.8136L105.22 45.356L105.763 47.1187ZM112.068 41.2204L110.305 41.7628L111.932 47.1865L113.695 46.6441L112.068 41.2204Z" fill="white"/>
<path d="M110.373 58.0339C110.983 58.0339 111.458 58.5085 111.458 59.0509C111.458 59.6611 110.983 60.1356 110.373 60.1356C109.83 60.1356 109.288 59.6611 109.288 59.1187C109.356 58.5085 109.83 58.0339 110.373 58.0339Z" fill="white"/>
<path d="M12.3389 69.5593C11.7287 69.6271 11.1185 69.7627 10.5084 69.8305L10.2372 69.8983C9.62701 69.9661 9.01684 70.1017 8.40667 70.1695L8.47447 70.7796H8.27108L7.9321 68.8135H8.13549L8.27108 69.3559C8.88125 69.2881 9.49142 69.1525 10.1694 69.0847L9.8982 67.2542C9.22023 67.3898 8.61006 67.4576 7.99989 67.5932L8.06769 68.1356H7.8643L7.45752 66.1695H7.66091L7.7965 66.7118C8.40667 66.644 9.01684 66.5085 9.62701 66.4407L9.8982 66.3729C10.5084 66.3051 11.1185 66.1695 11.7287 66.1017V65.4915L11.9321 65.4237L12.2711 67.3898L12.0677 67.4576L11.9321 66.9152C11.3219 66.983 10.7118 67.1186 10.1016 67.1864L10.3728 69.0169C10.9829 68.9491 11.5931 68.8135 12.1355 68.7457V68.2034L12.3389 68.1356L12.6779 70.1017L12.4745 70.1695L12.3389 69.5593Z" fill="white"/>
<path d="M10.2371 72C9.35578 72.2712 9.08459 72.8136 9.22018 73.3559C9.35578 73.7627 9.55917 73.9661 9.89815 74.1017L9.83035 74.2373C9.28798 74.1017 8.8812 73.7627 8.74561 73.1525C8.54222 72.2034 8.949 71.3898 10.0337 71.1186C11.1185 70.8475 11.932 71.4576 12.1354 72.2712C12.3388 73.0847 11.932 73.6949 11.1863 73.8983C11.0507 73.9661 10.9151 73.9661 10.7795 73.9661L10.2371 72ZM10.7117 72.9491C10.7795 73.2203 10.9151 73.2203 11.2541 73.1525C11.7287 73.0169 11.9998 72.678 11.8643 72.339C11.7965 72 11.3219 71.7288 10.4405 71.9322L10.7117 72.9491Z" fill="white"/>
<path d="M10.7117 78.3051C10.3727 78.2373 10.1693 78.1017 10.1015 77.7627C9.96589 77.4237 10.1015 77.1525 10.3727 76.9491C9.8981 76.7458 9.69471 76.6102 9.55911 76.1356C9.42352 75.661 9.55911 75.1864 10.0337 75.0508C10.5083 74.9152 10.915 75.0508 11.4574 75.8644C11.593 76 11.7286 76.2034 11.8642 76.4068L12.1354 76.339C12.7456 76.1356 12.8811 75.9322 12.7456 75.4576C12.7456 75.3898 12.6778 75.2542 12.61 75.1864L12.2032 75.2542C11.8642 75.322 11.7286 75.2542 11.6608 75.0508C11.593 74.8474 11.6608 74.7119 11.7964 74.6441C12.3388 74.5763 12.8133 74.9152 13.0845 75.7288C13.3557 76.4746 13.0845 76.8813 12.3388 77.1525L10.8472 77.6271C10.5761 77.6949 10.5083 77.8305 10.5761 77.9661C10.5761 78.0339 10.7117 78.1017 10.8472 78.1695L10.7117 78.3051ZM11.7286 76.5424C11.593 76.4068 11.5252 76.2712 11.4574 76.1356C11.1184 75.7288 10.7795 75.661 10.4405 75.7966C10.1015 75.9322 9.96589 76.1356 10.1015 76.4068C10.1693 76.6102 10.3049 76.7458 10.5761 76.8813L11.7286 76.5424Z" fill="white"/>
<path d="M11.4575 80.4745L11.2541 80.5423L10.5762 78.9152L10.7796 78.8474L10.983 79.2542C11.3219 79.1186 11.7287 78.983 12.0677 78.8474L14.9152 77.6948L14.7796 77.2203L14.9152 77.1525L15.5931 78.1694V78.2372L14.7118 78.5762L12.3389 79.5253C11.9999 79.6609 11.5931 79.8643 11.2541 79.9999L11.4575 80.4745Z" fill="white"/>
<path d="M12.8134 82.983C12.4744 82.9152 12.2033 82.7118 12.0677 82.3728C11.8643 81.8305 11.9321 81.4915 12.5422 81.2203C12.7456 81.1525 12.8812 81.0847 13.0846 80.9491L14.5083 80.2711L14.305 79.7966L14.5083 79.7288L14.7795 80.2033L15.7287 80.0677L15.9321 80.5423L15.0507 80.9491L15.3897 81.6949L15.1863 81.8305L14.8473 81.0847L12.8134 82.0338C12.4744 82.1694 12.4067 82.3728 12.5422 82.5762C12.61 82.7118 12.6778 82.7796 12.8812 82.9152L12.8134 82.983Z" fill="white"/>
<path d="M14.7117 86.9153L14.5761 86.9831L13.7626 85.4915L13.8981 85.4237L14.1693 85.7627C14.4405 85.6271 14.9151 85.3559 15.1863 85.2204L15.8643 84.8136C16.3388 84.5424 16.4066 84.339 16.271 84.0678C16.1354 83.8644 15.932 83.661 15.5253 83.5254L14.5761 84.0678C14.3049 84.2034 13.8304 84.4746 13.5592 84.678L13.6948 85.017L13.5592 85.0848L12.7456 83.661L12.8812 83.5932L13.1524 83.9322C13.4914 83.7966 13.8981 83.5254 14.1693 83.3899L16.8812 81.8983L16.6778 81.4238L16.8134 81.356L17.627 82.3051V82.4407L16.7456 82.9153L15.6609 83.5254C16.2032 83.661 16.5422 83.8644 16.7456 84.2712C17.0168 84.8136 16.8812 85.2882 16.1354 85.6949L15.5253 86.0339C15.2541 86.1695 14.7795 86.4407 14.5083 86.6441L14.7117 86.9153Z" fill="white"/>
<path d="M18.1017 91.7288C17.7627 91.7966 17.5593 91.661 17.3559 91.3898C17.1525 91.1186 17.2203 90.7796 17.4237 90.5084C16.9491 90.4406 16.678 90.3728 16.4068 89.966C16.1356 89.5593 16.1356 89.0847 16.5424 88.7457C16.9491 88.4745 17.3559 88.5423 18.1695 89.0847C18.3051 89.2203 18.5085 89.3559 18.7119 89.4915L18.983 89.2881C19.5254 88.9491 19.5932 88.6779 19.322 88.2711C19.2542 88.2033 19.1864 88.1355 19.1186 87.9999L18.7119 88.2033C18.4407 88.4067 18.2373 88.3389 18.1017 88.1355C17.9661 87.9999 17.9661 87.7965 18.1017 87.661C18.5763 87.3898 19.1864 87.5932 19.661 88.3389C20.1356 89.0169 20 89.4915 19.322 89.966L18.0339 90.8474C17.8305 90.983 17.7627 91.1186 17.8305 91.2542C17.8983 91.322 17.9661 91.3898 18.1695 91.3898L18.1017 91.7288ZM18.5085 89.6949C18.3729 89.5593 18.2373 89.4915 18.1017 89.4237C17.6949 89.1525 17.3559 89.1525 17.0169 89.3559C16.7458 89.5593 16.678 89.8304 16.8813 90.0338C17.0169 90.1694 17.1525 90.2372 17.4915 90.3728L18.5085 89.6949Z" fill="white"/>
<path d="M20.7456 95.1864L20.61 95.322L19.5253 94.0338L19.6609 93.8983L19.9998 94.1694C20.271 93.966 20.6778 93.6271 20.949 93.4237L21.5592 92.9491C21.966 92.6101 22.0337 92.4067 21.8304 92.1355C21.6948 91.9321 21.4236 91.7966 21.0168 91.7966L20.2032 92.4745C19.9321 92.6779 19.5253 93.0169 19.3219 93.2203L19.5253 93.5593L19.3897 93.6949L18.3049 92.4067L18.4405 92.2711L18.7795 92.6101C19.0507 92.4067 19.4575 92.0677 19.7287 91.8644L20.0676 91.5932C20.3388 91.322 20.5422 91.1864 20.7456 90.983L20.4744 90.5762L20.61 90.5084L21.627 91.1864V91.2542L21.2202 91.661C21.8304 91.661 22.1693 91.8644 22.4405 92.1355C22.7795 92.6101 22.7795 93.0847 22.1015 93.6271L21.5592 94.1016C21.288 94.305 20.8812 94.644 20.6778 94.8474L20.7456 95.1864Z" fill="white"/>
<path d="M23.8642 98.3051L23.7286 98.4407L22.8473 97.6271L23.1184 97.2881C22.7795 97.2881 22.4405 97.2203 22.1693 96.9492C21.6269 96.4068 21.6269 95.5254 22.3727 94.7797C23.1862 94.0339 24.0676 93.9661 24.6778 94.5763C24.8812 94.8475 25.0167 95.1186 25.0167 95.5254L26.1693 94.4407L25.8303 94.0339L25.9659 93.8983L27.0506 94.5763V94.6441L26.3727 95.322L23.7286 97.9661L23.8642 98.3051ZM24.7456 95.5932C24.7456 95.322 24.61 95.1187 24.4744 95.0509C24.1354 94.7119 23.593 94.6441 22.9151 95.3898C22.2371 96.0678 22.2371 96.6102 22.5761 96.9492C22.7117 97.0848 22.9151 97.2203 23.1862 97.2203L24.7456 95.5932Z" fill="white"/>
<path d="M28.6778 102.373L28.5422 102.508L27.2541 101.492L27.3897 101.356L27.7964 101.559C27.9998 101.288 28.3388 100.881 28.5422 100.61L29.0168 100C29.3558 99.5932 29.3558 99.322 29.0846 99.1186C28.8812 98.9831 28.61 98.9153 28.2032 98.9153L27.5253 99.7966C27.3219 100.068 26.9829 100.475 26.7795 100.746L27.0507 101.017L26.9151 101.153L25.627 100.136L25.7625 100L26.1693 100.203C26.3727 99.9322 26.7117 99.5254 26.9151 99.2542L28.8134 96.8136L28.4744 96.4746L28.61 96.339L29.6947 96.8814L29.7625 96.9492L29.1524 97.6949L28.4066 98.6441C28.949 98.5763 29.3558 98.5763 29.6947 98.9153C30.1693 99.2542 30.2371 99.7966 29.6947 100.407L29.2202 100.949C29.0168 101.22 28.6778 101.627 28.4744 101.898L28.6778 102.373Z" fill="white"/>
<path d="M30.8474 102.102C30.3728 102.915 30.5084 103.458 30.983 103.797C31.3219 104.068 31.6609 104.068 31.9999 103.932L32.0677 104.068C31.5931 104.339 31.0508 104.339 30.5084 104C29.6948 103.458 29.4914 102.576 30.1016 101.627C30.7118 100.746 31.7287 100.678 32.4745 101.153C33.1524 101.627 33.288 102.373 32.8135 102.983C32.7457 103.119 32.6779 103.186 32.5423 103.254L30.8474 102.102ZM31.8643 102.508C32.0677 102.644 32.2033 102.576 32.4067 102.305C32.6779 101.898 32.6101 101.492 32.3389 101.288C31.9999 101.085 31.5253 101.22 30.983 101.898L31.8643 102.508Z" fill="white"/>
<path d="M35.4576 106.441C35.1864 106.644 34.9152 106.644 34.644 106.441C34.305 106.237 34.2372 105.966 34.305 105.627C33.8305 105.763 33.5593 105.83 33.1525 105.559C32.6779 105.288 32.5423 104.881 32.8135 104.407C33.0847 104 33.4237 103.864 34.4406 104.068C34.644 104.135 34.8474 104.135 35.1186 104.271L35.2542 104C35.5932 103.458 35.5254 103.186 35.1186 102.983C35.0508 102.915 34.9152 102.915 34.8474 102.847L34.5762 103.186C34.3728 103.458 34.1694 103.525 33.966 103.39C33.7627 103.322 33.7627 103.119 33.7627 102.983C34.1016 102.576 34.7118 102.508 35.4576 102.915C36.1355 103.322 36.2711 103.796 35.8644 104.542L35.0508 105.898C34.9152 106.169 34.9152 106.237 35.0508 106.305C35.1186 106.373 35.2542 106.305 35.3898 106.237L35.4576 106.441ZM34.983 104.474C34.7796 104.407 34.644 104.407 34.5084 104.407C33.9661 104.339 33.6949 104.474 33.4915 104.813C33.2881 105.152 33.4237 105.356 33.6271 105.491C33.8305 105.559 33.966 105.559 34.305 105.559L34.983 104.474Z" fill="white"/>
<path d="M37.4914 107.593L37.4236 107.797L35.8643 106.983L35.9321 106.78L36.4066 106.915C36.61 106.576 36.8134 106.169 36.949 105.83L38.3049 103.051L37.8982 102.78L37.966 102.644L39.1863 102.983L39.2541 103.051L38.7795 103.932L37.627 106.237C37.4236 106.576 37.288 106.983 37.0846 107.322L37.4914 107.593Z" fill="white"/>
<path d="M40.1356 108.61C39.8644 108.814 39.5254 108.814 39.1864 108.678C38.644 108.475 38.5085 108.068 38.7118 107.525C38.7796 107.322 38.8474 107.186 38.983 106.983L39.5932 105.492L39.1186 105.288L39.1864 105.085L39.7288 105.288L40.339 104.542L40.8135 104.746L40.4068 105.627L41.1525 105.966L41.0169 106.169L40.2712 105.83L39.3898 107.932C39.2542 108.271 39.322 108.407 39.5932 108.542C39.7288 108.61 39.8644 108.61 40.0678 108.542L40.1356 108.61Z" fill="white"/>
<path d="M44.1355 110.237L44.0677 110.441L42.5083 109.898L42.5761 109.695L42.9829 109.763C43.1185 109.424 43.2541 108.949 43.3897 108.678L43.6609 107.932C43.8643 107.458 43.7287 107.186 43.4575 107.119C43.2541 107.051 42.9151 107.051 42.5761 107.254L42.2372 108.271C42.1016 108.61 41.966 109.085 41.8304 109.424L42.1694 109.627L42.1016 109.83L40.5422 109.288L40.61 109.085L41.0168 109.152C41.1524 108.813 41.288 108.339 41.4236 108.068L42.4405 105.152L41.966 104.949L42.0338 104.813L43.2541 104.949L43.3219 105.017L42.9829 105.898L42.5761 107.051C43.0507 106.78 43.4575 106.712 43.8643 106.847C44.4066 107.051 44.61 107.458 44.3388 108.271L44.0677 108.949C43.9321 109.288 43.7965 109.763 43.6609 110.102L44.1355 110.237Z" fill="white"/>
<path d="M49.6269 107.186C50.7117 107.39 51.0506 107.932 50.9151 108.542C50.8473 109.017 50.4405 109.356 49.5591 109.288C50.5083 109.627 50.8473 110.102 50.7117 110.712C50.5761 111.322 50.0337 111.797 48.5422 111.525L46.7117 111.119L46.7795 110.915L47.3896 110.983C47.5252 110.373 47.6608 109.763 47.7964 109.153L47.8642 108.881C47.9998 108.271 48.1354 107.661 48.271 107.119L47.7286 106.915L47.7964 106.712L49.6269 107.186ZM48.4744 111.322C49.1523 111.458 49.6269 111.254 49.7625 110.576C49.8981 109.898 49.6269 109.492 48.8134 109.356L48.4744 109.288C48.3388 109.966 48.2032 110.644 48.0676 111.254L48.4744 111.322ZM48.949 107.254C48.8134 107.797 48.6778 108.407 48.5422 109.017L48.8134 109.085C49.4913 109.22 49.8981 108.949 50.0337 108.407C50.1693 107.864 49.9659 107.525 49.2879 107.322L48.949 107.254Z" fill="white"/>
<path d="M54.8473 112.407V112.61L53.6947 112.542L53.7625 111.932C53.4235 112.271 52.949 112.475 52.5422 112.407C51.932 112.339 51.6608 111.932 51.7964 111.051L52.0676 109.288L51.593 109.152V108.949H52.8134L52.8812 109.017L52.7456 109.966L52.61 111.119C52.5422 111.661 52.6778 111.864 53.0167 111.864C53.2879 111.932 53.5591 111.797 53.8303 111.593L54.1015 109.424L53.6947 109.288V109.152H54.9151L54.9829 109.22L54.8473 110.169L54.5761 112.203L54.8473 112.407Z" fill="white"/>
<path d="M57.0167 110.305C57.2201 109.763 57.6947 109.424 58.0337 109.424C58.3049 109.424 58.5083 109.559 58.5761 109.83C58.5083 110.102 58.4405 110.305 58.1015 110.237C57.8981 110.237 57.7625 110.102 57.6269 109.898L57.5591 109.83C57.2879 110.034 57.0845 110.305 56.9489 110.712V111.254C56.9489 111.593 56.8812 112.068 56.8812 112.407L57.4235 112.542V112.746L55.593 112.61V112.407H56.0676C56.0676 112.068 56.1354 111.525 56.1354 111.186V110.78C56.1354 110.373 56.1354 110.169 56.1354 109.898L55.6608 109.83V109.695L56.8812 109.424L56.9489 109.492L57.0167 110.305Z" fill="white"/>
<path d="M59.7288 111.186C59.7966 112.136 60.2711 112.542 60.8135 112.542C61.2203 112.542 61.4915 112.339 61.6949 112.068L61.8305 112.136C61.6271 112.61 61.1525 112.949 60.5423 112.949C59.5932 112.949 58.8474 112.339 58.8474 111.254C58.8474 110.169 59.5932 109.491 60.4745 109.491C61.2881 109.491 61.8305 110.034 61.8305 110.78C61.8305 110.915 61.8305 111.051 61.7627 111.186H59.7288ZM60.7457 110.915C61.0169 110.915 61.0847 110.78 61.0847 110.441C61.0847 109.966 60.8135 109.627 60.4067 109.627C60 109.627 59.661 110.034 59.661 110.915H60.7457Z" fill="white"/>
<path d="M65.966 112.203C65.8304 112.542 65.627 112.678 65.288 112.678C64.949 112.678 64.6779 112.542 64.6101 112.203C64.2711 112.61 64.0677 112.814 63.6609 112.814C63.1185 112.881 62.7796 112.61 62.7118 112.068C62.644 111.593 62.9151 111.254 63.8643 110.847C64.0677 110.78 64.2711 110.712 64.5423 110.644V110.305C64.4745 109.627 64.3389 109.491 63.8643 109.559C63.7287 109.559 63.6609 109.559 63.5253 109.627L63.4575 110.102C63.4575 110.441 63.3219 110.576 63.1185 110.576C62.9151 110.576 62.7796 110.508 62.7118 110.305C62.7796 109.763 63.2541 109.356 64.0677 109.288C64.8813 109.22 65.2202 109.559 65.288 110.373L65.4236 111.932C65.4236 112.203 65.5592 112.271 65.6948 112.271C65.7626 112.271 65.8304 112.203 65.966 112.068V112.203ZM64.4745 110.78C64.2711 110.847 64.1355 110.915 63.9999 110.983C63.5253 111.186 63.3897 111.525 63.3897 111.864C63.3897 112.203 63.5931 112.407 63.9321 112.339C64.1355 112.339 64.2711 112.203 64.5423 112L64.4745 110.78Z" fill="white"/>
<path d="M70.1694 111.661V111.864L69.0169 112.136L68.8813 111.525C68.6779 111.932 68.2711 112.271 67.8644 112.339C67.2542 112.407 66.8474 112.203 66.7118 111.254L66.4406 109.492H65.9661V109.356L67.1186 109.017L67.1864 109.085L67.322 110.034L67.5254 111.186C67.5932 111.729 67.7966 111.864 68.1356 111.797C68.4067 111.729 68.6101 111.593 68.8135 111.322L68.4745 109.153H68.0678V109.017L69.2203 108.678L69.2881 108.746L69.4237 109.695L69.7627 111.729L70.1694 111.661Z" fill="white"/>
<path d="M72.339 109.695C72.0678 108.61 72.6102 107.864 73.4915 107.593C74.3729 107.322 75.2542 107.729 75.5254 108.814C75.7966 109.898 75.322 110.712 74.4407 110.915C73.4915 111.186 72.6102 110.78 72.339 109.695ZM74.6441 109.085C74.3729 108.136 73.9661 107.729 73.4915 107.864C73.0169 108 72.8813 108.542 73.1525 109.491C73.4237 110.441 73.8305 110.847 74.3051 110.712C74.7797 110.576 74.9152 110.034 74.6441 109.085Z" fill="white"/>
<path d="M76.0678 106.915C75.8644 106.237 75.9322 105.763 76.1356 105.424C76.3389 105.017 76.6101 104.814 76.9491 104.678C77.2881 104.542 77.6271 104.542 77.7627 104.814C77.8305 105.017 77.7627 105.22 77.4915 105.288C77.2881 105.356 77.0847 105.288 76.8813 105.153L76.6779 105.017C76.6101 105.085 76.5423 105.153 76.5423 105.22C76.4745 105.559 76.5423 105.966 76.8135 106.576L77.6271 106.305L77.6949 106.576L76.8813 106.847L77.4237 108.339C77.5593 108.746 77.6949 109.085 77.8305 109.424L78.3728 109.288L78.4406 109.491L76.6779 110.102L76.6101 109.898L77.0169 109.695C76.8813 109.356 76.7457 108.949 76.6101 108.542L76.0678 107.051L75.5932 107.254L75.5254 107.051L76.0678 106.915Z" fill="white"/>
<path d="M84.678 106.508L84.7458 106.712L82.9153 107.593L82.8475 107.39L83.3898 107.051L81.8305 105.966L81.6949 107.797L82.2373 107.661L82.3051 107.864L81.017 108.475L80.9492 108.271L81.4237 107.932L81.6949 105.763L79.7288 104.339L79.1865 104.542L79.1187 104.339L80.9492 103.458L81.017 103.661L80.5424 103.932L81.8983 104.881L82.0339 103.186L81.4915 103.39L81.4237 103.186L82.7797 102.576L82.8475 102.78L82.3051 103.119L82.0339 105.085L84.2034 106.576L84.678 106.508Z" fill="white"/>
<path d="M83.3898 102.305C83.2542 102.034 83.322 101.83 83.5932 101.695C83.7966 101.559 84.1356 101.627 84.2712 101.83C84.4068 102.034 84.2712 102.305 84.0678 102.441C83.7966 102.576 83.5254 102.508 83.3898 102.305ZM86.7119 105.356L86.7797 105.491L85.2881 106.305L85.2203 106.169L85.5593 105.898C85.4237 105.559 85.1525 105.152 84.9491 104.881L84.7458 104.474C84.5424 104.135 84.4068 103.932 84.2712 103.661L83.7966 103.864L83.7288 103.729L84.6102 102.847H84.678L85.1525 103.661L85.6271 104.474C85.7627 104.746 86.0339 105.22 86.2373 105.491L86.7119 105.356Z" fill="white"/>
<path d="M90.5085 102.915L90.6441 103.051L89.2203 104L89.0847 103.864L89.4237 103.593C89.2203 103.322 88.9491 102.847 88.8135 102.576L88.4068 101.898C88.1356 101.424 87.8644 101.356 87.5932 101.559C87.3898 101.695 87.2542 101.966 87.1186 102.305L87.7288 103.254C87.9322 103.525 88.2034 103.932 88.4068 104.271L88.7457 104.068L88.8813 104.203L87.4576 105.152L87.322 105.017L87.661 104.746C87.4576 104.475 87.1864 104 87.0508 103.729L86.7796 103.39C86.5763 103.051 86.4407 102.847 86.2373 102.644L85.8305 102.847L85.7627 102.712L86.5085 101.763H86.5763L86.9152 102.169C86.983 101.559 87.1864 101.22 87.5254 101.017C88 100.678 88.4746 100.813 88.9491 101.491L89.3559 102.102C89.5593 102.373 89.8305 102.78 90.0339 103.119L90.5085 102.915Z" fill="white"/>
<path d="M91.8642 96.6779C92.271 97.1525 92.61 97.6271 93.0167 98.1016L93.2201 98.305C93.6269 98.7796 93.9659 99.2542 94.3727 99.7288L94.8472 99.3898L94.9828 99.5254L93.4235 100.814L93.2879 100.678L93.6947 100.271C93.3557 99.7966 92.9489 99.322 92.4744 98.7796L91.0506 99.9322C91.4574 100.475 91.8642 100.949 92.271 101.424L92.7456 101.085L92.8811 101.22L91.3218 102.508L91.1862 102.373L91.593 101.966C91.1862 101.491 90.8472 101.017 90.4405 100.542L90.2371 100.339C89.8303 99.8644 89.4913 99.3898 89.0845 98.9152L88.61 99.2542L88.4744 99.0508L90.0337 97.7627L90.1693 97.9661L89.7625 98.3728C90.1015 98.8474 90.5083 99.322 90.915 99.7966L92.3388 98.644C91.932 98.1694 91.593 97.6949 91.1862 97.2203L90.7117 97.5593L90.5761 97.3559L92.1354 96.0677L92.271 96.2711L91.8642 96.6779Z" fill="white"/>
<path d="M98.0337 96.4067L98.1693 96.5423L97.3557 97.4237L96.8812 97.0169C96.949 97.4915 96.8134 97.9661 96.4744 98.305C96.0676 98.7118 95.593 98.7118 94.9151 98.1016L93.6947 96.8135L93.2879 97.0847L93.1523 96.9491L93.8981 96H93.9659L94.6439 96.7457L95.4574 97.6271C95.8642 98.0339 96.0676 98.0339 96.3388 97.7627C96.5422 97.5593 96.61 97.2881 96.61 96.9491L95.1185 95.3898L94.9151 95.5932L94.7795 95.4576L95.5252 94.5084H95.593L96.271 95.2542L97.6947 96.7457L98.0337 96.4067Z" fill="white"/>
<path d="M100.678 93.2881C100.814 93.6271 100.746 93.8305 100.542 94.1017C100.271 94.3729 100 94.3729 99.7288 94.2373C99.7966 94.7118 99.7288 95.0508 99.4576 95.3898C99.1186 95.7966 98.6441 95.8644 98.2373 95.5254C97.8305 95.1864 97.8305 94.7796 98.2373 93.8983C98.3051 93.6949 98.4407 93.4915 98.5085 93.2881L98.3051 93.0847C97.8305 92.6779 97.5593 92.6779 97.2881 93.0169C97.2203 93.0847 97.1525 93.1525 97.0847 93.2881L97.3559 93.6271C97.5593 93.8983 97.5593 94.1017 97.4237 94.2373C97.2881 94.3729 97.1525 94.4407 96.9491 94.3051C96.6102 93.8983 96.678 93.2881 97.2203 92.6102C97.7627 92 98.2373 92 98.8475 92.5424L100 93.5593C100.203 93.7627 100.339 93.7627 100.407 93.6271C100.475 93.5593 100.475 93.4915 100.407 93.2881H100.678ZM98.5763 93.2881C98.5085 93.4915 98.4407 93.6271 98.3729 93.7627C98.1695 94.2373 98.3051 94.5762 98.5763 94.8474C98.8474 95.1186 99.1186 95.0508 99.322 94.8474C99.4576 94.7118 99.4576 94.5085 99.5254 94.1695L98.5763 93.2881Z" fill="white"/>
<path d="M104.339 88.339C104.271 88.8136 104.136 89.2204 103.864 89.6272C103.119 90.7119 101.83 91.0509 100.542 90.2373C99.2542 89.356 99.1864 88 99.9322 86.9153C100.203 86.5085 100.542 86.2373 100.949 86.0339L101.83 86.6441L101.627 86.9153L100.61 86.5763C100.475 86.7119 100.339 86.7797 100.203 86.9831C99.661 87.7289 99.8644 88.678 101.085 89.4916C102.237 90.3051 103.186 90.1695 103.729 89.4238C103.864 89.2204 103.932 89.0848 104 88.8814L103.322 88.0678L103.525 87.7966L104.339 88.339Z" fill="white"/>
<path d="M103.593 86.8474C102.644 86.3051 102.508 85.3559 102.915 84.5423C103.39 83.7966 104.271 83.3898 105.22 84C106.169 84.6101 106.373 85.4915 105.898 86.3051C105.424 87.1186 104.542 87.3898 103.593 86.8474ZM104.813 84.7457C103.932 84.2712 103.39 84.2712 103.119 84.6779C102.847 85.0847 103.186 85.6271 104 86.1017C104.881 86.5762 105.424 86.5762 105.695 86.1695C105.966 85.7627 105.695 85.2203 104.813 84.7457Z" fill="white"/>
<path d="M108.474 80.678L108.61 80.7458L108.203 81.8305L107.661 81.6271C107.864 82.0339 107.932 82.5085 107.729 82.9153C107.457 83.4576 107.051 83.661 106.237 83.2543L104.678 82.5085L104.407 82.9153L104.271 82.8475L104.61 81.6949H104.678L105.559 82.1695L106.644 82.6441C107.118 82.8475 107.39 82.7797 107.525 82.4407C107.661 82.1695 107.661 81.8983 107.525 81.6271L105.559 80.678L105.288 81.017L105.152 80.9492L105.491 79.7966H105.559L106.44 80.2034L108.271 81.0848L108.474 80.678Z" fill="white"/>
<path d="M110.102 76.339L110.305 76.4068L109.695 77.9661L109.491 77.8983L109.559 77.4915C109.22 77.3559 108.746 77.1525 108.475 77.0847L107.729 76.8136C107.254 76.6102 106.983 76.678 106.915 77.0169C106.847 77.2203 106.847 77.5593 106.983 77.8983L108 78.3051C108.339 78.4407 108.813 78.5763 109.152 78.7119L109.356 78.3729L109.559 78.4407L108.949 80L108.746 79.9322L108.881 79.5254C108.542 79.3898 108.068 79.1864 107.797 79.1186L107.39 78.983C107.051 78.8475 106.78 78.7797 106.508 78.7119L106.305 79.1186L106.169 79.0508L106.237 77.8305L106.305 77.7627L106.847 77.8983C106.576 77.3559 106.508 76.9491 106.644 76.6102C106.847 76.0678 107.322 75.8644 108.068 76.1356L108.746 76.4068C109.085 76.5424 109.559 76.678 109.898 76.8136L110.102 76.339Z" fill="white"/>
<path d="M110.712 73.5594C110.915 73.8305 110.983 74.1017 110.915 74.5085C110.78 75.0509 110.441 75.2543 109.83 75.1187C109.627 75.0509 109.491 74.9831 109.22 74.9153L107.661 74.4407L107.525 74.9153L107.322 74.8475L107.39 74.3051L106.576 73.7627L106.712 73.2882L107.661 73.5594L107.864 72.8136L108.135 72.8814L107.932 73.6272L110.102 74.2373C110.441 74.3051 110.576 74.2373 110.644 73.9661C110.712 73.8305 110.644 73.695 110.576 73.4916L110.712 73.5594Z" fill="white"/>
<path d="M109.085 71.3898C108.542 71.0508 108.339 70.5763 108.407 70.2373C108.474 69.9661 108.61 69.7627 108.881 69.7627C109.152 69.8305 109.288 69.9661 109.22 70.3051C109.152 70.5085 109.017 70.5763 108.813 70.7118L108.746 70.7796C108.881 71.0508 109.085 71.322 109.491 71.5254L110.034 71.661C110.373 71.7288 110.847 71.8644 111.186 71.9322L111.39 71.3898L111.593 71.4576L111.186 73.2203L110.983 73.1525L111.051 72.6779C110.712 72.6102 110.237 72.4746 109.898 72.4068L109.491 72.339C109.085 72.2712 108.881 72.2034 108.61 72.1356L108.474 72.6102H108.339L108.271 71.3898L108.339 71.322L109.085 71.3898Z" fill="white"/>
<path d="M109.424 65.9661V66.3728L112.542 68.1356C113.491 68.6779 113.763 69.2203 113.695 69.6271C113.627 69.9661 113.424 70.2373 113.152 70.1695C112.949 70.1017 112.881 69.8305 112.881 69.6271C112.949 69.4237 113.085 69.2881 113.288 69.1525L113.424 69.0847C113.22 68.8135 112.949 68.5423 112.542 68.3389L109.017 69.1525L108.949 69.4915H108.746L109.017 67.7966H109.22V68.2711L111.661 67.7966L109.491 66.644L109.356 67.1864H109.152L109.356 65.9661H109.424Z" fill="white"/>
<path d="M60 101.559C37.0847 101.559 18.4407 82.9152 18.4407 60C18.4407 37.0847 37.0847 18.4407 60 18.4407C82.9153 18.4407 101.559 37.0847 101.559 60C101.559 82.9152 82.9153 101.559 60 101.559ZM60 19.7966C37.8305 19.7966 19.7966 37.8305 19.7966 60C19.7966 82.1695 37.8305 100.203 60 100.203C82.1695 100.203 100.203 82.1695 100.203 60C100.203 37.8305 82.1695 19.7966 60 19.7966Z" fill="white"/>
<path d="M35.5932 42.9153C36.4068 42.034 37.017 41.017 37.4915 40.0001C37.8305 39.1865 38.1017 38.3729 38.3729 37.4916C38.3729 37.4916 38.0339 37.6272 37.9661 37.6272C37.8305 37.695 37.6271 37.7628 37.4915 37.8984C37.0848 38.1017 36.7458 38.3729 36.4068 38.7119C34.8475 40.0678 33.4237 42.034 32.9492 44.0679C32.8814 44.2712 32.8814 44.4746 32.8136 44.6102C32.8136 44.678 32.7458 45.1526 32.678 45.2204C33.1526 44.9492 33.5593 44.6102 34.0339 44.339C34.5763 43.8645 35.1187 43.3899 35.5932 42.9153Z" fill="white"/>
<path d="M28.9492 49.6949C29.017 50.7797 29.2204 51.7966 29.6272 52.8136C29.695 52.8136 29.7628 52.8136 29.8306 52.8136C29.8984 52.6102 30.1018 52.4746 30.1018 52.2712C30.1696 51.2542 30.8475 50.7119 31.5933 50.2373C33.1526 49.1525 34.9831 48.0678 36.0001 46.3729C36.339 45.7627 36.5424 45.1525 36.8814 44.5424L36.9492 44.4746C36.8814 44.4746 36.8136 44.4068 36.7458 44.4068C36.1357 44.2712 35.2543 44.7458 34.7119 45.0169C34.1018 45.3559 33.4916 45.7627 33.017 46.2373C32.2035 47.0508 31.4577 47.9322 30.7119 48.8136C30.4407 48.4068 30.6441 48 30.7797 47.5254C31.0509 46.6441 31.3221 45.7627 31.5255 44.8813C31.6611 44.4068 31.7289 43.9322 31.7289 43.5254C31.7289 43.0508 31.6611 42.5763 31.6611 42.1017C31.5933 42.1695 31.5933 42.1695 31.5255 42.2373C31.3221 42.4407 31.0509 42.5763 30.8475 42.7797C29.0848 44.4068 28.8814 47.1864 29.017 49.4237C28.9492 49.4237 28.9492 49.5593 28.9492 49.6949Z" fill="white"/>
<path d="M33.7629 81.2203C34.8477 81.7627 36.0002 82.1017 37.1527 82.5085C38.1697 82.8475 39.1188 83.1864 40.1358 83.4576C40.407 83.5254 40.8138 83.5932 40.9494 83.322C41.0171 83.1187 40.9493 82.9153 40.8138 82.7119C40.1358 81.5593 39.5934 80.2712 39.1866 78.9153C38.8477 77.6949 38.6443 76.4068 38.2375 75.1864C37.8307 73.9661 37.1527 72.7458 36.1358 72C35.5256 72.9492 35.6612 74.1695 35.8646 75.2542C36.0002 76.0678 36.1358 76.8814 36.4748 77.6271C36.8816 78.5085 37.4917 79.1864 37.8307 80.0678C37.8985 80.2034 37.9663 80.339 37.8985 80.4746C37.8307 80.678 37.4917 80.7458 37.2883 80.678C37.2883 80.678 37.2883 80.678 37.2205 80.678C36.2714 80.4746 35.4578 80 34.7121 79.4576C33.9663 78.8475 33.2883 78.1695 32.6104 77.5593C31.5256 76.6102 30.3731 75.7966 29.1527 75.0508C28.746 74.8475 28.3392 74.6441 27.9324 74.5085C27.7968 74.6441 27.7968 74.6441 27.8646 74.8475C27.8646 74.9831 27.9324 75.1186 28.0002 75.2542C28.068 75.5254 28.2036 75.7966 28.3392 76C28.6104 76.4746 28.8815 76.9492 29.2205 77.4237C29.8985 78.3051 30.7121 79.1186 31.5934 79.7966C32.2714 80.4068 33.0171 80.8814 33.7629 81.2203Z" fill="white"/>
<path d="M91.8645 74.644C90.6441 75.1186 89.4916 75.7966 88.4746 76.6779C87.5933 77.4237 86.7797 78.3051 85.8306 79.1186C84.9492 79.8644 83.9323 80.5423 82.7797 80.8135C82.5085 80.8813 82.1695 80.8135 82.1018 80.5423C82.1018 80.4745 82.1018 80.339 82.1695 80.2712C82.3729 79.7288 82.7119 79.2542 83.0509 78.7796C84.1357 76.9491 84.5424 74.7796 84.2034 72.6779C84.2034 72.4745 84.1357 72.2712 83.9323 72.2034C83.7289 72.1356 83.5255 72.339 83.3899 72.5423C82.5763 73.8983 81.7628 75.2542 81.356 76.8135C81.1526 77.5593 81.0848 78.3051 80.9492 78.983C80.7458 79.7966 80.4746 80.6101 80.0679 81.3559C79.8645 81.7627 79.0509 82.8474 79.2543 83.322C79.4577 83.7966 81.017 83.1864 81.356 83.0508C82.6441 82.5762 83.9323 82.1017 85.2204 81.5593C85.9662 81.2881 86.7119 81.0169 87.3899 80.6101C89.695 79.3898 91.4577 77.2881 92.339 74.8474C92.339 74.7796 92.4068 74.7118 92.339 74.644V74.5762C92.0679 74.5762 91.9323 74.644 91.8645 74.644Z" fill="white"/>
<path d="M86.3731 50.7119C86.3731 50.7119 86.1697 51.7966 86.1697 51.8644C86.1697 52.339 86.2375 52.7458 86.3731 53.1526C86.5765 53.8983 87.051 54.6441 87.5256 55.2543C88.4748 56.678 89.6273 57.9661 90.4409 59.4577C90.7798 60.0678 91.051 60.7458 91.3222 61.356C91.39 61.4916 91.39 61.5594 91.4578 61.6272C91.5934 61.6949 91.7968 61.6949 91.8646 61.5594C92.0002 61.4238 92.0002 61.2882 92.068 61.1526C92.6782 59.0509 93.5595 56.9492 93.8985 54.7797C94.2375 52.6102 93.9663 50.1695 92.5426 48.4746C91.7968 49.8305 91.39 51.3221 91.4578 52.8814C91.4578 53.5594 91.5934 54.2373 91.5934 54.9153C91.5934 55.5933 91.5256 56.339 91.1866 56.8814C90.3731 55.6611 90.1019 54.1017 89.2205 52.8814C88.4748 51.9322 87.39 51.3221 86.3731 50.7119Z" fill="white"/>
<path d="M95.1865 58.5086C95.1865 58.3052 95.1187 58.1696 95.0509 57.9662C94.5085 58.373 94.1695 58.9153 93.8305 59.3899C93.4915 59.8645 93.1526 60.4069 92.8814 60.9492C92.4746 61.9662 92.4068 63.1187 92 64.1357C91.661 65.017 91.0509 65.695 90.2373 66.2374C89.8305 64.6103 90.2373 62.9153 89.6949 61.356C89.5594 60.9492 89.4238 60.6103 89.2204 60.2035C89.017 59.7289 88.7458 59.3221 88.4746 58.9153C88.339 58.712 88.1356 58.5086 87.9322 58.5764C87.8644 58.6442 87.7966 58.712 87.7288 58.8475C87.2543 59.8645 87.0509 60.9492 87.1187 62.034C87.1187 62.5086 87.1865 63.0509 87.3221 63.5255C87.5255 64.4069 87.9322 65.2882 88.2034 66.1696C88.4746 66.9831 88.678 67.8645 88.7458 68.6781C88.8136 69.0848 88.678 70.7797 89.4238 70.5764C89.6271 70.5086 89.7627 70.373 89.8983 70.1696C90.7119 69.0848 91.5932 68.0679 92.4068 66.9831C93.6949 65.4238 94.9831 63.7289 95.3221 61.695C95.5255 60.6781 95.3899 59.5933 95.1865 58.5086Z" fill="white"/>
<path d="M85.2884 43.7966C85.5596 44.0678 85.8985 44.2712 86.2375 44.5424C86.3731 44.6102 87.2545 45.0848 87.2545 45.1526C87.1189 43.5254 86.4409 41.9661 85.424 40.6102C84.407 39.2543 83.1189 38.1695 81.7629 37.356C82.0341 39.0509 82.7121 40.678 83.729 42.0339C84.1358 42.6441 84.6782 43.2543 85.2884 43.7966Z" fill="white"/>
<path d="M84.6103 44.6779C84.1358 44.4745 83.5256 44.3389 83.051 44.4745C83.3222 44.8135 83.5256 45.1525 83.729 45.6271C84.5426 47.4576 86.1697 48.8135 87.9324 49.8983C88.407 50.1695 88.8137 50.4406 89.2205 50.7796C89.6273 51.1186 89.8985 51.5932 89.9663 52.1356C89.9663 52.2712 89.9663 52.4745 90.0341 52.6101C90.1019 52.7457 90.3053 52.8135 90.4408 52.7457C90.5086 52.6779 90.5764 52.6101 90.5764 52.4745C90.9154 50.983 91.1866 49.4237 91.1188 47.8644C91.051 46.3051 90.6442 44.7457 89.7629 43.4576C89.4239 42.983 89.0171 42.5084 88.407 42.3051C88.0002 42.9152 88.2036 43.7288 88.407 44.4745C88.6103 45.3559 88.8815 46.1695 89.0849 47.0508C89.2205 47.661 89.4239 48.2712 89.4239 48.9491C88.068 47.1186 86.6442 45.4237 84.6103 44.6779Z" fill="white"/>
<path d="M45.9662 85.9661C44.8814 83.5932 43.7289 81.2204 42.1696 79.1187C41.8984 78.7119 41.5594 78.3729 41.2204 78.1017C40.8136 77.8305 40.3391 77.6949 39.8645 77.8305C39.7967 79.0509 40.2713 80.2034 40.7458 81.2882C41.2882 82.3729 41.8984 83.3898 42.3729 84.5424C42.4407 84.678 42.5085 84.8814 42.3729 85.0848C42.2374 85.2882 41.9662 85.2882 41.695 85.2204C39.1187 84.7458 36.4746 84.0678 34.2374 82.7119C33.0848 81.9661 31.9323 81.0848 30.5085 81.017C30.5763 81.017 31.0509 82.1017 31.1187 82.2373C31.3899 82.6441 31.6611 82.9831 31.9323 83.3221C32.5424 84 33.2882 84.5424 34.1018 85.017C35.4577 85.8983 37.0848 86.5085 38.7119 86.7797C39.7967 86.9831 40.8814 86.9153 42.034 86.9153C42.7797 86.9153 43.4577 86.9831 44.1357 87.1187C44.7458 87.2543 45.356 87.5254 46.034 87.4576C46.2374 87.4576 46.4407 87.3221 46.4407 87.1187C46.4407 87.0509 46.4407 86.9831 46.373 86.9153C46.2374 86.5763 46.1018 86.2373 45.9662 85.9661Z" fill="white"/>
<path d="M89.356 80.8136C89.2882 80.8136 89.2204 80.8136 89.1526 80.8136C87.1187 81.4916 85.4238 82.8475 83.5255 83.7289C81.8306 84.4747 80.0001 84.8136 78.2373 85.1526C77.9662 85.2204 77.6272 85.1526 77.5594 84.9492C77.5594 84.8137 77.5594 84.7459 77.6272 84.6103C78.4407 82.7798 79.2543 81.017 80.0679 79.1865C80.2712 78.7797 80.4068 78.1696 80.0679 77.8984C79.7967 77.695 79.3899 77.695 79.1187 77.8984C78.8475 78.1018 78.6441 78.373 78.4407 78.6442C76.8136 81.2204 74.8475 83.6611 73.695 86.5086C73.5594 86.9153 73.4238 87.2543 73.8984 87.3899C74.3051 87.4577 74.7797 87.3221 75.1865 87.1865C76.678 86.7798 78.2373 86.9831 79.7967 86.9153C81.695 86.8475 83.6611 86.3052 85.2882 85.356C86.9831 84.4069 88.4068 82.9831 89.2882 81.2882C89.4916 81.2204 89.4916 80.9492 89.356 80.8136C89.356 80.8814 89.356 80.8136 89.356 80.8136Z" fill="white"/>
<path d="M30.373 70.5086C30.4408 70.5763 30.5086 70.6441 30.5764 70.6441C30.7798 70.7119 30.9832 70.5085 31.051 70.3052C31.2543 69.8306 31.2543 69.2882 31.2543 68.7458C31.3899 66.3052 33.0171 64.1357 32.9493 61.695C32.8815 60.7458 32.6103 59.7967 32.2713 58.8475C32.2035 58.6442 32.0679 58.4408 31.8645 58.4408C31.7289 58.4408 31.6611 58.5764 31.5933 58.6442C31.051 59.5255 30.5086 60.3391 30.1696 61.356C29.695 62.9153 29.8984 64.6102 29.695 66.2374C29.0171 65.8306 28.4747 65.2882 28.1357 64.5425C27.5933 63.5933 27.5255 62.4408 27.1865 61.4238C26.712 60.0679 25.8984 58.8475 24.7459 57.9662C24.8137 58.034 24.6103 58.8475 24.6103 58.9153C24.5425 59.2543 24.5425 59.5933 24.5425 59.9323C24.5425 60.2035 24.5425 60.4747 24.5425 60.7458C24.5425 61.1526 24.6103 61.4916 24.6781 61.8984C24.9493 63.1865 25.6272 64.2713 26.373 65.356C27.5255 67.1865 28.9493 68.8814 30.373 70.5086Z" fill="white"/>
<path d="M27.39 59.5254C27.5256 59.9322 27.5934 60.2711 27.729 60.6779C27.8646 61.0169 28.0002 61.4915 28.2035 61.7627C28.2713 61.8305 28.3391 61.8305 28.4069 61.8305C28.7459 61.7627 28.8137 61.4237 28.8815 61.0847C29.0849 60 29.7629 58.983 30.4408 58.1017C31.2544 57.0169 32.1358 55.9322 32.8815 54.7796C33.5595 53.7627 33.8307 52.6101 33.8307 51.4576C33.8307 51.3898 33.8307 51.2542 33.8307 51.1864C33.8307 51.1186 33.8307 51.0508 33.7629 50.983C33.7629 50.9152 33.6951 50.9152 33.6951 50.8474C33.6273 50.7118 32.4069 51.5254 32.2713 51.5932C31.8646 51.8644 31.4578 52.2711 31.1866 52.6101C30.5086 53.4237 30.1019 54.305 29.6951 55.2542C29.4917 55.7288 29.3561 56.4067 29.0849 56.8135C28.9493 56.7457 28.7459 56.4067 28.6781 56.2034C28.3391 55.3898 28.4747 54.3728 28.5425 53.5593C28.6781 51.9322 28.4069 50.3728 27.729 48.8813C27.6612 48.7457 27.5256 48.6101 27.39 48.4067C27.1866 48.7457 27.051 48.9491 26.9154 49.2203C25.6951 51.7288 25.6951 54.5084 26.5764 57.0847C26.8476 57.9661 27.1188 58.7796 27.39 59.5254Z" fill="white"/>
<path d="M93.4239 67.5933C92.4748 67.9323 91.8646 68.7458 91.3222 69.5594C90.8476 70.4407 90.4409 71.3221 89.8307 72.0679C89.2205 72.8136 88.3392 73.2882 87.39 73.5594C87.4578 72.2713 87.729 70.9153 87.729 69.6272C87.729 68.3391 87.5256 66.9831 86.7799 65.8306C86.7121 65.7628 86.6443 65.6272 86.5087 65.6272C86.3731 65.6272 86.3053 65.7628 86.2375 65.8984C85.6951 67.3221 85.2883 68.8814 85.4917 70.4408C85.6273 71.1865 85.8985 71.9323 85.8985 72.678C85.8985 73.6272 85.5595 74.5763 85.3561 75.4577C85.2883 75.7289 84.8815 78.1018 85.5595 77.695C86.9154 76.8136 88.3392 75.8645 89.6951 74.9831C90.7799 74.3052 91.8646 73.5594 92.6104 72.5424C93.5595 71.2543 93.8307 69.6272 94.0341 68.0679C94.0341 67.8645 94.0341 67.6611 93.8985 67.5255C93.7629 67.4577 93.5595 67.5255 93.4239 67.5933Z" fill="white"/>
<path d="M30.2373 74.9831C31.7289 75.9322 33.2204 76.9492 34.7119 77.8983C34.8475 77.4916 34.7797 77.0848 34.7119 76.678C34.4407 75.3221 34.0339 73.8983 34.1695 72.5424C34.2373 71.7966 34.3729 71.0509 34.5085 70.3051C34.7119 68.7458 34.3729 67.0509 33.5594 65.6949C33.0848 66.1017 32.8814 66.6441 32.678 67.1865C32.0678 69.2204 32.2034 71.3899 32.678 73.4916C32.5424 73.5594 32.339 73.4916 32.1356 73.4238C31.3899 73.0848 30.7119 72.678 30.1695 72.0678C29.5594 71.3221 29.1526 70.4407 28.678 69.5593C28.2034 68.7458 27.5933 67.8644 26.6441 67.5932C26.4407 67.5255 26.2373 67.5255 26.1017 67.661C26.0339 67.7966 26.0339 67.9322 26.0339 68.0678C26.1695 69.9661 26.6441 71.9322 28 73.2882C28.678 73.8983 29.4916 74.4407 30.2373 74.9831Z" fill="white"/>
<path d="M58.0339 69.6949L38.7796 50.4406C37.4237 49.0847 37.4237 46.9152 38.7796 45.5593L58.0339 26.305C59.3898 24.9491 61.5593 24.9491 62.9152 26.305L82.1695 45.5593C83.5254 46.9152 83.5254 49.0847 82.1695 50.4406L62.9152 69.6949C61.5593 71.0508 59.3898 71.0508 58.0339 69.6949Z" fill="white"/>
<path d="M72.4746 43.661H64.7458V36C64.7458 33.6271 62.7797 31.661 60.4069 31.661C58.034 31.661 56.0679 33.6271 56.0679 36V43.661H48.4069C46.034 43.661 44.0679 45.6271 44.0679 48C44.0679 50.3729 46.034 52.339 48.4069 52.339H56.0679V60C56.0679 62.3729 58.034 64.339 60.4069 64.339C62.7797 64.339 64.7458 62.3729 64.7458 60V52.339H72.4069C74.7797 52.339 76.7458 50.3729 76.7458 48C76.8136 45.6271 74.8475 43.661 72.4746 43.661Z" fill="#1479FF"/>
<path d="M60.2714 68.1356C59.8646 68.1356 59.5934 67.8644 59.4578 67.4576C59.3222 66.983 59.3222 66.3729 59.39 65.8305C59.39 65.6271 59.39 65.4237 59.39 65.2203C59.39 65.0847 59.39 64.9491 59.3222 64.8813C59.2544 64.7457 59.1188 64.6779 58.9154 64.5424C58.8476 64.4746 58.7121 64.4746 58.6443 64.4068C57.8307 63.8644 57.3561 62.7796 57.4239 61.6949C57.4917 60.8135 57.9663 59.9322 58.6443 59.1186L58.7798 58.983C58.9832 58.7796 59.1188 58.644 59.1866 58.4407C59.3222 58.1695 59.2544 57.8983 59.2544 57.5593V56C59.2544 55.7288 59.2544 55.5254 59.1866 55.3898C59.1188 55.2542 58.9832 55.1186 58.7798 54.983C58.4409 54.7796 58.1697 54.5763 57.7629 54.3729C56.8137 53.8305 55.8646 53.2203 55.39 52.1356C54.712 50.7796 55.2544 49.2203 55.9324 48.2712C56.6782 47.2542 57.6273 46.5763 58.7798 45.8305C58.9154 45.7627 59.051 45.6949 59.051 45.5593C59.1188 45.4915 59.1188 45.2881 59.1188 45.1525V43.3898C59.1188 43.0508 59.051 42.8474 58.9832 42.8474C58.7798 42.7796 58.5765 42.6441 58.5765 42.3729V42.3051C57.2205 42.983 55.9324 43.4576 54.5087 43.4576C54.2375 43.4576 53.9663 43.4576 53.7629 43.3898H53.6951C53.6951 43.3898 53.6951 43.3898 53.6951 43.4576C53.6273 43.5254 53.6273 43.5932 53.5595 43.5932C53.4239 43.7966 53.1527 43.8644 52.9493 43.8644C52.7459 43.8644 52.5426 43.7288 52.407 43.5254C52.3392 43.3898 52.3392 43.1864 52.407 43.0508C52.2036 42.983 52.0002 42.7796 52.068 42.5085C52.1358 42.2373 52.2714 42.1017 52.5426 42.1017H53.0849C53.6273 40.8813 54.5087 40.1356 55.5256 39.9322C55.729 39.9322 55.8646 39.8644 56.068 39.8644H56.5426C56.6104 39.8644 56.6782 39.8644 56.7459 39.8644C57.4917 39.7966 58.1697 39.5254 58.8476 39.1864C58.9154 39.1864 59.051 39.1186 59.051 39.0508C59.051 38.983 59.1188 38.8474 59.1188 38.7796C59.1866 37.2203 59.2544 35.5932 58.9832 34.1017V33.9661C58.9154 33.4915 58.7798 32.9491 58.9832 32.4068C59.1866 31.7288 59.8646 31.322 60.5426 31.322C60.6104 31.322 60.6104 31.322 60.6782 31.322C61.4239 31.3898 62.0341 31.9322 62.1697 32.678C62.2375 33.0847 62.1697 33.4237 62.1019 33.7627V33.8305C61.8307 35.3898 61.8985 37.0847 61.8985 38.6441C61.8985 38.7119 61.8985 38.7796 61.8985 38.8474C61.8985 38.8474 62.1019 38.8474 62.1697 38.8474C63.3222 38.9152 64.407 39.2542 65.4239 39.7288C65.6273 39.7966 65.8307 39.9322 66.0341 40.0678C66.9154 40.6102 67.5256 41.2881 67.729 42.0339C68.2036 43.661 67.1188 45.2203 65.8985 45.9661C65.0849 46.5085 64.1358 46.7796 63.1866 47.0508C62.7798 47.1864 62.3731 47.322 62.0341 47.4576C61.8985 47.5254 61.6951 47.5932 61.6273 47.7288C61.6951 47.7966 61.6951 48 61.6951 48.1356L61.5595 52.6779C61.5595 52.9491 61.5595 53.2881 61.6273 53.4915C61.6951 53.6271 61.8307 53.7627 62.0341 53.9661C62.1019 54.0339 62.1697 54.1017 62.2375 54.1695C62.7798 54.7796 63.1188 55.661 63.051 56.5424C62.9832 57.4237 62.5765 58.2373 61.9663 58.7796L61.8307 58.9152C61.6951 59.0508 61.5595 59.1186 61.4917 59.1864C61.4239 59.322 61.4239 59.5254 61.4239 59.7288L61.2883 62.5763C61.2883 62.9152 61.2205 63.5254 61.2883 63.7966C61.6273 64.0678 61.6951 64.0678 62.3731 64.1356C62.6443 64.1356 62.7798 64.339 62.7798 64.6102C62.7798 64.8813 62.5765 65.0847 62.3731 65.0847L61.2205 65.2203V66.8474C61.2205 67.1186 61.2205 67.8644 60.5426 68.0678C60.407 68.1356 60.3392 68.1356 60.2714 68.1356ZM59.2544 49.0169C58.8476 49.2881 58.5087 49.6271 58.3053 49.9661C58.1697 50.2373 58.1019 50.5085 58.1019 50.7796C58.1019 51.1864 58.7121 51.8644 59.2544 52.1356V49.0169ZM61.8985 42.9152C61.8985 43.4576 61.8985 44.0678 61.8985 44.678V44.7457C61.8985 44.7457 63.8646 44 64.6782 43.661C65.0849 43.5254 65.2205 43.2542 65.2205 42.7796C65.2205 42.3729 65.0849 42.1017 64.6782 41.9661C64.2036 41.7627 63.6612 41.6271 62.9832 41.6271C62.6443 41.6271 62.3053 41.6271 61.9663 41.6949C61.9663 41.7627 61.9663 41.8305 61.9663 41.8983C61.9663 41.8983 62.1019 41.9661 62.1697 42.0339C62.2375 42.1017 62.3053 42.2373 62.3053 42.3729C62.3053 42.5085 62.2375 42.6441 62.1697 42.7119C62.1019 42.7796 62.0341 42.8474 61.9663 42.9152C61.8985 42.8474 61.8985 42.8474 61.8985 42.9152Z" fill="white"/>
<path d="M60.6103 31.8643H60.6781C61.2205 31.9321 61.695 32.3389 61.7628 32.8135C61.8306 33.1525 61.7628 33.4237 61.695 33.7626C61.4238 35.3898 61.4238 37.0169 61.4916 38.7118C61.4916 38.8474 61.4916 39.0508 61.5594 39.1186C61.695 39.322 61.9662 39.322 62.2374 39.3898C63.3222 39.4576 64.3391 39.7287 65.3561 40.2033C65.5594 40.2711 65.7628 40.4067 65.8984 40.4745C66.5764 40.8813 67.1866 41.4237 67.39 42.1694C67.7967 43.4576 66.9154 44.8135 65.7628 45.5592C64.6103 46.305 63.2544 46.5084 61.9662 46.983C61.695 47.0508 61.4239 47.1864 61.2883 47.4576C61.1527 47.6609 61.1527 47.8643 61.1527 48.0677C61.0849 49.5593 61.0849 51.1186 61.0171 52.6101C61.0171 52.9491 61.0171 53.3559 61.1527 53.6948C61.2883 54.0338 61.6272 54.2372 61.8306 54.5084C62.8476 55.5932 62.712 57.4915 61.5594 58.4406C61.3561 58.644 61.0849 58.7796 60.9493 58.983C60.8137 59.1864 60.8137 59.4576 60.8137 59.7287C60.8137 60.6101 60.7459 61.4237 60.7459 62.305C60.7459 62.8474 60.6103 63.9999 60.7459 64.1355C61.2205 64.5423 61.2883 64.6101 62.1696 64.6779C61.6272 64.7457 61.0849 64.8135 60.6103 64.8813C60.6103 65.5593 60.6103 66.2372 60.6103 66.9152C60.6103 67.1864 60.6103 67.5932 60.2713 67.6609C60.2035 67.6609 60.2035 67.6609 60.1357 67.6609C59.9323 67.6609 59.8645 67.5254 59.7967 67.322C59.5933 66.7118 59.7289 65.8304 59.7289 65.2203C59.7289 65.0169 59.7289 64.8813 59.6611 64.6779C59.5255 64.3389 59.1188 64.2033 58.8476 63.9999C58.1018 63.5254 57.7628 62.5762 57.8306 61.6948C57.8984 60.8135 58.373 59.9999 58.9832 59.3898C59.1866 59.1186 59.4577 58.9152 59.5933 58.5762C59.7289 58.2372 59.7289 57.8982 59.7289 57.5593C59.7289 57.0169 59.7289 56.4745 59.7289 55.9321C59.7289 55.6609 59.7289 55.3898 59.5933 55.1186C59.4577 54.9152 59.2544 54.7118 59.051 54.5762C57.8984 53.7626 56.4069 53.2203 55.7967 51.9321C55.2544 50.8474 55.5933 49.4915 56.3391 48.5423C57.0171 47.5931 58.034 46.8474 59.051 46.1694C59.1866 46.0338 59.3899 45.966 59.4577 45.7626C59.5933 45.5593 59.5933 45.3559 59.5933 45.1525C59.5933 44.5423 59.5933 43.9999 59.5933 43.3898C59.5933 42.983 59.5255 42.4406 59.1188 42.3728C59.5255 42.2372 59.7289 41.6948 59.5255 41.3559C57.9662 42.1694 56.3391 43.0508 54.6442 43.0508C54.4408 43.0508 54.1696 43.0508 53.9662 42.983C53.8984 42.983 53.8306 42.983 53.7628 42.983C53.695 42.983 53.695 42.983 53.6272 42.983C53.4916 43.0508 53.4238 43.1864 53.2883 43.322C53.2205 43.3898 53.1527 43.4576 53.0171 43.4576C52.9493 43.4576 52.8815 43.4576 52.8815 43.3898C52.8815 43.3898 52.8815 43.3898 52.9493 43.3898C53.2205 43.3898 53.4238 43.1186 53.356 42.8474C53.0849 42.7796 52.8137 42.7118 52.6103 42.7118C52.8815 42.7118 53.1527 42.7118 53.4238 42.7118C53.8306 41.6948 54.5764 40.7457 55.6611 40.5423C55.7967 40.5423 56.0001 40.5423 56.1357 40.5423C56.2713 40.5423 56.4747 40.5423 56.6103 40.5423C56.6781 40.5423 56.7459 40.5423 56.8137 40.5423C57.6272 40.4745 58.373 40.1355 59.1188 39.8643C59.2544 39.7965 59.4577 39.7287 59.5255 39.5932C59.6611 39.4576 59.6611 39.2542 59.6611 39.0508C59.7289 37.4237 59.7967 35.7965 59.5255 34.2372C59.4577 33.7626 59.3222 33.2881 59.5255 32.8135C59.6611 32.2033 60.1357 31.8643 60.6103 31.8643ZM61.4238 45.4237C62.5764 44.9491 63.7289 44.5423 64.8137 44.1355C65.4238 43.8643 65.695 43.4576 65.695 42.7796C65.695 42.1694 65.4238 41.7626 64.8137 41.4915C64.2035 41.2203 63.5255 41.1525 62.9154 41.1525C62.4408 41.1525 61.9662 41.2203 61.4916 41.2881C61.4238 42.1016 61.4238 42.1016 61.8306 42.4406C61.695 42.5762 61.4916 42.7118 61.4238 42.8474C61.3561 43.5932 61.4238 44.4067 61.4238 45.4237ZM55.051 41.6948C55.3222 41.6948 55.39 41.5593 55.4577 41.1525C55.1866 41.2881 54.9832 41.4237 54.7798 41.5593C54.7798 41.627 54.8476 41.627 54.8476 41.6948C54.8476 41.627 54.9832 41.6948 55.051 41.6948ZM60.0679 45.6948C60.2713 45.6948 60.5425 45.4237 60.6103 45.1525V45.0847C60.6781 44.8813 60.6781 44.7457 60.6781 44.5423C60.6781 43.9999 60.6781 43.3898 60.6781 42.8474C60.6781 42.7796 60.6781 42.7796 60.6781 42.7118C60.6103 42.644 60.5425 42.644 60.4747 42.644C60.3391 42.644 60.2713 42.644 60.1357 42.644C60.1357 42.644 60.1357 42.644 60.0679 42.644C60.0001 42.644 60.0001 42.644 59.9323 42.644C59.8645 42.7118 59.8645 42.7796 59.8645 42.9152C59.8645 43.7287 59.8645 44.5423 59.8645 45.2881C59.8645 45.5593 59.9323 45.6948 60.0679 45.6948ZM60.0001 58.3728C60.4747 58.1694 60.5425 57.8982 60.5425 57.4237C60.5425 54.644 60.6103 51.8643 60.6103 49.0169C60.6103 48.6101 60.6103 48.2033 60.6103 47.7287C59.8645 47.9321 59.8645 47.9321 59.8645 48.6101C59.8645 49.0847 59.8645 49.6271 59.9323 50.1016C59.9323 52.6779 59.9323 55.2542 60.0001 57.8304C59.9323 58.0338 60.0001 58.2372 60.0001 58.3728ZM59.7289 52.8135V48.1355C58.9154 48.5423 58.2374 49.0169 57.8984 49.6948C57.7628 50.0338 57.6272 50.3728 57.6272 50.7118C57.695 51.5932 58.9154 52.7457 59.7289 52.8135ZM61.0849 57.3559C61.4238 56.9491 61.4916 56.3389 61.0849 55.9999V57.3559ZM60.1357 67.3898C60.2035 67.3898 60.2713 67.3898 60.3391 67.3898C60.5425 64.8135 60.4069 62.1694 60.5425 59.5254C60.2035 59.7287 60.0001 59.8643 60.0001 60.2711C60.0001 62.5084 60.0001 64.6779 60.0679 66.9152C60.0679 67.0508 60.0679 67.1864 60.1357 67.3898ZM59.7967 63.322V60.3389C58.5764 61.6271 58.8476 63.0508 59.7967 63.322ZM60.6103 30.9152C59.7289 30.9152 58.8476 31.5254 58.5764 32.3389C58.373 33.0169 58.4408 33.627 58.5764 34.1016V34.2372C58.8476 35.7287 58.7798 37.2881 58.712 38.8474C58.1018 39.1186 57.4239 39.4576 56.8137 39.4576C56.7459 39.4576 56.6781 39.4576 56.6781 39.4576C56.6103 39.4576 56.5425 39.4576 56.4747 39.4576C56.4069 39.4576 56.2713 39.4576 56.2035 39.4576C56.0001 39.4576 55.7967 39.4576 55.5933 39.5254C54.5086 39.6609 53.5594 40.4745 52.8815 41.6948H52.6103C52.1357 41.6948 51.7289 42.1016 51.6611 42.5762C51.6611 42.9152 51.7289 43.1864 52.0001 43.3898C52.0001 43.5254 52.0679 43.7287 52.1357 43.8643C52.3391 44.2033 52.6781 44.4067 53.0849 44.4067C53.4238 44.4067 53.8306 44.2711 54.034 43.9999C54.2374 43.9999 54.4408 43.9999 54.6442 43.9999C55.9323 43.9999 57.2205 43.5932 58.4408 42.983C58.5086 43.0508 58.6442 43.1864 58.712 43.1864C58.712 43.2542 58.712 43.322 58.712 43.3898V44.5423V45.1525C58.712 45.2203 58.712 45.2881 58.712 45.2881C58.6442 45.2881 58.6442 45.3559 58.5764 45.3559C57.4238 46.1016 56.4069 46.8474 55.5933 47.9321C54.6442 49.2881 54.373 50.983 54.9832 52.2711C55.5255 53.4915 56.6103 54.1016 57.5594 54.7118C57.8984 54.9152 58.2374 55.1186 58.5086 55.322C58.712 55.4576 58.712 55.5254 58.712 55.5254C58.712 55.5932 58.712 55.7965 58.712 55.9321V56.6101V57.4915C58.712 57.7626 58.712 58.0338 58.6442 58.1694C58.5764 58.305 58.4408 58.4406 58.3052 58.5762L58.1696 58.7118C57.3561 59.5932 56.8815 60.6101 56.8137 61.5593C56.6781 62.8474 57.2205 64.0677 58.2374 64.7457C58.3052 64.8135 58.4408 64.8813 58.5086 64.8813C58.5764 64.9491 58.6442 64.9491 58.712 65.0169C58.712 65.0847 58.712 65.0847 58.712 65.1525C58.712 65.3559 58.712 65.4915 58.712 65.6948C58.712 66.2372 58.6442 66.9152 58.8476 67.4576C59.051 68.0677 59.5255 68.4745 60.1357 68.4745C60.2713 68.4745 60.4069 68.4745 60.4747 68.4067C60.9493 68.2711 61.4916 67.8643 61.4916 66.7796V65.6271L62.2374 65.5593C62.712 65.4915 63.051 65.0847 63.051 64.6101C63.051 64.1355 62.6442 63.7287 62.1696 63.6609C61.7628 63.5932 61.6272 63.5932 61.4916 63.5254C61.4916 63.2542 61.4916 62.8474 61.4916 62.5762V62.2372L61.5594 61.2203L61.6272 59.6609C61.6272 59.5932 61.6272 59.3898 61.6272 59.322C61.6272 59.322 61.7628 59.2542 61.8306 59.1864C61.8984 59.1186 61.9662 59.1186 61.9662 59.0508C62.712 58.4406 63.1866 57.4915 63.2544 56.4745C63.3222 55.4576 62.9832 54.4406 62.373 53.7626C62.3052 53.6948 62.2374 53.5593 62.1018 53.4915C61.9662 53.3559 61.8306 53.2203 61.8306 53.1525C61.7628 53.0169 61.7628 52.7457 61.7628 52.5423L61.8984 47.9999C61.8984 47.9321 61.8984 47.9321 61.8984 47.8643C61.9662 47.8643 61.9662 47.7965 62.1018 47.7965C62.4408 47.6609 62.8476 47.5254 63.2544 47.3898C64.2035 47.1186 65.1527 46.7796 66.034 46.2372C67.39 45.3559 68.6781 43.5931 68.0679 41.7626C67.7967 40.8813 67.1188 40.1355 66.1018 39.5254C65.8984 39.3898 65.695 39.322 65.4916 39.1864C64.4747 38.7118 63.3222 38.3728 62.1696 38.305C62.1696 36.8135 62.1018 35.2542 62.373 33.7626V33.6948C62.4408 33.3559 62.5086 32.9491 62.4408 32.4745C62.2374 31.5254 61.4238 30.8474 60.4747 30.7118C60.7459 30.9152 60.6781 30.9152 60.6103 30.9152ZM62.712 42.0338C62.7798 42.0338 62.8476 42.0338 62.9154 42.0338C63.5255 42.0338 64.0001 42.1016 64.4069 42.305C64.6781 42.4406 64.6781 42.5084 64.6781 42.7118C64.6781 43.0508 64.5425 43.1186 64.4069 43.1864C63.7289 43.4576 62.9832 43.7287 62.3052 43.9999C62.3052 43.7287 62.3052 43.3898 62.3052 43.1186C62.373 43.0508 62.373 43.0508 62.4408 42.983C62.6442 42.7796 62.712 42.5084 62.712 42.305C62.712 42.2372 62.712 42.1016 62.712 42.0338ZM58.7798 51.1186C58.6442 50.983 58.5764 50.8474 58.5764 50.7796C58.5764 50.644 58.6442 50.4406 58.712 50.2372L58.7798 50.1694V51.1186Z" fill="#1479FF"/>
<path d="M65.3558 92.1356C65.288 92 65.1524 91.8644 65.0846 91.7288C65.0168 91.7966 64.949 91.8644 64.949 91.8644C65.0846 92.0678 65.1524 92.1356 65.3558 92.1356C65.2202 92.2034 65.0846 92.2712 64.949 92.2712C64.949 92.2712 64.949 92.2034 64.949 92.1356C64.949 92.1356 64.949 92.0678 64.8812 92.0678C64.8812 92.0678 64.8812 92.0678 64.8134 92.0678C64.8134 92.0678 64.8134 92.1356 64.8812 92.1356C64.8812 92.1356 64.8812 92.1356 64.8812 92.2034C64.8134 92.2034 64.8134 92.2034 64.8134 92.2712C64.8134 92.339 64.8134 92.339 64.8134 92.4068C64.8134 92.4746 64.7457 92.4746 64.7457 92.4746C64.6101 92.4746 64.6101 92.5424 64.6101 92.6102C64.6101 92.678 64.6101 92.678 64.6101 92.7457C64.6101 92.8813 64.4745 93.0169 64.3389 92.9491C64.2711 92.9491 64.2033 92.9491 64.1355 92.9491C64.1355 93.0169 64.0677 93.0169 64.0677 93.0847C64.0677 93.1525 63.9999 93.1525 64.0677 93.2203C64.0677 93.2881 64.0677 93.3559 64.0677 93.4237C64.0677 93.4915 64.0677 93.6271 64.0677 93.6949C64.0677 93.8305 63.9999 93.8305 63.9321 93.8983C63.7965 93.9661 63.6609 94.0339 63.5253 94.1017C63.4575 94.2373 63.4575 94.3051 63.4575 94.4407C63.4575 94.5085 63.4575 94.5763 63.5253 94.6441C63.5931 94.7796 63.5931 94.9152 63.5253 95.1186C63.4575 95.2542 63.3897 95.1864 63.3219 95.1864C63.1863 95.1186 63.0507 95.1186 62.9151 95.0508C62.8473 95.0508 62.7118 94.983 62.644 94.8474C62.5762 94.7796 62.4406 94.7119 62.305 94.6441C62.305 94.6441 62.305 94.6441 62.305 94.7118C62.2372 94.7118 62.1694 94.7796 62.0338 94.7796C61.8982 94.8474 61.7626 94.8474 61.627 94.9152C61.627 94.9152 61.627 94.9152 61.627 94.983H61.6948C61.627 95.0508 61.5592 95.0508 61.5592 95.1186C61.4914 95.2542 61.4914 95.3898 61.4236 95.5254C61.4236 95.5932 61.3558 95.5932 61.288 95.5932C61.1524 95.5932 61.0846 95.5254 60.949 95.4576C60.949 95.5254 60.949 95.5932 60.949 95.5932C60.8812 95.661 60.8134 95.661 60.7457 95.7288C60.6779 95.7288 60.6101 95.7288 60.6101 95.7288C60.5423 95.661 60.4745 95.7288 60.3389 95.7288C60.3389 95.7966 60.4067 95.7966 60.4067 95.8644C60.2711 95.7966 60.1355 95.7288 59.9999 95.661V95.5932C59.9999 95.5254 59.9999 95.4576 59.9999 95.3898C59.9999 95.1864 59.9321 95.1186 59.7287 95.1186C59.6609 95.1186 59.5931 95.1186 59.5253 95.1186C59.3897 95.1186 59.3897 95.1864 59.3219 95.2542C59.3219 95.2542 59.2541 95.322 59.2541 95.2542C59.1863 95.1186 59.0507 95.1864 58.9829 95.1186C58.9151 95.0508 58.8473 95.0508 58.7795 94.983C58.7795 94.983 58.7796 94.9152 58.8473 94.9152C58.7796 94.8474 58.7795 94.8474 58.644 94.9152C58.5762 94.9152 58.4406 94.8474 58.3728 94.7796C58.3728 94.7119 58.305 94.7119 58.305 94.6441C58.305 94.5763 58.305 94.5763 58.305 94.5085C58.2372 94.5085 58.1016 94.5085 58.0338 94.5085C58.0338 94.4407 58.0338 94.3729 58.0338 94.2373C57.966 94.1695 57.8304 94.1695 57.6948 94.2373H57.627C57.5592 94.2373 57.5592 94.2373 57.4914 94.2373H57.4236C57.288 94.1695 57.1524 94.2373 57.0846 94.2373C57.0168 94.2373 56.949 94.2373 56.8812 94.1695C56.8812 94.1017 56.8134 93.9661 56.6779 93.9661C56.6779 93.9661 56.6779 93.9661 56.6101 93.9661C56.4745 93.7627 56.2711 93.7627 56.1355 93.8983C56.0677 94.0339 55.9321 93.8983 55.8643 93.9661C55.9321 93.7627 55.9321 93.6949 55.7287 93.5593C55.7287 93.4915 55.6609 93.4237 55.6609 93.3559C55.6609 93.2881 55.6609 93.1525 55.5931 93.0847C55.5253 93.0169 55.3897 93.0169 55.3897 92.8813C55.3897 92.8813 55.3219 92.8813 55.3219 92.8135C55.2541 92.6779 55.2541 92.6101 55.1863 92.4746C55.1185 92.4746 54.9829 92.4068 54.8473 92.4068C54.7795 92.4068 54.7118 92.4746 54.644 92.5424C54.5762 92.6102 54.5084 92.6102 54.5084 92.5424C54.4406 92.4068 54.3728 92.339 54.2372 92.4068C54.1694 92.5424 54.1016 92.678 53.966 92.7457C53.8982 92.7457 53.8304 92.8813 53.6948 92.8135C53.627 92.7457 53.4914 92.7457 53.3558 92.7457C53.3558 92.678 53.3558 92.6102 53.3558 92.5424C53.4236 92.5424 53.627 92.5424 53.6948 92.5424C53.7626 92.5424 53.7626 92.4746 53.8304 92.4746C53.8304 92.4068 53.8304 92.339 53.8304 92.339C53.8304 92.339 53.7626 92.339 53.6948 92.339C53.627 92.339 53.5592 92.339 53.4914 92.339L53.4236 92.2712C53.4914 92.1356 53.4236 92.0678 53.3558 91.9322C53.3558 91.8644 53.288 91.8644 53.2202 91.8644C53.0168 91.7966 52.8134 91.7966 52.6101 91.7288C52.6101 91.7966 52.6779 91.8644 52.6779 91.9322C52.4745 91.9322 52.3389 91.8644 52.1355 91.8644C51.9999 92.0678 51.9999 92.1356 51.6609 92C51.3897 91.9322 51.1863 91.9322 50.9829 92C50.9151 92 50.8473 92 50.8473 91.9322C50.8473 91.8644 50.7118 91.7966 50.644 91.8644C50.5084 92 50.305 92 50.1694 92C50.1016 92 50.0338 92 49.966 92.0678C49.8304 92.1356 49.8304 92.0678 49.7626 92C49.8304 92 49.8982 92 49.966 92C49.966 91.9322 49.966 91.8644 49.966 91.8644C49.966 91.7966 49.8982 91.7966 49.8304 91.7288C49.6948 91.8644 49.627 91.661 49.5592 91.7288C49.4914 91.661 49.4914 91.661 49.4914 91.5932C49.4914 91.5254 49.4236 91.4576 49.4236 91.3898C49.3558 91.1864 49.1524 91.0508 48.949 91.1186C48.8812 91.1864 48.8134 91.1864 48.7457 91.0508C48.7457 91.0508 48.7457 90.983 48.6779 90.983C48.4745 91.0508 48.5423 90.9152 48.5423 90.8474C48.5423 90.7796 48.5423 90.7118 48.6101 90.6441C48.6101 90.5763 48.6101 90.5085 48.4745 90.5085C48.5423 90.4407 48.5423 90.3729 48.5423 90.3051C48.5423 90.2373 48.6101 90.1695 48.6779 90.1017C48.4745 90.1017 48.4067 90.0339 48.4745 89.8305C48.4067 89.7627 48.2711 89.7627 48.3389 89.6271C48.3389 89.6271 48.2711 89.5593 48.2711 89.4915C48.2033 89.4237 48.1355 89.2881 48.2033 89.1525C48.2033 89.1525 48.1355 89.0847 48.1355 89.0169C48.0677 88.9491 47.9321 88.8813 48.0677 88.7457C48.0677 88.7457 48.0677 88.6779 48.0677 88.6102C47.9321 88.5424 47.7965 88.4746 47.7287 88.4068C47.7287 88.339 47.7287 88.2712 47.7965 88.1356C47.6609 88.1356 47.4575 88.1356 47.3219 88.1356C47.2541 88.0678 47.2541 87.9322 47.1863 87.8644C47.1185 87.7288 47.0507 87.5932 46.9829 87.4576C46.9151 87.3898 46.8473 87.322 46.7118 87.322C46.5762 87.322 46.5084 87.2542 46.5762 87.1186C46.7118 86.9152 46.644 86.7796 46.644 86.5763C46.644 86.5085 46.644 86.5085 46.7118 86.4407C46.7795 86.3729 46.8473 86.3729 46.8473 86.3051C46.9151 86.2373 46.9829 86.2373 46.9829 86.3051C47.3219 86.0339 47.3219 85.9661 47.1185 85.7627C47.1185 85.6271 47.1185 85.5593 47.1185 85.4237C47.3219 85.4237 47.5253 85.3559 47.7965 85.3559C47.7965 85.2881 47.7965 85.2881 47.7965 85.2203C47.7287 85.1525 47.6609 85.1525 47.5253 85.2203C47.4575 85.2203 47.3897 85.2203 47.3897 85.1525C47.4575 85.0169 47.5253 84.9491 47.6609 85.0847C47.6609 85.0847 47.7287 85.0847 47.7965 85.0847C47.8643 85.0847 47.9321 85.0169 48.0677 85.0169C48.0677 85.0169 48.0677 85.0169 48.0677 85.0847C48.1355 85.0847 48.1355 85.1525 48.2033 85.1525L48.2711 85.2203C48.3389 85.2881 48.4067 85.2881 48.4067 85.3559C48.4067 85.3559 48.4745 85.3559 48.4745 85.4237C48.5423 85.4915 48.6101 85.4915 48.6779 85.4915C48.8812 85.4915 49.1524 85.4237 49.3558 85.4237C49.4236 85.4237 49.4914 85.4237 49.5592 85.4915C49.6948 85.5593 49.7626 85.4915 49.8982 85.4237C49.8982 85.4237 49.966 85.4237 50.0338 85.4237C50.1016 85.4237 50.2372 85.4915 50.2372 85.3559C50.305 85.3559 50.305 85.4237 50.3728 85.4237C50.4406 85.3559 50.4406 85.2881 50.5762 85.2881C50.644 85.2881 50.7118 85.2203 50.7796 85.1525C50.8473 85.0847 50.8473 84.9491 51.0507 84.9491C51.1185 84.9491 51.1185 84.9491 51.1863 85.0169C51.1863 85.0169 51.2541 85.0169 51.2541 84.9491C51.2541 84.8813 51.1863 84.8813 51.1863 84.8135C51.3219 84.8135 51.3897 84.8135 51.4575 84.8135C51.5253 84.7457 51.5253 84.6779 51.5931 84.5424C51.4575 84.5424 51.4575 84.5424 51.3219 84.5424C51.3897 84.4068 51.4575 84.339 51.3897 84.2712C51.5253 84.2034 51.5931 84.2034 51.6609 84.0678C51.6609 84 51.7287 83.9322 51.7965 83.9322C51.7965 83.9322 51.8643 83.9322 51.9321 83.9322C51.9999 83.9322 52.0677 83.9322 52.0677 83.8644C52.1355 83.8644 52.1355 83.7966 52.2033 83.7288C52.2711 83.7288 52.2711 83.661 52.3389 83.661C52.4067 83.7966 52.5423 83.661 52.6101 83.7288C52.6779 83.4576 52.6779 83.4576 52.6101 83.3898C52.7456 83.322 52.8134 83.1186 52.8134 82.983C52.8134 82.983 52.8134 82.983 52.7457 82.983C52.6779 82.983 52.5423 83.0508 52.4745 82.9152C52.4745 82.8474 52.4745 82.7119 52.4745 82.6441V82.5763V82.5085C52.4745 82.4407 52.4745 82.4407 52.4745 82.3729C52.4745 82.3729 52.4745 82.3729 52.4067 82.3729V82.4407C52.2711 82.1017 52.3389 81.9661 52.5423 81.7627C52.7457 81.5593 53.0168 81.3559 53.1524 81.0169C53.1524 80.9491 53.2202 80.8813 53.1524 80.8135C53.0846 80.7457 53.0846 80.6102 53.0846 80.4746C52.8134 80.5424 52.5423 80.5424 52.2711 80.339C52.3389 80.2712 52.4067 80.2034 52.4745 80.0678C52.4067 79.9322 52.4067 79.7288 52.5423 79.661C52.5423 79.5932 52.5423 79.5254 52.4745 79.4576C52.6101 79.4576 52.7457 79.4576 52.8134 79.3898H52.949C53.0168 79.5254 53.0846 79.4576 53.1524 79.3898C53.2202 79.322 53.3558 79.322 53.3558 79.4576C53.3558 79.5932 53.4236 79.661 53.5592 79.661C53.5592 79.661 53.627 79.661 53.627 79.7288C53.7626 79.661 53.8982 79.5932 53.8304 79.3898C53.8982 79.4576 53.8982 79.4576 53.966 79.4576C53.966 79.5254 53.966 79.5254 53.966 79.5932C54.0338 79.5932 54.1016 79.5932 54.1694 79.5932C54.3728 79.5932 54.5084 79.5254 54.644 79.7966C54.7118 79.9322 54.8473 80 54.9151 80.1356C54.9829 80.0678 55.0507 80.0678 55.1185 80.2034C55.1863 80.339 55.3219 80.5424 55.5253 80.5424C55.6609 80.5424 55.6609 80.5424 55.7965 80.4068C55.8643 80.4068 55.8643 80.4068 55.9321 80.4068C55.9999 80.4068 56.0677 80.4068 56.0677 80.339C56.0677 80.2712 56.0677 80.2034 56.0677 80.1356C56.0677 80.0678 55.9999 80 55.9999 79.9322C56.0677 79.7966 55.9999 79.7288 55.9321 79.5932C55.9321 79.5932 55.9321 79.5932 55.8643 79.5254C55.9321 79.4576 55.9999 79.3898 56.0677 79.322C56.1355 79.3898 56.2033 79.4576 56.2711 79.322C56.2033 79.2542 56.2711 79.1186 56.4067 79.0508H56.4745C56.4745 78.9152 56.6101 78.7796 56.6101 78.6441C56.6101 78.5763 56.6101 78.5085 56.5423 78.5085C56.5423 78.5085 56.4745 78.4407 56.4067 78.4407C56.4745 78.3729 56.6101 78.3051 56.6779 78.1695C56.8134 78.1017 56.8812 77.9661 57.0168 77.8983C57.0846 77.8305 57.1524 77.7627 57.2202 77.6949H57.288C57.288 77.6949 57.3558 77.6949 57.3558 77.6271V77.6949C57.4914 77.6271 57.4914 77.4237 57.3558 77.2881C57.3558 77.2203 57.4236 77.1525 57.4236 77.0847C57.5592 77.0847 57.5592 76.9491 57.4236 76.678C57.627 76.5424 57.627 76.5424 57.5592 76.339C57.627 76.2712 57.7626 76.2034 57.8304 76.339C57.8304 76.339 57.8982 76.339 57.966 76.339C58.1016 76.2712 58.1694 76.2034 58.305 76.0678C58.2372 76 58.2372 76 58.2372 76C58.2372 76 58.1694 75.9322 58.1694 75.8644C58.2372 75.8644 58.305 75.7966 58.305 75.7966C58.3728 75.8644 58.3728 75.7966 58.3728 75.7288C58.4406 75.661 58.4406 75.5932 58.4406 75.5254C58.5084 75.5254 58.644 75.4576 58.7118 75.4576C58.644 75.322 58.7796 75.2542 58.8473 75.1864C58.7796 75.1864 58.7795 75.1186 58.7118 75.1186C58.8473 75.0508 58.9151 75.0508 58.9829 74.983C59.0507 74.983 59.0507 74.983 59.1185 75.0508C59.1863 75.0508 59.1863 75.1186 59.2541 75.1186C59.3897 75.1186 59.4575 75.0508 59.5931 75.1864C59.6609 75.2542 59.7965 75.2542 59.8643 75.2542C59.9321 75.2542 59.9999 75.2542 60.0677 75.2542C60.1355 75.2542 60.2033 75.1864 60.2711 75.1864C60.3389 75.1186 60.4745 75.0508 60.5423 74.983C60.7457 74.8474 60.949 74.7118 61.1524 74.5763C61.288 74.5085 61.3558 74.3729 61.4236 74.2373C61.4914 74.1017 61.5592 74.0339 61.627 73.8983C61.5592 73.8983 61.4914 73.8983 61.4236 73.8983C61.4914 73.6949 61.5592 73.4237 61.627 73.2203C61.7626 73.2203 61.966 73.2203 62.1694 73.2203C62.2372 73.2203 62.305 73.2203 62.2372 73.1525C62.2372 73.0847 62.2372 72.9491 62.2372 72.9491C62.1694 72.9491 62.0338 72.9491 61.966 72.9491H61.8982C62.1016 72.8135 62.2372 72.678 62.4406 72.5424C62.5084 72.6102 62.5084 72.678 62.5762 72.7458C62.644 72.8135 62.644 72.8813 62.7795 72.8813C62.9151 72.8813 62.9151 72.9491 62.9829 73.0169C62.9829 73.0847 62.9829 73.2203 62.9829 73.2881C63.0507 73.2881 63.1185 73.2881 63.1185 73.3559L63.1863 73.4237C63.1185 73.4915 63.1863 73.5593 63.1863 73.6271C63.1863 73.7627 63.0507 73.7627 63.0507 73.8305L62.9829 73.8983L63.0507 73.9661C63.1185 73.9661 63.2541 73.9661 63.2541 73.8983C63.3897 73.7627 63.5931 73.6949 63.7965 73.7627C63.9321 73.8305 63.9999 73.8305 64.1355 73.8983C64.2033 73.8983 64.2033 73.8983 64.2711 73.8983C64.3389 73.8305 64.4745 73.8305 64.5423 73.8983H64.6101C64.6779 74.0339 64.7457 74.1695 64.8134 74.3051C64.8812 74.2373 64.949 74.2373 64.949 74.1695C65.0168 74.1017 65.0846 74.0339 65.1524 73.9661C65.1524 73.9661 65.2202 73.8983 65.1524 73.8305C65.0846 73.7627 65.1524 73.7627 65.2202 73.7627C65.288 73.7627 65.4236 73.8305 65.4914 73.8305C65.5592 73.7627 65.627 73.6949 65.6948 73.6271C65.7626 73.5593 65.7626 73.5593 65.6948 73.4915C65.627 73.4237 65.6948 73.3559 65.7626 73.3559C65.8304 73.3559 65.8982 73.3559 65.966 73.3559C65.966 73.2881 66.0338 73.2881 66.0338 73.2203L66.1016 73.2881C66.305 73.3559 66.2372 73.5593 66.2372 73.6949C66.2372 73.7627 66.1694 73.8305 66.2372 73.8983C66.2372 73.9661 66.305 74.0339 66.305 74.0339C66.3728 73.8983 66.4406 73.8305 66.5084 73.7627C66.5762 73.6271 66.7118 73.6949 66.7796 73.7627C66.9151 73.6271 67.1185 73.5593 67.2541 73.4237C67.3897 73.4915 67.3897 73.8305 67.7287 73.8305C67.7287 73.8983 67.7287 74.0339 67.7287 74.1017L67.6609 74.1695C67.5253 74.3051 67.4575 74.4407 67.5253 74.5763C67.3219 74.6441 67.3219 74.6441 67.3897 74.7796C67.4575 74.9152 67.4575 75.0508 67.5253 75.1186C67.5931 75.1864 67.5253 75.3898 67.4575 75.4576C67.3897 75.4576 67.3897 75.4576 67.3219 75.4576L67.2541 75.5254C67.2541 75.7288 67.2541 75.7288 67.1185 75.7288H67.0507C67.0507 76 67.0507 76 67.3219 76C67.3897 76.1356 67.3897 76.2712 67.4575 76.4068H67.5253C67.5931 76.4746 67.6609 76.5424 67.7287 76.6102C67.7965 76.7457 67.8643 76.8813 67.9321 77.0169C67.9321 77.0847 67.9321 77.0847 67.8643 77.2203C67.9999 77.2203 68.0677 77.2203 68.1355 77.2203C68.2033 77.2203 68.2711 77.2203 68.2711 77.2881V77.3559C68.0677 77.3559 67.8643 77.3559 67.5931 77.3559C67.5931 77.4915 67.6609 77.5593 67.6609 77.6949C67.6609 77.6949 67.6609 77.6949 67.7287 77.6949C67.7287 77.6949 67.7287 77.7627 67.6609 77.7627C67.5931 77.8305 67.5253 77.8983 67.6609 77.9661C67.7965 78.1017 67.6609 78.1695 67.6609 78.3051C67.7287 78.3051 67.7965 78.3729 67.7965 78.3729V78.4407C67.6609 78.5085 67.5931 78.5763 67.5931 78.7796L67.5253 78.8474L67.5931 78.9152C67.5931 78.983 67.5931 78.983 67.5931 79.0508C67.7287 79.0508 67.7965 78.983 67.7965 78.8474C67.8643 78.8474 67.9321 78.7796 67.9999 78.7796C67.9999 78.8474 67.9999 78.8474 67.9999 78.9152C68.0677 78.8474 68.1355 78.8474 68.2033 78.7796C68.2711 78.983 68.4745 79.1186 68.4745 79.3898C68.4745 79.322 68.5423 79.322 68.5423 79.322C68.5423 79.2542 68.6101 79.1186 68.6101 78.983C68.5423 78.9152 68.4745 78.8474 68.4067 78.7118C68.3389 78.7118 68.2711 78.7796 68.1355 78.7796C68.2033 78.6441 68.2033 78.5085 68.1355 78.4407C68.1355 78.3729 68.1355 78.3051 68.2033 78.2373C68.2711 78.1695 68.3389 78.1695 68.4067 78.1695C68.4745 78.1695 68.6101 78.3051 68.5423 78.3729C68.5423 78.4407 68.5423 78.5085 68.6101 78.5763C68.6779 78.5763 68.7457 78.5763 68.8134 78.5763C68.8812 78.5763 68.8812 78.5085 68.949 78.5085C69.0846 78.4407 69.0846 78.4407 69.0846 78.5763C69.1524 78.5763 69.1524 78.5763 69.2202 78.6441C69.2202 78.6441 69.2202 78.6441 69.2202 78.7118C69.1524 78.7118 69.0846 78.7118 69.0168 78.7118C68.8812 78.7118 68.8134 78.7119 68.8134 78.9152C68.8134 78.983 68.8134 79.0508 68.949 78.983C68.949 79.0508 68.949 79.1186 68.949 79.1864C68.949 79.1186 69.0168 79.0508 69.0168 78.983C69.0846 78.983 69.2202 78.983 69.3558 78.983C69.3558 79.0508 69.288 79.0508 69.288 79.0508C69.2202 79.1186 69.2202 79.1864 69.1524 79.2542C69.0846 79.322 69.2202 79.3898 69.2202 79.4576V79.5254C69.2202 79.5254 69.2202 79.5254 69.1524 79.5254C69.2202 79.5932 69.2202 79.5932 69.288 79.661C69.4914 79.5254 69.6948 79.3898 69.8304 79.1864C69.8982 79.2542 69.966 79.322 70.0338 79.3898C70.1016 79.4576 70.1016 79.5254 70.1016 79.5932L69.966 79.661C69.8982 79.661 69.8982 79.7288 69.8304 79.7288C69.7626 79.7966 69.6948 79.8644 69.627 79.9322C69.627 80.0678 69.6948 80.1356 69.6948 80.2712C69.6948 80.2712 69.6948 80.339 69.627 80.339C69.4914 80.339 69.4914 80.4746 69.4914 80.5424C69.4236 80.678 69.3558 80.7457 69.2202 80.6102C69.0846 80.5424 68.8812 80.6102 68.8812 80.7457C69.0168 80.8813 69.1524 81.0169 69.4236 81.0169C69.4914 80.9491 69.627 80.8813 69.6948 80.8135C69.7626 80.8135 69.7626 80.7457 69.7626 80.7457C69.8304 80.6779 69.966 80.6102 70.0338 80.5424C70.1016 80.4746 70.2372 80.4746 70.305 80.4068C70.3728 80.4068 70.3728 80.339 70.4406 80.339C70.4406 80.2712 70.4406 80.2034 70.3728 80.1356C70.4406 80.1356 70.5084 80.2034 70.5762 80.2034C70.644 80.1356 70.7118 80 70.7118 79.9322C70.644 79.8644 70.5084 79.8644 70.5084 79.8644C70.4406 79.7966 70.4406 79.7288 70.4406 79.661C70.4406 79.5932 70.4406 79.5254 70.5084 79.4576C70.5762 79.3898 70.644 79.3898 70.7118 79.322C70.7796 79.322 70.8473 79.322 70.8473 79.322C70.9829 79.322 70.9829 79.322 70.9829 79.4576C70.9829 79.5254 71.0507 79.5932 71.1185 79.5932L71.1863 79.661C71.2541 79.7966 71.4575 79.9322 71.5253 79.7966C71.6609 79.661 71.6609 79.661 71.7287 79.8644C71.7965 79.7966 71.8643 79.7288 71.9999 79.5932C72.0677 79.5932 72.1355 79.661 72.2033 79.661C72.2711 79.661 72.2711 79.661 72.3389 79.661C72.4745 79.661 72.6101 79.661 72.7457 79.661C72.7457 79.661 72.7457 79.661 72.7457 79.5932C72.6779 79.3898 72.7457 79.2542 72.8812 79.1186C72.949 79.0508 73.0846 78.983 73.1524 78.983L73.2202 79.0508C73.3558 79.1864 73.3558 79.322 73.2202 79.4576C73.1524 79.5254 73.1524 79.9322 73.2202 80H73.288C73.3558 80 73.3558 80.0678 73.3558 80.1356L73.288 80.2034C73.288 80.2034 73.2202 80.2034 73.2202 80.2712C73.1524 80.339 73.0846 80.339 72.949 80.4068C72.8812 80.4068 72.8134 80.4068 72.8134 80.4746C72.7457 80.6102 72.6101 80.6779 72.5423 80.7457C72.4745 80.7457 72.1355 80.5424 72.1355 80.4746C72.0677 80.4068 72.0677 80.2712 71.9321 80.2712C71.8643 80.2712 71.7965 80.2034 71.7287 80.1356C71.6609 80.0678 71.6609 80.0678 71.5253 80.1356C71.3897 80.2712 71.1863 80.2712 70.9829 80.2034C70.9151 80.339 70.7796 80.4068 70.7118 80.5424C70.644 80.6102 70.7118 80.7457 70.8473 80.8135C70.9829 80.8813 71.1863 81.0169 71.2541 81.1525C71.3219 81.2203 71.3897 81.2881 71.5253 81.3559C71.7287 81.4237 71.7965 81.6271 71.9321 81.8305C71.9999 81.8983 72.0677 81.9661 71.9999 82.1017C71.9321 82.1695 71.9321 82.2373 71.8643 82.2373C71.7287 82.3729 71.5931 82.5085 71.4575 82.5763C71.4575 82.6441 71.3897 82.6441 71.3897 82.7118C71.3897 82.8474 71.2541 82.983 71.1863 82.983C70.9829 82.983 70.9829 83.1186 70.8473 83.2542V83.322C70.9151 83.3898 70.9151 83.5254 70.9829 83.5932C71.0507 83.661 70.9829 83.7966 71.1185 83.8644C71.3219 83.9322 71.3219 84.0678 71.3897 84.2034C71.4575 84.2712 71.4575 84.4068 71.4575 84.5424C71.5253 84.6779 71.5931 84.8135 71.5931 85.0169C71.5931 85.0169 71.6609 85.0847 71.7287 85.0847C71.8643 85.0847 71.9999 85.1525 72.1355 85.1525C72.2033 85.1525 72.2711 85.2203 72.2711 85.2203L72.3389 85.2881C72.6779 85.4237 72.6779 85.4237 72.6101 85.7627C72.5423 85.7627 72.4745 85.6949 72.5423 85.8305C72.5423 85.8305 72.4745 85.9661 72.4745 86.0339C72.3389 86.1695 72.1355 86.3051 71.9999 86.5085C71.9321 86.5763 71.8643 86.7119 71.7965 86.8474C71.7287 86.9152 71.6609 86.9152 71.5931 86.983C71.5253 87.0508 71.4575 87.0508 71.3897 87.0508C71.2541 87.1864 71.1185 87.322 71.0507 87.5254C70.9829 87.5932 70.9829 87.7288 70.9151 87.7966C70.7795 87.9322 70.7795 87.9322 70.644 87.7966C70.644 87.7966 70.644 87.7966 70.5762 87.7288C70.5084 87.7288 70.4406 87.7966 70.3728 87.7966C70.2372 87.661 70.1016 87.7288 69.8982 87.7966C69.7626 87.7288 69.6948 87.5932 69.7626 87.3898C69.8304 87.1864 69.8304 86.9152 69.8304 86.7119C69.8304 86.5763 69.8304 86.5085 69.7626 86.3729C69.6948 86.2373 69.6948 86.2373 69.8982 86.1695C69.8304 86.1017 69.7626 85.9661 69.627 86.1017C69.5592 86.1017 69.4914 86.1017 69.4236 86.1017C69.4236 86.0339 69.4236 85.9661 69.4236 85.8983C69.288 85.7627 69.1524 85.8305 69.0168 85.8983C68.8812 85.8983 68.7456 85.8305 68.6101 85.7627C68.6101 85.8983 68.5423 85.9661 68.4745 86.0339V86.1017C68.4745 86.2373 68.4067 86.3051 68.2711 86.3051C68.2033 86.3051 68.2033 86.3051 68.2033 86.4407C68.2033 86.5085 68.2033 86.5763 68.2033 86.6441H68.1355C68.0677 86.5763 67.9999 86.4407 67.9321 86.3729C67.9321 86.3051 67.8643 86.3051 67.7965 86.3051C67.7287 86.3051 67.6609 86.3051 67.6609 86.4407C67.6609 86.4407 67.6609 86.5085 67.5931 86.5085C67.3897 86.5763 67.3897 86.8474 67.2541 86.983C67.2541 87.0508 67.1863 87.0508 67.1185 87.1186C67.1185 87.1864 67.1185 87.2542 67.0507 87.322C67.0507 87.3898 66.9829 87.4576 67.0507 87.5932C67.0507 87.661 67.1185 87.7966 66.9829 87.7966C66.9829 87.7966 66.9151 87.8644 66.9151 87.9322C66.9151 88 66.7118 88.0678 66.644 88.0678V88C66.644 87.9322 66.7118 87.9322 66.7118 87.8644C66.5762 87.8644 66.4406 88 66.4406 88.1356V88.2034C66.3728 88.2712 66.305 88.4068 66.2372 88.4746C66.305 88.6102 66.3728 88.7458 66.305 88.8813C66.2372 88.9491 66.1016 89.0847 66.0338 89.1525C65.7626 89.1525 65.5592 89.0847 65.288 89.0847C65.288 89.0169 65.288 88.9491 65.288 88.8813C65.0846 88.7458 65.0168 89.0169 64.8812 89.0169C64.8812 89.0169 64.8812 89.0169 64.8812 89.0847C64.8812 89.1525 64.949 89.1525 64.949 89.2203C65.0168 89.2881 65.0168 89.2881 65.0168 89.4237C65.0168 89.5593 65.0168 89.6949 65.0168 89.8983C65.0168 89.9661 65.0168 89.9661 64.949 90.0339H64.8812C64.8134 90.0339 64.8134 90.0339 64.7457 90.0339C64.7457 90.0339 64.7457 90.0339 64.7457 90.1017C64.8134 90.1017 64.8134 90.1017 64.8812 90.1017C64.8812 90.1017 64.8812 90.1695 64.949 90.1695C64.8812 90.1695 64.8812 90.1695 64.8134 90.2373C64.7457 90.3051 64.7457 90.3051 64.7457 90.3729C64.7457 90.5085 64.6101 90.6441 64.5423 90.7119C64.4745 90.7796 64.4067 90.8474 64.4067 90.9152C64.4067 90.983 64.3389 91.0508 64.4067 91.0508C64.4745 91.1186 64.5423 91.1864 64.6101 91.1186H64.6779C64.7457 91.1186 64.8134 91.1186 64.949 91.1186C64.949 91.1186 64.949 91.1186 64.949 91.1864C65.0168 91.1864 65.0168 91.1186 65.0846 91.1186C65.1524 91.1864 65.1524 91.2542 65.1524 91.3898C65.1524 91.3898 65.1524 91.4576 65.2202 91.4576C65.288 91.5254 65.288 91.5932 65.2202 91.5932C65.1524 91.5932 65.0846 91.661 65.0846 91.661C65.0846 91.7288 65.0168 91.7966 65.0846 91.8644C65.1524 92 65.2202 92.1356 65.0168 92.2034C65.0168 92.2034 65.0168 92.2712 65.0168 92.339C65.3558 92 65.4236 92.0678 65.3558 92.1356C65.4236 92.1356 65.3558 92.1356 65.3558 92.1356Z" fill="white"/>
<path d="M55.0731 81.681C55.1331 81.8008 55.193 81.9207 55.173 81.9606C55.1331 82.0405 54.5937 82.48 54.2541 82.6797C53.9545 82.8595 53.9145 82.9994 54.0144 83.3789C54.0544 83.5587 54.1143 83.6985 54.1543 83.7185C54.1942 83.7385 54.1942 83.7784 54.1543 83.8583C54.0544 84.0381 54.0744 84.8172 54.1742 85.0768L54.2741 85.2766L53.9945 85.5563C53.5949 85.9558 53.3552 86.3353 53.3552 86.595C53.3552 86.8347 53.515 87.0944 53.6948 87.1343C53.8546 87.1743 54.5338 86.7948 54.7136 86.575L54.8734 86.3753V86.5351C54.8734 86.6549 54.8135 86.7548 54.6736 86.8747C54.5538 86.9745 54.334 87.2342 54.1742 87.434L53.8946 87.8135L53.7947 87.6537C53.6748 87.4739 53.575 87.4539 53.515 87.6337C53.3952 87.9733 53.7148 88.6325 53.8946 88.4128C53.9345 88.3728 53.9545 88.3329 53.9545 88.3129C53.9545 88.193 54.1143 87.9733 54.1942 87.9733C54.3141 87.9733 54.8534 88.3728 54.8135 88.4328C54.7935 88.4527 54.8334 88.5127 54.9133 88.5526C55.0731 88.6325 55.2929 88.5326 55.3728 88.3129C55.3928 88.233 55.4327 87.8934 55.4327 87.5738C55.4327 87.2542 55.4527 86.9745 55.4727 86.9745C55.4926 86.9745 55.5925 87.0145 55.6724 87.0544C55.8921 87.1743 56.3516 87.1743 56.3915 87.0344C56.4315 86.9146 56.5314 86.1755 56.5114 86.1555C56.5114 86.1555 56.4115 86.2954 56.3116 86.4951C56.2118 86.6949 56.1119 86.8547 56.0719 86.8747C56.052 86.8946 55.9321 86.8347 55.8122 86.7548C55.6924 86.6749 55.5725 86.615 55.5326 86.615C55.4327 86.615 55.4327 86.3353 55.5126 85.9358C55.5725 85.6361 55.6924 85.4963 55.8922 85.4564C55.9521 85.4364 56.012 85.3964 56.012 85.3165C56.012 85.2167 55.9721 85.1967 55.8522 85.2167C55.6325 85.2366 55.4527 85.0768 55.4926 84.8971C55.5326 84.7372 55.3928 84.5375 55.2529 84.5375C55.0731 84.5375 55.1331 84.4176 55.3528 84.3577C55.6325 84.2778 56.0719 83.9981 56.1718 83.8383C56.2917 83.6386 55.7323 83.1392 55.4926 83.2391C55.3928 83.279 55.3928 83.279 55.4926 83.3989C55.6125 83.5187 55.5925 83.5187 55.2529 83.8583C55.0532 84.0381 54.8135 84.2578 54.7136 84.3177L54.5138 84.4576L54.5538 84.2778C54.5937 84.118 54.9333 83.7384 55.0532 83.7384C55.0931 83.7384 55.1131 83.6985 55.1131 83.6386C55.1131 83.5786 55.0731 83.5587 54.9932 83.5787C54.9333 83.5986 54.8734 83.5986 54.8734 83.5587C54.8734 83.4588 55.4926 82.8595 55.5925 82.8595C55.6924 82.8595 55.7723 82.6797 55.7124 82.6198C55.6125 82.5199 55.4127 82.5599 54.9932 82.7397C54.7535 82.8395 54.5338 82.9194 54.5138 82.9194C54.4938 82.9194 54.4739 82.8595 54.4739 82.7996C54.4739 82.5998 55.153 82.3601 55.4727 82.46C55.6924 82.5199 55.7523 82.5 55.7523 82.3202C55.7523 82.0805 55.2929 81.4812 55.0931 81.4812C54.9733 81.4812 55.0132 81.5611 55.0731 81.681ZM54.9333 85.5762C54.9133 85.796 54.8534 85.8958 54.6337 86.0956C54.3141 86.3952 53.8746 86.6949 53.7348 86.6949C53.6549 86.6949 53.6349 86.6749 53.6748 86.5551C53.7148 86.4152 53.7947 86.3153 54.1343 85.9558C54.374 85.7161 54.9133 85.2566 54.9533 85.2766C54.9733 85.2766 54.9533 85.4164 54.9333 85.5762ZM54.8734 87.454C54.9133 87.9534 54.9133 87.9733 54.7935 87.9733C54.5737 87.9733 54.2142 87.8335 54.2142 87.7536C54.2142 87.6337 54.7735 86.8946 54.8135 86.9346C54.8334 86.9346 54.8534 87.1743 54.8734 87.454Z" fill="#1479FF"/>
<path d="M57.3304 83.5786C57.2704 83.6585 57.2505 83.7385 57.2704 83.7584C57.3104 83.7984 57.2904 83.9182 57.2105 84.118C56.9308 84.8571 56.7511 85.8359 56.7311 86.7348C56.7111 87.2741 56.7311 87.394 56.811 87.5938C57.0107 87.9933 57.2704 87.7935 57.2305 87.2742C57.2105 87.1144 57.2704 86.9745 57.4502 86.7148C57.7099 86.3153 57.7698 86.2754 58.0095 86.2154C58.1893 86.1755 58.1893 86.1955 58.2692 86.4552C58.3491 86.7548 58.2892 87.4939 58.1094 88.193C58.0295 88.5326 58.0095 88.5526 57.7898 88.6325C57.63 88.6724 57.5101 88.6724 57.3703 88.6325C57.1705 88.5726 57.1705 88.5726 57.1905 88.7124C57.2105 88.7923 57.2704 88.9122 57.3304 88.9521C57.3903 89.0121 57.4302 89.072 57.4103 89.072C57.3903 89.092 57.7299 89.2517 57.8098 89.2318C57.8297 89.2318 57.8497 89.2518 57.8497 89.2717C57.8497 89.3916 58.2093 89.2518 58.3891 89.0919C58.5489 88.9521 58.6088 88.8323 58.6488 88.5926C58.7686 87.9733 58.7087 86.2953 58.5489 86.0157C58.5089 85.9358 58.5289 85.8759 58.7087 85.756C58.8285 85.6561 58.9883 85.5762 59.0682 85.5562C59.3279 85.4963 59.3679 85.4763 59.3279 85.3964C59.248 85.1967 58.4889 85.2366 58.0295 85.4564C57.8098 85.5762 57.3903 85.9957 57.1705 86.2953C57.0906 86.4152 57.0107 86.5151 56.9708 86.5151C56.9109 86.5151 56.9508 85.9757 57.0507 85.5962C57.0906 85.4164 57.1106 85.2566 57.1106 85.2366C57.0906 85.2166 57.1106 85.1967 57.1306 85.1967C57.1506 85.1967 57.2105 85.1368 57.2505 85.0569C57.3104 84.937 57.5501 84.6373 57.8897 84.2378C58.1494 83.9582 58.0894 83.7984 57.7099 83.5986C57.5501 83.5187 57.4302 83.4588 57.4103 83.4588C57.4302 83.4388 57.3903 83.4987 57.3304 83.5786Z" fill="#1479FF"/>
<path d="M61.9659 83.7966C62.1015 83.5254 62.2371 83.1864 62.4405 82.983C62.4405 83.0508 62.5083 83.1186 62.5083 83.1864C62.5083 83.322 62.5083 83.3898 62.4405 83.5254C62.3727 83.8644 62.3727 84.1356 62.2371 84.4068C62.1693 84.5424 62.1015 84.6779 62.1015 84.7457C61.9659 84.9491 61.8303 85.0847 61.7625 85.2881C61.6947 85.4237 61.5591 85.5593 61.4913 85.7627C61.4235 85.7627 61.4235 85.7627 61.3557 85.7627C61.2879 85.8983 61.2201 85.9661 61.2201 86.1695C61.2879 86.3729 61.4235 86.5085 61.4913 86.7796C61.5591 86.983 61.5591 87.1864 61.6269 87.3898C61.6947 87.3898 61.6947 87.322 61.7625 87.322C61.8303 87.1864 61.8981 87.0508 61.9659 86.9152C62.0337 86.9152 62.1015 86.9152 62.1693 86.9152C62.1015 87.1864 62.0337 87.3898 61.9659 87.661C61.9659 87.7966 61.8981 87.9322 61.8981 88.0678C61.8981 88.2034 61.7625 88.2034 61.6947 88.2034C61.6269 88.2034 61.5591 88.2712 61.4913 88.1356C61.3557 88 61.3557 87.7288 61.2879 87.5254C61.2879 87.1186 61.288 86.644 61.1524 86.2373C61.0168 86.3051 60.9489 86.3729 60.8812 86.5084C60.6778 86.8474 60.4066 87.1864 60.2032 87.5254C60.1354 87.661 59.9998 87.7966 59.8642 87.8644C59.7964 87.9322 59.6608 88.0678 59.593 88.1356C59.593 88 59.593 87.8644 59.593 87.7288C59.6608 87.5932 59.7286 87.5254 59.7964 87.4576C60.1354 86.983 60.4066 86.4407 60.7456 85.8983C61.1524 85.2881 61.5591 84.5424 61.9659 83.7966Z" fill="#1479FF"/>
<path d="M63.5253 83.5254C63.5931 83.4576 63.5931 83.3898 63.6609 83.3898C63.7965 83.3898 63.9321 83.4576 63.9999 83.5254C64.0677 83.5254 64.0677 83.5932 64.0677 83.661C64.0677 83.9999 64.0677 84.3389 64.0677 84.6101C64.1355 84.5423 64.2711 84.5423 64.3389 84.4745C64.5423 84.3389 64.8135 84.2711 65.0169 84.0677C65.1524 83.9321 65.0847 83.7966 65.1525 83.661C65.4914 83.7966 65.8304 84.0677 65.7626 84.4745C65.7626 84.5423 65.7626 84.6779 65.7626 84.7457C65.5592 85.0169 65.1525 84.8813 64.8813 84.8813C64.8813 84.8135 64.8135 84.7457 64.8135 84.7457C64.5423 84.8135 64.2711 84.9491 63.9999 85.0169C63.9999 85.3559 63.9999 85.6271 64.0677 85.966C64.1355 86.2372 64.2711 86.4406 64.5423 86.4406C64.8135 86.4406 65.1524 86.4406 65.4236 86.5084C65.6948 86.5084 65.966 86.305 66.305 86.305C66.4406 86.305 66.5084 86.4406 66.5762 86.5762C66.644 86.644 66.644 86.7796 66.5762 86.8474C66.3728 86.9152 66.1694 86.983 65.966 86.983C65.627 86.983 65.288 87.1186 64.9491 87.1864C64.7457 87.2542 64.5423 87.322 64.2711 87.3898C64.1355 87.4576 63.9321 87.5932 63.7965 87.661C63.5931 87.7965 63.3898 87.8643 63.1864 87.9321C63.0508 87.9999 62.9152 88.0677 62.7796 88.1355C62.8474 88.0677 62.983 87.9321 63.0508 87.9321C63.3219 87.7965 63.5253 87.661 63.7965 87.5932C63.8643 87.5254 63.9321 87.5254 63.9321 87.4576C64.1355 87.322 64.4745 87.2542 64.6779 87.0508C64.5423 86.9152 64.3389 86.983 64.2033 86.7796C64.0677 86.5762 63.8643 86.4406 63.7965 86.2372C63.6609 85.8982 63.7287 85.5593 63.6609 85.2203C63.6609 85.1525 63.5931 85.1525 63.5253 85.1525C63.2542 85.2203 62.983 85.4237 62.644 85.3559C62.5762 85.3559 62.5084 85.2881 62.5762 85.2203C62.644 85.0169 62.7118 84.8135 62.7796 84.6101C63.0508 84.1355 63.322 83.8643 63.5253 83.5254ZM63.5931 83.9321C63.4575 84.0677 63.2542 84.2033 63.1864 84.3389C63.1186 84.4745 62.983 84.6101 62.983 84.8135C62.983 84.8135 63.0508 84.8135 63.0508 84.8813C63.0508 84.9491 63.0508 85.0169 63.0508 85.1525C63.3219 85.1525 63.5253 85.0169 63.7965 84.8813C63.7965 84.5423 63.7965 84.2033 63.7965 83.9321C63.6609 83.8643 63.5931 83.8643 63.5931 83.9321Z" fill="#1479FF"/>
</svg>
