<svg xmlns="http://www.w3.org/2000/svg" width="40" height="360" viewBox="0 0 40 360"><path fill="#EC6F8F" d="M35.962 110.01c-.727-2.74-4.75-4.558-6.587-5.254.529-.512 1.219-1.245 1.578-1.891.152-.274.179-.589.076-.91-.192-.597-.834-1.226-2.014-1.979a24.081 24.081 0 0 0-2.587-1.403c-.654-.306-1.437-.975-2.097-1.791-.634-.786-1.053-1.593-1.09-2.103-.045-.645.229-1.248.459-1.633.66.507 1.599 1.186 2.014 1.304.73.205 1.257-.228 1.357-.319 2.212-1.948 2.88-4.274 3.052-5.884.194-1.822-.164-3.492-.603-4.335-.415-.796-1.174-1.516-1.374-1.699-.281-.37-1.829-2.205-4.947-2.115-1.596.046-3.163.715-4.415 1.882-1.177 1.094-1.997 2.534-2.309 4.051-.519 2.504-1.029 2.777-3.486 4.079l-.066.035c-1.071.569-3.3 1.751-5.237 3.299-2.311 1.849-3.648 3.765-3.979 5.692-.454 2.644.093 5.248 1.747 7.41 1.284 1.678 1.882 2.027 2.583 2.556 1.084.822 2.727 1.61 4.051 2.208 0 0-.009-1.856.11-1.734 1.74 1.774 4.016 3.931 4.868 4.732-.62 1.247-1.15 2.328-1.352 3.349-.186.951-.114 1.613.22 2.022a.954.954 0 0 0 .705.366h13.744l.1-.041c2.917-1.15 4.647-2.454 5.441-4.1.709-1.467.722-3.2.038-5.794zm-18.375 3.139c-2.51-2.37-6.204-5.978-6.538-6.631-.527-1.034-.688-1.828.048-2.827.47-.64 1.915-2.368 3.613-4.278.131.87.573 1.828 1.105 2.734-.23.216-.673.642-1.12 1.125-1.24 1.34-1.398 1.916-1.398 2.265 0 .796.781 1.571 1.613 2.393.356.353.693.686.899.961.649.87 2.197 2.815 2.351 3.008-.182.431-.375.845-.573 1.25zm1.331-3.134c-.081.195-.173.421-.276.681a126.708 126.708 0 0 1-1.931-2.478c-.257-.343-.623-.706-1.01-1.088-.477-.472-1.271-1.258-1.278-1.588.039-.321.871-1.331 1.877-2.305.636.807 1.925 2.514 2.568 3.911.65 1.409.615 1.492.05 2.867zm-.441-14.645c.102-.105.386-.382.428-.422.176-.168 1.138-1.08 1.489-1.537.344-.446.865-1.144 1.215-1.783.412-.75 1.143-1.676 1.555-5.742.032-.315.185-1.219.9-1.542-.089.341-.127.739.119 1.073.216.293.465.356.641.357h.006c.272 0 .527-.148.743-.429.571-.746 1.778-1.09 2.547-.944.249.048.433.138.551.268.236.65.495 1.857.337 3.357a7.868 7.868 0 0 1-2.681 5.159l-.014.015c-.003 0-.132.106-.287.063-.247-.081-1.282-.823-2.093-1.465l-.416-.331-.353.397c-.047.055-1.153 1.326-1.042 2.892.108 1.52 1.886 3.672 3.404 4.603-1.305-.258-3.066-.451-3.926-.903-1.689-.889-2.742-2.445-3.123-3.086z"/><path fill="#68A0D7" d="M19.918 11.838l.001.026v11.778a.86.86 0 0 1-.857.861h-1.34a.86.86 0 0 1-.86-.861v-9.267h-.935v24.719a.86.86 0 0 1-.858.86h-2.573a.861.861 0 0 1-.859-.86V25.096H10.7v14a.86.86 0 0 1-.859.858H7.27a.86.86 0 0 1-.858-.858V14.375h-.944v9.267a.861.861 0 0 1-.859.861H3.271a.86.86 0 0 1-.859-.861V11.866c0-.01 0 .627.001.617l-.001-.705A3.838 3.838 0 0 1 6.25 7.935h2.074c.788 0 1.575.549 2.84.549 1.239 0 2.168-.549 2.838-.549H16.082c2.121 0 3.839 2.365 3.839 4.488-.001.022-.002-.605-.003-.585zM11.167 7.95a3.973 3.973 0 0 0 3.971-3.976 3.972 3.972 0 1 0-7.942 0 3.972 3.972 0 0 0 3.971 3.976zM37.58 18.358v9.083a.662.662 0 0 1-.661.664h-1.03a.662.662 0 0 1-.66-.664v-7.128h-.721v19.02a.66.66 0 0 1-.661.66h-1.98a.66.66 0 0 1-.661-.66V28.558h-.721v10.773a.66.66 0 0 1-.66.66h-1.98a.66.66 0 0 1-.658-.66V20.31h-.729v7.13a.663.663 0 0 1-.659.664h-1.032a.66.66 0 0 1-.659-.664v-9.063c0-.007.001.484.003.476a49.554 49.554 0 0 1-.003-.543 2.957 2.957 0 0 1 2.955-2.958h1.595c.606 0 1.209.424 2.184.424.953 0 1.671-.424 2.183-.424H34.629c1.631 0 2.953 1.819 2.953 3.456-.002.016-.002-.467-.002-.45zm-6.737-2.995a3.054 3.054 0 0 0 3.054-3.057 3.056 3.056 0 0 0-3.054-3.061 3.058 3.058 0 0 0-3.055 3.061 3.053 3.053 0 0 0 3.055 3.057z"/><path fill="#2EA759" d="M28.424 56.83c-1.792-1.794-2.22-2.649-2.22-4.445 0-.599-.938-1.111-.938-1.195v-.087h-14.09c0-.854.085-2.05.085-3.247 0-.769.084-1.625.084-2.394.172-1.026.172-1.965.257-2.905h13.235c-.173.853-.429 1.367-.597 2.135-.171.599-.258 1.112-.427 1.625l-.256 1.283c-.171.683.342 1.367 1.024 1.538.684.171 1.366-.342 1.537-1.026 0-.426.086-.855.257-1.281.084-.514.257-1.026.341-1.625.259-.854.514-1.794.684-2.649.085-.342.171-.6.255-.856 0-.169.087-.169.087-.169.257-.856-.342-1.54-1.195-1.54H10.409c-.682 0-1.194.428-1.28 1.111v.256c0 .256 0 .514-.085.856-.085.939-.085 1.965-.172 2.99-.084.857-.084 1.625-.084 2.395-.086 1.965-.172 3.503-.172 4.701 0 1.367 0 2.052.256 6.753.085 1.026.085 1.794.172 2.564.085 1.794.17 3.332.17 4.701 0 .171 0 .342.085.514-.085.169-.171.254-.171.426a49.505 49.505 0 0 0-.172 10c0 .427.086.855.086 1.196 0 .256.084.342.084.429a1.295 1.295 0 0 0 1.281 1.111h12.637c.769 0 1.365-.684 1.28-1.367v-.77c.085-2.307.939-4.358 2.903-5.556 2.646-1.625 4.186-4.701 4.186-9.573.002-2.309-.769-3.676-2.989-5.899zm-6.659 20.771H11.604v-.427c-.257-2.907-.257-6.241.171-9.488 0-.172 0-.343-.085-.512 3.927 0 6.916 1.282 9.564 3.503.427.343 1.281 1.197 2.133 1.967-1.024 1.453-1.452 3.163-1.622 4.957zm-10.161-10.6c0 .085 0 0 0 0zm14.259 3.249a4.745 4.745 0 0 0-.769.598 39.538 39.538 0 0 0-2.22-2.05c-3.073-2.651-6.573-4.103-11.186-4.189 0-.941-.085-1.881-.085-2.991 0-.77-.084-1.454-.17-2.478-.171-3.25-.258-4.616-.258-5.471H23.56c.255 1.709 1.109 3.163 2.986 5.042 1.793 1.795 2.307 2.565 2.307 4.273 0 4.017-1.112 6.155-2.99 7.266z"/><path fill="#46B9AA" d="M28.667 266.379c-1.184 5.793-5.146 9.93-11.649 9.93-6.966 0-11.239-4.739-11.483-11.287-.244-6.535 6.623-15.438 11.356-20.216 1.539 1.532 2.954 3.26 4.712 5.493.41-.716 1.372-2.404 1.839-3.021a86.859 86.859 0 0 0-6.424-7.18c-5.597 5.669-14.906 16.665-14.906 24.887s6.674 14.883 14.906 14.883c7.818 0 14.229-6.013 14.852-13.658-1.509.447-4.341.003-3.203.169zm1.216-24.535c-3.013 3.01-8.026 10.32-8.026 14.687 0 4.367 3.593 7.909 8.026 7.909 4.436 0 8.026-3.542 8.026-7.909s-4.889-11.601-8.026-14.687zm-13.733 28.19h1.404c.775 0 1.404-.629 1.404-1.408v-2.104h2.246c.776 0 1.404-.629 1.404-1.407v-1.403c0-.774-.628-1.403-1.404-1.403h-2.246v-2.108c0-.775-.628-1.406-1.404-1.406H16.15c-.775 0-1.404.631-1.404 1.406v2.108h-1.965c-.776 0-1.405.629-1.405 1.403v1.403c0 .778.63 1.407 1.405 1.407h1.965v2.104a1.406 1.406 0 0 0 1.404 1.408z"/><path fill="#EC6F8F" d="M3.249 123.242l1.426.816a.66.66 0 0 0 .343.091.689.689 0 0 0 .609-.36.715.715 0 0 0-.267-.966l-1.423-.815a.695.695 0 0 0-.955.27.714.714 0 0 0 .267.964zm33.111 30.187a.605.605 0 0 0 .346.78l2.05.788c.066.03.14.043.21.043a.617.617 0 0 0 .564-.395.605.605 0 0 0-.346-.781l-2.05-.787a.594.594 0 0 0-.774.352zM3.936 126.328a.703.703 0 0 0 .652-.447.706.706 0 0 0-.391-.921l-3.187-1.276a.694.694 0 0 0-.911.397.707.707 0 0 0 .393.921l3.185 1.277a.703.703 0 0 0 .259.049zm35.753 30.611l-3.352-1.967a.593.593 0 0 0-.82.218.61.61 0 0 0 .215.832l3.355 1.967c.097.061.2.086.3.086a.606.606 0 0 0 .518-.306.606.606 0 0 0-.216-.83zm-4.646-28.287c-1.928-1.708-4.535-2.646-7.347-2.646-2.981 0-5.679 1.06-7.368 2.823-1.698-1.772-4.425-2.843-7.403-2.843-2.803 0-5.399.948-7.322 2.656-2.245 2.007-3.433 4.962-3.433 8.537 0 3.799 3.006 8.311 8.944 13.386 4.313 3.686 8.564 6.286 8.739 6.398a.99.99 0 0 0 .482.133c.169 0 .334-.048.484-.123.176-.113 4.424-2.714 8.74-6.408 5.938-5.083 8.946-9.597 8.946-13.405.002-3.564-1.197-6.501-3.462-8.508zm-2.087 6.569a.697.697 0 0 1-.379.103.93.93 0 0 1-.844-.554c-1.429-3.181-4-2.908-4.345-2.759a.929.929 0 0 1-1.235-.459.952.952 0 0 1 .456-1.249c.643-.299 1.939-.394 3.249.095 1.067.403 2.56 1.351 3.563 3.583a.943.943 0 0 1-.465 1.24z"/><path fill="#EB625A" d="M37.218 161.876a2.79 2.79 0 0 0-2.786 2.792c0 7.957-6.467 14.429-14.415 14.429-7.949 0-14.416-6.472-14.416-14.429a2.791 2.791 0 0 0-2.788-2.792 2.789 2.789 0 0 0-2.785 2.792c0 9.068 6.057 16.748 14.335 19.194v8.605a5.654 5.654 0 1 0 11.307 0v-8.606c8.275-2.445 14.334-10.125 14.334-19.193a2.79 2.79 0 0 0-2.786-2.792zm-17.201 11.811a5.408 5.408 0 0 0 5.405-5.413 5.408 5.408 0 0 0-5.405-5.411 5.408 5.408 0 0 0-5.405 5.411 5.407 5.407 0 0 0 5.405 5.413z"/><path fill="#2CA659" d="M20.022 200.202c-10.954 0-19.829 8.887-19.829 19.85s8.875 19.852 19.829 19.852 19.83-8.889 19.83-19.852-8.875-19.85-19.83-19.85zm-8.096 15.503a.987.987 0 0 1 .337-1.372l1.322-.801-1.99-1.177a.95.95 0 0 1-.142-.747.932.932 0 0 1 .455-.609.977.977 0 0 1 1.369.334l2.499 2.021a.987.987 0 0 1-.337 1.372l-2.162 1.311a.989.989 0 0 1-.745.122.972.972 0 0 1-.606-.454zm15.701 13.184a.712.712 0 0 1-.975-.233c-.388-.63-2.232-1.129-3.182-.859-.206.059-.536.225-.884.403-.857.434-2.078 1.057-3.407 1.057a3.913 3.913 0 0 1-2.273-.718c-1.848-1.283-3.412-.145-3.479-.093a.71.71 0 0 1-.99-.138.705.705 0 0 1 .13-.987c.83-.64 2.973-1.453 5.147.051 1.426.991 2.979.198 4.224-.435.433-.22.807-.41 1.146-.506 1.451-.407 3.988.206 4.772 1.481a.708.708 0 0 1-.229.977zm.332-14.895a.998.998 0 0 1 .552.529c.104.245.105.52.005.769a.972.972 0 0 1-.518.55 1.022 1.022 0 0 1-.76.001l-2.348-.935a.983.983 0 0 1-.561-1.297l2.369-1.988a.984.984 0 0 1 1.294-.561.954.954 0 0 1 .55.527c.1.244.095.519-.015.759l-2.274 1.407 1.706.239z"/><path fill="#68A0D7" d="M29.099 301.986l-2.667-9.95-6.37 19.139c-.15.456-.555.745-1.032.745-.356 0-.808-.18-1.011-.682l-4.85-11.984-1.325 2.906a1.095 1.095 0 0 1-.994.638H3.89l15.9 14.283c.077.07.155.101.236.101s.157-.03.233-.098l15.91-14.289h-6.017c-.492 0-.923-.332-1.053-.809zm7.611-15.842a11.126 11.126 0 0 0-7.929-3.29 11.126 11.126 0 0 0-7.929 3.29l-.32.322a.718.718 0 0 1-.505.206.713.713 0 0 1-.506-.206l-.322-.322c-2.119-2.123-4.934-3.29-7.928-3.29s-5.81 1.167-7.928 3.29a11.15 11.15 0 0 0-3.284 7.935c0 2.607.864 5.052 2.5 7.064l.05.06h7.537l2.085-4.573c.18-.396.56-.642.993-.642.354 0 .808.18 1.012.686l4.689 11.589 6.589-19.768a1.068 1.068 0 0 1 1.035-.748c.388 0 .895.213 1.054.808l3.39 12.648h6.45l.05-.06a11.085 11.085 0 0 0 2.499-7.064c0-2.997-1.166-5.817-3.282-7.935z"/><path fill="#EC6F8F" d="M37.341 335.842c3.05 2.115 3.488 6.871.96 9.422-.306.31-.415.227-.614-.097-1.014-1.655-2.472-2.671-4.385-2.979-.309-.05-.744-.213-.804.289-.054.456.372.406.667.442 2.336.299 4.342 2.341 4.697 4.772.386 2.657-.874 5.211-3.092 6.229-.183-.187-.066-.42-.066-.622-.021-1.819-.798-3.279-2.087-4.497-.202-.188-.436-.382-.681-.086-.213.256-.017.453.176.622 3.083 2.771 2.279 7.272-1.744 9.151-2.808 1.308-6.476.706-8.56-1.426-.949-.965-1.463-2.115-1.454-3.496.017-1.975.017-3.947-.006-5.922-.004-.467.122-.563.574-.474 1.558.29 2.701 1.424 3.082 3.061.071.31-.066.944.53.791.489-.13.241-.651.168-.987-.421-1.989-1.899-3.336-3.968-3.614-.279-.037-.38-.113-.38-.403a816.15 816.15 0 0 0 0-6.259c-.006-.459.225-.3.461-.243 1.74.426 3.304.116 4.646-1.124.1-.09.192-.189.277-.289.168-.189.226-.399.025-.592-.227-.217-.412-.077-.571.1-.704.784-1.588 1.211-2.618 1.33-.154.021-.31.03-.468.023-1.578-.033-1.763-.224-1.763-1.775 0-2.99-.03-5.971.01-8.957.067-4.649 4.827-7.861 9.128-6.202 2.705 1.044 3.911 3.771 3.987 6.086.017.605-.309.373-.601.282-2.952-.884-6.03.233-7.654 2.777a6.148 6.148 0 0 0-.968 3.834c.013.181.049.36.095.533.053.205.205.282.405.245.176-.029.276-.143.279-.322.005-.136-.013-.266-.021-.401-.226-3.064 1.972-5.805 4.941-6.16 3.298-.392 6.021 1.557 6.59 4.683.312 1.706-.04 3.242-.989 4.666-.16.236-.438.495-.1.745.378.276.544-.119.717-.353.624-.815.949-1.762 1.179-2.803zM7.089 349.021c.229-.229.499-.694.868-.329.397.396-.132.619-.352.838-2.137 2.152-2.224 5.194-.187 7.42 2.722 2.983 8.246 2.924 10.905-.116.727-.835 1.235-1.779 1.238-2.906.023-4.823.008-9.648.027-14.468 0-.502-.211-.502-.569-.382-.987.318-1.633.964-1.871 1.999-.068.285-.119.625-.533.505-.364-.11-.266-.422-.193-.678.372-1.374 1.225-2.275 2.62-2.562.443-.09.556-.263.556-.698a541.255 541.255 0 0 1 0-8.548c.013-1.618-.489-3.039-1.462-4.299-1.776-2.299-4.775-3.098-7.427-1.982-2.668 1.121-4.161 3.724-3.821 6.645.311 2.634 2.607 4.865 5.399 5.291.314.05.938-.116.852.466-.08.578-.668.315-1 .253-3.004-.556-5.022-2.271-5.851-5.271-.166-.605-.342-.466-.67-.203-1.82 1.467-2.568 3.373-2.263 5.703.125.951.493 1.803 1.041 2.595.161.232.425.492.066.735-.354.235-.506-.123-.67-.337a4.683 4.683 0 0 1-.333-.505c-.43-.715-.66-1.51-.861-2.321-2.911 1.885-3.623 6.588-.889 9.451.364.383.421-.003.548-.199 1.066-1.687 2.583-2.678 4.547-2.977.264-.04.579-.083.646.279.07.376-.23.426-.504.473-2.949.528-4.73 2.518-4.944 5.548-.162 2.228 1.256 4.662 3.264 5.497-.171-1.977.497-3.579 1.823-4.917zm19.264-1.552c-.239.14-.598.229-.406.618.187.38.485.187.741.05 2.066-1.094 3.269-3.745 2.729-6.036-.059-.256-.098-.582-.476-.516-.376.07-.321.38-.251.643.085.329.095.658.105 1.004-.065 1.842-.813 3.295-2.442 4.237zm-14.883.103c.177.235.378.528.701.289.3-.223.072-.466-.082-.686-1.604-2.317-1.604-4.839 0-7.127.154-.219.396-.456.095-.691-.319-.246-.525.029-.705.269-.864 1.172-1.318 2.475-1.3 3.872-.027 1.553.412 2.887 1.291 4.074z"/></svg>