<svg xmlns="http://www.w3.org/2000/svg" width="27" height="304" viewBox="0 0 27 304"><path fill-rule="evenodd" clip-rule="evenodd" fill="#FFF" d="M25.651 60.565h-5.427c-.489 0-.938-.273-1.093-.751l-.872-2.484-2.839 8.044c-.156.5-.601.843-1.115.843h-.048a1.152 1.152 0 0 1-1.092-.912L9.457 54.003 7.2 59.723a1.15 1.15 0 0 1-1.117.865H1.348a1.165 1.165 0 0 1-1.162-1.186c0-.659.513-1.184 1.162-1.184h3.82l3.216-9.568c.136-.525.604-.868 1.14-.868s1.003.387 1.116.912l3.82 11.69 2.592-7.245a1.174 1.174 0 0 1 1.074-.867c.49-.023.954.295 1.115.776l1.785 5.148h4.625c.65 0 1.162.524 1.162 1.185.002.313-.119.618-.338.84a1.141 1.141 0 0 1-.824.344zM23.061 93.487c-1.372-2.023-3.359-4.071-4.079-4.245-.72-.175-1.33.056-2.16 1.051-.863 1.034-1.441 4.1-1.736 3.942-.405-.219-.839-1.615-.839-2.439 0-.393.033-6.56.041-7.699.011-1.138 1.038-2.592.886-2.684-.227-.133-.925-1.058-1.196-.884-.275.172-.602.787-.602.787s-.442-.865-.568-.865c-.128 0-.646.296-.646 1.085 0 .787.524 1.56.593 2.407.071.832.121 6.792.022 8.268-.098 1.415-.371 2.316-.84 1.487-.404-.709-1.187-4.036-3.034-4.675-1.12-.388-2.427 1.027-3.601 2.714-2.435 3.499-4.276 9.33-4.698 11.209-.506 2.244-.637 4.378.337 5.604s2.499.612 4.616-.438c2.117-1.052 4.448-.481 5.972-1.401s.577-4.494 1.102-5.517c1.166-2.29.35-3.717.337-4.649-.008-.578.135-1.221.568-1.13.431.09.911.627.733 1.13-.798 2.262-.199 3.598.182 4.736.38 1.139-.088 4.028.848 5.342.932 1.311 3.513 1.182 5.211 1.532 1.691.351 3.13 1.39 4.698 1.39 1.564 0 1.578-1.423 1.578-3.967-.001-3.479-1.312-8.531-3.725-12.091zM8.453 90.48c.967 0 2.974 5.137 3.058 6.072.064.698.601 1.665.319 2.524-.092.28-.198.674-.294 1.107a.683.683 0 0 0-.174.037v-.002c-.507.181-1.494.24-2.013-.022a2.146 2.146 0 0 1-1.062-1.237 3.59 3.59 0 0 0-1.788-2.084c-.655-.328-1.471-.403-2.191-.296 1.499-3.287 3.263-6.099 4.145-6.099zm2.353 14.888c-.641.623-2.223.283-3.765.766-1.526.485-3.653 1.802-4.612 1.491-.958-.311-.775-1.72-.696-2.882.115-1.673.891-4.167 1.895-6.604a.683.683 0 0 0 .45.016v.002c.507-.182 1.272-.206 1.791.056a2.15 2.15 0 0 1 1.061 1.238 3.596 3.596 0 0 0 1.79 2.083c.69.348 1.701.392 2.511.247a7.522 7.522 0 0 0-.086.822c-.02.74.301 2.141-.339 2.765zm4.592-7.513c.321-.971 2.259-7.24 3.105-7.24 1.053 0 3.885 4.291 4.649 5.917.01.02.019.04.026.061-.741-.127-1.596-.059-2.274.282a3.593 3.593 0 0 0-1.786 2.084 2.155 2.155 0 0 1-1.063 1.237c-.52.263-1.507.204-2.013.022l-.003.002a.701.701 0 0 0-.488.006c-.224-.729-.407-1.602-.153-2.371zm9.544 10.14c-.49.332-1.979-.72-3.711-1.168-1.728-.449-3.857-.155-4.646-1.052-.652-.735-.473-2.667-.633-4.037.84.197 1.979.177 2.733-.202a3.615 3.615 0 0 0 1.791-2.083 2.126 2.126 0 0 1 1.063-1.238c.518-.261 1.279-.238 1.789-.056v-.002c.139.042.288.04.435-.01.699 2.035 1.666 5.313 1.666 6.911 0 1.186 0 2.606-.487 2.937zM14.658 119.937c-.643-.881-1.701-.884-2.341 0 0 0-8.705 11.397-8.705 16.872 0 5.477 4.421 9.915 9.875 9.915 5.457 0 9.878-4.438 9.878-9.915 0-5.473-8.707-16.872-8.707-16.872zm-1.171 24.805c-4.362 0-7.898-3.552-7.898-7.933 0-1.303.755-3.446 2.129-6.08a56.796 56.796 0 0 1 1.927-3.366 82.59 82.59 0 0 1 2.925-4.413 87.6 87.6 0 0 1 .917-1.278 83.896 83.896 0 0 1 3.846 5.69c.68 1.1 1.322 2.222 1.923 3.366 1.377 2.634 2.132 4.777 2.132 6.08 0 4.382-3.534 7.934-7.901 7.934zm-4.382-6.989c-.263-.707-.159-1.8.291-3.159.276-.832.672-1.729 1.155-2.658a29.162 29.162 0 0 1 1.634-2.735.997.997 0 0 0-.239-1.384.986.986 0 0 0-1.377.241 31.124 31.124 0 0 0-1.77 2.959 20.75 20.75 0 0 0-1.276 2.949c-.58 1.75-.722 3.257-.268 4.48a.99.99 0 0 0 1.26.545.987.987 0 0 0 .59-1.238zm2.613 3.515a2.249 2.249 0 0 1-.885-.457 1.703 1.703 0 0 1-.404-.466.986.986 0 0 0-1.318-.464.996.996 0 0 0-.463 1.325c.151.314.442.723.911 1.12a4.207 4.207 0 0 0 1.645.857.988.988 0 0 0 1.236-1.213 1 1 0 0 0-.722-.702zM24.308 157.817H2.725a2.485 2.485 0 0 0-2.479 2.484v21.586a2.48 2.48 0 0 0 2.479 2.481h21.583a2.482 2.482 0 0 0 2.481-2.481v-21.586a2.486 2.486 0 0 0-2.481-2.484zm.82 24.071a.826.826 0 0 1-.82.827H2.725a.828.828 0 0 1-.822-.827v-21.586c0-.455.372-.825.822-.825h21.583c.452 0 .82.37.82.825v21.586zm-11.608-20.75c-5.499 0-9.957 4.457-9.957 9.958a.829.829 0 0 0 1.66 0 8.296 8.296 0 0 1 8.297-8.298 8.295 8.295 0 0 1 8.295 8.298c0 .457.372.828.824.828a.832.832 0 0 0 .836-.828c0-5.501-4.457-9.958-9.955-9.958zm0 9.958a2.48 2.48 0 0 0-1.283.357l-3.574-3.064a.835.835 0 0 0-1.169.089.835.835 0 0 0 .093 1.173l3.605 3.094a2.464 2.464 0 0 0 2.328 3.277 2.463 2.463 0 1 0 0-4.926zM25.148 217.707c-2.288-1.995-11.63-10.534-14.276-13.229-4.077-4.051-4.077-4.051-6.183-6.099-1.53-1.483-4.213-4.269-3.985-.729.063.967.327 1.908.768 2.772 4.97 9.767 11.673 9.827 11.673 9.827 3.846 4.121 5.171 7.853 10.001 10.743 2.641 1.192 3.33.315 3.209-.978a3.51 3.51 0 0 0-1.207-2.307zm1.367-18.083l-5.929 5.247-.036-.008a.337.337 0 0 1-.242-.229l5.368-6.405c.105-.135-.071-.31-.202-.196l-6.3 5.653h-.006a.342.342 0 0 1-.264-.237l-.002-.012 5.522-6.454c.11-.126-.057-.306-.194-.201l-6.345 5.224c-.023.018-.056.016-.092 0a.238.238 0 0 1-.123-.182l-.01-.084 5.035-5.567c.113-.128-.056-.313-.19-.209l-7.743 6.469s1.738 1.952-.201 4.661l.925.69s1.514-2.062 4.588-.476l6.642-7.485c.112-.134-.068-.312-.201-.199zM.713 218.757c-.682 1.026-.551 3.128 0 3.359.549.234 2.82.187 3.294-.188.311-.246 5.164-6.347 8.426-10.467l-2.319-.643c-3.931 3.176-8.99 7.315-9.401 7.939zM19.583 236.143c-2.169-1.706-4.503-2.54-6.97-2.511-1.46-.057-2.966.188-4.518.761-4.017 1.515-5.766 5.386-4.728 9.215.428 1.513 1.183 2.886 1.892 4.301.206.429.458.718.739.896.619.918 1.515.956 2.526.199.757-.619 1.136-1.372 1.373-2.318 1.888.234 3.447-.521 4.821-1.653.188-.146.469-.189.705-.236 1.656-.331 3.218-.944 4.535-2.033 1.024-.839 1.503-1.904 1.411-3.022a3.43 3.43 0 0 0-.227-1.521 5.151 5.151 0 0 0-1.559-2.078zm-13.662 4.391c.209.467.489.827.847 1.069.318.433.74.712 1.277.817-.076.361-.153.717-.187 1.046-.048.709.237 1.324.565 1.938a.923.923 0 0 1 .142.709c-.188.85-.612 1.514-1.37 1.938-.063.031-.114.044-.171.064a.867.867 0 0 1-.343-.351c-.238-.328-.379-.66-.52-.989-.474-.899-.995-1.843-1.324-2.789a7.66 7.66 0 0 1-.449-2.347c.103-2.599 1.619-4.999 4.56-6.106.342-.106.682-.198 1.017-.29-.146.432-.287.857-.407 1.277-.142.473 0 .946.19 1.418.142.379.283.8.33 1.18.076 1.08-.734 1.943-1.727 2.081-.101-.013-.201-.018-.302-.047-.47-.142-.753-.476-.943-.946-.096-.285-.237-.518-.566-.377-.054.022-.078.057-.108.089-.093-.115-.219-.173-.416-.089-.332.143-.191.471-.095.705zm4.518 4.895c-.118-.007-.234-.008-.355-.024a1.101 1.101 0 0 1-.379-.235 2.543 2.543 0 0 1-.578-1.418 2.86 2.86 0 0 1 .482-1.316.7.7 0 0 1 .333-.286c1.04-.473 1.463-1.323 1.463-2.411v-.329c.571.228 1.153.3 1.734.299-1.052 1.01-.889 2.76.341 3.807.024.024.058.043.088.063.071.092.16.174.244.259-.996.87-2.088 1.511-3.373 1.591zm8.477-3.76c-1.046.914-2.23 1.548-3.624 1.681-.677-.119-1.105-.656-1.428-1.301a1.63 1.63 0 0 1-.141-.419c.073-.35.282-.663.566-.947.19-.188.331-.38.143-.612-.012-.015-.024-.017-.036-.029.108-.131.155-.271.071-.428l.532-.064c.708-.094 1.419-.045 2.03.471.098.097.333 0 .519-.042 0-.138-.002-.399-.081-.505.027-.007.056-.016.081-.021 0-.141 0-.43-.09-.52-.617-.569-1.43-.647-2.225-.617a6.502 6.502 0 0 0-.712.003c-.582.055-1.163.147-1.753.167a3.87 3.87 0 0 1-.747-.124c-.642-.186-1.028-.649-1.114-1.213.264-1.683 1.432-2.367 3.289-2.088a9.503 9.503 0 0 1 5.009 2.364l.001.001c1.223 1.51 1.171 2.971-.29 4.243zm7.798 6.9c.074-.264.036-.568-.139-.896a8.77 8.77 0 0 0-.804-1.089c-1.04-1.181-1.464-2.507-1.464-4.063 0-1.183-.045-2.364-.234-3.544-.473-2.885-1.986-5.063-4.586-6.334-2.37-1.172-4.836-1.707-7.337-1.619a15.75 15.75 0 0 0-4.862.77c-5.386 1.7-8.315 7.277-6.567 12.804.475 1.657 1.231 3.166 1.891 4.727 2.222 5.012 2.409 6.05 2.456 9.973 0 .236.048.804.145.804.095.633.431 1.448 1.119 1.965.384.52.964.942 1.814 1.017.046 0 .096.095.191.095 1.843 0 8.456-1.513 8.646-3.26v-.049a4.85 4.85 0 0 0-.048-.334c.015-.048.043-.095.048-.144v-.047c0-.047-.096-.706-.234-1.229 0-.018-.005-.034-.006-.052.097-.439.495-.587 1.231-.463.899.143 1.752.284 2.651.427 1.558.236 2.311-.332 2.408-1.94v-.329c-.046-.518.094-.993.519-1.37.397-.356.607-.784.502-1.275a1.11 1.11 0 0 0-.048-.698c.009-.019.008-.041.02-.059.276-.43.408-.859.327-1.303a1.453 1.453 0 0 0-.077-.796c.271-.072.523-.145.74-.217.334-.096.664-.139.994-.235.578-.233.836-.691.704-1.237zm-2.457 0c-.428.142-.896.284-1.273.52-.476.287-.524.807-.24 1.229.187.332.187.566 0 .853-.284.425-.378.85-.192 1.366.053.144-.043.477-.186.568-.66.568-.849 1.279-.849 2.08 0 .854-.129 1.282-.694 1.369-.107-.012-.214-.023-.34-.046a33.192 33.192 0 0 0-2.978-.426 3.535 3.535 0 0 0-.59-.003c-1.084-.074-1.497.215-1.639 1.188a1.24 1.24 0 0 0-.096.802l.096.282c.047.333.093.665.093.806-.3.732-5.092 2.291-7.288 2.413l-.031-.001c-1.039-.094-1.464-.995-1.556-1.372a6.572 6.572 0 0 1-.192-.945c-.095-1.23-.046-2.458-.188-3.688-.19-1.796-.897-3.403-1.608-5.008-.754-1.799-1.652-3.594-2.313-5.437-.431-1.258-.638-2.475-.646-3.654.104-2.121.931-4.107 2.581-5.933 1.466-1.559 3.309-2.456 5.339-2.836 3.169-.613 6.239-.285 9.172.991a7.886 7.886 0 0 1 2.193 1.395c.99 1.1 1.616 2.483 1.864 4.132.141.943.231 1.938.187 2.879-.096 1.939.425 3.643 1.747 5.106.289.282.476.613.808 1.087-.517.143-.853.193-1.181.283zM26.107 286.692c-.2-.46-.451-.89-.754-1.284v-9.011c0-.65-.516-1.223-1.148-1.223H2.855c-.67 0-1.175.55-1.175 1.223v9.037a6.415 6.415 0 0 0-.742 1.256c-.461 1.035-.692 2.278-.692 3.688v4.313c0 .214.172.383.384.383h2.59a.383.383 0 0 0 .384-.383v-1.521H23.42v1.521c0 .214.171.383.384.383h2.59a.38.38 0 0 0 .382-.383l.01-3.929v-.385c-.001-1.408-.228-2.651-.679-3.685zM3.03 277.075c0-.243.161-.412.403-.412h20.273c.237 0 .382.21.382.412v7.735c-.033-.026-.064-.055-.098-.081-.258-.214-.775-.398-1.049-.548v-1.634c0-1.606-.678-2.291-2.275-2.291h-5.237c-.931 0-1.553.229-1.912.729-.357-.501-.979-.729-1.908-.729H6.245c-1.596 0-2.152.685-2.152 2.291v1.651c-.236.132-.713.29-.981.47H3.03v-7.593zm18.895 5.668v.641c-.636-.242-1.232-.342-1.67-.342h-6.146v-.319c0-1.162.341-1.292 1.525-1.292h4.782c1.172 0 1.509.132 1.509 1.312zm-9.039.023v.235H6.579c-.363 0-.778.09-1.472.361v-.577c0-1.18.174-1.354 1.343-1.354h4.951c1.182 0 1.485.168 1.485 1.335zm-9.733 3.258c.908-1.124 1.757-1.37 2.825-1.492l7.442-.213c1.996 0 7.565.213 7.565.213 1.381.122 2.003.699 2.419 1.076 1.268 1.148 1.597 1.79 1.918 3.977H1.738c0-1.704 1.277-3.394 1.415-3.561zm22.276 7.867h-.91v-1.605a.363.363 0 0 0-.115-.27.36.36 0 0 0-.269-.115H2.849a.381.381 0 0 0-.385.384v1.605h-.826v-3.128H25.44l-.011 3.129zM26.235 26.667l-5.529-5.42.008-2.448c0-.477-.194-.934-.536-1.268L7.602 5.192a1.844 1.844 0 0 0-1.29-.523c-.468 0-.936.174-1.293.523L.785 9.347a1.775 1.775 0 0 0-.535 1.267c0 .474.19.93.535 1.265L13.36 24.215c.345.336.808.526 1.292.526h.004l2.495-.004 5.525 5.42c.341.334.807.522 1.292.522.484 0 .949-.188 1.294-.525l.974-.955a1.776 1.776 0 0 0-.001-2.532zm-8.327-3.723l-3.257.005L2.077 10.614 6.312 6.46 8.15 8.265l-.477.468a.53.53 0 0 0 0 .762.539.539 0 0 0 .384.154.553.553 0 0 0 .39-.153l.477-.47 2.14 2.096-.478.471a.529.529 0 0 0 0 .759.547.547 0 0 0 .773 0l.48-.47 2.139 2.096-.479.471a.528.528 0 0 0 0 .76.55.55 0 0 0 .772 0l.48-.47 2.136 2.099-.476.467a.53.53 0 0 0 0 .762.542.542 0 0 0 .385.158.546.546 0 0 0 .388-.158l.479-.471 1.223 1.201-.005 3.192 3.112 3.057-.973.953-3.112-3.055zm6.06 5.945l-2.173-2.131.975-.956 2.173 2.132-.975.955zM6.688 10.224a.559.559 0 0 0-.776 0 .537.537 0 0 0 0 .761l9.374 9.193c.108.107.25.161.391.161.14 0 .279-.054.386-.161a.524.524 0 0 0 0-.756l-9.375-9.198z"/></svg>