<?xml version="1.0" encoding="utf-8"?>
<!-- Generator: Adobe Illustrator 16.0.0, SVG Export Plug-In . SVG Version: 6.00 Build 0)  -->
<!DOCTYPE svg PUBLIC "-//W3C//DTD SVG 1.1//EN" "http://www.w3.org/Graphics/SVG/1.1/DTD/svg11.dtd">
<svg version="1.1" id="图层_1" xmlns="http://www.w3.org/2000/svg" xmlns:xlink="http://www.w3.org/1999/xlink" x="0px" y="0px"
	 width="40px" height="40px" viewBox="0 0 40 40" enable-background="new 0 0 40 40" xml:space="preserve">
<g>
	
		<linearGradient id="SVGID_1_" gradientUnits="userSpaceOnUse" x1="292.6953" y1="-243.9595" x2="292.6953" y2="-203.96" gradientTransform="matrix(1 0 0 -1 -272.6602 -203.96)">
		<stop  offset="0" style="stop-color:#E37452"/>
		<stop  offset="0.1189" style="stop-color:#E68462"/>
		<stop  offset="0.3291" style="stop-color:#EB9A7C"/>
		<stop  offset="0.5441" style="stop-color:#EEAB8F"/>
		<stop  offset="0.7649" style="stop-color:#F0B59C"/>
		<stop  offset="1" style="stop-color:#F1B7A0"/>
	</linearGradient>
	<circle fill="url(#SVGID_1_)" cx="20.035" cy="20" r="20"/>
	<path fill="#FFFFFF" d="M18.104,24.5c0.014,0,0.027,0,0.042,0.002h0.292V24.5c0.491,0,0.898-0.378,0.972-0.873
		c0-0.005,0-0.008,0.001-0.013l0.009-0.102l0.572-6.656c0-0.878-0.68-1.591-1.517-1.591h-7.663c-0.838,0-1.517,0.713-1.517,1.591
		l0.568,6.607l0.017,0.197c0.085,0.478,0.485,0.839,0.966,0.839v0.002h0.297c0.013-0.002,0.028-0.002,0.042-0.002
		c0.014,0,0.028,0,0.041,0.002c0.313,0.02,0.564,0.269,0.607,0.589c0.005,0.029,0.006,0.06,0.008,0.091l0.525,6.919l0.012,0.155
		c0.073,0.492,0.481,0.871,0.97,0.871h2.592c0.483,0,0.884-0.367,0.967-0.849l0.014-0.202l0.525-6.907
		c0-0.023,0.003-0.046,0.006-0.067c0.039-0.326,0.294-0.581,0.609-0.602C18.077,24.5,18.091,24.5,18.104,24.5L18.104,24.5z
		 M14.644,13.919c1.853,0,3.356-1.579,3.356-3.523c0-1.945-1.503-3.522-3.356-3.522s-3.355,1.577-3.355,3.522
		C11.289,12.34,12.791,13.919,14.644,13.919L14.644,13.919z M23.819,14.513c-1.198,0-2.325,0.306-3.31,0.844
		c0,0,0.45,0.462,0.356,1.437c0.867-0.553,1.894-0.876,2.995-0.876c3.099,0,5.611,2.536,5.611,5.664s-2.513,5.664-5.611,5.664
		c-1.771,0-3.353-0.831-4.381-2.128c0,0-0.147,0.361-1.421,0.361c1.251,1.86,3.365,3.084,5.761,3.084
		c3.842,0,6.956-3.146,6.956-7.025C30.775,17.658,27.662,14.513,23.819,14.513L23.819,14.513z M24.601,17.938h-0.956
		c-0.479,0-0.869,0.393-0.869,0.877v1.493h-1.392c-0.479,0-0.869,0.394-0.869,0.878v0.966c0,0.486,0.39,0.879,0.869,0.879h1.392
		v1.316c0,0.484,0.39,0.879,0.869,0.879h0.956c0.481,0,0.87-0.394,0.87-0.879V23.03h1.393c0.479,0,0.869-0.392,0.869-0.879v-0.966
		c0-0.483-0.39-0.878-0.869-0.878h-1.393v-1.493C25.471,18.33,25.082,17.938,24.601,17.938L24.601,17.938z"/>
</g>
</svg>
