<?xml version="1.0" encoding="utf-8"?>
<!-- Generator: Adobe Illustrator 16.0.0, SVG Export Plug-In . SVG Version: 6.00 Build 0)  -->
<!DOCTYPE svg PUBLIC "-//W3C//DTD SVG 1.1//EN" "http://www.w3.org/Graphics/SVG/1.1/DTD/svg11.dtd">
<svg version="1.1" id="图层_1" xmlns="http://www.w3.org/2000/svg" xmlns:xlink="http://www.w3.org/1999/xlink" x="0px" y="0px"
	 width="40px" height="40px" viewBox="0 0 40 40" enable-background="new 0 0 40 40" xml:space="preserve">
<g>
	
		<linearGradient id="SVGID_1_" gradientUnits="userSpaceOnUse" x1="292.6953" y1="-243.9595" x2="292.6953" y2="-203.96" gradientTransform="matrix(1 0 0 -1 -272.6602 -203.96)">
		<stop  offset="0" style="stop-color:#6590C5"/>
		<stop  offset="0.165" style="stop-color:#759ECE"/>
		<stop  offset="0.4397" style="stop-color:#89B1D9"/>
		<stop  offset="0.7173" style="stop-color:#95BDE0"/>
		<stop  offset="1" style="stop-color:#99C0E2"/>
	</linearGradient>
	<circle fill="url(#SVGID_1_)" cx="20.035" cy="20" r="20"/>
	<g>
		<g>
			<path fill="#FFFFFF" d="M18.899,25.232c0.386,0,0.698-0.316,0.698-0.712v-1.484h1.448c0.388,0,0.7-0.319,0.7-0.713
				c0-0.395-0.313-0.712-0.7-0.712h-1.448v-1.478c0-0.394-0.312-0.714-0.698-0.714c-0.386,0-0.699,0.319-0.699,0.714v1.478h-1.455
				c-0.386,0-0.698,0.317-0.698,0.712c0,0.394,0.312,0.713,0.698,0.713h1.455v1.484C18.201,24.914,18.514,25.232,18.899,25.232z
				 M30.965,26.388l-1.234-1.362l-0.354-0.388c0-0.018,0.012-0.031,0.012-0.049v-7.641c0-1.907-1.538-3.456-3.423-3.456H22.92
				c-0.069-2.123-1.775-3.834-3.875-3.834c-2.099,0-3.806,1.707-3.874,3.834h-3.249c-1.886,0-3.423,1.55-3.423,3.456v9.775
				c0,1.906,1.538,3.45,3.423,3.45h13.834c0.411,0,0.744-0.337,0.75-0.755c0.005-0.425-0.332-0.772-0.75-0.772H11.926
				c-1.063,0-1.927-0.865-1.927-1.926v-9.772c0-1.063,0.864-1.927,1.927-1.927h3.236v0.414c0,0.419,0.316,0.783,0.725,0.797
				c0.425,0.015,0.774-0.332,0.774-0.766v-0.445h4.776v0.414c0,0.419,0.315,0.783,0.726,0.797c0.425,0.015,0.773-0.332,0.773-0.766
				v-0.445h3.032c1.062,0,1.927,0.864,1.927,1.927v6.05l-0.525-0.578c-0.41-0.453-0.974-0.716-1.581-0.738
				c-0.614-0.016-1.188,0.191-1.631,0.61L24.1,22.349c-0.445,0.416-0.703,0.991-0.727,1.61s0.19,1.211,0.602,1.668l1.291,1.426
				l2.476,2.697c0.391,0.353,0.883,0.567,1.413,0.587c0.029,0,0.061,0.005,0.09,0.005c0.574,0,1.12-0.219,1.544-0.616l0.058-0.056
				c0.444-0.417,0.702-0.992,0.726-1.613C31.588,27.433,31.374,26.841,30.965,26.388z M16.671,13.492
				c0.067-1.283,1.102-2.307,2.374-2.307c1.276,0,2.311,1.027,2.375,2.307H16.671z M25.065,24.589
				c-0.138-0.154-0.213-0.356-0.204-0.57c0.008-0.215,0.096-0.407,0.249-0.551l0.058-0.054c0.151-0.143,0.346-0.219,0.56-0.209
				c0.21,0.008,0.399,0.098,0.539,0.251l1.292,1.422l-1.2,1.132L25.065,24.589z M29.824,28.547l-0.057,0.055
				c-0.152,0.143-0.35,0.219-0.561,0.208c-0.209-0.007-0.4-0.097-0.542-0.251l-1.234-1.364l1.2-1.13l1.234,1.363
				c0.14,0.153,0.214,0.354,0.204,0.57C30.062,28.208,29.975,28.404,29.824,28.547z"/>
		</g>
	</g>
</g>
</svg>
