<?xml version="1.0" encoding="utf-8"?>
<!-- Generator: Adobe Illustrator 16.0.0, SVG Export Plug-In . SVG Version: 6.00 Build 0)  -->
<!DOCTYPE svg PUBLIC "-//W3C//DTD SVG 1.1//EN" "http://www.w3.org/Graphics/SVG/1.1/DTD/svg11.dtd">
<svg version="1.1" id="图层_1" xmlns="http://www.w3.org/2000/svg" xmlns:xlink="http://www.w3.org/1999/xlink" x="0px" y="0px"
	 width="40px" height="40px" viewBox="0 0 40 40" enable-background="new 0 0 40 40" xml:space="preserve">
<g>
	
		<linearGradient id="SVGID_1_" gradientUnits="userSpaceOnUse" x1="292.6953" y1="-243.9595" x2="292.6953" y2="-203.96" gradientTransform="matrix(1 0 0 -1 -272.6602 -203.96)">
		<stop  offset="0" style="stop-color:#E79A3E"/>
		<stop  offset="0.0916" style="stop-color:#E9A24B"/>
		<stop  offset="0.3152" style="stop-color:#EBB265"/>
		<stop  offset="0.541" style="stop-color:#EDBD78"/>
		<stop  offset="0.7684" style="stop-color:#EEC584"/>
		<stop  offset="1" style="stop-color:#F0C788"/>
	</linearGradient>
	<path fill="url(#SVGID_1_)" d="M40.035,20c0,11.045-8.956,20-19.998,20C8.989,40,0.035,31.045,0.035,20
		c0-11.046,8.954-20,20.002-20C31.079,0,40.035,8.954,40.035,20z"/>
	<g>
		<g>
			<path fill="#FFFFFF" d="M27.204,7.392c-3.752-0.651-7.184,2.166-7.184,2.166s-3.222-3.573-8.611-1.787
				C6.02,9.558,5.228,16.866,8.292,20.927c0.686,0.907,1.678,1.978,2.803,3.089L9.94,25.221c-0.263,0.274-0.271,0.704-0.018,0.959
				l2.603,2.615c0.252,0.255,0.672,0.239,0.936-0.037l2.621-2.739c0.264-0.274,0.272-0.704,0.018-0.959l-2.602-2.616
				c-0.252-0.253-0.672-0.238-0.935,0.038l-0.314,0.325c-0.92-0.885-1.737-1.74-2.32-2.477c-2.715-3.426-2.48-9.398,2.296-10.905
				c4.775-1.508,7.69,2.46,7.69,2.46s3.277-3.473,6.601-2.923c7.767,1.407,5.073,9.527,3.435,11.151
				c-0.25,0.348-3.746,3.849-6.439,6.533c-0.549-0.417-1.225-0.669-1.961-0.669c-1.816,0-3.291,1.513-3.291,3.375
				c0,1.864,1.474,3.376,3.291,3.376c1.818,0,3.294-1.512,3.294-3.376c0-0.479-0.099-0.935-0.275-1.347
				c3.203-3.338,7.169-7.492,7.442-7.892C33.545,18.761,36.08,8.908,27.204,7.392z M12.72,23.654c0.164-0.17,0.426-0.182,0.586-0.02
				l1.636,1.645c0.159,0.161,0.155,0.429-0.008,0.601l-1.632,1.704c-0.164,0.172-0.427,0.183-0.586,0.021l-1.636-1.646
				c-0.159-0.16-0.156-0.428,0.008-0.6L12.72,23.654z M21.657,31.284c-1.002,0-1.813-0.833-1.813-1.859s0.811-1.859,1.813-1.859
				c1.001,0,1.813,0.833,1.813,1.859S22.658,31.284,21.657,31.284z M24.819,21.856l0.597-1.108C24.254,19.313,22.5,18.4,20.539,18.4
				c-2.062,0-3.894,1.009-5.051,2.571l0.675,1.031c0.929-1.471,2.541-2.446,4.377-2.446C22.313,19.557,23.879,20.468,24.819,21.856z
				 M23.074,24.146l0.381-0.707c-0.743-0.918-1.863-1.502-3.116-1.502c-1.319,0-2.489,0.646-3.23,1.644l0.432,0.659
				c0.594-0.938,1.623-1.563,2.799-1.563C21.471,22.677,22.473,23.26,23.074,24.146z"/>
		</g>
	</g>
</g>
</svg>
