<?xml version="1.0" encoding="utf-8"?>
<!-- Generator: Adobe Illustrator 16.0.0, SVG Export Plug-In . SVG Version: 6.00 Build 0)  -->
<!DOCTYPE svg PUBLIC "-//W3C//DTD SVG 1.1//EN" "http://www.w3.org/Graphics/SVG/1.1/DTD/svg11.dtd">
<svg version="1.1" id="图层_1" xmlns="http://www.w3.org/2000/svg" xmlns:xlink="http://www.w3.org/1999/xlink" x="0px" y="0px"
	 width="40px" height="40px" viewBox="0 0 40 40" enable-background="new 0 0 40 40" xml:space="preserve">
<g>
	
		<linearGradient id="SVGID_1_" gradientUnits="userSpaceOnUse" x1="292.6934" y1="-243.9604" x2="292.6934" y2="-203.9609" gradientTransform="matrix(1 0 0 -1 -272.6602 -203.96)">
		<stop  offset="0" style="stop-color:#E37452"/>
		<stop  offset="0.1189" style="stop-color:#E68462"/>
		<stop  offset="0.3291" style="stop-color:#EB9A7C"/>
		<stop  offset="0.5441" style="stop-color:#EEAB8F"/>
		<stop  offset="0.7649" style="stop-color:#F0B59C"/>
		<stop  offset="1" style="stop-color:#F1B7A0"/>
	</linearGradient>
	<circle fill="url(#SVGID_1_)" cx="20.033" cy="20.001" r="20"/>
	<path fill="#F3E2E0" d="M20.017,7.271c3.815,0,6.948,3.164,6.948,6.976c0,1.904-0.792,3.667-2.016,4.926l-0.036,0.037
		c1.331,1.365,2.88,2.624,3.636,4.422c0.361,0.863,0.541,1.797,0.577,2.805h2.23c0.577,0,1.009,0.468,1.009,1.008
		c0,0.539-0.432,1.006-1.009,1.006h-0.684v3.271c0,0.576-0.467,1.008-1.008,1.008c-0.575,0-1.009-0.467-1.009-1.008V28.45H11.447
		v3.271c0,0.576-0.468,1.008-1.008,1.008c-0.576,0-1.008-0.467-1.008-1.008V28.45H8.71c-0.54,0-1.008-0.467-1.008-1.006
		c0-0.576,0.468-1.008,1.008-1.008h2.233c0-1.008,0.217-1.941,0.577-2.805c0.755-1.798,2.267-3.057,3.636-4.423l-0.072-0.072
		c-1.333-1.294-2.051-3.091-2.051-4.926C13.067,10.398,16.2,7.271,20.017,7.271z M27.036,26.437c0-0.719-0.144-1.402-0.396-2.051
		c-0.648-1.509-2.305-2.876-3.42-3.99c-0.974,0.504-2.053,0.791-3.204,0.791c-1.152,0-2.233-0.287-3.205-0.791
		c-1.152,1.15-2.772,2.445-3.42,3.99c-0.253,0.612-0.396,1.296-0.396,2.051H27.036z M20.017,9.32c-2.701,0-4.933,2.229-4.933,4.927
		c0,2.732,2.232,4.925,4.933,4.925c2.699,0,4.933-2.157,4.933-4.925C24.949,11.515,22.752,9.32,20.017,9.32z"/>
</g>
</svg>
