<?xml version="1.0" encoding="utf-8"?>
<!-- Generator: Adobe Illustrator 16.0.0, SVG Export Plug-In . SVG Version: 6.00 Build 0)  -->
<!DOCTYPE svg PUBLIC "-//W3C//DTD SVG 1.1//EN" "http://www.w3.org/Graphics/SVG/1.1/DTD/svg11.dtd">
<svg version="1.1" xmlns="http://www.w3.org/2000/svg" xmlns:xlink="http://www.w3.org/1999/xlink" x="0px" y="0px" width="40px"
	 height="40px" viewBox="0 0 40 40" enable-background="new 0 0 40 40" xml:space="preserve">
<g id="图层_2" display="none">
</g>
<g id="图层_1" display="none">
	<g display="inline">
		
			<linearGradient id="SVGID_1_" gradientUnits="userSpaceOnUse" x1="292.6602" y1="-243.9595" x2="292.6602" y2="-203.96" gradientTransform="matrix(1 0 0 -1 -272.6602 -203.96)">
			<stop  offset="0" style="stop-color:#63B586"/>
			<stop  offset="0.1753" style="stop-color:#78BD8C"/>
			<stop  offset="0.439" style="stop-color:#8FC593"/>
			<stop  offset="0.7106" style="stop-color:#9BCA97"/>
			<stop  offset="1" style="stop-color:#A0CB99"/>
		</linearGradient>
		<circle fill="url(#SVGID_1_)" cx="20" cy="20" r="20"/>
		<g>
			<g>
				<path fill="#FFFFFF" d="M24.895,11.858h2.648c0.432,0,0.811-0.367,0.811-0.786c0-0.419-0.322-0.786-0.811-0.786h-2.648
					c-0.434,0-0.811,0.367-0.811,0.786C24.084,11.491,24.461,11.858,24.895,11.858z M27.543,13.429h-2.648
					c-0.434,0-0.811,0.367-0.811,0.785c0,0.418,0.377,0.785,0.811,0.785h2.648c0.432,0,0.811-0.367,0.811-0.785
					C28.354,13.795,28.029,13.429,27.543,13.429z M22.732,18.874v-7.645c0-1.99-1.786-3.561-3.786-3.561s-3.785,1.57-3.785,3.561
					v6.388c0,0.419,0.379,0.786,0.811,0.786s0.812-0.367,0.812-0.786v-6.388c0-1.099,1.027-1.99,2.163-1.99
					c1.135,0,2.164,0.891,2.164,1.99v8.117c0,0.314,0.107,0.575,0.379,0.68c1.945,0.943,3.135,2.88,3.135,5.027
					c0.053,3.141-2.541,5.654-5.677,5.654c-3.136,0-5.678-2.514-5.678-5.602c0-1.834,0.919-3.508,2.379-4.554
					c0.379-0.262,0.433-0.734,0.163-1.102c-0.271-0.365-0.757-0.418-1.136-0.156c-1.892,1.361-3.028,3.507-3.028,5.865
					c0,3.98,3.245,7.174,7.3,7.174c4.056,0,7.353-3.193,7.353-7.174C26.299,22.486,24.895,20.131,22.732,18.874z M27.543,16.57
					h-2.648c-0.434,0-0.811,0.366-0.811,0.786c0,0.419,0.377,0.785,0.811,0.785h2.648c0.432,0,0.811-0.366,0.811-0.785
					C28.354,16.937,28.029,16.57,27.543,16.57z"/>
			</g>
		</g>
	</g>
</g>
<g id="图层_3" display="none">
	<g display="inline">
		
			<linearGradient id="SVGID_2_" gradientUnits="userSpaceOnUse" x1="292.6602" y1="-243.9585" x2="292.6602" y2="-203.9585" gradientTransform="matrix(1 0 0 -1 -272.6602 -203.96)">
			<stop  offset="0" style="stop-color:#E37452"/>
			<stop  offset="0.1189" style="stop-color:#E68462"/>
			<stop  offset="0.3291" style="stop-color:#EB9A7C"/>
			<stop  offset="0.5441" style="stop-color:#EEAB8F"/>
			<stop  offset="0.7649" style="stop-color:#F0B59C"/>
			<stop  offset="1" style="stop-color:#F1B7A0"/>
		</linearGradient>
		<circle fill="url(#SVGID_2_)" cx="20" cy="19.999" r="20"/>
		<g>
			<g>
				<path fill="#FFFFFF" d="M31.188,18.07H14.615l16.353-5.334c0.392-0.127,0.609-0.561,0.485-0.966
					c-0.123-0.405-0.547-0.637-0.936-0.502L9.771,18.035c-0.023,0.007-0.039,0.026-0.062,0.035H8.813
					c-0.413,0-0.746,0.345-0.746,0.771v4.494c0,0.207,0.071,4.959,6.147,6.965v1.26c0,0.424,0.334,0.77,0.747,0.77h10.081
					c0.413,0,0.746-0.346,0.746-0.77V30.3c6.077-2.004,6.149-6.758,6.149-6.965v-4.494C31.935,18.416,31.601,18.07,31.188,18.07z
					 M30.442,23.331c-0.003,0.166-0.119,4.084-5.602,5.65c-0.322,0.094-0.547,0.396-0.547,0.742v1.064h-8.589v-1.063
					c0-0.348-0.224-0.65-0.545-0.742c-5.483-1.568-5.599-5.486-5.602-5.648v-3.723h20.885V23.331z M11.738,22.694h16.374
					c0.412,0,0.747-0.346,0.747-0.77c0-0.428-0.335-0.771-0.747-0.771H11.738c-0.413,0-0.747,0.346-0.747,0.771
					C10.991,22.349,11.325,22.694,11.738,22.694z M8.906,15.979c0.075,0,0.15-0.011,0.224-0.036l20.747-6.769
					c0.394-0.128,0.61-0.561,0.487-0.966c-0.127-0.407-0.546-0.636-0.936-0.503l-20.748,6.77c-0.394,0.127-0.611,0.561-0.486,0.966
					C8.295,15.768,8.587,15.979,8.906,15.979z"/>
			</g>
		</g>
	</g>
</g>
<g id="图层_4">
	<g>
		
			<linearGradient id="SVGID_3_" gradientUnits="userSpaceOnUse" x1="292.6602" y1="-243.9595" x2="292.6602" y2="-203.96" gradientTransform="matrix(1 0 0 -1 -272.6602 -203.96)">
			<stop  offset="0" style="stop-color:#389BCE"/>
			<stop  offset="0.0602" style="stop-color:#48A0D2"/>
			<stop  offset="0.2915" style="stop-color:#6EB4DE"/>
			<stop  offset="0.5252" style="stop-color:#85C3E5"/>
			<stop  offset="0.7604" style="stop-color:#93CDEA"/>
			<stop  offset="1" style="stop-color:#98CFEC"/>
		</linearGradient>
		<circle fill="url(#SVGID_3_)" cx="20" cy="20" r="20"/>
		<path fill="#FFFFFF" d="M20.167,12.042c2.022,0,3.67-1.605,3.67-3.579c-0.001-1.974-1.647-3.58-3.67-3.58
			c-2.023,0-3.669,1.606-3.669,3.58C16.498,10.437,18.144,12.042,20.167,12.042z M20.167,6.145c1.311,0,2.376,1.04,2.376,2.317
			s-1.064,2.316-2.376,2.316c-1.311,0-2.377-1.04-2.377-2.316C17.79,7.185,18.856,6.145,20.167,6.145z M29.233,32.411l-6.153-8.669
			v-4.178l1.164,1.135c0.05,0.049,0.105,0.089,0.168,0.118l1.803,0.88c0.256,0.125,0.537,0.189,0.818,0.189
			c0.238,0,0.476-0.044,0.699-0.137c0.492-0.198,0.867-0.593,1.036-1.083c0.284-0.837-0.108-1.767-0.916-2.163l-1.953-0.95
			l-2.928-4.283c-0.013-0.019-0.032-0.028-0.045-0.044c-0.027-0.033-0.057-0.061-0.09-0.087c-0.034-0.026-0.067-0.049-0.104-0.069
			c-0.035-0.019-0.069-0.032-0.106-0.042c-0.044-0.014-0.088-0.023-0.133-0.027c-0.021-0.001-0.039-0.012-0.06-0.012h-4.534
			c-0.151,0-0.298,0.051-0.415,0.146l-4.535,3.685c-0.068,0.056-0.123,0.125-0.163,0.203l-1.875,3.656
			c-0.377,0.732-0.07,1.627,0.683,1.997c0.687,0.336,1.594,0.076,1.988-0.565l1.752-2.848l1.918-0.936v5.511l-1.332,3.894h-3.69
			c-0.982,0-1.78,0.777-1.78,1.735c0,0.957,0.798,1.737,1.78,1.737h6.422c0.205,0,0.396-0.095,0.517-0.254l1.906-2.474l5.371,6.046
			c0.335,0.378,0.82,0.594,1.333,0.594c0.474,0,0.918-0.179,1.249-0.505C29.635,34.022,29.72,33.098,29.233,32.411z M23.08,15.703
			l1.84,2.69c0.061,0.09,0.149,0.165,0.249,0.213l2.105,1.026c0.235,0.115,0.353,0.389,0.267,0.634
			c-0.067,0.197-0.219,0.283-0.304,0.316c-0.082,0.037-0.254,0.079-0.443-0.014l-1.709-0.833l-2.005-1.954V15.703L23.08,15.703z
			 M18.332,29.942h-6.1c-0.269,0-0.485-0.213-0.485-0.475s0.217-0.474,0.485-0.474h4.156c0.279,0,0.525-0.176,0.614-0.432
			l1.152-3.373l2.056,2.313L18.332,29.942L18.332,29.942z M28.118,33.719c-0.091,0.088-0.21,0.135-0.338,0.135
			c-0.081,0-0.232-0.02-0.356-0.159l-8.878-9.99v-6.4c0-0.217-0.117-0.421-0.308-0.536c-0.19-0.115-0.429-0.125-0.628-0.028
			l-3.022,1.475c-0.111,0.054-0.203,0.138-0.266,0.24l-1.851,3.005c-0.077,0.127-0.211,0.129-0.3,0.088
			c-0.114-0.055-0.16-0.192-0.103-0.303l1.814-3.538l4.25-3.454h3.653v9.687c0,0.129,0.04,0.253,0.115,0.36l6.271,8.829
			C28.303,33.314,28.279,33.562,28.118,33.719L28.118,33.719z"/>
	</g>
</g>
</svg>
