<?xml version="1.0" encoding="utf-8"?>
<!-- Generator: Adobe Illustrator 16.0.0, SVG Export Plug-In . SVG Version: 6.00 Build 0)  -->
<!DOCTYPE svg PUBLIC "-//W3C//DTD SVG 1.1//EN" "http://www.w3.org/Graphics/SVG/1.1/DTD/svg11.dtd">
<svg version="1.1" xmlns="http://www.w3.org/2000/svg" xmlns:xlink="http://www.w3.org/1999/xlink" x="0px" y="0px" width="40px"
	 height="40px" viewBox="0 0 40 40" enable-background="new 0 0 40 40" xml:space="preserve">
<g id="图层_2" display="none">
</g>
<g id="图层_1" display="none">
	<g display="inline">
		
			<linearGradient id="SVGID_1_" gradientUnits="userSpaceOnUse" x1="292.6602" y1="-243.9595" x2="292.6602" y2="-203.96" gradientTransform="matrix(1 0 0 -1 -272.6602 -203.96)">
			<stop  offset="0" style="stop-color:#63B586"/>
			<stop  offset="0.1753" style="stop-color:#78BD8C"/>
			<stop  offset="0.439" style="stop-color:#8FC593"/>
			<stop  offset="0.7106" style="stop-color:#9BCA97"/>
			<stop  offset="1" style="stop-color:#A0CB99"/>
		</linearGradient>
		<circle fill="url(#SVGID_1_)" cx="20" cy="20" r="20"/>
		<g>
			<g>
				<path fill="#FFFFFF" d="M24.895,11.858h2.648c0.432,0,0.811-0.367,0.811-0.786c0-0.419-0.322-0.786-0.811-0.786h-2.648
					c-0.434,0-0.811,0.367-0.811,0.786C24.084,11.491,24.461,11.858,24.895,11.858z M27.543,13.429h-2.648
					c-0.434,0-0.811,0.367-0.811,0.785c0,0.418,0.377,0.785,0.811,0.785h2.648c0.432,0,0.811-0.367,0.811-0.785
					C28.354,13.795,28.029,13.429,27.543,13.429z M22.732,18.874v-7.645c0-1.99-1.786-3.561-3.786-3.561s-3.785,1.57-3.785,3.561
					v6.388c0,0.419,0.379,0.786,0.811,0.786s0.812-0.367,0.812-0.786v-6.388c0-1.099,1.027-1.99,2.163-1.99
					c1.135,0,2.164,0.891,2.164,1.99v8.117c0,0.314,0.107,0.575,0.379,0.68c1.945,0.943,3.135,2.88,3.135,5.027
					c0.053,3.141-2.541,5.654-5.677,5.654c-3.136,0-5.678-2.514-5.678-5.602c0-1.834,0.919-3.508,2.379-4.554
					c0.379-0.262,0.433-0.734,0.163-1.102c-0.271-0.365-0.757-0.418-1.136-0.156c-1.892,1.361-3.028,3.507-3.028,5.865
					c0,3.98,3.245,7.174,7.3,7.174c4.056,0,7.353-3.193,7.353-7.174C26.299,22.486,24.895,20.131,22.732,18.874z M27.543,16.57
					h-2.648c-0.434,0-0.811,0.366-0.811,0.786c0,0.419,0.377,0.785,0.811,0.785h2.648c0.432,0,0.811-0.366,0.811-0.785
					C28.354,16.937,28.029,16.57,27.543,16.57z"/>
			</g>
		</g>
	</g>
</g>
<g id="图层_3">
	<g>
		
			<linearGradient id="SVGID_2_" gradientUnits="userSpaceOnUse" x1="292.6602" y1="-243.9585" x2="292.6602" y2="-203.9585" gradientTransform="matrix(1 0 0 -1 -272.6602 -203.96)">
			<stop  offset="0" style="stop-color:#E37452"/>
			<stop  offset="0.1189" style="stop-color:#E68462"/>
			<stop  offset="0.3291" style="stop-color:#EB9A7C"/>
			<stop  offset="0.5441" style="stop-color:#EEAB8F"/>
			<stop  offset="0.7649" style="stop-color:#F0B59C"/>
			<stop  offset="1" style="stop-color:#F1B7A0"/>
		</linearGradient>
		<circle fill="url(#SVGID_2_)" cx="20" cy="19.999" r="20"/>
		<g>
			<g>
				<path fill="#FFFFFF" d="M31.188,18.07H14.615l16.353-5.334c0.392-0.127,0.609-0.561,0.485-0.966
					c-0.123-0.405-0.547-0.637-0.936-0.502L9.771,18.035c-0.023,0.007-0.039,0.026-0.062,0.035H8.813
					c-0.413,0-0.746,0.345-0.746,0.771v4.494c0,0.207,0.071,4.959,6.147,6.965v1.26c0,0.424,0.334,0.77,0.747,0.77h10.081
					c0.413,0,0.746-0.346,0.746-0.77V30.3c6.077-2.004,6.149-6.758,6.149-6.965v-4.494C31.935,18.416,31.601,18.07,31.188,18.07z
					 M30.442,23.331c-0.003,0.166-0.119,4.084-5.602,5.65c-0.322,0.094-0.547,0.396-0.547,0.742v1.064h-8.589v-1.063
					c0-0.348-0.224-0.65-0.545-0.742c-5.483-1.568-5.599-5.486-5.602-5.648v-3.723h20.885V23.331z M11.738,22.694h16.374
					c0.412,0,0.747-0.346,0.747-0.77c0-0.428-0.335-0.771-0.747-0.771H11.738c-0.413,0-0.747,0.346-0.747,0.771
					C10.991,22.349,11.325,22.694,11.738,22.694z M8.906,15.979c0.075,0,0.15-0.011,0.224-0.036l20.747-6.769
					c0.394-0.128,0.61-0.561,0.487-0.966c-0.127-0.407-0.546-0.636-0.936-0.503l-20.748,6.77c-0.394,0.127-0.611,0.561-0.486,0.966
					C8.295,15.768,8.587,15.979,8.906,15.979z"/>
			</g>
		</g>
	</g>
</g>
</svg>
